<?xml version="1.0" encoding="UTF-8"?>
<!DOCTYPE svg  PUBLIC '-//W3C//DTD SVG 1.1//EN'  'http://www.w3.org/Graphics/SVG/1.1/DTD/svg11.dtd'>
<svg enable-background="new 479 -1 1602 1602" version="1.1" viewBox="479 -1 1602 1602" xml:space="preserve" xmlns="http://www.w3.org/2000/svg">
<rect x="480" width="1600" height="1600" fill="#00f"/>
<g fill="none" stroke="#fff" stroke-miterlimit="10" stroke-width="2">
	<path d="m1280 1520h155.24"/>
	<path d="m1828 1339.7c-24.269-60.006-48.538-120.01-72.808-180.02"/>
	<path d="m1755.2 1159.7c-24.269-60.006-48.538-120.01-72.807-180.02"/>
	<path d="m1168.8 259.66c-24.27 60.009-48.54 120.02-72.81 180.03"/>
	<path d="m1318.5 80h-9.6246"/>
	<path d="m1745.7 1520h-155.26"/>
	<path d="m1435.3 1520h155.12"/>
	<path d="m1096 439.68c-24.27 60.009-48.54 120.02-72.81 180.03"/>
	<path d="m1023.2 619.71c-24.27 60.009-48.54 120.02-72.81 180.03"/>
	<path d="m1900.9 1520c-24.3-60.084-48.601-120.17-72.901-180.25"/>
	<path d="m1280 80h-9.6246"/>
	<path d="m1299.2 80h-9.6246"/>
	<path d="m1289.6 80h-9.6246"/>
	<path d="m1682.4 979.71c-24.263-59.991-48.526-119.98-72.789-179.97"/>
	<path d="m1308.9 80h-9.6246"/>
	<path d="m1270.4 80h-9.6239"/>
	<path d="m1464 439.79c24.263 59.991 48.526 119.98 72.789 179.97"/>
	<path d="m1609.6 799.74c-24.263-59.991-48.526-119.98-72.789-179.97"/>
	<path d="m1251.1 80h9.6245"/>
	<path d="m1241.5 80c-24.22 59.886-48.441 119.77-72.661 179.66"/>
	<path d="m1391.2 259.82c-24.242-59.939-48.483-119.88-72.725-179.82"/>
	<path d="m804.79 1159.8c24.27-60.009 48.54-120.02 72.81-180.03"/>
	<path d="m659.11 1520h155.18"/>
	<path d="m814.28 1520h155.18"/>
	<path d="m1391.2 259.82c24.263 59.991 48.526 119.98 72.789 179.97"/>
	<path d="m1241.5 80h9.6254"/>
	<path d="m731.98 1339.8c-24.291 60.061-48.582 120.12-72.874 180.18"/>
	<path d="m1900.9 1520h-155.22"/>
	<path d="m950.41 799.74-72.81 180.03"/>
	<path d="m969.46 1520h155.18"/>
	<path d="m1124.6 1520h155.41"/>
	<path d="m731.98 1339.8c24.27-60.009 48.54-120.02 72.81-180.03"/>
	<path d="m1146.6 1448h133.48"/>
	<path d="m1546.2 1448h-132.97"/>
	<path d="m1517.6 637.55c19.65 53.983 39.299 107.97 58.949 161.95"/>
	<path d="m806.5 1285.7c19.662-54.017 39.324-108.03 58.986-162.05"/>
	<path d="m1812.6 1448c-19.714-54.16-39.428-108.32-59.142-162.48"/>
	<path d="m747.4 1448h133.07"/>
	<path d="m865.48 1123.6c19.662-54.017 39.324-108.03 58.986-162.05"/>
	<path d="m1399.7 313.65c-19.613-53.884-39.227-107.77-58.84-161.65"/>
	<path d="m1013.5 1448h133.07"/>
	<path d="m1249.6 152h-15.214"/>
	<path d="m1694.5 1123.5c-19.66-54.012-39.321-108.02-58.981-162.04"/>
	<path d="m1280.1 1448h133.18"/>
	<path d="m1635.5 961.45c-19.65-53.983-39.299-107.97-58.949-161.95"/>
	<path d="m1753.5 1285.5c-19.66-54.012-39.321-108.02-58.981-162.04"/>
	<path d="m1399.7 313.65c19.65 53.983 39.299 107.97 58.949 161.95"/>
	<path d="m1042.4 637.45c-19.662 54.017-39.324 108.03-58.986 162.05"/>
	<path d="m1219.1 152c-19.577 53.783-39.154 107.57-58.73 161.35"/>
	<path d="m1101.4 475.4-58.986 162.05"/>
	<path d="m1160.4 313.35c-19.662 54.017-39.324 108.03-58.986 162.05"/>
	<path d="m1546.2 1448h133.21"/>
	<path d="m1249.6 152h15.212"/>
	<path d="m880.47 1448h133.07"/>
	<path d="m924.47 961.55 58.986-162.05"/>
	<path d="m1219.1 152h15.217"/>
	<path d="m1340.9 152h-15.214"/>
	<path d="m1812.6 1448h-133.15"/>
	<path d="m1280 152h-15.214"/>
	<path d="m1310.4 152h-15.214"/>
	<path d="m1458.6 475.6c19.65 53.983 39.299 107.97 58.949 161.95"/>
	<path d="m1295.2 152h-15.214"/>
	<path d="m806.5 1285.7c-19.698 54.116-39.396 108.23-59.094 162.35"/>
	<path d="m1325.6 152h-15.214"/>
	<path d="m1261 216.8h19"/>
	<path d="m869.82 1236.9c-15.976 48.766-31.951 97.531-47.926 146.3"/>
	<path d="m1403.6 362.1c-15.867-48.434-31.734-96.868-47.601-145.3"/>
	<path d="m821.89 1383.2h114.42"/>
	<path d="m1165.1 1383.2h114.98"/>
	<path d="m1108.8 507.54c-15.929 48.624-31.858 97.248-47.787 145.87"/>
	<path d="m1546.8 799.28c15.913 48.576 31.827 97.152 47.74 145.73"/>
	<path d="m1013.2 799.29c15.929-48.624 31.858-97.248 47.788-145.87"/>
	<path d="m1204 216.8c-15.82 48.29-31.639 96.58-47.459 144.87"/>
	<path d="m1299 216.8h-19"/>
	<path d="m1318 216.8h-19"/>
	<path d="m1642.3 1090.9c-15.927-48.617-31.854-97.235-47.781-145.85"/>
	<path d="m1394.7 1383.2h-114.57"/>
	<path d="m1690.1 1236.7c-15.927-48.618-31.854-97.235-47.781-145.85"/>
	<path d="m1738.1 1383.2c-15.996-48.828-31.992-97.655-47.987-146.48"/>
	<path d="m936.31 1383.2h114.42"/>
	<path d="m1403.6 362.1c15.913 48.576 31.827 97.152 47.74 145.73"/>
	<path d="m1156.5 361.67c-15.929 48.624-31.858 97.248-47.787 145.87"/>
	<path d="m1204 216.8h19.005"/>
	<path d="m1509 1383.2h114.61"/>
	<path d="m1738.1 1383.2h-114.53"/>
	<path d="m1242 216.8h-18.999"/>
	<path d="m1394.7 1383.2h114.28"/>
	<path d="m1451.3 507.83c15.914 48.576 31.827 97.152 47.74 145.73"/>
	<path d="m1261 216.8h-18.995"/>
	<path d="m1499.1 653.56c15.913 48.576 31.827 97.152 47.74 145.73"/>
	<path d="m1337 216.8h-19"/>
	<path d="m869.82 1236.9c15.929-48.624 31.858-97.248 47.787-145.87"/>
	<path d="m965.39 945.16c15.929-48.624 31.858-97.248 47.788-145.87"/>
	<path d="m1050.7 1383.2h114.42"/>
	<path d="m917.6 1091c15.929-48.624 31.858-97.248 47.787-145.87"/>
	<path d="m1356 216.8h-19"/>
	<path d="m1180.8 1324.9h99.326"/>
	<path d="m1365.6 275.12h-21.399"/>
	<path d="m1481.4 667.96c12.887 43.709 25.774 87.419 38.662 131.13"/>
	<path d="m1194.4 275.12c-12.78 43.347-25.56 86.693-38.341 130.04"/>
	<path d="m1039.9 799.09c12.905-43.771 25.81-87.541 38.716-131.31"/>
	<path d="m884.9 1324.9h98.642"/>
	<path d="m1280.2 1324.9h98.826"/>
	<path d="m1078.6 667.78 38.716-131.31"/>
	<path d="m1442.8 536.84c12.887 43.709 25.774 87.419 38.662 131.13"/>
	<path d="m1156.1 405.16c-12.905 43.77-25.81 87.541-38.716 131.31"/>
	<path d="m1258.6 275.12h-21.391"/>
	<path d="m1280 275.12h-21.399"/>
	<path d="m1379 1324.9h98.475"/>
	<path d="m962.49 1061.7c12.905-43.77 25.81-87.541 38.716-131.31"/>
	<path d="m1237.2 275.12h-21.397"/>
	<path d="m1001.2 930.41c12.905-43.77 25.81-87.541 38.716-131.31"/>
	<path d="m983.54 1324.9h98.642"/>
	<path d="m1477.5 1324.9h98.876"/>
	<path d="m1344.2 275.12h-21.399"/>
	<path d="m1322.8 275.12h-21.399"/>
	<path d="m1520.1 799.09c12.887 43.709 25.774 87.419 38.662 131.13"/>
	<path d="m1082.2 1324.9h98.643"/>
	<path d="m1675.1 1324.9c-12.981-44.029-25.963-88.058-38.944-132.09"/>
	<path d="m1636.2 1192.8c-12.903-43.762-25.806-87.524-38.708-131.29"/>
	<path d="m923.77 1193 38.716-131.31"/>
	<path d="m923.77 1193c-12.958 43.95-25.916 87.9-38.875 131.85"/>
	<path d="m1194.4 275.12h21.407"/>
	<path d="m1558.7 930.22c12.903 43.762 25.806 87.524 38.708 131.29"/>
	<path d="m1280 275.12h21.399"/>
	<path d="m1404.1 405.71c12.887 43.709 25.774 87.419 38.662 131.13"/>
	<path d="m1675.1 1324.9h-98.776"/>
	<path d="m1404.1 405.71c-12.834-43.529-25.668-87.058-38.502-130.59"/>
	<path d="m1365.6 1272.4h85.072"/>
	<path d="m1280.2 1272.4h85.474"/>
	<path d="m1450.7 1272.4h85.531"/>
	<path d="m1108.9 1272.4h85.264"/>
	<path d="m1194.1 1272.4h86.046"/>
	<path d="m1348.2 327.61h-22.741"/>
	<path d="m1402.1 444.95c-10.379-39.115-20.759-78.23-31.138-117.35"/>
	<path d="m1189 327.61c-10.322 38.898-20.643 77.795-30.965 116.69"/>
	<path d="m1126.7 562.51c10.456-39.402 20.911-78.805 31.367-118.21"/>
	<path d="m1023.6 1272.4h85.264"/>
	<path d="m1433.4 562.94c-10.436-39.33-20.873-78.659-31.309-117.99"/>
	<path d="m1001.2 1035.3c10.456-39.402 20.911-78.805 31.367-118.21"/>
	<path d="m1496 798.92c10.436 39.33 20.873 78.659 31.309 117.99"/>
	<path d="m1371 327.61h-22.741"/>
	<path d="m1064 798.92c10.456-39.402 20.911-78.805 31.367-118.21"/>
	<path d="m1433.4 562.94c10.436 39.33 20.873 78.659 31.309 117.99"/>
	<path d="m1621.7 1272.4c-10.537-39.71-21.074-79.42-31.612-119.13"/>
	<path d="m1280 327.61h-22.741"/>
	<path d="m1257.3 327.61h-22.73"/>
	<path d="m969.87 1153.5c10.456-39.402 20.911-78.805 31.367-118.21"/>
	<path d="m1234.5 327.61h-22.739"/>
	<path d="m1558.7 1035.1c10.453 39.393 20.906 78.785 31.359 118.18"/>
	<path d="m1032.6 917.13c10.456-39.402 20.911-78.805 31.367-118.21"/>
	<path d="m1621.7 1272.4h-85.416"/>
	<path d="m938.33 1272.4h85.264"/>
	<path d="m1302.7 327.61h-22.741"/>
	<path d="m1325.5 327.61h-22.741"/>
	<path d="m1095.3 680.72c10.456-39.402 20.911-78.805 31.367-118.21"/>
	<path d="m1527.3 916.91c10.453 39.392 20.906 78.785 31.359 118.18"/>
	<path d="m1464.7 680.93c10.436 39.33 20.873 78.659 31.309 117.99"/>
	<path d="m1189 327.61h22.753"/>
	<path d="m969.87 1153.5c-10.512 39.616-21.025 79.232-31.537 118.85"/>
	<path d="m1233.4 374.85h-23.285"/>
	<path d="m1354.3 1225.2h73.675"/>
	<path d="m1256.7 374.85h-23.274"/>
	<path d="m1136.4 585.94c8.4712-35.471 16.942-70.942 25.414-106.41"/>
	<path d="m1009.4 1118c8.4711-35.471 16.942-70.942 25.413-106.41"/>
	<path d="m1576.2 1225.2c-8.5552-35.823-17.11-71.646-25.665-107.47"/>
	<path d="m1502.2 1225.2h-74.181"/>
	<path d="m1373.1 374.85h-23.287"/>
	<path d="m1085.6 798.77c8.4711-35.471 16.942-70.942 25.413-106.41"/>
	<path d="m1131.6 1225.2h73.886"/>
	<path d="m1034.8 1011.6c8.4712-35.471 16.942-70.942 25.414-106.41"/>
	<path d="m1280 374.85h-23.287"/>
	<path d="m1060.2 905.18c8.4711-35.471 16.942-70.942 25.414-106.41"/>
	<path d="m1398.3 480.27c-8.3927-35.142-16.785-70.285-25.178-105.43"/>
	<path d="m1009.4 1118c-8.5296 35.716-17.059 71.432-25.589 107.15"/>
	<path d="m1161.9 479.53c8.3333-34.894 16.666-69.787 25-104.68"/>
	<path d="m1525.1 1011.3c8.4685 35.46 16.937 70.919 25.405 106.38"/>
	<path d="m1449 692.6c8.4513 35.388 16.903 70.775 25.354 106.16"/>
	<path d="m1449 692.6c-8.4512-35.388-16.902-70.776-25.354-106.16"/>
	<path d="m1111 692.35c8.4712-35.471 16.942-70.942 25.414-106.41"/>
	<path d="m1280.2 1225.2h74.117"/>
	<path d="m1474.4 798.76c8.4513 35.388 16.903 70.776 25.354 106.16"/>
	<path d="m1326.6 374.85h-23.287"/>
	<path d="m1205.4 1225.2h74.748"/>
	<path d="m1186.9 374.85h23.303"/>
	<path d="m1499.7 904.93c8.4685 35.46 16.937 70.919 25.405 106.38"/>
	<path d="m1576.2 1225.2h-74.054"/>
	<path d="m1303.3 374.85h-23.287"/>
	<path d="m983.78 1225.2h73.886"/>
	<path d="m1349.9 374.85h-23.287"/>
	<path d="m1057.7 1225.2h73.886"/>
	<path d="m1398.3 480.27c8.4512 35.388 16.902 70.775 25.354 106.16"/>
	<path d="m1475.4 894.14c6.8608 31.92 13.722 63.84 20.582 95.76"/>
	<path d="m1516.6 1085.7c6.9478 32.324 13.895 64.649 20.843 96.973"/>
	<path d="m1187 417.36h23.262"/>
	<path d="m1086.7 1182.6h64.184"/>
	<path d="m1280 417.36h-23.243"/>
	<path d="m1393.3 512.06c-6.7849-31.567-13.57-63.134-20.355-94.7"/>
	<path d="m1413.9 607.58c6.8436 31.84 13.687 63.68 20.531 95.52"/>
	<path d="m1166.9 511.23c6.7253-31.29 13.451-62.58 20.176-93.869"/>
	<path d="m1125.7 702.83c6.8635-31.933 13.727-63.866 20.591-95.798"/>
	<path d="m1303.2 417.36h-23.243"/>
	<path d="m1454.9 798.62c-6.8436-31.84-13.687-63.68-20.531-95.52"/>
	<path d="m1408.6 1182.6h64.5"/>
	<path d="m1496 989.9c6.8608 31.92 13.722 63.84 20.582 95.76"/>
	<path d="m1043.3 1086c-6.9221 32.205-13.844 64.41-20.766 96.616"/>
	<path d="m1022.5 1182.6h64.183"/>
	<path d="m1393.3 512.06c6.8436 31.84 13.687 63.68 20.531 95.52"/>
	<path d="m1084.5 894.42c6.8635-31.933 13.727-63.865 20.591-95.798"/>
	<path d="m1256.8 417.36h-23.226"/>
	<path d="m1373 417.36h-23.243"/>
	<path d="m1043.3 1086c6.8635-31.933 13.727-63.866 20.591-95.798"/>
	<path d="m1537.5 1182.6h-64.364"/>
	<path d="m1280.2 1182.6h64.432"/>
	<path d="m1349.7 417.36h-23.243"/>
	<path d="m1105.1 798.63c6.8635-31.933 13.727-63.866 20.591-95.798"/>
	<path d="m1454.9 798.62c6.8436 31.84 13.687 63.68 20.531 95.52"/>
	<path d="m1063.9 990.22c6.8635-31.933 13.727-63.866 20.591-95.798"/>
	<path d="m1233.5 417.36h-23.24"/>
	<path d="m1215.1 1182.6h65.111"/>
	<path d="m1326.5 417.36h-23.243"/>
	<path d="m1146.3 607.03c6.8635-31.933 13.727-63.866 20.591-95.798"/>
	<path d="m1344.6 1182.6h63.956"/>
	<path d="m1150.9 1182.6h64.184"/>
	<path d="m1072.5 1057.2c-5.6188 29.046-11.237 58.092-16.856 87.138"/>
	<path d="m1487.4 1056.8c5.6439 29.176 11.288 58.352 16.932 87.528"/>
	<path d="m1404.2 626.61c5.5416 28.647 11.083 57.294 16.625 85.942"/>
	<path d="m1188.9 455.63h22.792"/>
	<path d="m1234.5 455.63h-22.766"/>
	<path d="m1257.2 455.63h-22.75"/>
	<path d="m1387.5 540.67-16.452-85.046"/>
	<path d="m1404.2 626.61c-5.5415-28.647-11.083-57.294-16.625-85.941"/>
	<path d="m1392 1144.4h56.221"/>
	<path d="m1504.3 1144.4h-56.078"/>
	<path d="m1172.6 539.77c5.4254-28.046 10.851-56.093 16.276-84.139"/>
	<path d="m1371.1 455.63h-22.769"/>
	<path d="m1167.5 1144.4h55.886"/>
	<path d="m1420.8 712.56c5.5415 28.647 11.083 57.294 16.625 85.941"/>
	<path d="m1280.2 1144.4h56.149"/>
	<path d="m1454 884.44c-5.5416-28.647-11.083-57.294-16.625-85.942"/>
	<path d="m1105.9 884.75c5.5612-28.748 11.122-57.497 16.684-86.245"/>
	<path d="m1348.3 455.63h-22.769"/>
	<path d="m1156 626.01c5.5612-28.748 11.122-57.497 16.684-86.245"/>
	<path d="m1325.5 455.63h-22.769"/>
	<path d="m1454 884.44c5.5586 28.735 11.117 57.469 16.676 86.204"/>
	<path d="m1223.3 1144.4h56.866"/>
	<path d="m1302.8 455.63h-22.769"/>
	<path d="m1055.7 1144.4h55.886"/>
	<path d="m1111.6 1144.4h55.886"/>
	<path d="m1139.3 712.26c5.5612-28.748 11.122-57.497 16.684-86.245"/>
	<path d="m1122.6 798.5c5.5612-28.748 11.122-57.497 16.684-86.245"/>
	<path d="m1089.2 970.99c5.5612-28.748 11.122-57.497 16.684-86.245"/>
	<path d="m1072.5 1057.2c5.5612-28.748 11.122-57.497 16.684-86.245"/>
	<path d="m1280 455.63h-22.769"/>
	<path d="m1336.4 1144.4h55.646"/>
	<path d="m1470.7 970.64c5.5586 28.734 11.117 57.469 16.676 86.204"/>
	<path d="m1084.1 1109.9h48.771"/>
	<path d="m1178.9 565.45c4.3746-25.128 8.7494-50.255 13.124-75.382"/>
	<path d="m1236 490.06h-21.987"/>
	<path d="m1258 490.06h-21.968"/>
	<path d="m1192 490.06h22.017"/>
	<path d="m1151.9 720.74c4.5061-25.882 9.0122-51.765 13.518-77.647"/>
	<path d="m1230.4 1109.9h49.794"/>
	<path d="m1421.6 798.38c4.4872 25.774 8.9742 51.547 13.461 77.321"/>
	<path d="m1475.9 1109.9h-48.971"/>
	<path d="m1097.8 1031.3c4.5061-25.882 9.0122-51.765 13.518-77.647"/>
	<path d="m1324 490.06h-21.991"/>
	<path d="m1302 490.06h-21.991"/>
	<path d="m1448.6 953.31c-4.5035-25.868-9.0071-51.735-13.511-77.603"/>
	<path d="m1462.1 1030.9c4.5862 26.342 9.1724 52.685 13.758 79.027"/>
	<path d="m1377.8 1109.9h49.121"/>
	<path d="m1280 490.06h-21.991"/>
	<path d="m1448.6 953.31c4.5034 25.868 9.007 51.735 13.51 77.603"/>
	<path d="m1165.4 643.09c4.5061-25.882 9.0122-51.765 13.518-77.647"/>
	<path d="m1381.3 566.42c4.4872 25.774 8.9742 51.547 13.461 77.321"/>
	<path d="m1111.3 953.68c4.5061-25.882 9.0122-51.765 13.518-77.647"/>
	<path d="m1368 490.06h-21.991"/>
	<path d="m1181.7 1109.9h48.771"/>
	<path d="m1138.4 798.39c4.5061-25.882 9.0121-51.765 13.518-77.647"/>
	<path d="m1329.3 1109.9h48.521"/>
	<path d="m1381.3 566.42c-4.4313-25.453-8.8625-50.905-13.294-76.358"/>
	<path d="m1132.9 1109.9h48.772"/>
	<path d="m1346 490.06h-21.991"/>
	<path d="m1097.8 1031.3c-4.5619 26.202-9.1237 52.405-13.685 78.607"/>
	<path d="m1280.2 1109.9h49.046"/>
	<path d="m1124.8 876.03 13.518-77.647"/>
	<path d="m1408.2 721.06c-4.4871-25.774-8.9742-51.547-13.461-77.321"/>
	<path d="m1408.2 721.06c4.4872 25.773 8.9742 51.547 13.461 77.32"/>
	<path d="m1141.6 868.19c3.6512-23.303 7.3026-46.606 10.954-69.909"/>
	<path d="m1151.2 1078.9h42.653"/>
	<path d="m1407.5 798.28c-3.6333-23.187-7.2665-46.375-10.9-69.562"/>
	<path d="m1365.6 1078.9h43.015"/>
	<path d="m1343 521.06h-21.006"/>
	<path d="m1152.5 798.29c3.6512-23.303 7.3026-46.606 10.954-69.909"/>
	<path d="m1364 521.06h-21.006"/>
	<path d="m1280 521.06h-21.006"/>
	<path d="m1193.9 1078.9h42.653"/>
	<path d="m1322 521.06h-21.006"/>
	<path d="m1385.7 659.16c3.6332 23.187 7.2664 46.375 10.9 69.562"/>
	<path d="m1407.5 798.28c3.6332 23.187 7.2664 46.375 10.9 69.562"/>
	<path d="m1236.5 1078.9h43.711"/>
	<path d="m1280.2 1078.9h42.937"/>
	<path d="m1301 521.06h-21.006"/>
	<path d="m1174.4 658.47c3.6514-23.303 7.3026-46.606 10.954-69.909"/>
	<path d="m1238 521.06h-21.002"/>
	<path d="m1196 521.06h21.036"/>
	<path d="m1259 521.06h-20.981"/>
	<path d="m1418.4 867.84c3.6488 23.287 7.2977 46.574 10.946 69.862"/>
	<path d="m1440.3 1007.6c3.7279 23.792 7.4558 47.584 11.184 71.376"/>
	<path d="m1451.4 1078.9h-42.86"/>
	<path d="m1440.3 1007.6c-3.6489-23.287-7.2977-46.575-10.947-69.862"/>
	<path d="m1323.2 1078.9h42.394"/>
	<path d="m1185.4 588.56c3.5255-22.5 7.0511-45.001 10.577-67.501"/>
	<path d="m1374.8 589.6c3.6332 23.187 7.2664 46.374 10.9 69.562"/>
	<path d="m1374.8 589.6c-3.5797-22.846-7.1595-45.692-10.739-68.538"/>
	<path d="m1163.5 728.38c3.6512-23.303 7.3026-46.606 10.954-69.909"/>
	<path d="m1119.7 1008c-3.7046 23.643-7.4092 47.286-11.114 70.93"/>
	<path d="m1119.7 1008c3.6514-23.303 7.3027-46.606 10.954-69.909"/>
	<path d="m1108.6 1078.9h42.653"/>
	<path d="m1130.6 938.1c3.6514-23.303 7.3027-46.606 10.954-69.909"/>
	<path d="m1174.2 735.25c2.9589-20.982 5.9177-41.963 8.8765-62.945"/>
	<path d="m1200.4 548.95h19.922"/>
	<path d="m1240.3 548.95h-19.884"/>
	<path d="m1260.1 548.95h-19.861"/>
	<path d="m1138.7 987.03c-3.0094 21.34-6.0187 42.68-9.0281 64.02"/>
	<path d="m1319.8 548.95h-19.889"/>
	<path d="m1403.5 860.77c2.9565 20.965 5.913 41.93 8.8695 62.895"/>
	<path d="m1339.7 548.95h-19.889"/>
	<path d="m1147.5 924.08c2.9589-20.982 5.9177-41.963 8.8766-62.945"/>
	<path d="m1280 548.95h-19.889"/>
	<path d="m1129.6 1051h37.378"/>
	<path d="m1138.7 987.03c2.9589-20.982 5.9177-41.963 8.8765-62.945"/>
	<path d="m1241.8 1051h38.464"/>
	<path d="m1355 1051h37.75"/>
	<path d="m1359.6 548.95h-19.889"/>
	<path d="m1156.4 861.14c2.9587-20.982 5.9176-41.963 8.8765-62.945"/>
	<path d="m1377.1 673.03c2.9415 20.86 5.8832 41.719 8.8248 62.579"/>
	<path d="m1430.4 1051-9.0945-64.49"/>
	<path d="m1191.9 609.36c2.8396-20.136 5.6792-40.272 8.5188-60.408"/>
	<path d="m1317.9 1051h37.112"/>
	<path d="m1412.4 923.66c2.9564 20.965 5.913 41.93 8.8694 62.895"/>
	<path d="m1165.3 798.19c2.9589-20.982 5.9176-41.963 8.8765-62.945"/>
	<path d="m1368.2 610.45c2.9417 20.86 5.8833 41.719 8.825 62.579"/>
	<path d="m1167 1051h37.378"/>
	<path d="m1299.9 548.95h-19.889"/>
	<path d="m1204.4 1051h37.378"/>
	<path d="m1403.5 860.77c-2.9417-20.86-5.8833-41.719-8.8248-62.579"/>
	<path d="m1368.2 610.45c-2.8909-20.5-5.7819-41-8.6729-61.501"/>
	<path d="m1183 672.3c2.9589-20.982 5.9177-41.963 8.8765-62.945"/>
	<path d="m1385.9 735.61c2.9417 20.86 5.8833 41.719 8.825 62.579"/>
	<path d="m1280.2 1051h37.67"/>
	<path d="m1430.4 1051h-37.59"/>
	<path d="m1354.8 574.06h-18.696"/>
	<path d="m1361.8 629.22c-2.3339-18.389-4.6677-36.778-7.0016-55.167"/>
	<path d="m1261.3 574.06h-18.666"/>
	<path d="m1169.6 854.79c2.3977-18.892 4.7955-37.785 7.1932-56.677"/>
	<path d="m1155.2 968.14c-2.4453 19.267-4.8907 38.534-7.3361 57.802"/>
	<path d="m1205.2 574.06h18.732"/>
	<path d="m1336.1 574.06h-18.696"/>
	<path d="m1213.5 1025.9h32.818"/>
	<path d="m1246.3 1025.9h33.927"/>
	<path d="m1155.2 968.14c2.3978-18.892 4.7955-37.785 7.1934-56.677"/>
	<path d="m1397.6 911.03c2.3955 18.875 4.7911 37.75 7.1868 56.625"/>
	<path d="m1280 574.06h-18.696"/>
	<path d="m1180.7 1025.9h32.818"/>
	<path d="m1198.4 628.08c2.2855-18.008 4.571-36.016 6.8566-54.024"/>
	<path d="m1368.9 685.52c2.3816 18.765 4.7632 37.53 7.1448 56.294"/>
	<path d="m1191.2 684.76c2.3978-18.892 4.7955-37.785 7.1934-56.677"/>
	<path d="m1361.8 629.22c2.3816 18.765 4.7632 37.53 7.1448 56.294"/>
	<path d="m1404.7 967.65c2.4661 19.431 4.9323 38.862 7.3984 58.293"/>
	<path d="m1317.4 574.06h-18.696"/>
	<path d="m1162.4 911.47c2.3977-18.892 4.7955-37.785 7.1934-56.677"/>
	<path d="m1313.4 1025.9h32.547"/>
	<path d="m1376.1 741.81 7.1448 56.294"/>
	<path d="m1184 741.43c2.3978-18.892 4.7955-37.785 7.1934-56.677"/>
	<path d="m1383.2 798.11 7.1448 56.294"/>
	<path d="m1147.9 1025.9h32.818"/>
	<path d="m1242.6 574.06h-18.691"/>
	<path d="m1412.1 1025.9h-33.035"/>
	<path d="m1298.7 574.06h-18.696"/>
	<path d="m1176.8 798.11c2.3978-18.892 4.7957-37.785 7.1934-56.677"/>
	<path d="m1280.2 1025.9h33.116"/>
	<path d="m1345.9 1025.9h33.197"/>
	<path d="m1397.6 911.03c-2.3956-18.875-4.7911-37.75-7.1868-56.625"/>
	<path d="m1210.1 596.65h17.511"/>
	<path d="m1297.5 596.65h-17.472"/>
	<path d="m1355.5 646.12c-1.8834-16.489-3.7668-32.978-5.6504-49.466"/>
	<path d="m1227.6 596.65h17.467"/>
	<path d="m1221.4 1003.3h28.866"/>
	<path d="m1280 596.65h-17.472"/>
	<path d="m1338 1003.3h29.251"/>
	<path d="m1378.7 848.67c1.941 16.994 3.8822 33.988 5.8234 50.982"/>
	<path d="m1349.9 596.65h-17.472"/>
	<path d="m1175.4 900.11c1.9432-17.012 3.8865-34.024 5.8297-51.036"/>
	<path d="m1361.3 696.76c1.9281 16.879 3.8562 33.759 5.7843 50.638"/>
	<path d="m1187.1 798.04c1.9432-17.012 3.8865-34.024 5.8297-51.036"/>
	<path d="m1262.5 596.65h-17.439"/>
	<path d="m1355.5 646.12c1.9281 16.879 3.8562 33.759 5.7842 50.638"/>
	<path d="m1390.3 950.63 6.0216 52.716"/>
	<path d="m1280.2 1003.3h29.169"/>
	<path d="m1250.3 1003.3h29.994"/>
	<path d="m1367.3 1003.3h29.086"/>
	<path d="m1181.3 849.07c1.9432-17.012 3.8864-34.024 5.8296-51.036"/>
	<path d="m1332.4 596.65h-17.472"/>
	<path d="m1192.9 747 5.8296-51.036"/>
	<path d="m1309.4 1003.3h28.59"/>
	<path d="m1367.1 747.39c1.9281 16.88 3.8561 33.759 5.7842 50.638"/>
	<path d="m1372.9 798.03c1.9281 16.88 3.8562 33.759 5.7843 50.638"/>
	<path d="m1163.7 1003.3h28.866"/>
	<path d="m1314.9 596.65h-17.472"/>
	<path d="m1198.8 695.96c1.9432-17.012 3.8865-34.024 5.8297-51.036"/>
	<path d="m1204.6 644.93c1.8381-16.093 3.6764-32.186 5.5146-48.279"/>
	<path d="m1169.6 951.14c1.9432-17.012 3.8865-34.024 5.8296-51.036"/>
	<path d="m1169.6 951.14c-1.9877 17.402-3.9755 34.803-5.9631 52.205"/>
	<path d="m1192.5 1003.3h28.866"/>
	<path d="m1390.3 950.63c-1.9412-16.994-3.8823-33.988-5.8235-50.982"/>
	<path d="m1196.4 797.97c1.575-15.32 3.1499-30.639 4.7249-45.959"/>
	<path d="m1358.9 752.42c1.5608 15.183 3.1217 30.365 4.6825 45.548"/>
	<path d="m1263.8 616.99h-16.212"/>
	<path d="m1349.5 661.32c1.5608 15.183 3.1216 30.365 4.6824 45.548"/>
	<path d="m1228.2 983.01h25.432"/>
	<path d="m1231.3 616.99h16.242"/>
	<path d="m1349.5 661.32c-1.5193-14.779-3.0387-29.557-4.558-44.336"/>
	<path d="m1280 616.99h-16.247"/>
	<path d="m1205.9 706.05c1.5748-15.32 3.1498-30.639 4.7247-45.959"/>
	<path d="m1382.6 983.01c-1.6344-15.899-3.2689-31.797-4.9033-47.696"/>
	<path d="m1382.6 983.01h-25.655"/>
	<path d="m1312.5 616.99h-16.248"/>
	<path d="m1202.8 983.01h25.432"/>
	<path d="m1280.3 983.01h25.738"/>
	<path d="m1373 889.42c1.573 15.301 3.146 30.602 4.719 45.903"/>
	<path d="m1368.3 843.51c1.573 15.301 3.146 30.602 4.719 45.903"/>
	<path d="m1345 616.99h-16.247"/>
	<path d="m1177.4 983.01h25.432"/>
	<path d="m1191.7 843.93c1.575-15.32 3.1499-30.639 4.7247-45.959"/>
	<path d="m1182.2 935.85c-1.6163 15.722-3.2327 31.445-4.849 47.168"/>
	<path d="m1296.2 616.99h-16.247"/>
	<path d="m1210.6 660.09c1.4772-14.369 2.9543-28.738 4.4316-43.108"/>
	<path d="m1253.7 983.01h26.574"/>
	<path d="m1354.2 706.87c1.5609 15.183 3.1217 30.365 4.6825 45.548"/>
	<path d="m1201.1 752.01c1.5748-15.32 3.1498-30.639 4.7247-45.959"/>
	<path d="m1363.6 797.96c1.5608 15.183 3.1217 30.365 4.6825 45.548"/>
	<path d="m1331.1 983.01h25.822"/>
	<path d="m1182.2 935.85c1.575-15.32 3.1498-30.639 4.7247-45.959"/>
	<path d="m1328.7 616.99h-16.247"/>
	<path d="m1215 616.99h16.289"/>
	<path d="m1187 889.89c1.575-15.32 3.1499-30.639 4.7247-45.959"/>
	<path d="m1306 983.01h25.152"/>
	<path d="m1362.8 880.2c1.2748 13.777 2.5496 27.555 3.8242 41.332"/>
	<path d="m1359 838.87c1.2747 13.777 2.5494 27.555 3.8241 41.332"/>
	<path d="m1348 964.71h22.666"/>
	<path d="m1310.1 635.29h-15.046"/>
	<path d="m1303 964.71h22.158"/>
	<path d="m1208.6 756.52c1.2765-13.797 2.553-27.593 3.8296-41.39"/>
	<path d="m1216.3 673.74c1.1859-12.818 2.3719-25.636 3.5579-38.454"/>
	<path d="m1189.3 964.71h22.441"/>
	<path d="m1256.7 964.71h23.596"/>
	<path d="m1355.2 797.9c1.2634 13.655 2.527 27.311 3.7904 40.966"/>
	<path d="m1212.4 715.13 3.8295-41.39"/>
	<path d="m1325.1 635.29h-15.046"/>
	<path d="m1280.3 964.71h22.75"/>
	<path d="m1351.4 756.94c1.2634 13.656 2.5269 27.311 3.7903 40.966"/>
	<path d="m1193.3 922.08c1.2765-13.797 2.553-27.593 3.8295-41.39"/>
	<path d="m1204.8 797.91c1.2765-13.797 2.553-27.593 3.8295-41.39"/>
	<path d="m1280 635.29h-15.046"/>
	<path d="m1234.9 635.29h15.04"/>
	<path d="m1219.8 635.29h15.09"/>
	<path d="m1265 635.29h-15.008"/>
	<path d="m1234.2 964.71h22.441"/>
	<path d="m1295 635.29h-15.046"/>
	<path d="m1347.6 715.97c1.2634 13.655 2.5269 27.311 3.7903 40.966"/>
	<path d="m1197.1 880.69 3.8295-41.39"/>
	<path d="m1340.2 635.29h-15.046"/>
	<path d="m1200.9 839.3c1.2765-13.797 2.5531-27.593 3.8296-41.39"/>
	<path d="m1325.2 964.71h22.835"/>
	<path d="m1370.7 964.71c-1.3317-14.393-2.6633-28.786-3.995-43.178"/>
	<path d="m1211.8 964.71h22.441"/>
	<path d="m1343.9 675.01c-1.225-13.24-2.45-26.479-3.6749-39.718"/>
	<path d="m1343.9 675.01c1.2634 13.656 2.5269 27.311 3.7904 40.966"/>
	<path d="m1193.3 922.08c-1.3149 14.211-2.6298 28.423-3.9447 42.634"/>
	<path d="m1344.6 761.01c1.0226 12.281 2.0453 24.562 3.0679 36.843"/>
	<path d="m1209.2 835.13c1.0347-12.426 2.0695-24.852 3.1041-37.277"/>
	<path d="m1238.4 651.76h13.878"/>
	<path d="m1341.6 724.16c1.0227 12.281 2.0453 24.562 3.068 36.843"/>
	<path d="m1360.2 948.24c-1.0857-13.038-2.1713-26.075-3.257-39.112"/>
	<path d="m1259.3 948.24h20.994"/>
	<path d="m1280 651.76h-13.884"/>
	<path d="m1341.6 724.16c-1.0226-12.281-2.0453-24.562-3.0679-36.843"/>
	<path d="m1360.2 948.24h-20.056"/>
	<path d="m1335.5 651.76h-13.884"/>
	<path d="m1266.1 651.76h-13.845"/>
	<path d="m1203 909.69c-1.0702 12.851-2.1403 25.703-3.2104 38.554"/>
	<path d="m1307.8 651.76h-13.884"/>
	<path d="m1239.4 948.24h19.829"/>
	<path d="m1338.5 687.32c-0.9872-11.854-1.9742-23.708-2.9614-35.563"/>
	<path d="m1350.8 834.69c1.0331 12.406 2.0662 24.812 3.0992 37.218"/>
	<path d="m1321.7 651.76h-13.884"/>
	<path d="m1215.4 760.58c1.0347-12.426 2.0693-24.852 3.1041-37.278"/>
	<path d="m1218.5 723.3c1.0347-12.426 2.0693-24.852 3.1041-37.277"/>
	<path d="m1224.5 651.76h13.93"/>
	<path d="m1347.7 797.85c1.0227 12.281 2.0454 24.562 3.068 36.843"/>
	<path d="m1206.1 872.41c1.0347-12.426 2.0695-24.852 3.1041-37.277"/>
	<path d="m1199.8 948.24h19.829"/>
	<path d="m1221.6 686.02c0.951-11.422 1.9022-22.843 2.8533-34.265"/>
	<path d="m1353.9 871.91c1.0331 12.406 2.066 24.812 3.0991 37.218"/>
	<path d="m1203 909.69c1.0347-12.426 2.0695-24.852 3.1041-37.277"/>
	<path d="m1280.3 948.24h20.142"/>
	<path d="m1219.6 948.24h19.829"/>
	<path d="m1212.3 797.86c1.0347-12.426 2.0693-24.851 3.1041-37.277"/>
	<path d="m1319.9 948.24h20.227"/>
	<path d="m1293.9 651.76h-13.884"/>
	<path d="m1300.4 948.24h19.544"/>
	<path d="m1340.9 797.8c0.8276 11.044 1.6553 22.088 2.483 33.132"/>
	<path d="m1267.2 666.58h-12.732"/>
	<path d="m1219.1 797.81c0.8387-11.192 1.6776-22.384 2.5164-33.576"/>
	<path d="m1333.5 698.41c0.8276 11.044 1.6553 22.088 2.483 33.132"/>
	<path d="m1338.4 764.67c-0.8278-11.044-1.6554-22.088-2.483-33.132"/>
	<path d="m1298.1 933.42h17.257"/>
	<path d="m1292.8 666.58h-12.774"/>
	<path d="m1211.5 898.54c-0.8715 11.627-1.7428 23.255-2.6143 34.882"/>
	<path d="m1244 933.42h17.544"/>
	<path d="m1221.6 764.23c0.8387-11.192 1.6776-22.384 2.5164-33.576"/>
	<path d="m1318.3 666.58h-12.774"/>
	<path d="m1216.6 831.38c0.8389-11.192 1.6776-22.384 2.5164-33.576"/>
	<path d="m1211.5 898.54c0.8387-11.192 1.6775-22.384 2.5164-33.576"/>
	<path d="m1208.9 933.42h17.544"/>
	<path d="m1280.3 933.42h17.859"/>
	<path d="m1333.3 933.42h17.773v-2e-4"/>
	<path d="m1214 864.96c0.8387-11.192 1.6775-22.384 2.5162-33.576"/>
	<path d="m1226.5 933.42h17.544"/>
	<path d="m1224.1 730.65c0.8387-11.192 1.6775-22.384 2.5164-33.576"/>
	<path d="m1345.9 864.45c0.8373 11.172 1.6746 22.344 2.5118 33.516"/>
	<path d="m1226.6 697.08c0.7617-10.165 1.5236-20.33 2.2854-30.496"/>
	<path d="m1228.9 666.58h12.822"/>
	<path d="m1241.7 666.58h12.767"/>
	<path d="m1351.1 933.42c-0.8856-11.818-1.7714-23.635-2.657-35.453"/>
	<path d="m1261.5 933.42h18.717"/>
	<path d="m1280 666.58h-12.774"/>
	<path d="m1331.1 666.58c-4.2578-1e-4 -8.5157-1e-4 -12.774-1e-4"/>
	<path d="m1343.4 830.93c0.8373 11.172 1.6744 22.344 2.5117 33.516"/>
	<path d="m1305.5 666.58h-12.774"/>
	<path d="m1333.5 698.41c-0.795-10.608-1.59-21.215-2.385-31.823"/>
	<path d="m1338.4 764.67c0.8276 11.044 1.6553 22.088 2.483 33.132"/>
	<path d="m1315.4 933.42h17.945"/>
	<path d="m1268.3 679.92h-11.678"/>
	<path d="m1296.1 920.08h15.252"/>
	<path d="m1280 679.92h-11.721"/>
	<path d="m1216.9 920.08h15.541"/>
	<path d="m1263.5 920.08h16.72"/>
	<path d="m1244.9 679.92h11.714"/>
	<path d="m1223.1 828.01c0.6801-10.082 1.36-20.164 2.04-30.245"/>
	<path d="m1231.3 707.03c0.6094-9.0344 1.2188-18.069 1.828-27.103h1e-4"/>
	<path d="m1233.1 679.92h11.771"/>
	<path d="m1343.1 920.08c-0.723-10.72-1.446-21.44-2.1692-32.16"/>
	<path d="m1232.5 920.08h15.541"/>
	<path d="m1343.1 920.08h-15.771"/>
	<path d="m1219 888.5c0.6801-10.082 1.36-20.164 2.04-30.246"/>
	<path d="m1336.8 827.55c0.6786 10.061 1.3572 20.122 2.0359 30.184"/>
	<path d="m1303.4 679.92h-11.721"/>
	<path d="m1334.8 797.76c-0.6698-9.9307-1.3396-19.862-2.0094-29.792"/>
	<path d="m1229.2 737.27c0.6799-10.082 1.36-20.164 2.04-30.245"/>
	<path d="m1280.3 920.08h15.857"/>
	<path d="m1338.9 857.73c0.6786 10.061 1.3572 20.122 2.0358 30.184"/>
	<path d="m1311.4 920.08h15.944"/>
	<path d="m1221.1 858.25c0.6801-10.082 1.36-20.164 2.04-30.245"/>
	<path d="m1330.8 738.17c0.6698 9.9305 1.3396 19.861 2.0094 29.792"/>
	<path d="m1291.7 679.92h-11.721"/>
	<path d="m1219 888.5c-0.71 10.526-1.4199 21.051-2.1299 31.577h1e-4"/>
	<path d="m1315.2 679.92h-11.721"/>
	<path d="m1248 920.08h15.541"/>
	<path d="m1225.2 797.76c0.6801-10.082 1.36-20.164 2.04-30.245"/>
	<path d="m1227.2 767.52c0.6801-10.082 1.36-20.163 2.04-30.245"/>
	<path d="m1334.8 797.76c0.6699 9.9306 1.3397 19.861 2.0095 29.792"/>
	<path d="m1330.8 738.17c-0.6699-9.9308-1.3397-19.862-2.0095-29.792"/>
	<path d="m1326.9 679.92h-11.721"/>
	<path d="m1328.8 708.38c-0.6398-9.4856-1.2797-18.971-1.9194-28.457"/>
	<path d="m1224 908.07h13.78"/>
	<path d="m1237.1 691.93h10.783"/>
	<path d="m1230.7 797.72c0.5514-9.0823 1.1028-18.165 1.6541-27.247"/>
	<path d="m1225.7 879.47c-0.5789 9.5342-1.1576 19.068-1.7363 28.603"/>
	<path d="m1290.7 691.93h-10.731"/>
	<path d="m1225.7 879.47c0.5513-9.0825 1.1027-18.165 1.6541-27.248"/>
	<path d="m1227.3 852.22c0.5513-9.0825 1.1027-18.165 1.6539-27.247"/>
	<path d="m1265.3 908.07h14.965"/>
	<path d="m1232.3 770.48c0.5514-9.0825 1.1028-18.165 1.6541-27.248"/>
	<path d="m1331 824.5c0.55 9.0614 1.1001 18.123 1.6501 27.184"/>
	<path d="m1312.2 691.93h-10.731"/>
	<path d="m1280.3 908.07h14.098"/>
	<path d="m1331 824.5c-0.5421-8.9287-1.0841-17.857-1.6261-26.786"/>
	<path d="m1327.7 770.93c0.542 8.9288 1.084 17.858 1.626 26.786"/>
	<path d="m1322 908.07h14.012c0-1e-4 0-1e-4 -1e-4 -1e-4"/>
	<path d="m1324.5 717.36c0.542 8.9287 1.084 17.857 1.626 26.786"/>
	<path d="m1324.5 717.36c-0.5145-8.4756-1.0291-16.951-1.5436-25.427"/>
	<path d="m1327.7 770.93c-0.5421-8.9286-1.0841-17.857-1.6261-26.786"/>
	<path d="m1322.9 691.93v-2e-4h-10.731"/>
	<path d="m1301.5 691.93h-10.731"/>
	<path d="m1237.7 908.07h13.78"/>
	<path d="m1251.5 908.07h13.78"/>
	<path d="m1235.6 715.98c0.4867-8.0165 0.9733-16.033 1.46-24.05"/>
	<path d="m1322 908.07h-14.185"/>
	<path d="m1332.6 851.69c0.55 9.0616 1.1002 18.123 1.6503 27.185"/>
	<path d="m1294.4 908.07h13.49"/>
	<path d="m1280 691.93h-10.731"/>
	<path d="m1334.3 878.87c0.5907 9.7318 1.1815 19.464 1.7722 29.195"/>
	<path d="m1247.9 691.93h10.724"/>
	<path d="m1258.6 691.93h10.687"/>
	<path d="m1229 824.97c0.5514-9.0825 1.1028-18.165 1.6541-27.247"/>
	<path d="m1234 743.23c0.5514-9.0824 1.1027-18.165 1.6541-27.247"/>
	<path d="m1242.4 897.26h12.231"/>
	<path d="m1299.6 702.74h-9.8059"/>
	<path d="m1280.3 897.26h12.55"/>
	<path d="m1250.6 702.74h9.7982"/>
	<path d="m1304.8 897.26h-11.939"/>
	<path d="m1260.4 702.74h9.76"/>
	<path d="m1232.9 846.79c0.4471-8.1831 0.8942-16.366 1.3413-24.549"/>
	<path d="m1270.2 702.74h9.8058"/>
	<path d="m1238.3 748.59c0.447-8.1831 0.894-16.366 1.3412-24.549"/>
	<path d="m1230.1 897.26h12.231"/>
	<path d="m1317.4 897.26h12.463"/>
	<path d="m1304.8 897.26h12.637"/>
	<path d="m1236.9 773.14c0.4471-8.183 0.8942-16.366 1.3413-24.549"/>
	<path d="m1231.6 871.34c-0.4722 8.6419-0.9443 17.284-1.4164 25.926"/>
	<path d="m1239.6 724.04c0.3879-7.1005 0.7759-14.201 1.1638-21.302"/>
	<path d="m1266.8 897.26h13.42"/>
	<path d="m1240.8 702.74h9.8593"/>
	<path d="m1234.2 822.24c0.447-8.1831 0.8942-16.366 1.3412-24.549"/>
	<path d="m1320.5 725.44c-0.4135-7.5668-0.8269-15.134-1.2402-22.7"/>
	<path d="m1289.8 702.74h-9.8058"/>
	<path d="m1320.5 725.44c0.4385 8.027 0.8771 16.054 1.3156 24.081"/>
	<path d="m1319.2 702.74h-9.8059"/>
	<path d="m1321.8 749.52c0.4386 8.0269 0.8771 16.054 1.3157 24.081"/>
	<path d="m1309.4 702.74h-9.8058"/>
	<path d="m1324.4 797.68c-0.4386-8.0269-0.8772-16.054-1.3157-24.081"/>
	<path d="m1254.6 897.26h12.231"/>
	<path d="m1324.4 797.68c0.4385 8.027 0.8771 16.054 1.3156 24.081"/>
	<path d="m1327.1 846.25c-0.4459-8.1618-0.8918-16.324-1.3378-24.485"/>
	<path d="m1327.1 846.25c0.4459 8.1619 0.8918 16.324 1.3378 24.486"/>
	<path d="m1231.6 871.34c0.4471-8.183 0.8942-16.366 1.3412-24.549"/>
	<path d="m1235.6 797.69c0.447-8.183 0.8942-16.366 1.3412-24.549"/>
	<path d="m1329.9 897.26c-0.4832-8.8426-0.9662-17.685-1.4493-26.528"/>
	<path d="m1324.4 887.54h-11.097"/>
	<path d="m1302 887.54h11.272"/>
	<path d="m1322.1 841.35c0.3616 7.3521 0.723 14.704 1.0845 22.056"/>
	<path d="m1236.8 864.02c0.3625-7.3737 0.7251-14.747 1.0876-22.121"/>
	<path d="m1322.1 841.35-1.0845-22.056"/>
	<path d="m1323.2 863.41c0.3955 8.0424 0.7909 16.085 1.1864 24.127"/>
	<path d="m1238.9 819.78c0.3627-7.3737 0.7252-14.747 1.0878-22.121"/>
	<path d="m1288.9 712.46h8.9448"/>
	<path d="m1317.8 754.36c0.3549 7.2153 0.7096 14.431 1.0643 21.646"/>
	<path d="m1241.1 775.54c0.3627-7.3737 0.7252-14.747 1.0878-22.121"/>
	<path d="m1257.3 887.54h10.864"/>
	<path d="m1262.2 712.46h8.8977"/>
	<path d="m1291.4 887.54h10.572"/>
	<path d="m1253.2 712.46h8.9369"/>
	<path d="m1315.8 712.46h-8.9448"/>
	<path d="m1240 797.66c0.3625-7.3736 0.7251-14.747 1.0876-22.121"/>
	<path d="m1243.3 731.29c0.3086-6.276 0.6172-12.552 0.9258-18.828"/>
	<path d="m1280 712.46h8.9448"/>
	<path d="m1271.1 712.46h8.9448"/>
	<path d="m1242.2 753.41c0.3625-7.3737 0.7251-14.747 1.0876-22.121"/>
	<path d="m1291.4 887.54h-11.184"/>
	<path d="m1235.6 887.54h10.864"/>
	<path d="m1268.2 887.54h12.057"/>
	<path d="m1244.2 712.46h8.9999"/>
	<path d="m1316.8 732.71c-0.3318-6.7489-0.6637-13.498-0.9955-20.247"/>
	<path d="m1237.9 841.9c0.3625-7.3736 0.7251-14.747 1.0876-22.121"/>
	<path d="m1316.8 732.71c0.3547 7.2153 0.7096 14.431 1.0643 21.646"/>
	<path d="m1246.5 887.54h10.864"/>
	<path d="m1321 819.3c-0.3549-7.2154-0.7096-14.431-1.0643-21.646"/>
	<path d="m1318.9 776c0.3549 7.2153 0.7096 14.431 1.0645 21.646"/>
	<path d="m1306.8 712.46h-8.9448"/>
	<path d="m1236.8 864.02c-0.3855 7.8388-0.7709 15.678-1.1564 23.516"/>
	<path d="m1313.4 739.26c-0.2661-6.0128-0.5322-12.026-0.7982-18.038"/>
	<path d="m1255.6 721.22h8.1392"/>
	<path d="m1309.7 878.78h-10.066"/>
	<path d="m1316 797.62c0.287 6.4849 0.574 12.97 0.861 19.455"/>
	<path d="m1288.1 721.22h8.1473"/>
	<path d="m1263.8 721.22h8.099"/>
	<path d="m1315.1 778.17c0.287 6.4849 0.5739 12.97 0.8608 19.454"/>
	<path d="m1240.4 878.78h9.6571"/>
	<path d="m1290.2 878.78h9.364"/>
	<path d="m1317.7 836.95c-0.2932-6.6234-0.5863-13.247-0.8794-19.87"/>
	<path d="m1318.6 856.82c-0.2931-6.6234-0.5862-13.247-0.8793-19.87"/>
	<path d="m1245.8 757.76c0.2941-6.6451 0.5883-13.29 0.8823-19.935"/>
	<path d="m1280 721.22h8.1471"/>
	<path d="m1319.6 878.78h-9.8904"/>
	<path d="m1242.3 837.5c-0.2941 6.6451-0.5881 13.29-0.8822 19.936"/>
	<path d="m1318.6 856.82c0.324 7.322 0.6481 14.644 0.972 21.966"/>
	<path d="m1280.3 878.78h9.978"/>
	<path d="m1304.4 721.22h-8.1471"/>
	<path d="m1241.4 857.43c-0.3149 7.116-0.6299 14.232-0.9447 21.348"/>
	<path d="m1244 797.63c0.2941-6.645 0.5881-13.29 0.8822-19.935"/>
	<path d="m1314.2 758.71c-0.287-6.4849-0.574-12.97-0.861-19.455"/>
	<path d="m1247.4 721.22h-1e-4c-0.2449 5.5341-0.4897 11.068-0.7346 16.602"/>
	<path d="m1259.8 878.78h9.6571"/>
	<path d="m1243.1 817.56c0.2941-6.6452 0.5881-13.29 0.8822-19.936"/>
	<path d="m1314.2 758.71c0.287 6.4849 0.574 12.97 0.861 19.455"/>
	<path d="m1312.6 721.22h-8.1472"/>
	<path d="m1242.3 837.5c0.2941-6.6452 0.5881-13.29 0.8822-19.936"/>
	<path d="m1255.6 721.22h-8.2034"/>
	<path d="m1250.1 878.78h9.6571"/>
	<path d="m1280.3 878.78h-10.853"/>
	<path d="m1244.9 777.69c0.2941-6.6453 0.5881-13.29 0.8822-19.936"/>
	<path d="m1271.9 721.22h8.1471"/>
	<path d="m1812.6 1448c-25.462-21.471-50.299-43.07-74.488-64.8"/>
	<path d="m1430.4 1051c-6.1781-8.3495-12.253-16.718-18.222-25.105"/>
	<path d="m1360.2 948.24c3.4333 5.498 6.9128 10.988 10.438 16.471"/>
	<path d="m1329.9 897.26c2.0449 3.6053 4.1099 7.2076 6.1948 10.807"/>
	<path d="m1228.9 666.58c1.3708 4.4503 2.7742 8.8976 4.2096 13.342"/>
	<path d="m1343.1 920.08c-2.3704-3.9987-4.7162-8.0013-7.0374-12.008"/>
	<path d="m1247.4 721.22c-1.0773-2.9163-2.1409-5.8342-3.1907-8.7535"/>
	<path d="m1360.2 948.24c-3.0818-4.9353-6.1265-9.8767-9.1335-14.824"/>
	<path d="m1343.1 920.08c2.6393 4.452 5.3091 8.8993 8.0092 13.342"/>
	<path d="m1382.6 983.01c4.5055 6.7902 9.0808 13.569 13.725 20.335"/>
	<path d="m1241.5 80c-8.3876 23.901-15.853 47.917-22.358 72"/>
	<path d="m1319.6 878.78c1.5955 2.9199 3.2042 5.8378 4.8262 8.7536"/>
	<path d="m1675.1 1324.9c-18.238-17.41-36.056-34.906-53.438-52.488"/>
	<path d="m1201.2 721.22"/>
	<path d="m1224.5 651.76c-1.5984-5.486-3.1475-10.977-4.6469-16.471"/>
	<path d="m1219.8 635.29c-1.6631-6.0952-3.2653-12.196-4.8057-18.301"/>
	<path d="m1237.1 691.93c-1.3459-3.9998-2.6659-8.0025-3.9596-12.008"/>
	<path d="m1244.2 712.46c-1.165-3.2402-2.313-6.4823-3.444-9.7261"/>
	<path d="m1228.9 666.58c-1.5209-4.9376-3.0018-9.879-4.4427-14.824"/>
	<path d="m1240.8 702.74c-1.2551-3.6-2.4893-7.2024-3.7021-10.807"/>
	<path d="m1215 616.99c-1.7086-6.7723-3.3417-13.551-4.8983-20.335"/>
	<path d="m1194.4 275.12c-2.302 17.475-4.0933 34.979-5.3684 52.488"/>
	<path d="m1192 490.06c-1.2583-11.471-2.2961-22.953-3.1121-34.437"/>
	<path d="m1324.4 887.54c1.8048 3.2445 3.626 6.4866 5.4634 9.7261"/>
	<path d="m1189 327.61c-1.1453 15.737-1.8743 31.489-2.1854 47.239"/>
	<path d="m1273.2 0c-11.691 26.522-22.268 53.206-31.673 80"/>
	<path d="m2005.8 1600c-35.919-26.477-70.91-53.139-104.94-80"/>
	<path d="m1576.2 1225.2c-13.206-14.116-26.128-28.288-38.76-42.515"/>
	<path d="m1382.6 983.01c-4.0414-6.0909-8.0266-12.192-11.955-18.302"/>
	<path d="m1205.2 574.06c-1.7061-8.3607-3.2961-16.73-4.7692-25.105"/>
	<path d="m1196 521.06c-1.4918-10.323-2.8057-20.656-3.9401-30.994"/>
	<path d="m1358.8 878.78"/>
	<path d="m1412.1 1025.9c-5.3497-7.5165-10.615-15.048-15.795-22.594"/>
	<path d="m1196 521.06c1.3451 9.3051 2.8351 18.604 4.4688 27.894"/>
	<path d="m1504.3 1144.4c-9.6667-11.443-19.144-22.922-28.426-34.437"/>
	<path d="m1451.4 1078.9c7.9908 10.36 16.14 20.692 24.445 30.994"/>
	<path d="m1186.9 374.85c-0.2792 14.17-0.2202 28.346 0.1768 42.515"/>
	<path d="m1738.1 1383.2c-21.521-19.335-42.529-38.774-63.006-58.32"/>
	<path d="m1187 417.36c0.3579 12.757 0.9901 25.515 1.8953 38.264"/>
	<path d="m1900.9 1520c-30.204-23.843-59.646-47.841-88.297-72"/>
	<path d="m1204 216.8c-3.8269 19.401-7.0292 38.852-9.5951 58.32"/>
	<path d="m1205.2 574.06c1.5385 7.5378 3.1713 15.07 4.8978 22.594"/>
	<path d="m1430.4 1051c6.8975 9.3213 13.924 18.62 21.078 27.894"/>
	<path d="m1537.5 1182.6c-11.283-12.709-22.334-25.464-33.148-38.264"/>
	<path d="m1576.2 1225.2c14.797 15.816 29.95 31.562 45.448 47.239"/>
	<path d="m1219.1 152c-5.8157 21.536-10.87 43.149-15.143 64.8"/>
	<path d="m1286.8 0c11.691 26.522 22.268 53.206 31.673 80"/>
	<path d="m1022.5 1182.6c11.283-12.709 22.334-25.464 33.148-38.264"/>
	<path d="m1326.9 679.92c-1.2937 4.0052-2.6136 8.008-3.9596 12.008"/>
	<path d="m1240.4 878.78c-1.5955 2.9199-3.2042 5.8378-4.8262 8.7536"/>
	<path d="m1208.9 933.42c2.7001-4.4423 5.3699-8.8896 8.0092-13.342"/>
	<path d="m1224 908.07c2.085-3.5991 4.1501-7.2015 6.1951-10.807"/>
	<path d="m1318.5 80c8.3876 23.901 15.852 47.917 22.358 72"/>
	<path d="m1230.1 897.26c1.8373-3.2395 3.6584-6.4816 5.4633-9.7261"/>
	<path d="m1368 490.06c-1.1344 10.338-2.4482 20.671-3.9401 30.994"/>
	<path d="m1147.9 1025.9c-5.9695 8.3868-12.044 16.755-18.222 25.105"/>
	<path d="m1199.8 948.24c3.0818-4.9352 6.1265-9.8766 9.1335-14.824"/>
	<path d="m1358.8 721.22"/>
	<path d="m1177.4 983.01c-4.5055 6.7902-9.0808 13.568-13.725 20.335"/>
	<path d="m1359.6 548.95c-1.473 8.375-3.0631 16.744-4.7692 25.105"/>
	<path d="m1371 327.61c1.1453 15.737 1.8743 31.489 2.1854 47.239"/>
	<path d="m1364 521.06c-1.345 9.3051-2.8351 18.604-4.4688 27.894"/>
	<path d="m1340.2 635.29c-1.4994 5.4948-3.0485 10.985-4.6469 16.471"/>
	<path d="m821.89 1383.2c21.521-19.335 42.529-38.774 63.006-58.32"/>
	<path d="m1365.6 275.12c2.302 17.475 4.0934 34.979 5.3684 52.488"/>
	<path d="m884.9 1324.9c18.239-17.41 36.056-34.906 53.438-52.488"/>
	<path d="m1371.1 455.63c-0.8159 11.485-1.8538 22.966-3.1121 34.437"/>
	<path d="m938.33 1272.4c15.498-15.677 30.651-31.423 45.448-47.239"/>
	<path d="m1084.1 1109.9c-9.2828 11.515-18.76 22.994-28.426 34.437"/>
	<path d="m983.78 1225.2c13.206-14.116 26.128-28.288 38.76-42.515"/>
	<path d="m1354.8 574.06c-1.5385 7.5378-3.1713 15.07-4.8978 22.594"/>
	<path d="m1224 908.07c-2.321 4.0065-4.6669 8.009-7.0372 12.008"/>
	<path d="m1322.9 691.93c-1.2129 3.6044-2.447 7.2067-3.702 10.807"/>
	<path d="m659.11 1520c30.204-23.843 59.646-47.841 88.297-72"/>
	<path d="m747.4 1448c25.462-21.471 50.299-43.07 74.488-64.8"/>
	<path d="m1345 616.99c-1.5404 6.1054-3.1425 12.206-4.8057 18.301"/>
	<path d="m554.17 1600c35.919-26.477 70.91-53.139 104.94-80"/>
	<path d="m1315.8 712.46c-1.0498 2.9194-2.1133 5.8372-3.1906 8.7535"/>
	<path d="m1349.9 596.65c-1.5566 6.784-3.1897 13.563-4.8983 20.335"/>
	<path d="m1356 216.8c3.8269 19.401 7.0292 38.852 9.5951 58.32"/>
	<path d="m1319.2 702.74c-1.131 3.2438-2.2791 6.486-3.4441 9.7261"/>
	<path d="m1084.1 1109.9c8.3044-10.302 16.454-20.634 24.445-30.994"/>
	<path d="m1340.9 152c5.8157 21.536 10.87 43.149 15.143 64.8"/>
	<path d="m1335.5 651.76c-1.4408 4.9451-2.9219 9.8865-4.4427 14.824"/>
	<path d="m1373 417.36c-0.3579 12.757-0.99 25.515-1.8953 38.264"/>
	<path d="m1189.3 964.71c3.5251-5.4828 7.0046-10.973 10.438-16.471"/>
	<path d="m1108.6 1078.9c7.1533-9.2748 14.18-18.573 21.078-27.894"/>
	<path d="m1177.4 983.01c4.0414-6.0909 8.0267-12.192 11.955-18.302"/>
	<path d="m1147.9 1025.9c5.3497-7.5165 10.615-15.048 15.795-22.594"/>
	<path d="m1373.1 374.85c0.2792 14.17 0.2202 28.346-0.1768 42.515"/>
	<path d="m1201.2 878.78"/>
	<path d="m1331.1 666.58c-1.3708 4.4503-2.774 8.8976-4.2096 13.342"/>
	<path d="m1276.6 0h-1.7064"/>
	<path d="m1278.3 0h-1.7064"/>
	<path d="m1281.7 0h-1.7064"/>
	<path d="m1286.8 0h-1.7064"/>
	<path d="m1283.4 0h-1.7064"/>
	<path d="m1280 0h-1.7064"/>
	<path d="m1273.2 0h1.7064"/>
	<path d="m1285.1 0h-1.7064"/>
	<path d="m644.04 1400c29.959-66.667 59.917-133.33 89.876-200"/>
	<path d="m1093.4 400c-29.959 66.667-59.917 133.33-89.876 200"/>
	<path d="m823.79 1e3c-29.959 66.667-59.917 133.33-89.876 200"/>
	<path d="m644.04 1400c-29.959 66.667-59.917 133.33-89.876 200"/>
	<path d="m1183.3 200c-29.959 66.667-59.917 133.33-89.876 200"/>
	<path d="m1273.2 0c-29.959 66.667-59.917 133.33-89.876 200"/>
	<path d="m913.67 800c-29.959 66.667-59.917 133.33-89.876 200"/>
	<path d="m1003.5 600c-29.959 66.667-59.917 133.33-89.876 200"/>
	<path d="m917.08 1600h181.46"/>
	<path d="m1461.5 1600h181.46"/>
	<path d="m1642.9 1600h181.46"/>
	<path d="m735.62 1600h181.46"/>
	<path d="m1280 1600h181.46"/>
	<path d="m1098.5 1600h181.46"/>
	<path d="m2005.8 1600h-181.46"/>
	<path d="m554.17 1600h181.46"/>
	<path d="m2005.8 1600c-29.959-66.667-59.917-133.33-89.876-200"/>
	<path d="m1916 1400c-29.959-66.667-59.917-133.33-89.876-200"/>
	<path d="m1736.2 1e3c-29.959-66.667-59.917-133.33-89.876-200"/>
	<path d="m1646.3 800c-29.959-66.667-59.917-133.33-89.876-200"/>
	<path d="m1826.1 1200c-29.959-66.667-59.917-133.33-89.876-200"/>
	<path d="m1556.5 600c-29.959-66.667-59.917-133.33-89.876-200"/>
	<path d="m1376.7 200c29.959 66.667 59.917 133.33 89.876 200"/>
	<path d="m1376.7 200c-29.959-66.667-59.917-133.33-89.876-200"/>
	<path d="m1349.9 374.85c-0.2334-15.748-0.7799-31.498-1.639-47.239"/>
	<path d="m1337 216.8c-3.2009-21.629-6.9899-43.237-11.357-64.8"/>
	<path d="m1349.9 374.85c0.2094 14.171 0.1652 28.345-0.1326 42.515"/>
	<path d="m1346 490.06c-0.8506 10.335-1.8358 20.667-2.9551 30.994"/>
	<path d="m1339.7 548.95c1.2258-9.2935 2.3431-18.592 3.3516-27.894"/>
	<path d="m1312.2 691.93c-0.9094 3.6036-1.8351 7.2059-2.7766 10.807"/>
	<path d="m1312.2 691.93c1.0098-4.001 1.9996-8.0036 2.9697-12.008"/>
	<path d="m1318.3 666.58c-1.0278 4.449-2.0802 8.8964-3.1571 13.342"/>
	<path d="m1348.2 327.61c-0.9561-17.503-2.299-35.004-4.0264-52.488"/>
	<path d="m1332.4 596.65c1.2954-7.5275 2.5199-15.059 3.6733-22.594"/>
	<path d="m1346 490.06c0.944-11.475 1.7223-22.955 2.334-34.437"/>
	<path d="m1348.3 455.63c0.6791-12.751 1.1531-25.508 1.4215-38.264"/>
	<path d="m1321.7 651.76c1.1992-5.4879 2.361-10.978 3.4851-16.471"/>
	<path d="m1306.8 712.46c0.8739-3.241 1.735-6.483 2.583-9.7261"/>
	<path d="m1325.1 635.29c1.2478-6.0974 2.4493-12.198 3.6042-18.301"/>
	<path d="m1325.6 152c-4.8719-24.048-10.467-48.058-16.768-72"/>
	<path d="m1318.3 666.58c1.141-4.9391 2.2518-9.8806 3.3322-14.824"/>
	<path d="m1285.1 0c8.7871 26.579 16.714 53.258 23.755 80"/>
	<path d="m1328.7 616.99c1.282-6.7748 2.5066-13.553 3.6737-20.335"/>
	<path d="m1336.1 574.06c1.28-8.3639 2.4725-16.733 3.5769-25.105"/>
	<path d="m1304.4 721.22c0.8081-2.9169 1.6058-5.8348 2.3929-8.7535"/>
	<path d="m1344.2 275.12c-1.9232-19.456-4.3237-38.902-7.1963-58.32"/>
	<path d="m1339.1 721.22"/>
	<path d="m1305.5 666.58c0.7609-4.9404 1.5013-9.8817 2.2214-14.824"/>
	<path d="m1303.4 679.92c0.7181-4.4464 1.4197-8.8936 2.1047-13.342"/>
	<path d="m1307.8 651.76c0.7997-5.4893 1.5742-10.98 2.3235-16.471"/>
	<path d="m1326.5 417.36c-0.179 12.755-0.4949 25.511-0.9476 38.264"/>
	<path d="m1299.6 702.74c-0.5653 3.2426-1.1393 6.4846-1.722 9.7261"/>
	<path d="m1319.4 721.22"/>
	<path d="m1310.1 635.29c0.832-6.0991 1.6331-12.2 2.4028-18.301"/>
	<path d="m1283.4 0c5.8683 26.626 11.15 53.299 15.836 80"/>
	<path d="m1297.9 712.46c-0.5247 2.9183-1.0564 5.8361-1.5952 8.7535"/>
	<path d="m1322 521.06c0.7463-10.329 1.4031-20.661 1.9701-30.994"/>
	<path d="m1326.6 374.85c-0.1555-15.747-0.5198-31.495-1.0927-47.239"/>
	<path d="m1326.5 417.36c0.1985-14.171 0.2279-28.344 0.0883-42.515"/>
	<path d="m1322.8 275.12c-1.2815-19.447-2.8812-38.89-4.7975-58.32"/>
	<path d="m1325.5 327.61c-0.6372-17.499-1.5321-34.997-2.6842-52.488"/>
	<path d="m1299.6 702.74c0.6278-3.6017 1.2449-7.204 1.8511-10.807"/>
	<path d="m1303.4 679.92c-0.6466 4.0033-1.3065 8.0059-1.9797 12.008"/>
	<path d="m1317.4 574.06c0.8536-8.3663 1.6486-16.735 2.3846-25.105"/>
	<path d="m1314.9 596.65c0.8639-7.5297 1.6802-15.061 2.4489-22.594"/>
	<path d="m1312.5 616.99c0.8549-6.7767 1.6713-13.555 2.4491-20.335"/>
	<path d="m1324 490.06c0.6294-11.477 1.1482-22.957 1.556-34.437"/>
	<path d="m1322 521.06c-0.6721 9.2999-1.417 18.598-2.2344 27.894"/>
	<path d="m1299.2 80c4.2064 23.973 7.9346 47.978 11.179 72"/>
	<path d="m1318 216.8c-2.1324-21.613-4.6572-43.217-7.5714-64.8"/>
	<path d="m1296.2 616.99c0.4276-6.7779 0.8357-13.556 1.2246-20.335"/>
	<path d="m1295 635.29c0.4161-6.1002 0.8167-12.201 1.2014-18.301"/>
	<path d="m1290.7 691.93c-0.303 3.6025-0.6116 7.2047-0.9255 10.807"/>
	<path d="m1299.9 548.95c-0.3679 8.3687-0.7654 16.737-1.1923 25.105"/>
	<path d="m1297.5 596.65c0.432-7.531 0.8402-15.062 1.2245-22.594"/>
	<path d="m1288.1 721.22c0.2695-2.9177 0.5354-5.8356 0.7977-8.7535"/>
	<path d="m1281.7 0c2.9375 26.656 5.5773 53.324 7.9182 80"/>
	<path d="m1302.8 455.63c0.2264-12.754 0.3843-25.509 0.4738-38.264"/>
	<path d="m1303.2 417.36c0.0992-14.172 0.114-28.344 0.0442-42.515"/>
	<path d="m1302.8 455.63c-0.2039 11.48-0.4633 22.959-0.778 34.437"/>
	<path d="m1303.3 374.85c-0.0778-15.747-0.2599-31.493-0.5463-47.239"/>
	<path d="m1290.7 691.93c0.3367-4.0024 0.6666-8.0049 0.9899-12.008"/>
	<path d="m1301 521.06c0.3733-10.331 0.7017-20.662 0.9851-30.994"/>
	<path d="m1299.7 721.22"/>
	<path d="m1288.9 712.46c0.2915-3.2419 0.5785-6.4839 0.861-9.7261"/>
	<path d="m1302.7 327.61c-0.3186-17.497-0.766-34.993-1.3422-52.488"/>
	<path d="m1299.9 548.95c0.4088-9.2976 0.7811-18.596 1.1172-27.894"/>
	<path d="m1291.7 679.92c0.3591-4.447 0.71-8.8942 1.0525-13.342"/>
	<path d="m1293.9 651.76c0.4-5.4902 0.7872-10.981 1.1617-16.471"/>
	<path d="m1292.8 666.58c0.3805-4.9411 0.7507-9.8824 1.1106-14.824"/>
	<path d="m1289.6 80c2.105 23.993 3.9684 47.994 5.5895 72"/>
	<path d="m1295.2 152c1.458 21.596 2.72 43.197 3.7856 64.8"/>
	<path d="m1301.4 275.12c-0.6406-19.442-1.4402-38.883-2.3988-58.32"/>
	<path d="m1280 0v80"/>
	<path d="m1280 721.22"/>
	<path d="m1280 651.76v-16.471"/>
	<path d="m1280 80v72"/>
	<path d="m1280 721.22v-8.7535"/>
	<path d="m1280 712.46v-9.7261"/>
	<path d="m1280 702.74v-10.807"/>
	<path d="m1280 666.58v-14.824"/>
	<path d="m1280 616.99v-20.335"/>
	<path d="m1280 635.29v-18.301"/>
	<path d="m1280 574.06v22.594"/>
	<path d="m1280 679.92v-13.342"/>
	<path d="m1280 691.93v-12.008"/>
	<path d="m1280 216.8v58.32"/>
	<path d="m1280 417.36v-42.515"/>
	<path d="m1280 455.63v-38.264"/>
	<path d="m1280 374.85v-47.239"/>
	<path d="m1280 490.06v-34.437"/>
	<path d="m1280 548.95v-27.894"/>
	<path d="m1280 574.06v-25.105"/>
	<path d="m1280 275.12v52.488"/>
	<path d="m1280 490.06v30.994"/>
	<path d="m1280 152v64.8"/>
	<path d="m1261.3 574.06c-0.4269-8.3677-0.8242-16.736-1.1923-25.105"/>
	<path d="m1259 521.06c-0.3733-10.331-0.7015-20.662-0.985-30.994"/>
	<path d="m1270.4 80c-2.105 23.993-3.9684 47.994-5.5895 72"/>
	<path d="m1266.1 651.76c-0.3999-5.4902-0.7871-10.981-1.1616-16.471"/>
	<path d="m1265 635.29c-0.4161-6.1002-0.8167-12.201-1.2014-18.301"/>
	<path d="m1267.2 666.58c-0.3805-4.9411-0.7507-9.8824-1.1107-14.824"/>
	<path d="m1271.1 712.46c-0.2914-3.2419-0.5784-6.4839-0.861-9.7261"/>
	<path d="m1262.5 596.65c-0.432-7.531-0.8401-15.062-1.2245-22.594"/>
	<path d="m1268.3 679.92c-0.3591-4.447-0.71-8.8942-1.0525-13.342"/>
	<path d="m1264.8 152c-1.458 21.596-2.72 43.197-3.7856 64.8"/>
	<path d="m1260.3 721.22"/>
	<path d="m1261 216.8c-0.9585 19.438-1.7582 38.878-2.3988 58.32"/>
	<path d="m1262.5 596.65c0.3889 6.7787 0.7971 13.557 1.2246 20.335"/>
	<path d="m1259 521.06c0.3361 9.2985 0.7085 18.597 1.1172 27.894"/>
	<path d="m1257.3 327.61c-0.2864 15.746-0.4685 31.493-0.5463 47.239"/>
	<path d="m1271.9 721.22c-0.2695-2.9177-0.5354-5.8356-0.7977-8.7535"/>
	<path d="m1269.3 691.93c-0.3367-4.0024-0.6666-8.0049-0.9897-12.008"/>
	<path d="m1258 490.06c-0.3148-11.479-0.5742-22.958-0.7781-34.437"/>
	<path d="m1257.2 455.63c-0.2263-12.754-0.3843-25.509-0.4738-38.264"/>
	<path d="m1278.3 0c-2.9375 26.656-5.5773 53.324-7.9182 80"/>
	<path d="m1270.2 702.74c-0.314-3.6022-0.6226-7.2044-0.9257-10.807"/>
	<path d="m1258.6 275.12c-0.5762 17.495-1.0236 34.991-1.3422 52.488"/>
	<path d="m1256.8 417.36c-0.0992-14.172-0.114-28.344-0.0442-42.515"/>
	<path d="m1245.1 596.65c-0.8647-7.5297-1.6819-15.061-2.4514-22.594"/>
	<path d="m1234.5 327.61c-0.5718 15.744-0.9351 31.492-1.0895 47.239"/>
	<path d="m1240.3 548.95c0.7369 8.37 1.5327 16.738 2.3872 25.105"/>
	<path d="m1262.2 712.46c-0.5831-3.2415-1.1576-6.4836-1.7233-9.7261"/>
	<path d="m1254.5 666.58c0.6855 4.4481 1.3877 8.8953 2.1063 13.342"/>
	<path d="m1236 490.06c-0.6305-11.477-1.1503-22.957-1.5591-34.437"/>
	<path d="m1234.5 455.63c-0.4539-12.753-0.7708-25.508-0.9507-38.264"/>
	<path d="m1238 521.06c-0.7473-10.329-1.405-20.661-1.9729-30.994"/>
	<path d="m1260.4 702.74c-0.6283-3.6017-1.2458-7.204-1.8525-10.807"/>
	<path d="m1233.4 374.85c-0.1387 14.171-0.1082 28.344 0.0914 42.515"/>
	<path d="m1256.6 679.92c0.6471 4.0033 1.3076 8.0059 1.9813 12.008"/>
	<path d="m1240.7 721.22"/>
	<path d="m1263.8 721.22c-0.5392-2.9174-1.0714-5.8353-1.5964-8.7535"/>
	<path d="m1247.5 616.99c0.7704 6.1017 1.5721 12.202 2.4049 18.301"/>
	<path d="m1249.9 635.29c0.7499 5.4916 1.525 10.982 2.3254 16.471"/>
	<path d="m1252.3 651.76c0.7206 4.9423 1.4617 9.8837 2.2231 14.824"/>
	<path d="m1247.5 616.99c-0.8556-6.7767-1.6729-13.555-2.4514-20.335"/>
	<path d="m1240.3 548.95c-0.8182-9.296-1.564-18.594-2.2371-27.894"/>
	<path d="m1276.6 0c-5.8683 26.626-11.15 53.299-15.836 80"/>
	<path d="m1242 216.8c-1.9155 19.43-3.5143 38.873-4.7948 58.32"/>
	<path d="m1237.2 275.12c-1.1512 17.491-2.0452 34.989-2.6814 52.488"/>
	<path d="m1260.8 80c-4.2061 23.973-7.9336 47.978-11.177 72"/>
	<path d="m1249.6 152c-2.9136 21.583-5.4376 43.187-7.5691 64.8"/>
	<path d="m1253.2 712.46c-0.8745-3.241-1.7361-6.483-2.5846-9.7261"/>
	<path d="m1241.7 666.58c1.0284 4.449 2.0815 8.8964 3.1592 13.342"/>
	<path d="m1234.9 635.29c1.1249 5.4929 2.2875 10.984 3.4874 16.471"/>
	<path d="m1223 216.8c-2.8717 19.418-5.2711 38.864-7.1931 58.32"/>
	<path d="m1244.9 679.92c0.9706 4.0041 1.9611 8.0067 2.9714 12.008"/>
	<path d="m1247.9 691.93c0.9099 3.6036 1.8361 7.2059 2.7782 10.807"/>
	<path d="m1238.4 651.76c1.0809 4.9435 2.1924 9.8849 3.3341 14.824"/>
	<path d="m1217 521.06c1.0095 9.3021 2.1279 18.601 3.3549 27.894"/>
	<path d="m1214.1 490.06c0.8517 10.335 1.838 20.667 2.9584 30.994"/>
	<path d="m1211.7 455.63c0.6129 11.482 1.3923 22.963 2.3375 34.437"/>
	<path d="m1231.3 616.99c1.1558 6.1033 2.358 12.204 3.6067 18.301"/>
	<path d="m1227.6 596.65c1.168 6.7816 2.3936 13.56 3.6764 20.335"/>
	<path d="m1220.4 548.95c1.1053 8.3721 2.2988 16.741 3.58 25.105"/>
	<path d="m1274.9 0c-8.787 26.579-16.714 53.258-23.754 80"/>
	<path d="m1211.8 327.61c-0.858 15.741-1.4034 31.491-1.6354 47.239"/>
	<path d="m1215.8 275.12c-1.7264 17.484-3.0682 34.984-4.0229 52.488"/>
	<path d="m1255.6 721.22c-0.8086-2.9169-1.6067-5.8348-2.3942-8.7535"/>
	<path d="m1210.2 374.85c-0.2083 14.171-0.163 28.345 0.1361 42.515"/>
	<path d="m1223.9 574.06c1.1543 7.5351 2.3798 15.067 3.6761 22.594"/>
	<path d="m1221 721.22"/>
	<path d="m1210.3 417.36c0.2695 12.756 0.7448 25.513 1.425 38.264"/>
	<path d="m1234.4 152c-4.3665 21.563-8.1545 43.171-11.354 64.8"/>
	<path d="m1251.1 80c-6.3009 23.942-11.895 47.952-16.767 72"/>
	<path d="m1502.2 1225.2c-9.9158-14.132-19.608-28.305-29.07-42.515"/>
	<path d="m1322 908.07c1.7402 4.005 3.4995 8.0076 5.278 12.008"/>
	<path d="m1679.4 1448c-19.125-21.503-37.752-43.103-55.866-64.8"/>
	<path d="m1309.7 878.78c1.1964 2.9191 2.403 5.837 3.6196 8.7536"/>
	<path d="m1348 964.71c-2.6453-5.4855-5.2549-10.976-7.8286-16.471"/>
	<path d="m1317.4 897.26c-1.3784-3.2404-2.7443-6.4825-4.0975-9.7261"/>
	<path d="m1448.2 1144.4c-7.2571-11.454-14.365-22.934-21.32-34.437"/>
	<path d="m1333.3 933.42c-2.0258-4.4442-4.0281-8.8914-6.0068-13.342"/>
	<path d="m1576.3 1324.9c-13.697-17.434-27.06-34.93-40.079-52.488"/>
	<path d="m1317.4 897.26c1.5332 3.6042 3.0819 7.2066 4.6462 10.807"/>
	<path d="m1367.3 1003.3c3.8821 7.5412 7.8312 15.073 11.846 22.594"/>
	<path d="m1745.7 1520c-22.687-23.88-44.769-47.88-66.223-72"/>
	<path d="m1408.6 1078.9c5.9877 10.351 12.1 20.682 18.334 30.994"/>
	<path d="m1473.1 1182.6c-8.4713-12.723-16.76-25.478-24.861-38.264"/>
	<path d="m1408.6 1078.9c-5.3694-9.2823-10.639-18.581-15.808-27.894"/>
	<path d="m1536.2 1272.4c-11.638-15.697-23.003-31.444-34.086-47.239"/>
	<path d="m1824.4 1600c-26.981-26.518-53.225-53.184-78.704-80"/>
	<path d="m1348 964.71c2.9447 6.1066 5.9337 12.207 8.9664 18.302"/>
	<path d="m1623.6 1383.2c-16.164-19.362-31.919-38.803-47.254-58.32"/>
	<path d="m1367.3 1003.3c-3.4851-6.7704-6.9165-13.549-10.294-20.335"/>
	<path d="m1392.8 1051c-4.6371-8.3557-9.193-16.724-13.667-25.105"/>
	<path d="m1333.3 933.42c2.2543 4.9452 4.5377 9.8866 6.8501 14.824"/>
	<path d="m1339.1 878.78"/>
	<path d="m1319.9 948.24c1.7156 5.4929 3.4557 10.983 5.2205 16.471"/>
	<path d="m1315.4 933.42c1.5027 4.9432 3.0254 9.8846 4.568 14.824"/>
	<path d="m1311.4 920.08c1.319 4.4487 2.6542 8.896 4.0055 13.342"/>
	<path d="m1331.1 983.01c2.2507 6.7822 4.5391 13.56 6.8646 20.335"/>
	<path d="m1338 1003.3c2.5873 7.5364 5.2207 15.068 7.9001 22.594"/>
	<path d="m1325.2 964.71c1.9628 6.1035 3.9559 12.204 5.9795 18.302"/>
	<path d="m1546.2 1448c-12.781-21.543-25.206-43.144-37.266-64.8"/>
	<path d="m1509 1383.2c-10.8-19.395-21.309-38.836-31.521-58.32"/>
	<path d="m1477.5 1324.9c-9.1506-17.461-18.063-34.958-26.734-52.488"/>
	<path d="m1304.8 897.26c1.0221 3.6033 2.0548 7.2056 3.0981 10.807"/>
	<path d="m1307.8 908.07c1.16 4.0038 2.3331 8.0063 3.5194 12.008"/>
	<path d="m1345.9 1025.9c2.9813 8.3745 6.0197 16.743 9.1144 25.105"/>
	<path d="m1392 1144.4c5.3971 12.771 10.925 25.526 16.582 38.264"/>
	<path d="m1450.7 1272.4c-7.7738-15.719-15.354-31.466-22.736-47.239"/>
	<path d="m1590.4 1520c-15.165-23.927-29.894-47.929-44.176-72"/>
	<path d="m1428 1225.2c-6.6223-14.15-13.086-28.323-19.389-42.515"/>
	<path d="m1302 887.54c0.9021 3.2428 1.8127 6.4848 2.7322 9.7261"/>
	<path d="m1355 1051c3.4445 9.306 6.959 18.604 10.543 27.894"/>
	<path d="m1299.6 878.78c0.7975 2.9185 1.6021 5.8364 2.4136 8.7536"/>
	<path d="m1377.8 1109.9c4.634 11.492 9.3743 22.971 14.22 34.437"/>
	<path d="m1365.6 1078.9c3.9897 10.341 8.0659 20.673 12.227 30.994"/>
	<path d="m1319 878.78"/>
	<path d="m1642.9 1600c-18.038-26.574-35.544-53.243-52.503-80"/>
	<path d="m1435.3 1520c-7.5743-23.977-14.915-47.978-22.02-72"/>
	<path d="m1413.3 1448c-6.3832-21.582-12.576-43.183-18.578-64.8"/>
	<path d="m1292.8 897.26c0.5104 3.6025 1.0262 7.2048 1.5475 10.807"/>
	<path d="m1296.1 920.08c0.6586 4.4476 1.3253 8.8949 2.0002 13.342"/>
	<path d="m1329.3 1109.9c2.3102 11.483 4.6749 22.962 7.0941 34.437"/>
	<path d="m1461.5 1600c-9.0106-26.637-17.734-53.305-26.168-80"/>
	<path d="m1294.4 908.07c0.5792 4.0029 1.1652 8.0054 1.7577 12.008"/>
	<path d="m1336.4 1144.4c2.6899 12.759 5.4471 25.514 8.2715 38.264"/>
	<path d="m1290.2 878.78c0.3983 2.918 0.8002 5.8359 1.2057 8.7536"/>
	<path d="m1291.4 887.54c0.4504 3.2422 0.9054 6.4843 1.3647 9.7261"/>
	<path d="m1300.4 878.78"/>
	<path d="m1317.9 1051c1.7179 9.3003 3.4716 18.598 5.2611 27.894"/>
	<path d="m1313.4 1025.9c1.4872 8.37 3.0035 16.738 4.549 25.105"/>
	<path d="m1298.1 933.42c0.7502 4.9418 1.5106 9.8832 2.281 14.824"/>
	<path d="m1344.6 1182.6c3.1407 14.178 6.3645 28.35 9.6708 42.515"/>
	<path d="m1309.4 1003.3c1.2909 7.5328 2.6052 15.064 3.9432 22.594"/>
	<path d="m1354.3 1225.2c3.6775 15.754 7.4572 31.501 11.339 47.239"/>
	<path d="m1379 1324.9c-4.5691-17.486-9.0129-34.982-13.331-52.488"/>
	<path d="m1306 983.01c1.1232 6.7794 2.2654 13.558 3.4268 20.335"/>
	<path d="m1394.7 1383.2c-5.3933-19.426-10.632-38.867-15.716-58.32"/>
	<path d="m1300.4 948.24c0.8563 5.4911 1.7252 10.982 2.6066 16.471"/>
	<path d="m1323.2 1078.9c1.9894 10.334 4.0231 20.665 6.1008 30.994"/>
	<path d="m1303 964.71c0.9796 6.1013 1.9747 12.202 2.9852 18.302"/>
	<path d="m1280.3 897.26c-4e-4 3.6023-7e-4 7.2046-0.0011 10.807"/>
	<path d="m1280.3 887.54c-2e-4 3.242-5e-4 6.4841-7e-4 9.7261"/>
	<path d="m1280.3 908.07c-4e-4 4.0026-7e-4 8.0051-0.0011 12.008"/>
	<path d="m1280.2 1109.9c-0.0029 11.479-0.0061 22.958-0.0094 34.437"/>
	<path d="m1280.2 1225.2c-0.0055 15.746-0.0114 31.493-0.0176 47.239"/>
	<path d="m1280.3 933.42c-6e-4 4.9413-0.0012 9.8827-0.0018 14.824"/>
	<path d="m1280.3 920.08c-5e-4 4.4472-1e-3 8.8945-0.0015 13.342"/>
	<path d="m1280.3 948.24c-6e-4 5.4904-0.0013 10.981-0.0021 16.471"/>
	<path d="m1280.2 1182.6c-0.0045 14.172-0.0093 28.344-0.0143 42.515"/>
	<path d="m1280.2 1144.4c-0.0037 12.754-0.0076 25.509-0.0116 38.264"/>
	<path d="m1280.2 1078.9c-0.0024 10.331-5e-3 20.662-0.0077 30.994"/>
	<path d="m1280.3 878.78c-2e-4 2.9178-5e-4 5.8358-7e-4 8.7536"/>
	<path d="m1280.2 1272.4c-0.0068 17.496-0.014 34.992-0.0217 52.488"/>
	<path d="m1280.5 878.78"/>
	<path d="m1280 1520c0.0143-24 0.0278-48 0.0406-72"/>
	<path d="m1280.2 1003.3c-0.0013 7.5314-0.0027 15.063-0.0042 22.594"/>
	<path d="m1280.3 964.71c-9e-4 6.1005-0.0018 12.201-0.0028 18.302"/>
	<path d="m1280 1600c0.0176-26.667 0.0343-53.333 0.05-80"/>
	<path d="m1280.2 1051c-2e-3 9.2981-4e-3 18.596-0.0062 27.894"/>
	<path d="m1280.2 1025.9c-0.0016 8.3683-0.0033 16.737-5e-3 25.105"/>
	<path d="m1280.1 1448c0.0116-21.6 0.0226-43.2 0.033-64.8"/>
	<path d="m1280.1 1383.2c0.0094-19.44 0.0183-38.88 0.0267-58.32"/>
	<path d="m1280.3 983.01c-1e-3 6.7783-0.0022 13.557-0.0033 20.335"/>
	<path d="m1250.3 1003.3c-1.2891 7.5328-2.6017 15.064-3.9377 22.594"/>
	<path d="m1165.1 1383.2c-5.9879 21.617-12.166 43.217-18.534 64.8"/>
	<path d="m1205.4 1225.2c-3.67 15.754-7.4419 31.501-11.315 47.239"/>
	<path d="m1180.8 1324.9c-5.0724 19.453-10.3 38.893-15.68 58.32"/>
	<path d="m1194.1 1272.4c-4.3086 17.506-8.7428 35.002-13.302 52.488"/>
	<path d="m1236.5 1078.9c-1.9862 10.334-4.0166 20.665-6.0908 30.994"/>
	<path d="m1215.1 1182.6c-3.1348 14.178-6.3523 28.35-9.652 42.515"/>
	<path d="m1223.3 1144.4c-2.6852 12.759-5.4373 25.514-8.2562 38.264"/>
	<path d="m1258.9 878.78"/>
	<path d="m1098.5 1600c8.9874-26.637 17.689-53.305 26.101-80"/>
	<path d="m1124.6 1520c7.5554-23.977 14.878-47.978 21.966-72"/>
	<path d="m1230.4 1109.9c-2.3063 11.483-4.6669 22.962-7.0815 34.437"/>
	<path d="m1261.5 933.42c-0.7494 4.9418-1.5089 9.8832-2.2786 14.824"/>
	<path d="m1268.2 887.54c-0.4502 3.2422-0.9048 6.4843-1.3638 9.7261"/>
	<path d="m1263.5 920.08c-0.658 4.4476-1.3241 8.8949-1.9985 13.342"/>
	<path d="m1269.4 878.78c-0.3981 2.918-0.7996 5.8359-1.2047 8.7536"/>
	<path d="m1241.8 1051c-1.7152 9.3003-3.4662 18.598-5.2528 27.894"/>
	<path d="m1266.8 897.26c-0.51 3.6025-1.0254 7.2048-1.5461 10.807"/>
	<path d="m1265.3 908.07c-0.5787 4.0029-1.1642 8.0054-1.7561 12.008"/>
	<path d="m1253.7 983.01c-1.1218 6.7794-2.2626 13.558-3.4225 20.335"/>
	<path d="m1259.3 948.24c-0.8553 5.4911-1.7233 10.982-2.6036 16.471"/>
	<path d="m1256.7 964.71c-0.9784 6.1013-1.9723 12.202-2.9814 18.302"/>
	<path d="m1246.3 1025.9c-1.4851 8.3699-2.9993 16.738-4.5422 25.105"/>
	<path d="m1259.8 878.78c-0.797 2.9185-1.601 5.8364-2.412 8.7536"/>
	<path d="m917.08 1600c17.995-26.575 35.46-53.243 52.38-80"/>
	<path d="m1082.2 1324.9c-10.191 19.484-20.678 38.925-31.455 58.32"/>
	<path d="m1239.4 948.24c-1.7137 5.4928-3.4521 10.983-5.215 16.471"/>
	<path d="m1013.5 1448c-14.25 24.071-28.946 48.072-44.076 72"/>
	<path d="m1181.7 1109.9c-4.6267 11.492-9.3594 22.971-14.197 34.437"/>
	<path d="m1193.9 1078.9c-3.9839 10.341-8.0537 20.673-12.209 30.994"/>
	<path d="m1234.2 964.71c-1.9607 6.1035-3.9518 12.204-5.9729 18.302"/>
	<path d="m1213.5 1025.9c-2.9774 8.3744-6.0117 16.743-9.1022 25.105"/>
	<path d="m1228.2 983.01c-2.2482 6.7822-4.5337 13.56-6.8564 20.335"/>
	<path d="m1108.9 1272.4c-8.6534 17.53-17.548 35.027-26.681 52.488"/>
	<path d="m1050.7 1383.2c-12.034 21.656-24.432 43.257-37.186 64.8"/>
	<path d="m1221.4 1003.3c-2.5841 7.5363-5.2142 15.068-7.8901 22.594"/>
	<path d="m1239.7 878.78"/>
	<path d="m1251.5 908.07c-1.1591 4.0038-2.3313 8.0063-3.5166 12.008"/>
	<path d="m1254.6 897.26c-1.0214 3.6033-2.0533 7.2056-3.0958 10.807"/>
	<path d="m1131.6 1225.2c-7.3687 15.773-14.934 31.52-22.693 47.239"/>
	<path d="m1248 920.08c-1.3177 4.4487-2.6519 8.896-4.002 13.342"/>
	<path d="m1150.9 1182.6c-6.2921 14.193-12.744 28.365-19.354 42.515"/>
	<path d="m1244 933.42c-1.5012 4.9432-3.0225 9.8846-4.5636 14.824"/>
	<path d="m1167.5 1144.4c-5.3881 12.771-10.906 25.526-16.553 38.264"/>
	<path d="m1257.3 887.54c-0.9014 3.2428-1.8115 6.4848-2.7301 9.7261"/>
	<path d="m1204.4 1051c-3.4396 9.306-6.9491 18.604-10.528 27.894"/>
	<path d="m983.54 1324.9c-15.328 19.517-31.075 38.958-47.231 58.32"/>
	<path d="m1226.5 933.42c-2.2538 4.9452-4.5367 9.8866-6.8485 14.824"/>
	<path d="m1023.6 1272.4c-13.013 17.558-26.369 35.054-40.06 52.488"/>
	<path d="m1057.7 1225.2c-11.078 15.795-22.438 31.542-34.07 47.239"/>
	<path d="m1219.6 948.24c-2.5731 5.4953-5.1821 10.986-7.8265 16.471"/>
	<path d="m1202.8 983.01c-3.3761 6.786-6.8065 13.564-10.291 20.335"/>
	<path d="m1232.5 920.08c-1.9783 4.4503-3.9802 8.8976-6.0056 13.342"/>
	<path d="m814.28 1520c-25.465 26.816-51.694 53.482-78.66 80"/>
	<path d="m1211.8 964.71c-2.944 6.1066-5.9321 12.207-8.964 18.302"/>
	<path d="m880.47 1448c-21.443 24.12-43.512 48.12-66.187 72"/>
	<path d="m936.31 1383.2c-18.104 21.696-36.722 43.297-55.837 64.8"/>
	<path d="m1086.7 1182.6c-9.4584 14.211-19.146 28.383-29.057 42.515"/>
	<path d="m1151.2 1078.9c-5.9855 10.351-12.095 20.682-18.327 30.994"/>
	<path d="m1220.4 878.78"/>
	<path d="m1167 1051c-5.1671 9.3136-10.435 18.612-15.803 27.894"/>
	<path d="m1250.1 878.78c-1.1962 2.9191-2.4025 5.837-3.619 8.7536"/>
	<path d="m1192.5 1003.3c-3.881 7.5411-7.8287 15.073-11.842 22.594"/>
	<path d="m1111.6 1144.4c-8.0979 12.786-16.383 25.54-24.85 38.264"/>
	<path d="m1180.7 1025.9c-4.4723 8.3805-9.0267 16.749-13.662 25.105"/>
	<path d="m1242.4 897.26c-1.533 3.6042-3.0814 7.2066-4.6454 10.807"/>
	<path d="m1237.7 908.07c-1.7399 4.005-3.4988 8.0076-5.2769 12.008"/>
	<path d="m1246.5 887.54c-1.353 3.2436-2.7186 6.4857-4.0968 9.7261"/>
	<path d="m1132.9 1109.9c-6.9524 11.504-14.057 22.983-21.311 34.437"/>
	<path d="m1828 1339.7c-25.415-17.961-50.266-36.034-74.538-54.227"/>
	<path d="m1358.8 856.82"/>
	<path d="m1421.3 986.56c-5.5845-6.2879-11.094-12.59-16.526-18.908"/>
	<path d="m1404.7 967.65c-4.8677-5.6605-9.674-11.333-14.418-17.017"/>
	<path d="m1440.3 1007.6c-6.4224-6.9847-12.752-13.988-18.988-21.008"/>
	<path d="m1377.7 935.32c-3.7233-4.5869-7.4058-9.1816-11.047-13.784"/>
	<path d="m1357 909.13c-2.8716-3.7166-5.7162-7.4382-8.5336-11.165"/>
	<path d="m1366.7 921.53c-3.2666-4.1289-6.5-8.264-9.7-12.405"/>
	<path d="m1916 1400c-30.015-19.946-59.344-40.026-87.964-60.252"/>
	<path d="m1390.3 950.63c-4.2526-5.0955-8.455-10.201-12.607-15.315"/>
	<path d="m1753.5 1285.5c-21.577-16.174-42.693-32.44-63.334-48.804"/>
	<path d="m1340.9 887.92c-2.2313-3.0112-4.4448-6.0257-6.6404-9.0433"/>
	<path d="m1348.4 897.96c-2.5292-3.3455-5.0364-6.695-7.5214-10.048"/>
	<path d="m1323.2 863.41c1.7217 2.4439 3.4552 4.8857 5.2004 7.3254"/>
	<path d="m1328.4 870.73c1.9427 2.7156 3.9 5.4286 5.8719 8.1391"/>
	<path d="m1590.1 1153.3c-13.423-11.808-26.592-23.667-39.502-35.578"/>
	<path d="m1462.1 1030.9c-7.4039-7.7585-14.695-15.539-21.87-23.343"/>
	<path d="m1487.4 1056.8c-8.5573-8.6178-16.976-17.263-25.253-25.936"/>
	<path d="m1550.6 1117.7c-11.522-10.631-22.836-21.304-33.938-32.02"/>
	<path d="m1318.6 856.82c1.5277 2.1992 3.0649 4.3967 4.6118 6.5925"/>
	<path d="m1636.2 1192.8c-15.681-13.114-31.052-26.29-46.106-39.531"/>
	<path d="m1516.6 1085.7c-9.9161-9.5719-19.663-19.178-29.236-28.818"/>
	<path d="m1690.1 1236.7c-18.369-14.564-36.36-29.204-53.962-43.924"/>
	<path d="m1558.7 1035.1c-11.346-7.8938-22.53-15.82-33.549-23.78"/>
	<path d="m1525.1 1011.3c-9.8379-7.1071-19.544-14.241-29.115-21.402"/>
	<path d="m1429.3 937.7c-5.6957-4.6686-11.333-9.3491-16.911-14.042"/>
	<path d="m1597.5 1061.5c-13.118-8.7676-26.039-17.574-38.756-26.422"/>
	<path d="m1448.6 953.31c-6.5074-5.186-12.943-10.387-19.306-15.602"/>
	<path d="m1496 989.9c-8.5515-6.3985-16.995-12.819-25.329-19.261"/>
	<path d="m1642.3 1090.9c-15.208-9.7375-30.173-19.523-44.89-29.358"/>
	<path d="m1412.4 923.66c-4.9957-4.2028-9.9437-8.4152-14.844-12.638"/>
	<path d="m1358.8 836.95"/>
	<path d="m1317.7 836.95c1.4628 1.47 2.9318 2.9388 4.4066 4.4065"/>
	<path d="m1362.8 880.2c-3.0126-2.7597-6.0043-5.5236-8.9749-8.2917"/>
	<path d="m1397.6 911.03c-4.3904-3.7834-8.7421-7.5747-13.055-11.374"/>
	<path d="m1384.5 899.65c-3.8657-3.4057-7.7-6.8178-11.502-10.236"/>
	<path d="m1755.2 1159.7c-20.604-12.011-40.844-24.09-60.711-36.244"/>
	<path d="m1826.1 1200c-24.081-13.339-47.717-26.76-70.896-40.271"/>
	<path d="m1373 889.42c-3.4098-3.0657-6.7938-6.1365-10.152-9.2126"/>
	<path d="m1322.1 841.35c1.6416 1.6335 3.2906 3.2655 4.9471 4.896"/>
	<path d="m1338.9 857.73c-2.0962-2.0126-4.1812-4.0275-6.2549-6.0446"/>
	<path d="m1332.6 851.69c-1.8623-1.8115-3.7155-3.6248-5.5594-5.4399"/>
	<path d="m1345.9 864.45c-2.3622-2.236-4.7107-4.4747-7.0453-6.7162"/>
	<path d="m1470.7 970.64c-7.4512-5.7606-14.814-11.539-22.088-17.336"/>
	<path d="m1353.9 871.91c-2.6658-2.4839-5.3146-4.9714-7.9463-7.4622"/>
	<path d="m1694.5 1123.5c-17.678-10.815-35.058-21.687-52.134-32.62"/>
	<path d="m1331 824.5c-1.7532-0.9129-3.5021-1.8265-5.2471-2.741"/>
	<path d="m1325.7 821.76c-1.5679-0.8217-3.1326-1.644-4.6938-2.4669"/>
	<path d="m1736.2 1e3c-18.157-6.7306-36.1-13.493-53.827-20.291"/>
	<path d="m1403.5 860.77c-4.4088-2.1187-8.7958-4.2411-13.161-6.3677"/>
	<path d="m1358.8 817.08"/>
	<path d="m1316.8 817.08c1.3978 0.7406 2.7983 1.4807 4.2015 2.2203"/>
	<path d="m1682.4 979.71c-15.803-6.0598-31.432-12.146-46.885-18.262"/>
	<path d="m1378.7 848.67c-3.4803-1.7166-6.9463-3.4358-10.398-5.1576"/>
	<path d="m1359 838.87c-2.7595-1.3908-5.5095-2.7833-8.25-4.1775"/>
	<path d="m1336.8 827.55c-1.9614-1.0142-3.9178-2.0292-5.8691-3.0452"/>
	<path d="m1350.8 834.69c-2.4606-1.2519-4.9136-2.5052-7.3588-3.76"/>
	<path d="m1390.4 854.4c-3.9148-1.9069-7.8119-3.8171-11.691-5.7304"/>
	<path d="m1343.4 830.93c-2.196-1.1268-4.3859-2.2548-6.5695-3.384"/>
	<path d="m1435.1 875.7c-5.6138-2.6144-11.195-5.2347-16.742-7.8608"/>
	<path d="m1558.7 930.22c-10.563-4.4221-21.032-8.8594-31.407-13.313"/>
	<path d="m1527.3 916.91c-9.2744-3.981-18.473-7.9746-27.595-11.981"/>
	<path d="m1499.7 904.93c-8.1591-3.5839-16.257-7.1782-24.292-10.783"/>
	<path d="m1368.3 843.51c-3.0974-1.5452-6.1832-3.0926-9.2572-4.642"/>
	<path d="m1475.4 894.14c-7.1909-3.2264-14.332-6.4614-21.422-9.7051"/>
	<path d="m1418.4 867.84c-4.9716-2.3536-9.9161-4.7119-14.834-7.075"/>
	<path d="m1635.5 961.45c-13.786-5.4558-27.431-10.934-40.934-16.435"/>
	<path d="m1594.6 945.01c-12.054-4.9119-23.994-9.8421-35.817-14.792"/>
	<path d="m1454 884.44c-6.3485-2.9044-12.656-5.8157-18.923-8.7344"/>
	<path d="m1358.8 797.62"/>
	<path d="m1320 797.65c-1.3328-0.0096-2.6655-0.0193-3.9982-0.0289"/>
	<path d="m1324.4 797.68c-1.481-0.0106-2.9618-0.0213-4.4426-0.032"/>
	<path d="m1355.2 797.9c-2.5093-0.0181-5.0184-0.0363-7.5276-0.0544"/>
	<path d="m1372.9 798.03c-3.0989-0.0224-6.1975-0.0447-9.296-0.0671"/>
	<path d="m1363.6 797.96c-2.7885-0.0201-5.5769-0.0402-8.3651-0.0602"/>
	<path d="m1340.9 797.8c-2.0321-0.0146-4.064-0.0293-6.0959-0.0439"/>
	<path d="m1347.7 797.85c-2.2581-0.0163-4.516-0.0326-6.7738-0.049"/>
	<path d="m1407.5 798.28c-4.2534-0.0307-8.5065-0.0613-12.759-0.092"/>
	<path d="m1383.2 798.11c-3.4437-0.0248-6.8873-0.0497-10.331-0.0746"/>
	<path d="m1394.7 798.19c-3.8273-0.0276-7.6542-0.0552-11.481-0.0829"/>
	<path d="m1334.8 797.76c-1.8286-0.0132-3.6572-0.0264-5.4857-0.0396"/>
	<path d="m1546.8 799.28c-8.9143-0.0642-17.827-0.1284-26.739-0.1925"/>
	<path d="m1609.6 799.74c-11.017-0.0792-22.032-0.1584-33.046-0.2376"/>
	<path d="m1520.1 799.09c-8.0192-0.0577-16.037-0.1154-24.054-0.1732"/>
	<path d="m1329.3 797.72c-1.6455-0.012-3.2911-0.0239-4.9365-0.0359"/>
	<path d="m1496 798.92c-7.2141-0.0519-14.428-0.1039-21.64-0.1558"/>
	<path d="m1646.3 800c-12.249-0.088-24.496-0.176-36.74-0.264"/>
	<path d="m1474.4 798.76c-6.4904-0.0468-12.98-0.0935-19.469-0.1403"/>
	<path d="m1576.5 799.5c-9.9098-0.0712-19.818-0.1424-29.724-0.2136"/>
	<path d="m1437.4 798.5c-5.2539-0.0378-10.507-0.0757-15.76-0.1135"/>
	<path d="m1421.6 798.38c-4.7272-0.0341-9.4539-0.0681-14.18-0.1021"/>
	<path d="m1454.9 798.62c-5.8394-0.0421-11.678-0.0842-17.516-0.1263"/>
	<path d="m1323.1 773.6c-1.3938 0.8016-2.791 1.6025-4.1914 2.4028"/>
	<path d="m1338.4 764.67c-1.8679 1.0998-3.7421 2.1984-5.6223 3.2957"/>
	<path d="m1351.4 756.94c-2.2589 1.3582-4.5273 2.7145-6.8052 4.0691"/>
	<path d="m1327.7 770.93c-1.5381 0.8907-3.0801 1.7805-4.6262 2.6696"/>
	<path d="m1408.2 721.06c-3.8386 2.5589-7.7115 5.111-11.618 7.6563"/>
	<path d="m1332.8 767.96c-1.6958 0.9897-3.3966 1.9785-5.1023 2.9663"/>
	<path d="m1344.6 761.01c-2.0553 1.2222-4.1184 2.4429-6.189 3.6621"/>
	<path d="m1376.1 741.81c-2.972 1.864-5.9622 3.7245-8.9701 5.5814"/>
	<path d="m1385.9 735.61c-3.2446 2.0717-6.5116 4.1389-9.8007 6.2018"/>
	<path d="m1396.6 728.72c-3.5339 2.3024-7.0955 4.5993-10.684 6.8908"/>
	<path d="m1358.9 752.42c-2.4792 1.5093-4.9702 3.0164-7.4729 4.5211"/>
	<path d="m1464.7 680.93c-5.1469 3.9066-10.376 7.7963-15.685 11.67"/>
	<path d="m1420.8 712.56c-4.1565 2.8442-8.3556 5.6799-12.597 8.5073"/>
	<path d="m1499.1 653.56c-5.7604 4.8282-11.648 9.6304-17.66 14.407"/>
	<path d="m1434.4 703.1c-4.4841 3.1614-9.0211 6.3121-13.61 9.4524"/>
	<path d="m1449 692.6c-4.8165 3.5142-9.699 7.0151-14.646 10.503"/>
	<path d="m1536.8 619.76c-6.2039 5.9688-12.609 11.897-19.206 17.786"/>
	<path d="m1517.6 637.55c-6.0139 5.368-12.188 10.704-18.516 16.008"/>
	<path d="m1318.9 776c-1.2622 0.7214-2.5271 1.4422-3.7946 2.1626"/>
	<path d="m1358.8 778.17"/>
	<path d="m1556.5 600c-6.3019 6.637-12.857 13.224-19.652 19.763"/>
	<path d="m1367.1 747.39c-2.7169 1.6774-5.4484 3.3519-8.1943 5.0236"/>
	<path d="m1481.4 667.96c-5.4658 4.3427-11.034 8.6644-16.701 12.966"/>
	<path d="m1433.4 562.94c-3.0448 7.8552-6.29 15.689-9.7299 23.495"/>
	<path d="m1354.2 706.87c-2.1659 3.0392-4.3596 6.0734-6.5807 9.1027"/>
	<path d="m1442.8 536.84c-2.8683 8.7275-5.9871 17.432-9.3485 26.106"/>
	<path d="m1404.2 626.61c-3.0421 5.7247-6.1874 11.434-9.4332 17.128"/>
	<path d="m1394.7 643.74c-2.9368 5.1512-5.9563 10.29-9.0565 15.415"/>
	<path d="m1451.3 507.83c-2.551 9.6953-5.4148 19.368-8.5817 29.007"/>
	<path d="m1358.8 758.71"/>
	<path d="m1385.7 659.16c-2.8041 4.6353-5.6744 9.2601-8.6097 13.874"/>
	<path d="m1368.9 685.52c-2.4939 3.7532-5.0306 7.4991-7.6096 11.238"/>
	<path d="m1347.6 715.97c-2.0054 2.7347-4.0331 5.4655-6.0829 8.1921"/>
	<path d="m1413.9 607.58c-3.1073 6.3617-6.3431 12.706-9.7042 19.031"/>
	<path d="m1361.3 696.76c-2.3298 3.3773-4.6941 6.7487-7.0925 10.114"/>
	<path d="m1423.7 586.44c-3.1152 7.0694-6.3911 14.119-9.823 21.146"/>
	<path d="m1464 439.79c1.4482-13.243 2.3054-26.521 2.5652-39.79"/>
	<path d="m1377.1 673.03c-2.6539 4.171-5.3611 8.3333-8.1206 12.486"/>
	<path d="m1341.6 724.16c-1.85 2.4609-3.7181 4.9187-5.604 7.3731"/>
	<path d="m1464 439.79c-1.3086 11.955-3.1007 23.902-5.3663 35.81"/>
	<path d="m1330.8 738.17c-1.5613 1.9928-3.1343 3.9835-4.719 5.972"/>
	<path d="m1336 731.54c-1.7018 2.2147-3.4181 4.4267-5.1487 6.636"/>
	<path d="m1326.1 744.15c-1.4291 1.7934-2.8677 3.5851-4.3158 5.375"/>
	<path d="m1458.6 475.6c-2.0494 10.768-4.4885 21.518-7.3064 32.229"/>
	<path d="m1317.8 754.36c-1.1909 1.4525-2.3879 2.9037-3.5912 4.3538"/>
	<path d="m1321.8 749.52c-1.3057 1.6139-2.619 3.2264-3.9401 4.8375"/>
	<path d="m1320.5 725.44c-1.2173 2.4259-2.4469 4.85-3.6888 7.2724"/>
	<path d="m1358.8 739.26"/>
	<path d="m1338.5 687.32c-1.644 3.6985-3.3173 7.3933-5.0192 11.084"/>
	<path d="m1387.5 540.67c-1.9268 8.5949-4.0176 17.179-6.2699 25.749"/>
	<path d="m1404.1 405.71c-0.28 13.085-0.9459 26.173-1.9957 39.245"/>
	<path d="m1324.5 717.36c-1.3199 2.6956-2.655 5.3889-4.0054 8.0801"/>
	<path d="m1328.8 708.38c-1.4263 2.9954-2.8715 5.9882-4.3354 8.9783"/>
	<path d="m1349.5 661.32c-1.8517 4.5668-3.748 9.1283-5.6887 13.684"/>
	<path d="m1399.7 313.65c1.8857 16.129 3.1888 32.291 3.9028 48.451"/>
	<path d="m1402.1 444.95c-0.9468 11.782-2.2061 23.561-3.7747 35.321"/>
	<path d="m1381.3 566.42c-2.0334 7.7358-4.199 15.462-6.4946 23.174"/>
	<path d="m1398.3 480.27c-1.4154 10.608-3.0833 21.207-5.0001 31.789"/>
	<path d="m1355.5 646.12c-1.9415 5.0745-3.9387 10.143-5.9907 15.204"/>
	<path d="m1361.8 629.22c-2.0143 5.6389-4.0977 11.27-6.249 16.894"/>
	<path d="m1374.8 589.6c-2.0725 6.9622-4.2515 13.915-6.5352 20.857"/>
	<path d="m1368.2 610.45c-2.0615 6.2657-4.2087 12.523-6.4404 18.771"/>
	<path d="m1333.5 698.41c-1.535 3.3283-3.0934 6.6536-4.6752 9.9755"/>
	<path d="m1316.8 732.71c-1.1193 2.1832-2.2485 4.3649-3.3878 6.5451"/>
	<path d="m1393.3 512.06c-1.7301 9.5488-3.6639 19.088-5.7982 28.61"/>
	<path d="m1376.7 200c5.7136 19.862 10.565 39.819 14.522 59.816"/>
	<path d="m1403.6 362.1c0.641 14.529 0.8068 29.073 0.4967 43.606"/>
	<path d="m1343.9 675.01c-1.7509 4.1097-3.5377 8.2151-5.3604 12.316"/>
	<path d="m1391.2 259.82c3.5406 17.9 6.3705 35.86 8.4733 53.835"/>
	<path d="m969.87 1153.5c13.422-11.794 26.591-23.64 39.5-35.538"/>
	<path d="m923.77 1193c15.679-13.099 31.049-26.26 46.101-39.486"/>
	<path d="m869.82 1236.9c18.366-14.547 36.354-29.171 53.954-43.874"/>
	<path d="m1169.6 951.14c4.2538-5.0897 8.4576-10.189 12.611-15.298"/>
	<path d="m1201.2 857.43"/>
	<path d="m1203 909.69c2.8728-3.7123 5.7188-7.4297 8.5374-11.152"/>
	<path d="m1193.3 922.08c3.2678-4.1243 6.5026-8.2548 9.7037-12.391"/>
	<path d="m1182.2 935.85c3.7245-4.5817 7.4083-9.171 11.051-13.768"/>
	<path d="m1236.8 864.02c1.5477-2.1934 3.0859-4.3884 4.6145-6.5851"/>
	<path d="m731.98 1339.8c25.407-17.941 50.252-35.993 74.518-54.165"/>
	<path d="m1072.5 1057.2c8.5579-8.6079 16.977-17.244 25.256-25.907"/>
	<path d="m1231.6 871.34c1.7462-2.4368 3.4806-4.8758 5.2032-7.3168"/>
	<path d="m806.5 1285.7c21.572-16.155 42.683-32.403 63.32-48.748"/>
	<path d="m1225.7 879.47c1.9729-2.7074 3.9313-5.4174 5.8751-8.1299"/>
	<path d="m1219 888.5c2.2325-3.0079 4.4471-6.0191 6.6438-9.0334"/>
	<path d="m1043.3 1086c9.9163-9.5609 19.664-19.156 29.237-28.785"/>
	<path d="m1097.8 1031.3c7.4048-7.7498 14.697-15.522 21.873-23.316"/>
	<path d="m1119.7 1008c6.4235-6.9767 12.754-13.972 18.992-20.984"/>
	<path d="m1211.5 898.54c2.5303-3.3416 5.0386-6.6871 7.5247-10.037"/>
	<path d="m1138.7 987.03c5.5858-6.2808 11.096-12.576 16.53-18.886"/>
	<path d="m644.04 1400c30.005-19.923 59.325-39.981 87.936-60.183"/>
	<path d="m1009.4 1118c11.521-10.619 22.835-21.28 33.937-31.984"/>
	<path d="m1155.2 968.14c4.869-5.6541 9.6766-11.32 14.422-16.998"/>
	<path d="m962.49 1061.7c13.117-8.754 26.035-17.547 38.752-26.382"/>
	<path d="m1232.9 846.79c1.6573-1.6281 3.3073-3.2577 4.9497-4.8887"/>
	<path d="m917.6 1091c15.205-9.7229 30.168-19.493 44.882-29.313"/>
	<path d="m1175.4 900.11c3.8669-3.4006 7.7023-6.8076 11.506-10.221"/>
	<path d="m804.79 1159.8c20.598-11.993 40.832-24.054 60.694-36.189"/>
	<path d="m1162.4 911.47c4.3915-3.7776 8.7444-7.563 13.058-11.356"/>
	<path d="m804.79 1159.8c-23.172 13.49-46.798 26.891-70.871 40.21"/>
	<path d="m1214 864.96c2.3632-2.2325 4.7128-4.4679 7.0483-6.706"/>
	<path d="m1001.2 1035.3c11.345-7.8818 22.528-15.796 33.547-23.744"/>
	<path d="m865.48 1123.6c17.673-10.798 35.049-21.654 52.122-32.57"/>
	<path d="m1237.9 841.9c1.4757-1.4653 2.9454-2.9318 4.4091-4.3995"/>
	<path d="m1034.8 1011.6c9.8376-7.0963 19.543-14.219 29.115-21.369"/>
	<path d="m1201.2 837.5"/>
	<path d="m1197.1 880.69c3.0137-2.7555 6.0066-5.5151 8.9784-8.2791"/>
	<path d="m1227.3 852.22c1.8632-1.8087 3.7173-3.6192 5.5623-5.4316"/>
	<path d="m1206.1 872.41c2.6669-2.4802 5.3168-4.9637 7.9496-7.4507"/>
	<path d="m1187 889.89c3.4109-3.061 6.7963-6.1273 10.156-9.1987"/>
	<path d="m1221.1 858.25c2.0972-2.0096 4.1831-4.0214 6.2578-6.0355"/>
	<path d="m1089.2 970.99c7.4518-5.7517 14.816-11.521 22.09-17.309"/>
	<path d="m1111.3 953.68c6.5082-5.1781 12.945-10.371 19.309-15.578"/>
	<path d="m1063.9 990.22c8.5516-6.3888 16.996-12.799 25.33-19.232"/>
	<path d="m1130.6 938.1c5.6967-4.6616 11.335-9.3349 16.914-14.02"/>
	<path d="m1147.5 924.08c4.9968-4.1964 9.946-8.4024 14.847-12.618"/>
	<path d="m1156.4 861.14c4.4097-2.1129 8.7977-4.2297 13.164-6.3504"/>
	<path d="m1141.6 868.19c4.9723-2.3473 9.918-4.6993 14.837-7.056"/>
	<path d="m1238.9 819.78c1.4039-0.7377 2.8051-1.4758 4.2036-2.2144"/>
	<path d="m1201.2 817.56"/>
	<path d="m1032.6 917.13c9.2737-3.9705 18.472-7.9535 27.593-11.95"/>
	<path d="m1234.2 822.24c1.5686-0.8195 3.134-1.6395 4.696-2.4601"/>
	<path d="m1001.2 930.41c10.561-4.4102 21.029-8.8356 31.403-13.277"/>
	<path d="m1216.6 831.38c2.1969-1.1239 4.3877-2.2489 6.5721-3.3751"/>
	<path d="m1229 824.97c1.754-0.9105 3.5038-1.8217 5.2496-2.7336"/>
	<path d="m1223.1 828.01c1.9623-1.0116 3.9196-2.024 5.8717-3.0375"/>
	<path d="m924.47 961.55c13.782-5.4412 27.424-10.904 40.923-16.391"/>
	<path d="m877.6 979.76c15.797-6.0438 31.421-12.114 46.87-18.213"/>
	<path d="m1191.7 843.93c3.0984-1.541 6.1853-3.084 9.2604-4.6293"/>
	<path d="m965.39 945.16c12.052-4.8989 23.989-9.8162 35.81-14.753"/>
	<path d="m1209.2 835.13c2.4615-1.2485 4.9155-2.4984 7.3617-3.7496"/>
	<path d="m1169.6 854.79c3.9158-1.902 7.814-3.8071 11.694-5.7155"/>
	<path d="m1124.8 876.03c5.6145-2.6075 11.196-5.2208 16.745-7.84"/>
	<path d="m1200.9 839.3c2.7605-1.3873 5.5115-2.7762 8.2531-4.1669"/>
	<path d="m1084.5 894.42c7.1912-3.2177 14.332-6.4439 21.423-9.6789"/>
	<path d="m1105.9 884.75c6.3491-2.8967 12.658-5.8004 18.925-8.7114"/>
	<path d="m823.79 1e3c18.149-6.7128 36.085-13.458 53.805-20.237"/>
	<path d="m1060.2 905.18c8.1589-3.5745 16.256-7.1592 24.292-10.755"/>
	<path d="m1181.3 849.07c3.4813-1.712 6.9482-3.4266 10.401-5.1439"/>
	<path d="m1064 798.92c7.2141-0.0518 14.428-0.1036 21.64-0.1553"/>
	<path d="m1138.4 798.39c4.7272-0.034 9.4539-0.0679 14.18-0.1019"/>
	<path d="m1152.5 798.29c4.2533-0.0306 8.5065-0.0612 12.759-0.0918"/>
	<path d="m1122.6 798.5c5.2538-0.0378 10.507-0.0755 15.76-0.1133"/>
	<path d="m1165.3 798.19c3.8271-0.0275 7.6541-0.0549 11.481-0.0824"/>
	<path d="m1085.6 798.77c6.4904-0.0466 12.98-0.0932 19.469-0.1398"/>
	<path d="m1039.9 799.09c8.0192-0.0576 16.037-0.1152 24.054-0.1729"/>
	<path d="m1105.1 798.63c5.8394-0.042 11.678-0.084 17.516-0.1261"/>
	<path d="m1212.3 797.86c2.2581-0.0162 4.516-0.0324 6.7739-0.0486"/>
	<path d="m1235.6 797.69c1.481-0.0107 2.9618-0.0214 4.4426-0.032"/>
	<path d="m1225.2 797.76c1.8286-0.0132 3.6572-0.0264 5.4857-0.0396"/>
	<path d="m1230.7 797.72c1.6456-0.0118 3.2913-0.0236 4.9368-0.0355"/>
	<path d="m1204.8 797.91c2.5093-0.0181 5.0184-0.0362 7.5276-0.0543"/>
	<path d="m1219.1 797.81c2.032-0.0146 4.064-0.0293 6.0958-0.044"/>
	<path d="m1176.8 798.11c3.4438-0.0248 6.8875-0.0496 10.331-0.0744"/>
	<path d="m913.67 800c12.249-0.0878 24.496-0.1755 36.739-0.2634"/>
	<path d="m1201.2 797.63"/>
	<path d="m1196.4 797.97c2.7886-0.02 5.5769-0.0401 8.3652-0.0601"/>
	<path d="m1187.1 798.04c3.0989-0.0223 6.1975-0.0447 9.296-0.0671"/>
	<path d="m1240 797.66c1.3328-0.0096 2.6654-0.0193 3.998-0.029"/>
	<path d="m983.46 799.5c9.9099-0.0711 19.818-0.1422 29.724-0.2133"/>
	<path d="m950.41 799.74c11.017-0.0789 22.032-0.1577 33.045-0.2366"/>
	<path d="m1013.2 799.29c8.9142-0.064 17.827-0.1279 26.739-0.1918"/>
	<path d="m1023.2 619.71c6.2096 5.9529 12.619 11.866 19.221 17.739"/>
	<path d="m1151.9 720.74c3.838 2.5522 7.7101 5.0975 11.616 7.6361"/>
	<path d="m1174.2 735.25c3.2438 2.0662 6.5096 4.1279 9.7976 6.1854"/>
	<path d="m1163.5 728.38c3.5331 2.2962 7.0938 4.5869 10.682 6.8723"/>
	<path d="m1184 741.43c2.9712 1.8591 5.9602 3.7145 8.9672 5.5666"/>
	<path d="m1111 692.35c4.8169 3.5048 9.6993 6.9962 14.646 10.475"/>
	<path d="m1095.3 680.72c5.1478 3.8961 10.377 7.7755 15.686 11.639"/>
	<path d="m1061 653.41c5.7629 4.8153 11.653 9.6046 17.667 14.369"/>
	<path d="m1078.6 667.78c5.4673 4.3312 11.036 8.6415 16.705 12.932"/>
	<path d="m1139.3 712.26c4.156 2.8367 8.3545 5.6649 12.595 8.4847"/>
	<path d="m1125.7 702.83c4.4839 3.153 9.0206 6.2953 13.609 9.4273"/>
	<path d="m1241.1 775.54c1.2616 0.7194 2.5258 1.4382 3.7926 2.1566"/>
	<path d="m1215.4 760.58c2.0544 1.2188 4.1165 2.4361 6.1862 3.652"/>
	<path d="m1227.2 767.52c1.6949 0.9872 3.3949 1.9734 5.0997 2.9586"/>
	<path d="m1208.6 756.52c2.2579 1.3546 4.5254 2.7073 6.8022 4.0583"/>
	<path d="m1236.9 773.14c1.3932 0.7994 2.7896 1.5982 4.1891 2.3964"/>
	<path d="m1232.3 770.48c1.5372 0.8882 3.0786 1.7758 4.6239 2.6625"/>
	<path d="m1221.6 764.23c1.8669 1.0969 3.7401 2.1926 5.6195 3.2872"/>
	<path d="m1201.1 752.01c2.4783 1.5054 4.9683 3.0084 7.4698 4.5093"/>
	<path d="m1003.5 600c6.3099 6.6192 12.872 13.189 19.674 19.71"/>
	<path d="m1042.4 637.45c6.0177 5.3537 12.195 10.675 18.526 15.965"/>
	<path d="m1201.2 777.69"/>
	<path d="m1192.9 747c2.7159 1.6728 5.4463 3.3427 8.1912 5.0099"/>
	<path d="m1191.2 684.76c2.4919 3.7431 5.0267 7.479 7.6034 11.208"/>
	<path d="m1234 743.23c1.4276 1.7887 2.8646 3.5756 4.3112 5.3608"/>
	<path d="m1238.3 748.59c1.3042 1.6096 2.6161 3.2178 3.9355 4.8246"/>
	<path d="m1242.2 753.41c1.1896 1.4485 2.3853 2.8958 3.587 4.3419"/>
	<path d="m1229.2 737.27c1.5596 1.9875 3.1309 3.973 4.7137 5.9562"/>
	<path d="m1218.5 723.3c1.8481 2.4543 3.7144 4.9055 5.5984 7.3533"/>
	<path d="m1212.4 715.13c2.0033 2.7275 4.0291 5.4511 6.0768 8.1706"/>
	<path d="m1224.1 730.65c1.7 2.2087 3.4143 4.4148 5.1432 6.6182"/>
	<path d="m1101.4 475.4c2.0575 10.739 4.5034 21.46 7.3271 32.144"/>
	<path d="m1201.2 757.76"/>
	<path d="m1183 672.3c2.652 4.1599 5.3572 8.311 8.1145 12.453"/>
	<path d="m1205.9 706.05c2.1639 3.0309 4.3556 6.0571 6.5747 9.0782"/>
	<path d="m1117.3 536.47c2.8716 8.7044 5.9929 17.386 9.3562 26.036"/>
	<path d="m1136.4 585.94c3.1158 7.0507 6.3918 14.082 9.8232 21.09"/>
	<path d="m1146.3 607.03c3.1069 6.3448 6.3422 12.672 9.7021 18.98"/>
	<path d="m1108.8 507.54c2.5564 9.6695 5.4247 19.317 8.5951 28.929"/>
	<path d="m1126.7 562.51c3.0465 7.8344 6.293 15.647 9.7333 23.433"/>
	<path d="m1174.4 658.47c2.8024 4.623 5.6708 9.2355 8.6041 13.837"/>
	<path d="m1096 439.68c1.3198 11.924 3.1222 23.839 5.3966 35.715"/>
	<path d="m1198.8 695.96c2.3279 3.3683 4.6901 6.7308 7.0863 10.087"/>
	<path d="m1156 626.01c3.0413 5.7094 6.1853 11.404 9.4294 17.082"/>
	<path d="m1093.4 400c0.2756 13.233 1.1471 26.476 2.6082 39.684"/>
	<path d="m1165.4 643.09c2.9354 5.1375 5.9534 10.263 9.0518 15.374"/>
	<path d="m1198.4 628.08c2.0114 5.6239 4.0916 11.241 6.2397 16.849"/>
	<path d="m1172.6 539.77c1.9254 8.5721 4.0143 17.134 6.2643 25.68"/>
	<path d="m1166.9 511.23c1.7296 9.5234 3.6624 19.037 5.795 28.534"/>
	<path d="m1178.9 565.45c2.0314 7.7151 4.1946 15.42 6.4874 23.112"/>
	<path d="m1161.9 479.53c1.4161 10.58 3.0841 21.151 5.0004 31.704"/>
	<path d="m1204.6 644.93c1.9385 5.061 3.9325 10.116 5.9813 15.164"/>
	<path d="m1160.4 313.35c-1.8738 16.086-3.1663 32.205-3.8716 48.322"/>
	<path d="m1185.4 588.56c2.0699 6.9437 4.2461 13.878 6.5266 20.801"/>
	<path d="m1156.5 361.67c-0.6331 14.491-0.7921 28.996-0.4766 43.49"/>
	<path d="m1156.1 405.16c0.2848 13.05 0.9547 26.104 2.0073 39.141"/>
	<path d="m1158.1 444.3c0.9493 11.751 2.2104 23.498 3.7799 35.227"/>
	<path d="m1191.9 609.36c2.0588 6.2491 4.203 12.49 6.4314 18.721"/>
	<path d="m1243.3 731.29c1.1173 2.1773 2.2445 4.3532 3.3817 6.5276"/>
	<path d="m1201.2 737.82"/>
	<path d="m1168.8 259.66c-3.5234 17.853-6.338 35.765-8.4275 53.691"/>
	<path d="m1183.3 200c-5.6898 19.809-10.52 39.713-14.458 59.657"/>
	<path d="m1239.6 724.04c1.2151 2.4194 2.4424 4.837 3.682 7.2528"/>
	<path d="m1221.6 686.02c1.6412 3.6887 3.3115 7.3735 5.0106 11.054"/>
	<path d="m1226.6 697.08c1.5322 3.3195 3.0879 6.636 4.6669 9.9492"/>
	<path d="m1216.3 673.74c1.7479 4.0988 3.5319 8.1932 5.3514 12.283"/>
	<path d="m1210.6 660.09c1.8486 4.5546 3.7419 9.104 5.6794 13.648"/>
	<path d="m1235.6 715.98c1.3175 2.6884 2.6503 5.3746 3.9983 8.0587"/>
	<path d="m1231.3 707.03c1.4237 2.9873 2.8663 5.9721 4.3278 8.9542"/>
</g>
</svg>
