<?xml version="1.0" encoding="UTF-8"?>
<!DOCTYPE svg  PUBLIC '-//W3C//DTD SVG 1.1//EN'  'http://www.w3.org/Graphics/SVG/1.1/DTD/svg11.dtd'>
<svg enable-background="new 479 -1 1602 1602" version="1.1" viewBox="479 -1 1602 1602" xml:space="preserve" xmlns="http://www.w3.org/2000/svg">
<rect x="480" width="1600" height="1600" fill="#00f"/>
<g fill="none" stroke="#fff" stroke-miterlimit="10" stroke-width="2">
	<path d="m560 793.85v180.02"/>
	<path d="m740.25 1532.1c60.73-16.372 121.05-40.516 180.02-28.942"/>
	<path d="m920.27 1503.2c61.209 12.059 120.27 42.974 180.02 36.766"/>
	<path d="m1820.3 92.254c-60.752-16.269-121.04-40.65-180.03-29.217"/>
	<path d="m2e3 1513.8v-180"/>
	<path d="m560 1333.8v-180.04"/>
	<path d="m560 973.87v179.88"/>
	<path d="m1640.3 63.037c-61.218 11.911-120.25 42.98-180.03 36.94"/>
	<path d="m1460.3 99.978c-61.18-6.2358-119.39-40.866-180.03-40.977"/>
	<path d="m560 1513.8c60.048 18.906 121.6 34.081 180.25 18.301"/>
	<path d="m2e3 793.79v-180"/>
	<path d="m2e3 1153.8v-180"/>
	<path d="m2e3 973.79v-180"/>
	<path d="m1100.3 1539.9c61.171-6.4092 119.37-40.971 179.97-40.917"/>
	<path d="m2e3 1333.8v-180"/>
	<path d="m2e3 613.79v-179.99"/>
	<path d="m1640.2 1503.1c-61.199 11.935-120.21 42.968-179.97 36.914"/>
	<path d="m1280.3 1499c60.619 0.111 118.81 34.721 179.97 40.971"/>
	<path d="m2e3 253.81v180"/>
	<path d="m2e3 73.794c-59.852 18.845-121.19 34.087-179.66 18.461"/>
	<path d="m1820.2 1532.2c58.518 15.667 119.91 0.4434 179.82-18.418"/>
	<path d="m920.21 63.14c61.212 12.044 120.27 42.976 180.03 36.784"/>
	<path d="m560 73.794v179.95"/>
	<path d="m560 253.74v179.95"/>
	<path d="m1820.2 1532.2c-60.729-16.292-121.01-40.609-179.97-29.154"/>
	<path d="m2e3 73.794v180.02"/>
	<path d="m740.18 92.113c-58.633 15.763-120.16 0.58-180.18-18.319"/>
	<path d="m560 1513.8v-180"/>
	<path d="m1280.3 59.001c-60.618-0.0543-118.84 34.528-180.03 40.922"/>
	<path d="m560 433.69v179.95"/>
	<path d="m560 613.64v180.21"/>
	<path d="m740.18 92.113c60.735-16.36 121.06-40.532 180.03-28.973"/>
	<path d="m632 653.2v162.4"/>
	<path d="m632 1139.4v-161.78"/>
	<path d="m1442.5 1465.4c-55.014-10.148-107.49-38.248-161.95-38.412"/>
	<path d="m794.35 147.11c53.061-16.995 109.13-18.878 162.05-2.5958"/>
	<path d="m632 1463.5c53.132 11.802 108.42-3.101 162.48-20.418"/>
	<path d="m632 167.49v161.9"/>
	<path d="m956.4 144.52c54.189 16.688 108.87 34.707 162.05 24.73"/>
	<path d="m1766.3 1443.3c53.761 17.274 108.79 31.896 161.65 20.153"/>
	<path d="m632 491.29v161.9"/>
	<path d="m1928 491.51v-162"/>
	<path d="m956.52 1440.6c54.181 16.697 108.86 34.673 162.04 24.674"/>
	<path d="m632 815.6v162.04"/>
	<path d="m1118.6 1465.2c55.008-10.382 107.52-38.344 161.95-38.225"/>
	<path d="m794.48 1443.1c53.054-16.984 109.12-18.812 162.04-2.5183"/>
	<path d="m1766.3 1443.3c-53.043-17.033-109.07-19.255-161.95-3.0649"/>
	<path d="m1442.6 169.43c-55.049-10.131-107.55-38.267-162.05-38.43"/>
	<path d="m1928 167.49c-52.767 11.722-107.7-2.7986-161.35-20.056"/>
	<path d="m1604.6 144.21c-54.222 16.596-108.84 34.977-162.05 25.222"/>
	<path d="m1766.7 147.43c-53.082-17.064-109.14-19.403-162.05-3.2238"/>
	<path d="m632 1139.4v162.07"/>
	<path d="m1928 491.51v161.98"/>
	<path d="m632 329.39v161.9"/>
	<path d="m1118.4 169.25c55.043-10.364 107.59-38.362 162.05-38.244"/>
	<path d="m1928 167.49v162.03"/>
	<path d="m1928 1463.5v-162"/>
	<path d="m632 1463.5v-162"/>
	<path d="m1928 815.49v-162"/>
	<path d="m1928 1139.5v-162"/>
	<path d="m1604.4 1440.3c-54.181 16.605-108.78 34.913-161.95 25.142"/>
	<path d="m1928 977.49v-162"/>
	<path d="m794.35 147.11c-54.014 17.311-109.26 32.17-162.35 20.376"/>
	<path d="m1928 1301.5v-162"/>
	<path d="m1863.2 674.41v145.8"/>
	<path d="m843.1 199.13c-49.63 8.854-96.798 33.423-146.3 37.874"/>
	<path d="m1717.9 1365.7c49.286 9.0044 96.145 33.275 145.3 37.695"/>
	<path d="m696.8 237.01v145.66"/>
	<path d="m696.8 673.99v146.38"/>
	<path d="m1572.5 219.4c-48.011 15.693-98.17 23.094-145.87 11.385"/>
	<path d="m1280.7 1362.2c-48.903-0.1624-96.476 22.215-145.73 34.593"/>
	<path d="m1280.7 195.8c48.99 0.1991 96.546 22.85 145.87 34.984"/>
	<path d="m1863.2 237.01c-49.008-4.407-95.734-28.548-144.87-37.616"/>
	<path d="m1863.2 966.01v-145.8"/>
	<path d="m1863.2 1111.8v-145.8"/>
	<path d="m989.14 1386.3c47.972 15.626 98.168 22.434 145.85 10.474"/>
	<path d="m696.8 966.22v-145.85"/>
	<path d="m843.28 1365.5c47.959-8.4866 97.417 5.0391 145.85 20.821"/>
	<path d="m696.8 1403.4c49.563-4.457 96.788-29.082 146.48-37.908"/>
	<path d="m696.8 382.67v145.66"/>
	<path d="m1717.9 1365.7c-47.893-8.7201-97.368 4.3805-145.73 20.182"/>
	<path d="m1718.3 199.39c-47.931-8.8159-97.473 4.1857-145.87 20.01"/>
	<path d="m1863.2 237.01v145.84"/>
	<path d="m696.8 1111.7v145.9"/>
	<path d="m696.8 1403.4v-145.8"/>
	<path d="m1863.2 528.64v-145.79"/>
	<path d="m696.8 966.22v145.48"/>
	<path d="m1572.2 1385.9c-47.959 15.666-98.074 22.977-145.73 11.256"/>
	<path d="m1863.2 674.41v-145.76"/>
	<path d="m1426.4 1397.2c-49.275-12.145-96.787-34.749-145.73-34.949"/>
	<path d="m1863.2 1257.6v-145.8"/>
	<path d="m843.1 199.13c47.961-8.5259 97.435 4.9451 145.87 20.734"/>
	<path d="m1134.8 230.43c49.304-12.367 96.921-34.792 145.87-34.63"/>
	<path d="m696.8 528.33v145.66"/>
	<path d="m988.97 219.87c47.981 15.635 98.181 22.504 145.87 10.565"/>
	<path d="m1863.2 1403.4v-145.8"/>
	<path d="m755.12 676.05v131.95"/>
	<path d="m1804.9 1332.7v-131.22"/>
	<path d="m1412 1335c-44.074-12.745-87.142-30.855-131.13-31.076"/>
	<path d="m1804.9 282.92c-43.556-13.328-86.572-29.971-130.04-28.715"/>
	<path d="m1280.9 254.12c44.049 0.221 87.173 18.384 131.31 31.128"/>
	<path d="m755.12 282.92v131.04"/>
	<path d="m755.12 808v131.29"/>
	<path d="m1412.2 285.25c43.008 12.403 88.318 13.197 131.31 1.3426"/>
	<path d="m1543.2 1336.5c-42.934 11.794-88.178 10.911-131.13-1.4952"/>
	<path d="m1674.8 254.2c-44.15 1.3048-87.087 20.18-131.31 32.39"/>
	<path d="m1804.9 676.58v-131.18"/>
	<path d="m1804.9 807.8v-131.22"/>
	<path d="m755.12 939.29v130.82"/>
	<path d="m1018.3 287.09c42.992 11.629 88.294 10.232 131.31-2.3639"/>
	<path d="m1804.9 545.4v-131.21"/>
	<path d="m1149.6 284.72c44.104-12.928 87.304-30.793 131.31-30.602"/>
	<path d="m755.12 413.96v131.04"/>
	<path d="m755.12 1070.1v131.35"/>
	<path d="m1804.9 1201.5v-131.22"/>
	<path d="m1804.9 1070.2v-131.22"/>
	<path d="m1280.9 1303.9c-43.946-0.1913-87.09 17.62-131.13 30.547"/>
	<path d="m755.12 545v131.04"/>
	<path d="m755.12 1332.7c44.24-13.538 87.978-30.382 132.09-28.645"/>
	<path d="m887.21 1304c44.182 1.7704 87.037 20.912 131.29 32.871"/>
	<path d="m886.97 254.27c44.186 1.717 87.056 20.836 131.31 32.824"/>
	<path d="m886.97 254.27c-44.035-1.6814-87.689 15.141-131.85 28.654"/>
	<path d="m1804.9 282.92v131.27"/>
	<path d="m1149.8 1334.4c-43.011 12.612-88.303 14.075-131.29 2.4752"/>
	<path d="m1804.9 807.8v131.22"/>
	<path d="m1674.3 1304c-44.098 1.4275-86.959 20.324-131.13 32.474"/>
	<path d="m755.12 1332.7v-131.22"/>
	<path d="m1674.3 1304c43.64-1.3833 86.848 15.314 130.59 28.698"/>
	<path d="m807.61 909.42v117.62"/>
	<path d="m807.61 791.24v118.18"/>
	<path d="m807.61 1027v118.26"/>
	<path d="m807.61 554.38v117.89"/>
	<path d="m807.61 672.27v118.97"/>
	<path d="m1752.4 1145.3v-118.1"/>
	<path d="m1635 1256.5c38.552-8.2994 78.813-4.5814 117.35 6.8826"/>
	<path d="m1752.4 318.61c-38.322-11.402-78.347-15.179-116.69-7.0223"/>
	<path d="m1517.5 345.12c39.984-7.2758 78.241-25.018 118.21-33.538"/>
	<path d="m807.61 436.5v117.89"/>
	<path d="m1517.1 1290c39.909-7.1874 78.1-24.871 117.99-33.476"/>
	<path d="m1044.7 345.51c38.948 6.7014 79.291 0.0024 118.21-12.362"/>
	<path d="m1281.1 1251.4c-39.499-0.2086-78.593 13.927-117.99 26.461"/>
	<path d="m1752.4 1263.4v-118.1"/>
	<path d="m1281.1 306.61c39.614 0.2328 78.697 14.777 118.21 27.213"/>
	<path d="m1517.1 1290c-38.854 6.9775-79.165 0.7814-117.99-11.444"/>
	<path d="m807.61 1263.4c39.108-11.635 80.013-15.182 119.13-6.4918"/>
	<path d="m1752.4 791v-118.1"/>
	<path d="m1752.4 672.9v-118.04"/>
	<path d="m926.46 312.05c39.955 8.8521 78.225 26.551 118.21 33.451"/>
	<path d="m1752.4 554.86v-118.09"/>
	<path d="m1044.9 1290.3c-39.972-6.8541-78.234-24.54-118.18-33.432"/>
	<path d="m1162.9 333.14c39.472-12.547 78.634-26.74 118.21-26.532"/>
	<path d="m807.61 1263.4v-118.1"/>
	<path d="m807.61 318.61v117.89"/>
	<path d="m1752.4 909.1v-118.1"/>
	<path d="m1752.4 1027.2v-118.1"/>
	<path d="m1399.3 333.83c38.892 12.234 79.288 18.36 118.21 11.298"/>
	<path d="m1163.1 1277.9c-38.909 12.373-79.235 19.132-118.18 12.475"/>
	<path d="m1399.1 1278.5c-39.434-12.425-78.449-26.913-117.99-27.146"/>
	<path d="m1752.4 318.61v118.16"/>
	<path d="m926.46 312.05c-39.027-8.6289-79.831-5.0542-118.85 6.5542"/>
	<path d="m1705.2 568.04v-106.28"/>
	<path d="m854.85 887.2v105.74"/>
	<path d="m1705.2 674.26v-106.23"/>
	<path d="m1494.1 395.36c35.801-2.5449 70.822-15.87 106.41-27.02"/>
	<path d="m961.99 369.11c35.556 11.271 70.641 24.306 106.41 26.402"/>
	<path d="m854.85 1205.7c35.572-4.411 72.04 2.5741 107.47 13.815"/>
	<path d="m854.85 1099.4v-106.47"/>
	<path d="m1705.2 1205.7v-106.29"/>
	<path d="m1281.2 353.85c35.631 0.2369 71.006 11.882 106.41 23.467"/>
	<path d="m854.85 567.49v106.05"/>
	<path d="m1068.4 395.51c35.43 2.0565 71.184-7.4352 106.41-19.004"/>
	<path d="m1705.2 780.55v-106.29"/>
	<path d="m1174.8 376.51c35.371-11.617 70.82-22.876 106.41-22.658"/>
	<path d="m1599.7 1218.9c34.746-10.92 70.529-17.498 105.43-13.17"/>
	<path d="m961.99 369.11c-35.321-11.191-71.682-18.111-107.15-13.714"/>
	<path d="m1600.5 368.34c34.496-10.801 70.029-17.233 104.68-12.936"/>
	<path d="m1068.7 1245.8c-35.757-2.0426-70.839-15.035-106.38-26.316"/>
	<path d="m1387.4 1227.5c-35.321-11.561-70.616-23.149-106.16-23.386"/>
	<path d="m1387.4 1227.5c35.119 11.493 70.848 20.554 106.16 18.151"/>
	<path d="m1387.6 377.32c35.198 11.514 71.023 20.533 106.41 18.036"/>
	<path d="m854.85 780.82v106.38"/>
	<path d="m1281.2 1204.2c-35.509-0.2172-70.878 10.983-106.16 22.575"/>
	<path d="m1705.2 993.13v-106.29"/>
	<path d="m854.85 673.54v107.28"/>
	<path d="m1705.2 355.4v106.36"/>
	<path d="m1175.1 1226.7c-35.222 11.57-70.955 21.108-106.38 19.104"/>
	<path d="m854.85 1205.7v-106.29"/>
	<path d="m1705.2 886.84v-106.29"/>
	<path d="m854.85 355.4v106.05"/>
	<path d="m1705.2 1099.4v-106.29"/>
	<path d="m854.85 461.45v106.05"/>
	<path d="m1599.7 1218.9c-35.497 11.162-70.452 24.371-106.16 26.82"/>
	<path d="m1185.9 1180.7c-31.864 10.452-63.614 20.971-95.76 22.691"/>
	<path d="m994.34 1187.4c-32.373-10.384-64.343-22.002-96.973-24.983"/>
	<path d="m1662.6 397.18v95.738"/>
	<path d="m897.36 492.57v95.391"/>
	<path d="m1662.6 779.82v-95.659"/>
	<path d="m1567.9 1186.7c31.589-10.211 62.843-21.341 94.7-24.251"/>
	<path d="m1472.4 1203.5c-32.037-1.3016-63.768-11.456-95.52-21.904"/>
	<path d="m1568.8 421.17c31.303-10.143 62.295-21.098 93.87-23.982"/>
	<path d="m1377.2 416.39c31.84 10.479 63.673 20.621 95.798 21.835"/>
	<path d="m1662.6 875.48v-95.659"/>
	<path d="m1281.4 1161.6c31.96 0.2354 63.842 9.5089 95.52 19.931"/>
	<path d="m897.36 970.94v95.862"/>
	<path d="m1090.1 1203.4c-31.888 1.6899-64.121-5.7743-95.76-15.919"/>
	<path d="m993.98 422.05c-32.249-10.358-64.108-21.899-96.616-24.868"/>
	<path d="m897.36 397.18v95.39"/>
	<path d="m1567.9 1186.7c-31.582 10.205-63.679 18.047-95.52 16.769"/>
	<path d="m1185.6 415.49c31.742-10.415 63.779-19.338 95.798-19.119"/>
	<path d="m1662.6 684.16v-95.592"/>
	<path d="m1662.6 1162.5v-95.659"/>
	<path d="m993.98 422.05c31.655 10.163 63.893 17.69 95.798 16.051"/>
	<path d="m897.36 1162.5v-95.659"/>
	<path d="m897.36 780.12v95.76"/>
	<path d="m1662.6 1066.8v-95.659"/>
	<path d="m1281.4 396.37c32.054 0.2354 64.026 9.5659 95.798 20.021"/>
	<path d="m1281.4 1161.6c-31.926-0.2192-63.872 8.647-95.52 19.026"/>
	<path d="m1089.8 438.1c32.155-1.6673 63.925-12.156 95.798-22.615"/>
	<path d="m1662.6 588.57v-95.648"/>
	<path d="m897.36 683.35v96.769"/>
	<path d="m1662.6 971.14v-95.659"/>
	<path d="m1473 438.22c31.942 1.1914 64.117-6.7964 95.798-17.059"/>
	<path d="m897.36 875.88v95.053"/>
	<path d="m897.36 587.96v95.39"/>
	<path d="m1022.8 468.78c-29.324-7.5355-57.809-19.068-87.138-26.522"/>
	<path d="m1023.2 1157.6c-29.459-7.5327-58.067-19.134-87.528-26.622"/>
	<path d="m1453.4 1163.5c-28.934-3.9052-57.264-14.049-85.942-23.311"/>
	<path d="m1624.4 442.26v86.179"/>
	<path d="m1624.4 614.52v-86.081"/>
	<path d="m1624.4 700.54v-86.02"/>
	<path d="m1539.3 1157c28.605-7.5399 56.427-18.704 85.046-25.978"/>
	<path d="m1453.4 1163.5c28.449 3.8284 57.629 0.9012 85.941-6.5542"/>
	<path d="m935.63 958.6v86.314"/>
	<path d="m935.63 1131v-86.094"/>
	<path d="m1540.2 467.99c28.293-7.5365 55.827-18.542 84.139-25.738"/>
	<path d="m1624.4 1131v-86.094"/>
	<path d="m935.63 613.86v85.8"/>
	<path d="m1367.4 1140.2c-28.444-9.1846-57.203-16.614-85.941-16.843"/>
	<path d="m935.63 786.96v86.204"/>
	<path d="m1195.6 1139.3c28.422-9.0795 57.234-16.094 85.941-15.877"/>
	<path d="m1195.3 450.61c28.523-9.123 57.436-16.192 86.245-15.976"/>
	<path d="m1624.4 1044.9v-86.093"/>
	<path d="m1454 474.87c28.554 3.761 57.833 0.686 86.245-6.8749"/>
	<path d="m1624.4 958.82v-86.093"/>
	<path d="m1195.6 1139.3c-28.794 9.2015-57.17 19.599-86.204 23.89"/>
	<path d="m935.63 699.66v87.304"/>
	<path d="m1624.4 872.72v-86.093"/>
	<path d="m935.63 442.26v85.8"/>
	<path d="m935.63 528.06v85.8"/>
	<path d="m1367.7 451.57c28.776 9.3027 57.211 19.459 86.245 23.295"/>
	<path d="m1281.5 434.63c28.84 0.2299 57.699 7.7139 86.245 16.94"/>
	<path d="m1109 474.45c29.046-4.2456 57.44-14.627 86.245-23.843"/>
	<path d="m1022.8 468.78c28.411 7.2927 57.716 9.8325 86.245 5.674"/>
	<path d="m1624.4 786.63v-86.094"/>
	<path d="m935.63 873.16v85.431"/>
	<path d="m1109.4 1163.1c-28.512 4.2021-57.806 1.7305-86.204-5.5227"/>
	<path d="m970.06 486.93v77.168"/>
	<path d="m1514.6 508.09c25.366-4.2875 50.246-12.98 75.382-21.169"/>
	<path d="m1589.9 641.97v-77.471"/>
	<path d="m1589.9 719.38v-77.405"/>
	<path d="m1589.9 486.93v77.577"/>
	<path d="m1359.3 483.31c25.977 8.1051 51.506 17.661 77.647 23.08"/>
	<path d="m970.06 718.43v78.787"/>
	<path d="m1281.6 1088.9c-25.815-0.2104-51.771 5.3375-77.321 13.142"/>
	<path d="m970.06 1106.8v-77.484"/>
	<path d="m1048.7 508.62c25.688 3.9601 52.027 2.7163 77.647-2.912"/>
	<path d="m1589.9 951.83v-77.484"/>
	<path d="m1589.9 874.35v-77.484"/>
	<path d="m1126.7 1125.5c26.122-5.7839 51.615-15.464 77.603-23.407"/>
	<path d="m1049.1 1128.6c-26.596-4.0586-52.678-13.171-79.027-21.754"/>
	<path d="m970.06 951.59v77.722"/>
	<path d="m1589.9 796.86v-77.484"/>
	<path d="m1126.7 1125.5c-25.605 5.6619-51.927 6.9681-77.603 3.0592"/>
	<path d="m1436.9 506.39c25.629 5.305 51.978 6.0323 77.647 1.7022"/>
	<path d="m1513.6 1128.1c-25.567 4.2017-51.8 3.3486-77.321-2.0001"/>
	<path d="m1126.3 505.7c26.138-5.7498 51.647-15.426 77.648-23.388"/>
	<path d="m1589.9 1106.8v-77.484"/>
	<path d="m970.06 641.26v77.168"/>
	<path d="m1281.6 469.07c25.952 0.2215 51.973 6.2333 77.647 14.24"/>
	<path d="m970.06 874.82v76.772"/>
	<path d="m1513.6 1128.1c25.696-4.2316 50.897-13.037 76.358-21.331"/>
	<path d="m970.06 564.09v77.169"/>
	<path d="m1589.9 1029.3v-77.484"/>
	<path d="m1048.7 508.62c-26.454-4.0877-52.398-13.152-78.607-21.69"/>
	<path d="m970.06 797.22v77.603"/>
	<path d="m1204 482.31c25.658-7.8542 51.722-13.454 77.647-13.244"/>
	<path d="m1358.9 1103.1c25.87 8.0577 51.291 17.582 77.321 23.045"/>
	<path d="m1358.9 1103.1c-25.565-7.9595-51.478-13.919-77.32-14.14"/>
	<path d="m1211.8 510.97c23.098-6.6725 46.577-11.109 69.909-10.907"/>
	<path d="m1001.1 597.39v69.4"/>
	<path d="m1281.7 1058c23.24 0.2106 46.568 4.9991 69.562 11.81"/>
	<path d="m1001.1 946.15v69.988"/>
	<path d="m1558.9 1016.1v-69.736"/>
	<path d="m1281.7 500.07c23.356 0.2112 46.801 5.0491 69.909 11.912"/>
	<path d="m1558.9 1085.9v-69.736"/>
	<path d="m1558.9 806.93v-69.736"/>
	<path d="m1001.1 666.79v69.4"/>
	<path d="m1558.9 946.4v-69.736"/>
	<path d="m1420.8 1091.5c-23.365-6.1819-46.249-14.792-69.562-21.702"/>
	<path d="m1281.7 1058c-23.216-0.2021-46.578 4.1859-69.562 10.805"/>
	<path d="m1001.1 736.19v71.121"/>
	<path d="m1001.1 807.31v69.862"/>
	<path d="m1558.9 876.66v-69.736"/>
	<path d="m1421.5 533.76c23.082 6.0529 46.644 9.3089 69.909 7.9742"/>
	<path d="m1558.9 667.54v-69.722"/>
	<path d="m1558.9 527.99v69.834"/>
	<path d="m1558.9 737.19v-69.651"/>
	<path d="m1212.2 1068.8c-23.431 6.7522-46.407 15.437-69.862 21.862"/>
	<path d="m1072.4 1099.8c-23.887-0.9056-47.76-6.5895-71.376-13.932"/>
	<path d="m1001.1 1085.9v-69.736"/>
	<path d="m1072.4 1099.8c23.277 0.874 46.791-2.8702 69.862-9.1854"/>
	<path d="m1001.1 877.17v68.978"/>
	<path d="m1491.4 541.73c22.606-1.3048 45.156-6.8 67.501-13.748"/>
	<path d="m1490.4 1099.7c-23.156 1.2061-46.592-2.1405-69.562-8.213"/>
	<path d="m1490.4 1099.7c22.95-1.2034 45.853-6.7512 68.538-13.805"/>
	<path d="m1351.6 511.98c23.428 6.9612 46.425 15.618 69.909 21.782"/>
	<path d="m1072 541.9c-23.74-0.9545-47.46-6.6176-70.93-13.915"/>
	<path d="m1072 541.9c23.289 0.9279 46.823-2.7664 69.909-9.059"/>
	<path d="m1001.1 527.99v69.4"/>
	<path d="m1141.9 532.84c23.472-6.4025 46.464-15.092 69.909-21.869"/>
	<path d="m1344.8 537.89c21.113 5.9133 41.862 13.56 62.945 19.867"/>
	<path d="m1531 563.63v62.866"/>
	<path d="m1531 689.24v-62.747"/>
	<path d="m1531 751.91v-62.673"/>
	<path d="m1093 569.5c-21.293 1.4412-42.865-0.8906-64.02-5.8728"/>
	<path d="m1531 940.2v-62.762"/>
	<path d="m1219.2 1038.9c-21.109 5.672-41.847 13.269-62.895 19.737"/>
	<path d="m1531 1003v-62.762"/>
	<path d="m1155.9 556.66c21.067-6.4569 41.82-14.066 62.945-19.766"/>
	<path d="m1531 814.68v-62.762"/>
	<path d="m1029 563.63v62.409"/>
	<path d="m1093 569.5c21.082-1.4337 42.106-6.4557 62.945-12.84"/>
	<path d="m1029 750.85v64.222"/>
	<path d="m1029 939.93v63.028"/>
	<path d="m1531 1065.7v-62.762"/>
	<path d="m1218.9 536.89c20.806-5.6096 41.943-9.1255 62.945-8.9329"/>
	<path d="m1407 1059.6c-20.956-6.3021-41.588-13.891-62.579-19.75"/>
	<path d="m1029 1065.7c21.309 5.0186 43.044 7.3429 64.49 5.8403"/>
	<path d="m1470.6 569.71c20.112 0.9919 40.436-1.3812 60.408-6.0847"/>
	<path d="m1029 877.97v61.964"/>
	<path d="m1156.3 1058.6c-20.824 6.3967-41.828 11.454-62.895 12.937"/>
	<path d="m1281.8 527.96c21.022 0.1996 42.134 4.1009 62.945 9.926"/>
	<path d="m1469.5 1071.8c-20.946-1.1565-41.869-5.894-62.579-12.119"/>
	<path d="m1029 626.04v62.409"/>
	<path d="m1531 877.44v-62.762"/>
	<path d="m1029 688.44v62.408"/>
	<path d="m1219.2 1038.9c20.685-5.5543 41.7-9.025 62.579-8.833"/>
	<path d="m1469.5 1071.8c20.47 1.1238 41.171-1.2396 61.501-6.0276"/>
	<path d="m1407.7 557.75c20.828 6.2283 41.881 10.913 62.945 11.958"/>
	<path d="m1344.4 1039.9c-20.69-5.771-41.68-9.6261-62.579-9.8251"/>
	<path d="m1029 815.08v62.895"/>
	<path d="m1029 1065.7v-62.762"/>
	<path d="m1505.9 1045.3v-56.486"/>
	<path d="m1450.8 1044.7c18.29 2.6854 36.865 2.8848 55.167 0.5221"/>
	<path d="m1505.9 762.83v-56.393"/>
	<path d="m1225.2 560.35c18.747-4.6767 37.771-7.4636 56.677-7.2819"/>
	<path d="m1111.9 592.45c-19.15 3.0427-38.629 3.4001-57.802 0.9252"/>
	<path d="m1505.9 593.37v56.594"/>
	<path d="m1505.9 988.77v-56.486"/>
	<path d="m1054.1 705.6v56.116"/>
	<path d="m1054.1 761.72v58.012"/>
	<path d="m1111.9 592.45c19.024-3.0275 37.857-8.5728 56.677-14.674"/>
	<path d="m1169 1029.5c-18.805 6.1041-37.618 11.671-56.625 14.738"/>
	<path d="m1505.9 819.32v-56.486"/>
	<path d="m1054.1 649.49v56.116"/>
	<path d="m1451.9 593.02c17.916 2.5355 36.1 2.6711 54.024 0.3572"/>
	<path d="m1394.5 1030.6c-18.798-6.0371-37.407-12.605-56.294-17.53"/>
	<path d="m1395.2 578.99c18.806 6.0215 37.66 11.329 56.677 14.025"/>
	<path d="m1450.8 1044.7c-18.89-2.7786-37.612-8.1051-56.294-14.104"/>
	<path d="m1112.3 1044.3c-19.311 3.1111-38.958 3.4999-58.293 1.004"/>
	<path d="m1505.9 932.29v-56.486"/>
	<path d="m1168.5 577.77c18.914-6.1331 37.654-12.675 56.677-17.424"/>
	<path d="m1054.1 876.36v55.652"/>
	<path d="m1338.2 1013.1c-18.622-4.8527-37.499-7.9628-56.294-8.1494"/>
	<path d="m1338.6 561.31c19.016 4.9812 37.748 11.613 56.677 17.675"/>
	<path d="m1281.9 1005c-18.778-0.181-37.673 2.5644-56.294 7.1853"/>
	<path d="m1054.1 593.37v56.116"/>
	<path d="m1505.9 706.44v-56.47"/>
	<path d="m1054.1 1045.3v-56.486"/>
	<path d="m1505.9 875.8v-56.486"/>
	<path d="m1281.9 553.07c18.923 0.1874 37.929 3.3403 56.677 8.248"/>
	<path d="m1054.1 819.73v56.625"/>
	<path d="m1054.1 932.01v56.764"/>
	<path d="m1169 1029.5c18.894-6.1342 37.619-12.658 56.625-17.378"/>
	<path d="m1483.3 617.62v50.95"/>
	<path d="m1483.3 871.81v-50.837"/>
	<path d="m1433.9 1019c16.38 3.5867 32.974 5.5522 49.466 5.2902"/>
	<path d="m1483.3 668.57v50.821"/>
	<path d="m1076.7 718.53v50.453"/>
	<path d="m1483.3 820.97v-50.837"/>
	<path d="m1076.7 922.36v51.126"/>
	<path d="m1231.3 988.18c-17.106 3.8984-34.009 9.4221-50.982 15.013"/>
	<path d="m1483.3 1024.3v-50.838"/>
	<path d="m1179.9 596.65c16.992-5.5979 33.912-11.144 51.036-15.072"/>
	<path d="m1383.2 1004.4c-16.871-5.5513-33.651-11.158-50.638-15.272"/>
	<path d="m1282 575.66c17.036 0.175 34.142 2.7291 51.036 6.8401"/>
	<path d="m1483.3 770.14v-50.741"/>
	<path d="m1433.9 1019c-16.991-3.7238-33.788-9.1123-50.638-14.657"/>
	<path d="m1129.4 1018.3c-17.447 4.034-35.138 6.3011-52.716 6.0221"/>
	<path d="m1076.7 821.41v50.982"/>
	<path d="m1076.7 768.98v52.423"/>
	<path d="m1076.7 973.49v50.838"/>
	<path d="m1230.9 581.57c16.895-3.8724 34.015-6.0822 51.036-5.9117"/>
	<path d="m1483.3 973.49v-50.837"/>
	<path d="m1333 582.5c17.121 4.1692 34.03 9.8442 51.036 15.436"/>
	<path d="m1076.7 872.39v49.97"/>
	<path d="m1332.6 989.11c-16.763-4.0562-33.736-6.5706-50.638-6.7448"/>
	<path d="m1282 982.36c-16.888-0.1696-33.874 2.0022-50.638 5.8196"/>
	<path d="m1076.7 617.62v50.453"/>
	<path d="m1483.3 922.65v-50.837"/>
	<path d="m1384 597.94c16.979 5.5829 33.91 10.98 51.036 14.654"/>
	<path d="m1435.1 612.59c15.99 3.4274 32.183 5.2885 48.279 5.0328"/>
	<path d="m1128.9 611.72c17.124-3.9303 34.044-9.4771 51.036-15.075"/>
	<path d="m1128.9 611.72c-17.279 3.9626-34.798 6.1808-52.205 5.9044"/>
	<path d="m1076.7 668.08v50.453"/>
	<path d="m1129.4 1018.3c17.106-3.9584 34.006-9.5156 50.982-15.108"/>
	<path d="m1282 596c15.338 0.1627 30.734 2.2366 45.959 5.6647"/>
	<path d="m1327.6 967.6c-15.09-3.3745-30.348-5.4119-45.548-5.5735"/>
	<path d="m1463 774.48v-45.654"/>
	<path d="m1418.7 994.96c-15.26-4.1364-30.36-9.2666-45.548-14.24"/>
	<path d="m1097 727.93v45.356"/>
	<path d="m1463 683.09v45.737"/>
	<path d="m1418.7 994.96c14.693 3.9807 29.502 6.9883 44.336 8.2953"/>
	<path d="m1463 820.24v-45.754"/>
	<path d="m1373.9 614.95c15.323 5.0244 30.559 10.185 45.959 14.303"/>
	<path d="m1097 1003.3c15.964-1.4066 31.894-4.7906 47.696-9.222"/>
	<path d="m1097 1003.3v-45.754"/>
	<path d="m1463 911.74v-45.754"/>
	<path d="m1097 682.58v45.356"/>
	<path d="m1097 820.68v45.903"/>
	<path d="m1190.6 979.5c-15.317 4.9751-30.529 10.212-45.903 14.526"/>
	<path d="m1236.5 966.72c-15.393 3.2006-30.645 7.8262-45.903 12.782"/>
	<path d="m1463 1003.3v-45.754"/>
	<path d="m1097 637.22v45.356"/>
	<path d="m1236.1 600.78c15.228-3.1887 30.634-4.9408 45.959-4.7819"/>
	<path d="m1144.2 628.15c-15.628 4.3599-31.382 7.6832-47.168 9.0742"/>
	<path d="m1463 865.99v-45.754"/>
	<path d="m1419.9 629.26c14.288 3.8186 28.686 6.694 43.108 7.9647"/>
	<path d="m1097 773.29v47.394"/>
	<path d="m1373.1 980.71c-15.15-4.9608-30.275-9.697-45.548-13.115"/>
	<path d="m1328 601.66c15.412 3.4728 30.67 8.279 45.959 13.292"/>
	<path d="m1282 962.03c-15.188-0.158-30.455 1.5597-45.548 4.6949"/>
	<path d="m1097 911.44v46.053"/>
	<path d="m1144.2 628.15c15.394-4.2966 30.625-9.533 45.959-14.52"/>
	<path d="m1463 957.5v-45.754"/>
	<path d="m1463 637.22v45.87"/>
	<path d="m1190.1 613.63c15.278-4.968 30.547-9.6182 45.959-12.848"/>
	<path d="m1097 866.59v44.857"/>
	<path d="m1199.8 958.26c-13.811 4.3299-27.518 9.0811-41.332 13.378"/>
	<path d="m1241.1 947.5c-13.851 2.6146-27.606 6.4548-41.332 10.757"/>
	<path d="m1115.3 941.35v41.178"/>
	<path d="m1444.7 900.18v-41.178"/>
	<path d="m1115.3 859.61v40.255"/>
	<path d="m1323.5 618.99c13.872 2.8823 27.636 6.9207 41.39 11.322"/>
	<path d="m1406.3 643.66c12.766 3.8564 25.574 7.2026 38.454 9.4487"/>
	<path d="m1115.3 653.11v40.769"/>
	<path d="m1115.3 775.41v42.867"/>
	<path d="m1282.1 943.73c-13.659-0.1465-27.38 1.2114-40.966 3.7736"/>
	<path d="m1364.9 630.31c13.82 4.4235 27.547 9.1655 41.39 13.348"/>
	<path d="m1444.7 941.35v-41.178"/>
	<path d="m1115.3 818.28v41.332"/>
	<path d="m1323.1 948.33c-13.583-2.7971-27.297-4.4516-40.966-4.6011"/>
	<path d="m1157.9 642.38c13.834-4.2904 27.56-9.0483 41.39-13.394"/>
	<path d="m1282.1 614.3c13.81 0.1506 27.668 1.8387 41.39 4.6876"/>
	<path d="m1444.7 817.82v-41.178"/>
	<path d="m1444.7 694.4v41.161"/>
	<path d="m1444.7 653.11v41.298"/>
	<path d="m1444.7 776.64v-41.076"/>
	<path d="m1115.3 734.64v40.769"/>
	<path d="m1444.7 859v-41.178"/>
	<path d="m1364 959.47c-13.612-4.3417-27.237-8.3102-40.966-11.14"/>
	<path d="m1199.3 628.98c13.746-4.3191 27.519-8.185 41.389-10.828"/>
	<path d="m1444.7 982.53v-41.178"/>
	<path d="m1240.7 618.15c13.726-2.6133 27.59-4.0026 41.39-3.855"/>
	<path d="m1115.3 899.87v41.486"/>
	<path d="m1115.3 982.53c14.471-2.5237 28.845-6.4401 43.178-10.898"/>
	<path d="m1115.3 693.88v40.769"/>
	<path d="m1405 972.7c13.185 4.0167 26.412 7.512 39.718 9.8324"/>
	<path d="m1405 972.7c-13.698-4.1741-27.286-8.8691-40.966-13.234"/>
	<path d="m1157.9 642.38c-14.153 4.3882-28.346 8.2371-42.634 10.729"/>
	<path d="m1319 931.05c-12.225-2.3119-24.552-3.6584-36.843-3.7961"/>
	<path d="m1244.9 633.87c12.372-2.1334 24.85-3.2344 37.277-3.0978"/>
	<path d="m1428.2 703.33v37.043"/>
	<path d="m1355.8 940.43c-12.235-3.7412-24.503-7.0458-36.843-9.3813"/>
	<path d="m1131.8 962.63c13.103-3.145 26.101-7.1884 39.112-11.432"/>
	<path d="m1131.8 776.07v38.793"/>
	<path d="m1428.2 814.39v-37.06"/>
	<path d="m1355.8 940.43c12.315 3.7665 24.547 7.9458 36.843 11.918"/>
	<path d="m1131.8 962.63v-37.06"/>
	<path d="m1428.2 962.63v-37.06"/>
	<path d="m1428.2 777.33v-36.955"/>
	<path d="m1170.3 654.9c-12.825 4.1773-25.639 8.15-38.554 11.25"/>
	<path d="m1428.2 888.51v-37.06"/>
	<path d="m1131.8 739.43v36.641"/>
	<path d="m1392.7 952.35c11.827 3.8209 23.654 7.4211 35.563 10.279"/>
	<path d="m1245.3 930.28c-12.464 2.1271-24.863 5.2931-37.218 8.9704"/>
	<path d="m1428.2 925.57v-37.06"/>
	<path d="m1319.4 634.65c12.486 2.3859 24.898 5.7589 37.278 9.5645"/>
	<path d="m1356.7 644.21c12.46 3.8309 24.834 8.069 37.277 12.072"/>
	<path d="m1428.2 666.15v37.183"/>
	<path d="m1282.2 927.25c-12.283-0.1353-24.614 0.9373-36.843 3.0223"/>
	<path d="m1207.6 642.91c12.375-3.6969 24.793-6.889 37.277-9.0438"/>
	<path d="m1131.8 666.15v36.641"/>
	<path d="m1394 656.29c11.395 3.6655 22.793 7.1075 34.265 9.861"/>
	<path d="m1208.1 939.25c-12.447 3.7058-24.803 7.9014-37.218 11.951"/>
	<path d="m1170.3 654.9c12.436-4.051 24.812-8.2587 37.278-11.984"/>
	<path d="m1131.8 814.86v37.218"/>
	<path d="m1131.8 702.79v36.641"/>
	<path d="m1282.1 630.77c12.436 0.139 24.909 1.5164 37.277 3.8777"/>
	<path d="m1131.8 888.19v37.376"/>
	<path d="m1428.2 851.45v-37.06"/>
	<path d="m1131.8 852.08v36.113"/>
	<path d="m1282.2 912.43c-11.045-0.1246-22.127 0.7217-33.132 2.412"/>
	<path d="m1413.4 777.12v-33.247"/>
	<path d="m1282.2 645.6c11.2 0.1279 22.429 1.2545 33.576 3.2081"/>
	<path d="m1381.6 933.9c-11.041-3.6363-22.052-7.2816-33.132-10.491"/>
	<path d="m1315.3 915.56c11.09 1.9238 22.131 4.6622 33.132 7.8479"/>
	<path d="m1146.6 844.48v32.386"/>
	<path d="m1413.4 843.83v-33.354"/>
	<path d="m1181.5 666.06c-11.624 3.8281-23.213 7.6673-34.882 11"/>
	<path d="m1146.6 742.91v32.925"/>
	<path d="m1315.8 648.8c11.24 1.9713 22.428 4.7757 33.576 8.0281"/>
	<path d="m1413.4 910.54v-33.354"/>
	<path d="m1248.6 648.08c11.151-1.7357 22.383-2.6077 33.576-2.4818"/>
	<path d="m1181.5 666.06c11.184-3.6833 22.344-7.3306 33.576-10.482"/>
	<path d="m1146.6 677.06v32.925"/>
	<path d="m1146.6 810.96v33.516"/>
	<path d="m1146.6 910.54v33.354h1e-4"/>
	<path d="m1215 655.58c11.145-3.1264 22.339-5.7479 33.576-7.4986"/>
	<path d="m1146.6 709.98v32.925"/>
	<path d="m1349.3 656.83c11.228 3.2766 22.386 6.9883 33.576 10.671"/>
	<path d="m1215.6 922.27c-11.213 3.1308-22.353 6.762-33.516 10.437"/>
	<path d="m1382.9 667.5c10.158 3.3431 20.298 6.6429 30.496 9.5549"/>
	<path d="m1413.4 677.06v33.48"/>
	<path d="m1413.4 710.54v33.336"/>
	<path d="m1146.6 943.89c11.861-3.387 23.638-7.2975 35.453-11.188"/>
	<path d="m1146.6 775.83v35.126"/>
	<path d="m1413.4 810.48v-33.354"/>
	<path d="m1413.4 943.89h1e-4v-33.354"/>
	<path d="m1249.1 914.84c-11.216 1.7245-22.391 4.3201-33.516 7.4254"/>
	<path d="m1413.4 877.18v-33.354"/>
	<path d="m1381.6 933.9c10.601 3.4914 21.18 6.9527 31.823 9.9918"/>
	<path d="m1315.3 915.56c-11.001-1.9067-22.08-3.005-33.132-3.1315"/>
	<path d="m1146.6 876.86v33.677"/>
	<path d="m1400.1 776.45v-29.909"/>
	<path d="m1159.9 837.14v29.031"/>
	<path d="m1400.1 806.47v-30.019"/>
	<path d="m1159.9 686.39v29.581"/>
	<path d="m1159.9 775.13v31.826"/>
	<path d="m1400.1 716.54v30"/>
	<path d="m1252 660.92c10.051-1.4079 20.163-2.0976 30.245-1.9818"/>
	<path d="m1373 677.57c9.0385 2.959 18.053 5.9803 27.103 8.8171v1e-4"/>
	<path d="m1400.1 686.39v30.147"/>
	<path d="m1159.9 926.54c10.742-3.3671 21.428-6.9924 32.16-10.463"/>
	<path d="m1159.9 715.97v29.581"/>
	<path d="m1159.9 926.54v-30.019"/>
	<path d="m1191.5 676.12c10.064-3.2604 20.126-6.374 30.246-9.0144"/>
	<path d="m1252.5 901.01c-10.095 1.3937-20.163 3.5121-30.184 6.1093"/>
	<path d="m1400.1 866.5v-30.019"/>
	<path d="m1282.2 899.09c9.9369 0.116 19.894 1.0137 29.792 2.5837"/>
	<path d="m1342.7 668.3c10.116 2.7758 20.176 5.9779 30.245 9.2741"/>
	<path d="m1159.9 806.96v30.184"/>
	<path d="m1222.3 907.12c-10.099 2.6183-20.141 5.7133-30.184 8.9612"/>
	<path d="m1159.9 866.17v30.348"/>
	<path d="m1221.7 667.1c10.041-2.6191 20.129-4.7625 30.245-6.1809"/>
	<path d="m1341.8 908.2c-9.8926-2.6878-19.826-4.9488-29.792-6.5309"/>
	<path d="m1400.1 836.48v-30.019"/>
	<path d="m1191.5 676.12c-10.536 3.4136-21.03 6.9688-31.577 10.275v2e-4"/>
	<path d="m1400.1 896.52v-30.019"/>
	<path d="m1159.9 745.55v29.581"/>
	<path d="m1282.2 658.94c10.088 0.1174 20.198 1.0411 30.245 2.6552"/>
	<path d="m1312.5 661.59c10.119 1.6268 20.202 3.9506 30.245 6.7054"/>
	<path d="m1282.2 899.09c-9.9309-0.1143-19.89 0.5523-29.792 1.9179"/>
	<path d="m1341.8 908.2c9.9651 2.7084 19.875 5.8396 29.792 9.0775"/>
	<path d="m1400.1 926.54v-30.019"/>
	<path d="m1371.6 917.28c9.4912 3.0991 18.954 6.2809 28.457 9.2596"/>
	<path d="m1171.9 694.54v26.571"/>
	<path d="m1388.1 694.54v27.148"/>
	<path d="m1282.3 670.95c9.0874 0.1075 18.191 0.8667 27.247 2.1992"/>
	<path d="m1200.5 685.24c-9.5524 2.9833-19.063 6.1792-28.603 9.2975"/>
	<path d="m1388.1 829.63v-27.017"/>
	<path d="m1200.5 685.24c9.0609-2.8293 18.133-5.4562 27.248-7.6505"/>
	<path d="m1227.8 677.59c9.049-2.1776 18.139-3.9238 27.247-5.0701"/>
	<path d="m1171.9 774.26v28.856"/>
	<path d="m1309.5 673.15c9.1111 1.3416 18.198 3.2625 27.248 5.58"/>
	<path d="m1255.5 888.6c-9.0868 1.1232-18.156 2.8457-27.184 5.0013"/>
	<path d="m1388.1 883.66v-27.017"/>
	<path d="m1171.9 803.11v27.185"/>
	<path d="m1255.5 888.6c8.9072-1.0999 17.857-1.6238 26.786-1.5191"/>
	<path d="m1309.1 889.22c-8.9039-1.2913-17.853-2.0266-26.786-2.1326"/>
	<path d="m1171.9 883.66v27.017h1e-4"/>
	<path d="m1362.6 902.38c-8.9103-2.8254-17.827-5.4836-26.786-7.7518"/>
	<path d="m1362.6 902.38c8.4879 2.6918 16.947 5.5259 25.427 8.2979"/>
	<path d="m1309.1 889.22c8.9559 1.2999 17.889 3.1616 26.786 5.4131"/>
	<path d="m1388.1 910.68c0 1e-4 1e-4 1e-4 2e-4 1e-4v-27.017"/>
	<path d="m1388.1 856.64v-27.017"/>
	<path d="m1171.9 721.11v26.572"/>
	<path d="m1171.9 747.68v26.572"/>
	<path d="m1364 686.68c8.0266 2.5604 16.029 5.2379 24.05 7.8598"/>
	<path d="m1171.9 883.66v-27.352"/>
	<path d="m1228.3 893.6c-9.0938 2.1721-18.145 4.7789-27.185 7.5927"/>
	<path d="m1171.9 830.3v26.012"/>
	<path d="m1388.1 802.61v-27.017"/>
	<path d="m1201.1 901.2c-9.7512 3.0358-19.458 6.2993-29.195 9.4824"/>
	<path d="m1388.1 721.69v26.998"/>
	<path d="m1388.1 748.69v26.905"/>
	<path d="m1255 672.52c9.0598-1.139 18.165-1.6837 27.247-1.5775"/>
	<path d="m1336.8 678.73c9.1134 2.3346 18.183 5.0654 27.247 7.9566"/>
	<path d="m1182.7 725.66v23.863"/>
	<path d="m1377.3 847.69v-24.315"/>
	<path d="m1182.7 799.57v24.486"/>
	<path d="m1377.3 726.24v24.296"/>
	<path d="m1182.7 847.35v-23.294"/>
	<path d="m1377.3 750.54v24.202"/>
	<path d="m1233.2 687.15c8.1561-1.7995 16.347-3.2181 24.549-4.1423"/>
	<path d="m1377.3 774.74v24.315"/>
	<path d="m1331.4 688.21c8.2095 1.9527 16.386 4.2613 24.549 6.7595"/>
	<path d="m1182.7 701.8v23.863"/>
	<path d="m1182.7 872v24.315"/>
	<path d="m1182.7 847.35v24.656"/>
	<path d="m1306.9 683.58c8.205 1.1061 16.393 2.6913 24.549 4.6307"/>
	<path d="m1208.7 693.57c-8.663 2.568-17.289 5.3797-25.926 8.2221"/>
	<path d="m1356 694.97c7.1128 2.177 14.204 4.4928 21.302 6.8286"/>
	<path d="m1182.7 773.38v26.184"/>
	<path d="m1377.3 701.8v24.448"/>
	<path d="m1257.8 683c8.1664-0.9191 16.366-1.3483 24.549-1.2511"/>
	<path d="m1354.6 889.06c7.5814 2.2996 15.137 4.7657 22.7 7.2548"/>
	<path d="m1377.3 823.37v-24.315"/>
	<path d="m1354.6 889.06c-8.0076-2.4285-16.029-4.6647-24.081-6.5531"/>
	<path d="m1377.3 896.32v-24.315"/>
	<path d="m1330.5 882.51c-8.0007-1.8755-16.033-3.4053-24.081-4.4726"/>
	<path d="m1377.3 872v-24.315"/>
	<path d="m1282.3 876.28c8.0306 0.0967 16.073 0.7003 24.081 1.7615"/>
	<path d="m1182.7 749.52v23.863"/>
	<path d="m1282.3 876.28c-8.0266-0.0957-16.07 0.3149-24.081 1.1981"/>
	<path d="m1233.8 881.55c8.1351-1.778 16.305-3.1741 24.486-4.077"/>
	<path d="m1233.8 881.55c-8.1884 1.7903-16.346 3.9655-24.486 6.3668"/>
	<path d="m1208.7 693.57c8.161-2.4188 16.339-4.6145 24.549-6.4265"/>
	<path d="m1282.3 681.75c8.187 0.0983 16.386 0.7237 24.549 1.8233"/>
	<path d="m1182.7 896.32c8.837-2.9083 17.663-5.7844 26.528-8.4001"/>
	<path d="m1192.5 883.41v-21.884"/>
	<path d="m1192.5 839.3v22.229"/>
	<path d="m1238.6 870.8c-7.3733 1.468-14.724 3.2694-22.056 5.2948"/>
	<path d="m1216 701.2c7.3535-2.0439 14.726-3.866 22.121-5.3549"/>
	<path d="m1238.6 870.8c7.3312-1.4589 14.69-2.5875 22.056-3.3113"/>
	<path d="m1216.6 876.1c-8.0645 2.2283-16.096 4.7233-24.127 7.3174"/>
	<path d="m1260.2 692.47c7.3616-0.7401 14.748-1.0773 22.121-0.9885"/>
	<path d="m1367.5 817.76v21.884"/>
	<path d="m1325.6 871.69c-7.1945-1.5555-14.415-2.8106-21.646-3.6868"/>
	<path d="m1304.5 692.99c7.3903 0.9121 14.769 2.2189 22.121 3.8353"/>
	<path d="m1192.5 751.19v21.425"/>
	<path d="m1367.5 752.23v21.768"/>
	<path d="m1192.5 818.45v20.848"/>
	<path d="m1367.5 730.36v21.865"/>
	<path d="m1367.5 883.41v-21.884"/>
	<path d="m1282.3 691.48c7.3767 0.0898 14.762 0.6063 22.121 1.5136"/>
	<path d="m1348.7 702.53c6.2882 1.8251 12.559 3.7904 18.828 5.8156"/>
	<path d="m1367.5 795.88v21.884"/>
	<path d="m1367.5 774v21.884"/>
	<path d="m1326.6 696.83c7.3954 1.6266 14.766 3.5652 22.121 5.6996"/>
	<path d="m1192.5 818.45v-22.056"/>
	<path d="m1192.5 708.34v21.425"/>
	<path d="m1192.5 772.62v23.778"/>
	<path d="m1367.5 708.34v22.018"/>
	<path d="m1347.3 877.19c6.7634 1.9391 13.506 4.0473 20.247 6.2248"/>
	<path d="m1238.1 695.84c7.3523-1.4796 14.733-2.6292 22.121-3.3726"/>
	<path d="m1347.3 877.19c-7.197-2.063-14.41-3.9311-21.646-5.4962"/>
	<path d="m1192.5 729.77v21.425"/>
	<path d="m1260.7 867.49c7.2039-0.7071 14.431-1.0278 21.646-0.9406"/>
	<path d="m1304 868.01c-7.2013-0.8718-14.428-1.3682-21.646-1.4563"/>
	<path d="m1367.5 861.53v-21.884"/>
	<path d="m1216 701.2c-7.8596 2.1851-15.689 4.6196-23.516 7.1482"/>
	<path d="m1340.7 866.62c6.0259 1.6183 12.035 3.3956 18.038 5.2634"/>
	<path d="m1358.8 734.15v19.676"/>
	<path d="m1201.2 852.19v-20.045"/>
	<path d="m1282.4 857.8c-6.4845-0.0793-12.978 0.1699-19.455 0.7344"/>
	<path d="m1358.8 812.79v19.696"/>
	<path d="m1358.8 753.83v19.579"/>
	<path d="m1301.8 859c-6.4744-0.7161-12.967-1.1252-19.454-1.2053"/>
	<path d="m1201.2 714.32v19.231"/>
	<path d="m1201.2 813.49v18.647"/>
	<path d="m1243.1 861.21c6.6072-1.1918 13.237-2.1019 19.87-2.6807"/>
	<path d="m1223.2 865.59c6.606-1.6927 13.23-3.1758 19.87-4.3743"/>
	<path d="m1322.2 704.66c6.6626 1.3508 13.307 2.9705 19.935 4.7783"/>
	<path d="m1358.8 793.1v19.695"/>
	<path d="m1201.2 871.88v-19.695"/>
	<path d="m1242.5 703.75c-6.6621 1.2182-13.308 2.7213-19.936 4.4328"/>
	<path d="m1223.2 865.59c-7.3423 1.8819-14.658 4.0207-21.966 6.2944"/>
	<path d="m1201.2 793.62v19.87"/>
	<path d="m1358.8 852.19v-19.695"/>
	<path d="m1222.6 708.18c-7.135 1.843-14.245 3.9256-21.348 6.1354v2e-4"/>
	<path d="m1282.4 700.23c6.6475 0.0818 13.301 0.5094 19.935 1.2584"/>
	<path d="m1321.3 862.04c6.5015 1.2927 12.986 2.8445 19.455 4.5814"/>
	<path d="m1358.8 714.32v-2e-4c-5.5261-1.7193-11.057-3.3621-16.602-4.8747"/>
	<path d="m1201.2 752.78v19.231"/>
	<path d="m1262.4 701.01c6.6362-0.5944 13.291-0.8586 19.936-0.7775"/>
	<path d="m1321.3 862.04c-6.4686-1.2856-12.958-2.3144-19.455-3.0336"/>
	<path d="m1358.8 871.88v-19.695"/>
	<path d="m1242.5 703.75c6.6287-1.2116 13.28-2.1412 19.936-2.738"/>
	<path d="m1358.8 734.15v-19.831"/>
	<path d="m1201.2 733.55v19.231"/>
	<path d="m1201.2 793.62v-21.613"/>
	<path d="m1302.3 701.49c6.6578 0.7524 13.308 1.8291 19.936 3.1723"/>
	<path d="m1358.8 773.4v19.695"/>
	<path d="m632 1463.5c22.078-17.17 43.782-37.184 64.8-60.081"/>
	<path d="m1029 1065.7c8.4321-6.4457 16.816-13.248 25.105-20.465"/>
	<path d="m1131.8 962.63c-5.4637 6.7746-10.949 13.417-16.471 19.902"/>
	<path d="m1182.7 896.32c-3.6027 4.7883-7.2029 9.5777-10.807 14.36"/>
	<path d="m1413.4 677.06c-4.4358 3.1692-8.8866 6.2728-13.342 9.3316"/>
	<path d="m1159.9 926.54c4.0083-5.2647 8.0081-10.556 12.008-15.864"/>
	<path d="m1358.8 714.32c2.9147-2.0078 5.8336-3.9968 8.7535-5.9736"/>
	<path d="m1131.8 962.63c4.9619-6.1526 9.8987-12.405 14.824-18.736"/>
	<path d="m1159.9 926.54c-4.4391 5.8304-8.8826 11.62-13.342 17.352"/>
	<path d="m1097 1003.3c-6.7212 7.3123-13.497 14.344-20.335 21.073"/>
	<path d="m2e3 73.794c-24.124 31.717-47.528 63.777-72 93.695"/>
	<path d="m1201.2 871.88c-2.9211 3.8301-5.8379 7.6761-8.7535 11.534"/>
	<path d="m755.12 1332.7c17.604-22.99 34.861-46.412 52.488-69.287"/>
	<path d="m1358.8 721.22"/>
	<path d="m1428.2 666.15c5.517-4.1934 11.013-8.5334 16.471-13.041"/>
	<path d="m1444.7 653.11c6.1414-5.0712 12.246-10.363 18.301-15.885"/>
	<path d="m1388.1 694.54c4.0052-2.696 8.0106-5.4076 12.008-8.1517"/>
	<path d="m1367.5 708.34c3.2399-2.1932 6.4834-4.3729 9.7262-6.5485"/>
	<path d="m1413.4 677.06c4.9569-3.5417 9.9028-7.1714 14.824-10.912"/>
	<path d="m1377.3 701.8c3.6018-2.4165 7.2062-4.8301 10.807-7.2538"/>
	<path d="m1463 637.22c6.8359-6.2347 13.616-12.77 20.335-19.597"/>
	<path d="m1804.9 282.92c-17.392 12.071-35.118 23.49-52.488 35.689"/>
	<path d="m1589.9 486.93c11.445-15.173 22.86-30.152 34.437-44.67"/>
	<path d="m1192.5 883.41c-3.2444 4.2925-6.4849 8.5958-9.7261 12.904"/>
	<path d="m1752.4 318.61c-15.898 11.167-31.771 23.247-47.239 36.791"/>
	<path d="m2080-20.996c-27.582 27.73-53.706 60.222-80 94.79"/>
	<path d="m480 1579c25.782-25.643 52.966-46.683 80-65.21"/>
	<path d="m854.85 1205.7c13.929-15.659 28.089-30.134 42.515-43.247"/>
	<path d="m1097 1003.3c6.1462-6.6873 12.242-13.603 18.302-20.718"/>
	<path d="m1505.9 593.37c8.4492-9.5416 16.801-19.484 25.105-29.745"/>
	<path d="m1558.9 527.99c10.368-13.593 20.65-27.347 30.994-41.06"/>
	<path d="m1201.2 878.78"/>
	<path d="m1054.1 1045.3c7.5995-6.6178 15.135-13.597 22.594-20.936"/>
	<path d="m1558.9 527.99c-9.2578 12.137-18.524 24.063-27.894 35.642"/>
	<path d="m935.63 1131c11.384-8.4917 22.925-16.442 34.437-24.205"/>
	<path d="m1001.1 1085.9c-10.296 7.0935-20.675 13.97-30.994 20.927"/>
	<path d="m1705.2 355.4c-14.418 12.628-28.594 26.595-42.515 41.783"/>
	<path d="m696.8 1403.4c19.894-21.679 39.097-45.627 58.32-70.729"/>
	<path d="m1662.6 397.18c-12.952 14.133-25.649 29.254-38.264 45.072"/>
	<path d="m560 1513.8c23.881-16.364 48.456-32.001 72-50.305"/>
	<path d="m1863.2 237.01c-18.997 17.293-38.667 32.268-58.32 45.911"/>
	<path d="m1505.9 593.37c-7.464 8.4281-14.99 16.526-22.594 24.253"/>
	<path d="m1029 1065.7c-9.2274 7.0527-18.557 13.713-27.894 20.146"/>
	<path d="m897.36 1162.5c12.56-11.415 25.37-21.836 38.264-31.455"/>
	<path d="m854.85 1205.7c-16.031 18.025-31.647 37.455-47.239 57.687"/>
	<path d="m1928 167.49c-21.128 25.826-42.602 49.306-64.8 69.519"/>
	<path d="m2080 1579c-25.782-25.643-52.966-46.683-80-65.21"/>
	<path d="m897.36 397.18c12.952 14.133 25.649 29.254 38.264 45.072"/>
	<path d="m1400.1 926.54c-4.0084-5.2647-8.0082-10.556-12.008-15.864"/>
	<path d="m1201.2 714.32c-2.9147-2.0078-5.8335-3.9968-8.7535-5.9736"/>
	<path d="m1146.6 677.06c4.4358 3.1692 8.8867 6.2728 13.342 9.3316"/>
	<path d="m1171.9 694.54c3.6006 2.4236 7.205 4.8373 10.807 7.2538"/>
	<path d="m2e3 1513.8c-23.881-16.364-48.456-32.001-72-50.305"/>
	<path d="m1182.7 701.8c3.2428 2.1755 6.4862 4.3553 9.7261 6.5485"/>
	<path d="m1589.9 1106.8c-10.319-6.9575-20.698-13.834-30.994-20.927"/>
	<path d="m1054.1 593.37c-8.4492-9.5417-16.801-19.484-25.105-29.745"/>
	<path d="m1131.8 666.15c4.9213 3.7403 9.8671 7.37 14.824 10.912"/>
	<path d="m1358.8 878.78"/>
	<path d="m1097 637.22c-6.8358-6.2347-13.616-12.77-20.335-19.597"/>
	<path d="m1531 1065.7c-8.4321-6.4457-16.816-13.248-25.105-20.465"/>
	<path d="m1752.4 1263.4c-15.592-20.232-31.208-39.662-47.239-57.687"/>
	<path d="m1558.9 1085.9c-9.3374-6.4337-18.667-13.094-27.894-20.147"/>
	<path d="m1444.7 982.53c-5.5225-6.4852-11.008-13.128-16.471-19.902"/>
	<path d="m696.8 237.01c18.997 17.293 38.667 32.268 58.32 45.911"/>
	<path d="m1804.9 1332.7c-17.604-22.99-34.861-46.412-52.488-69.287"/>
	<path d="m755.12 282.92c17.392 12.071 35.118 23.49 52.488 35.689"/>
	<path d="m1624.4 1131c-11.384-8.4916-22.925-16.442-34.437-24.205"/>
	<path d="m807.61 318.61c15.898 11.167 31.771 23.247 47.239 36.791"/>
	<path d="m970.06 486.93c-11.445-15.173-22.861-30.152-34.437-44.67"/>
	<path d="m854.85 355.4c14.418 12.628 28.594 26.595 42.515 41.783"/>
	<path d="m1505.9 1045.3c-7.5995-6.6178-15.135-13.597-22.594-20.936"/>
	<path d="m1171.9 694.54c-4.0054-2.696-8.0107-5.4076-12.008-8.1517"/>
	<path d="m1388.1 910.68c-3.6039-4.782-7.204-9.5714-10.807-14.36"/>
	<path d="m560 73.794c24.124 31.717 47.528 63.777 72 93.695"/>
	<path d="m632 167.49c21.128 25.826 42.602 49.306 64.8 69.519"/>
	<path d="m1463 1003.3c-6.1462-6.6873-12.242-13.603-18.301-20.718"/>
	<path d="m480-20.996c27.582 27.73 53.706 60.222 80 94.79"/>
	<path d="m1367.5 883.41c-2.9156-3.8574-5.8324-7.7034-8.7535-11.534"/>
	<path d="m1483.3 1024.3c-6.8378-6.7286-13.614-13.761-20.335-21.073"/>
	<path d="m1863.2 1403.4c-19.894-21.679-39.097-45.627-58.32-70.729"/>
	<path d="m1377.3 896.32c-3.2412-4.3079-6.4818-8.6113-9.7262-12.904"/>
	<path d="m970.06 486.93c10.344 13.713 20.626 27.467 30.994 41.06"/>
	<path d="m1928 1463.5c-22.078-17.17-43.782-37.184-64.8-60.081"/>
	<path d="m1428.2 962.63c-4.9618-6.1526-9.8986-12.405-14.824-18.736"/>
	<path d="m1662.6 1162.5c-12.56-11.415-25.37-21.836-38.264-31.455"/>
	<path d="m1115.3 653.11c5.4587 4.5072 10.954 8.8473 16.471 13.041"/>
	<path d="m1001.1 527.99c9.2578 12.137 18.524 24.063 27.894 35.642"/>
	<path d="m1097 637.22c6.0552 5.522 12.16 10.813 18.302 15.885"/>
	<path d="m1054.1 593.37c7.464 8.4281 14.99 16.526 22.594 24.253"/>
	<path d="m1705.2 1205.7c-13.929-15.659-28.089-30.134-42.515-43.247"/>
	<path d="m1201.2 721.22"/>
	<path d="m1413.4 943.89c-4.459-5.7323-8.9025-11.521-13.342-17.352"/>
	<path d="m2080 379v-200"/>
	<path d="m2080 579v-200"/>
	<path d="m2080 979v-200"/>
	<path d="m2080 1579v-200"/>
	<path d="m2080 1179v-200"/>
	<path d="m2080 779v-200"/>
	<path d="m2080-20.996v200"/>
	<path d="m2080 1379v-200"/>
	<path d="m680 20.998c67.518-0.2966 132.54-42.135 200-41.996"/>
	<path d="m1680-20.998c-67.507 0.2093-132.53 42.049-200 41.997"/>
	<path d="m1080 20.999c-67.474 0.0523-132.49-41.788-200-41.997"/>
	<path d="m680 20.998c-67.451 0.2266-132.47-41.61-200-41.994"/>
	<path d="m1880 20.998c-67.518-0.2966-132.54-42.135-200-41.996"/>
	<path d="m2080-20.996c-67.528 0.3839-132.55 42.22-200 41.994"/>
	<path d="m1280-20.999c-67.485 0.0349-132.5 41.876-200 41.998"/>
	<path d="m1480 20.999c-67.496-0.1221-132.52-41.963-200-41.998"/>
	<path d="m480 379v200"/>
	<path d="m480 979v200"/>
	<path d="m480 1179v200"/>
	<path d="m480 179v200"/>
	<path d="m480 779v200"/>
	<path d="m480 579v200"/>
	<path d="m480 1579v-200"/>
	<path d="m480-20.996v200"/>
	<path d="m480 1579c67.528 0.3839 132.55 42.22 200 41.994"/>
	<path d="m680 1621c67.518-0.2966 132.54-42.135 200-41.996"/>
	<path d="m1080 1621c67.496-0.1221 132.52-41.963 200-41.998"/>
	<path d="m1280 1579c67.485 0.0349 132.5 41.876 200 41.998"/>
	<path d="m880 1579c67.507 0.2094 132.53 42.049 200 41.997"/>
	<path d="m1480 1621c67.474 0.0524 132.49-41.788 200-41.997"/>
	<path d="m1880 1621c-67.518-0.2966-132.54-42.135-200-41.996"/>
	<path d="m1880 1621c67.451 0.2266 132.47-41.61 200-41.994"/>
	<path d="m1705.2 1099.4c16.032 14.018 31.652 29.548 47.239 45.877"/>
	<path d="m1863.2 1257.6c21.029 17.652 42.787 32.265 64.8 43.881"/>
	<path d="m1705.2 1099.4c-13.931-12.178-28.107-23.123-42.515-32.618"/>
	<path d="m1589.9 1029.3c-10.322-4.379-20.69-8.6559-30.994-13.179"/>
	<path d="m1531 1003c9.2388 4.7517 18.565 9.0771 27.894 13.173"/>
	<path d="m1388.1 883.66c-3.6041-3.8812-7.2042-7.7706-10.807-11.658"/>
	<path d="m1388.1 883.66c3.9995 4.3071 7.9991 8.5987 12.008 12.862"/>
	<path d="m1413.4 910.54c-4.4595-4.6179-8.9028-9.296-13.342-14.016"/>
	<path d="m1752.4 1145.3c17.632 18.473 34.88 37.572 52.488 56.165"/>
	<path d="m1483.3 973.49c7.4626 5.4771 15.001 10.574 22.594 15.288"/>
	<path d="m1589.9 1029.3c11.505 4.8811 23.037 9.9412 34.437 15.595"/>
	<path d="m1624.4 1044.9c12.871 6.3846 25.687 13.604 38.264 21.889"/>
	<path d="m1428.2 925.57c5.4631 5.4081 10.949 10.679 16.471 15.784"/>
	<path d="m1367.5 861.53c3.2445 3.4814 6.485 6.9745 9.7262 10.472"/>
	<path d="m1444.7 941.35c6.0593 5.6004 12.156 10.992 18.301 16.143"/>
	<path d="m1928 1301.5c23.617 12.456 48.093 21.9 72 32.305"/>
	<path d="m1413.4 910.54c4.9249 5.0998 9.8617 10.118 14.824 15.03"/>
	<path d="m2080 1379c-25.83-19.234-53.041-33.474-80-45.21"/>
	<path d="m1463 957.5c6.7219 5.6326 13.5 10.972 20.335 15.989"/>
	<path d="m1505.9 988.77c8.2961 5.1496 16.682 9.8561 25.105 14.189"/>
	<path d="m1358.8 852.19c2.9213 3.0999 5.838 6.2167 8.7535 9.3452"/>
	<path d="m1804.9 1201.5c19.216 20.289 38.428 39.446 58.32 56.149"/>
	<path d="m1358.8 859.09"/>
	<path d="m1413.4 877.18c4.9254 3.869 9.8625 7.6532 14.824 11.325"/>
	<path d="m1400.1 866.5c4.439 3.6108 8.8826 7.1782 13.342 10.681"/>
	<path d="m1428.2 888.51c5.4644 4.0432 10.951 7.9437 16.471 11.666"/>
	<path d="m1662.6 971.14c-12.621-5.1594-25.44-9.1677-38.264-12.323"/>
	<path d="m1377.3 847.69c-3.2412-2.6874-6.4817-5.3705-9.7262-8.0408"/>
	<path d="m1358.8 839.39"/>
	<path d="m1444.7 900.18c6.0623 4.0876 12.16 7.9565 18.301 11.568"/>
	<path d="m2080 1179c-25.991-12.856-53.184-20.24-80-25.21"/>
	<path d="m1367.5 839.65c-2.9155-2.3995-5.8323-4.7871-8.7535-7.1566"/>
	<path d="m1558.9 946.4c10.318 1.9498 20.667 3.6309 30.994 5.4303"/>
	<path d="m1705.2 993.13c16.007 9.9944 31.648 21.632 47.239 34.068"/>
	<path d="m1662.6 971.14c14.356 5.8712 28.56 13.279 42.515 21.99"/>
	<path d="m1804.9 1070.2c19.222 15.489 38.474 29.865 58.32 41.569"/>
	<path d="m1752.4 1027.2c17.629 14.062 34.882 28.854 52.488 43.043"/>
	<path d="m1377.3 847.69c3.6027 2.987 7.2028 5.9764 10.807 8.9564"/>
	<path d="m1400.1 866.5c-4.0084-3.2606-8.0082-6.5523-12.008-9.8595"/>
	<path d="m1505.9 932.29c8.3164 3.083 16.703 5.6908 25.105 7.9124"/>
	<path d="m1483.3 922.65c7.4753 3.6176 15.018 6.8293 22.594 9.6392"/>
	<path d="m1463 911.74c6.7285 3.956 13.51 7.6018 20.335 10.906"/>
	<path d="m1589.9 951.83c11.491 2.0027 23.003 4.174 34.437 6.9859"/>
	<path d="m1558.9 946.4c-9.3137-1.7607-18.632-3.7512-27.894-6.1996"/>
	<path d="m2e3 1153.8c-23.955-4.4371-48.23-7.7103-72-14.305"/>
	<path d="m1863.2 1111.8c21.101 12.437 42.931 21.608 64.8 27.681"/>
	<path d="m1463 865.99c6.7441 2.2792 13.529 4.2291 20.335 5.8219"/>
	<path d="m1444.7 859c6.071 2.5757 12.173 4.9205 18.301 6.9922"/>
	<path d="m1388.1 829.63c-3.6039-2.079-7.2042-4.1685-10.807-6.2548"/>
	<path d="m1531 877.44c-8.3712-0.1207-16.754-0.6283-25.105-1.6363"/>
	<path d="m1483.3 871.81c7.5004 1.7546 15.045 3.0783 22.594 3.9904"/>
	<path d="m1358.8 812.79c2.9208 1.639 5.8378 3.2976 8.7535 4.9686"/>
	<path d="m2080 979c-26.306-6.4351-53.372-6.9318-80-5.2101"/>
	<path d="m1624.4 872.72c12.757-0.0505 25.564 0.7405 38.264 2.7571"/>
	<path d="m1662.6 875.48c14.259 2.267 28.498 6.1161 42.515 11.361"/>
	<path d="m1624.4 872.72c-11.482 0.0469-22.963 0.7547-34.437 1.6236"/>
	<path d="m1705.2 886.84c15.941 5.9679 31.626 13.708 47.239 22.258"/>
	<path d="m1388.1 829.63c3.9999 2.3075 8 4.5996 12.008 6.8577"/>
	<path d="m1558.9 876.66c10.336-0.6306 20.66-1.5352 30.994-2.3179"/>
	<path d="m1358.8 819.7"/>
	<path d="m1367.5 817.76c3.2441 1.859 6.4849 3.732 9.7262 5.609"/>
	<path d="m1752.4 909.1c17.611 9.6458 34.896 20.141 52.488 29.921"/>
	<path d="m1531 877.44c9.2971 0.1332 18.601-0.2076 27.894-0.7742"/>
	<path d="m1400.1 836.48c4.4401 2.5016 8.8843 4.9586 13.342 7.3457"/>
	<path d="m1428.2 851.45c5.469 2.6794 10.957 5.2088 16.471 7.5486"/>
	<path d="m1413.4 843.83c4.9277 2.6387 9.866 5.189 14.824 7.6183"/>
	<path d="m2e3 973.79c-24.018 1.5558-48.007 4.3532-72 3.6954"/>
	<path d="m1928 977.49c-21.648-0.5992-43.533-4.2631-64.8-11.481"/>
	<path d="m1804.9 939.02c19.252 10.7 38.588 20.286 58.32 26.989"/>
	<path d="m2080 779c-26.737 0.1437-53.546 6.466-80 14.79"/>
	<path d="m1358.8 800"/>
	<path d="m1428.2 814.39c5.4783 1.3143 10.97 2.4716 16.471 3.4307"/>
	<path d="m2e3 793.79c-24.074 7.5781-47.78 16.304-72 21.695"/>
	<path d="m1358.8 793.1c2.9198 0.9084 5.837 1.8379 8.7535 2.78"/>
	<path d="m1367.5 795.88c3.2435 1.0478 6.4846 2.1108 9.7262 3.1776"/>
	<path d="m1377.3 799.06c3.6025 1.1856 7.2035 2.3752 10.807 3.5531"/>
	<path d="m1413.4 810.48c4.9327 1.4083 9.873 2.7243 14.824 3.9124"/>
	<path d="m1463 820.24c6.7692 0.5953 13.558 0.8464 20.335 0.7382"/>
	<path d="m1444.7 817.82c6.0869 1.0607 12.192 1.879 18.301 2.4169"/>
	<path d="m1505.9 819.32c-7.5154 0.9708-15.059 1.537-22.594 1.6581"/>
	<path d="m1400.1 806.47c4.4424 1.3923 8.8879 2.7385 13.342 4.0101"/>
	<path d="m1388.1 802.61c4.0007 1.3078 8.0017 2.6001 12.008 3.8558"/>
	<path d="m1863.2 820.21c-19.541-1.753-39.002-6.501-58.32-12.409"/>
	<path d="m1662.6 779.82c14.135-1.2864 28.395-1.0212 42.515 0.7319"/>
	<path d="m1624.4 786.63c12.689-3.2225 25.468-5.6417 38.264-6.8089"/>
	<path d="m1705.2 780.55c15.826 1.9684 31.578 5.7871 47.239 10.448"/>
	<path d="m1589.9 796.86c11.458-3.7323 22.909-7.3038 34.437-10.233"/>
	<path d="m1531 814.68c9.332-2.1993 18.62-4.8636 27.894-7.7477"/>
	<path d="m1505.9 819.32c8.3904-1.0848 16.765-2.6752 25.105-4.6399"/>
	<path d="m1804.9 807.8c-17.56-5.372-34.916-11.568-52.488-16.799"/>
	<path d="m1589.9 796.86c-10.339 3.3679-20.641 6.8464-30.994 10.066"/>
	<path d="m1928 815.49c-21.415 4.7609-43.273 6.6436-64.8 4.7191"/>
	<path d="m1505.9 762.83c8.4233-3.1948 16.788-6.8773 25.105-10.916"/>
	<path d="m1558.9 737.19c10.364-5.8145 20.651-11.86 30.994-17.815"/>
	<path d="m2e3 613.79c-24.11 13.617-47.618 28.173-72 39.695"/>
	<path d="m1428.2 777.33c5.4913-0.0553 10.986-0.2719 16.471-0.687"/>
	<path d="m1444.7 776.64c6.1073-0.4625 12.215-1.1727 18.301-2.1585"/>
	<path d="m1413.4 777.12c4.9403 0.1753 9.8829 0.2559 14.824 0.2063"/>
	<path d="m1367.5 774c3.2424 0.2368 6.4843 0.4896 9.7262 0.746"/>
	<path d="m1483.3 770.14c7.5688-2.0139 15.107-4.468 22.594-7.3069"/>
	<path d="m1400.1 776.45c4.4462 0.282 8.8936 0.5167 13.342 0.6747"/>
	<path d="m1928 653.49c-21.24 10.032-42.984 17.416-64.8 20.919"/>
	<path d="m1358.8 780.3"/>
	<path d="m1863.2 674.41c-19.319 3.0967-38.9 3.2551-58.32 2.1711"/>
	<path d="m1483.3 770.14c-6.7499 1.7952-13.538 3.244-20.335 4.3455"/>
	<path d="m1558.9 737.19c-9.2627 5.196-18.538 10.177-27.894 14.721"/>
	<path d="m1752.4 672.9c-15.734-0.7489-31.553-0.6087-47.239 1.3619"/>
	<path d="m1358.8 773.4c2.9183 0.1784 5.8361 0.3785 8.7535 0.5915"/>
	<path d="m1388.1 775.59c4.0021 0.3077 8.0043 0.6 12.008 0.854"/>
	<path d="m1589.9 719.38c11.449-6.5912 22.877-13.015 34.437-18.842"/>
	<path d="m1624.4 700.54c12.641-6.3705 25.384-11.98 38.264-16.375"/>
	<path d="m2080 579c-27.151 6.9337-53.659 19.916-80 34.79"/>
	<path d="m1377.3 774.74c3.6023 0.285 7.2042 0.5744 10.807 0.8514"/>
	<path d="m1804.9 676.58c-17.51-0.9793-34.977-2.8417-52.488-3.6771"/>
	<path d="m1662.6 684.16c14.024-4.7825 28.274-8.1048 42.515-9.8969"/>
	<path d="m1483.3 719.4c7.5916-3.9191 15.124-8.2576 22.594-12.959"/>
	<path d="m1752.4 554.86c-15.812 3.2029-31.672 7.3293-47.239 13.179"/>
	<path d="m1531 689.24c-8.3059 6.111-16.662 11.882-25.105 17.196"/>
	<path d="m1367.5 752.23c3.2412-0.5741 6.4839-1.1324 9.7262-1.687"/>
	<path d="m1413.4 743.88c-4.4423 0.9534-8.8914 1.8318-13.342 2.6628"/>
	<path d="m1589.9 641.97c11.444-9.4518 22.862-18.726 34.437-27.457"/>
	<path d="m1624.4 614.52c12.618-9.5153 25.333-18.3 38.264-25.947"/>
	<path d="m1558.9 667.54c10.369-8.4109 20.649-17.025 30.994-25.568"/>
	<path d="m1377.3 750.54c3.6022-0.6162 7.2051-1.228 10.807-1.8522"/>
	<path d="m1705.2 568.04c-14.34 5.392-28.56 12.283-42.515 20.533"/>
	<path d="m1400.1 746.54c-4.0005 0.7469-8.0042 1.4562-12.008 2.15"/>
	<path d="m1358.8 760.73"/>
	<path d="m1358.8 753.83c2.9166-0.5513 5.835-1.0812 8.7535-1.5981"/>
	<path d="m1463 728.83c-6.0687 2.501-12.176 4.7405-18.301 6.7368"/>
	<path d="m1444.7 735.57c-5.4717 1.7828-10.967 3.3752-16.471 4.8076"/>
	<path d="m1428.2 740.37c-4.9313 1.283-9.8759 2.4398-14.824 3.502"/>
	<path d="m1463 728.83c6.8196-2.8111 13.604-5.9586 20.335-9.4325"/>
	<path d="m1531 689.24c9.369-6.894 18.637-14.19 27.894-21.699"/>
	<path d="m2080 379c-27.429 13.867-53.709 33.381-80 54.803"/>
	<path d="m1863.2 528.64c-19.138 7.8554-38.791 12.965-58.32 16.76"/>
	<path d="m1804.9 545.4c-17.455 3.3905-35.043 5.9216-52.488 9.4536"/>
	<path d="m2e3 433.81c-24.126 19.661-47.538 40.027-72 57.707"/>
	<path d="m1928 491.51c-21.149 15.28-42.761 28.077-64.8 37.13"/>
	<path d="m1367.5 730.36c3.2404-1.3842 6.4835-2.7535 9.7262-4.119"/>
	<path d="m1413.4 710.54c-4.438 2.0622-8.8883 4.0536-13.342 5.9988"/>
	<path d="m1444.7 694.4c-5.4628 3.1457-10.959 6.1129-16.471 8.9259"/>
	<path d="m1863.2 382.85c-19.035 12.572-38.709 22.628-58.32 31.342"/>
	<path d="m1400.1 716.54c-3.9983 1.7462-8.0031 3.4568-12.008 5.152"/>
	<path d="m1388.1 721.69c-3.6011 1.5243-7.205 3.0374-10.807 4.5541"/>
	<path d="m1428.2 703.33c-4.9244 2.5125-9.87 4.9063-14.824 7.2084"/>
	<path d="m1558.9 597.82c-9.2565 9.8225-18.522 19.434-27.894 28.674"/>
	<path d="m1589.9 564.5c-10.344 11.13-20.624 22.313-30.994 33.318"/>
	<path d="m1624.4 528.43c-11.58 11.629-22.994 23.755-34.437 36.067"/>
	<path d="m1463 683.09c-6.0587 4.0117-12.165 7.7784-18.301 11.313"/>
	<path d="m1483.3 668.57c-6.7217 5.1497-13.503 9.9926-20.335 14.517"/>
	<path d="m1531 626.49c-8.3027 8.1846-16.655 16.042-25.105 23.473"/>
	<path d="m2080 179c-27.557 20.821-53.718 46.819-80 74.805"/>
	<path d="m1752.4 436.77c-15.869 7.1821-31.743 15.293-47.239 24.99"/>
	<path d="m1804.9 414.19c-17.414 7.7364-35.092 14.706-52.488 22.577"/>
	<path d="m1358.8 734.15c2.9154-1.2799 5.834-2.5397 8.7535-3.7867"/>
	<path d="m1705.2 461.76c-14.397 9.0131-28.59 19.448-42.515 31.163"/>
	<path d="m1505.9 649.97c-7.4642 6.5637-14.992 12.783-22.594 18.608"/>
	<path d="m1358.8 741.05"/>
	<path d="m1662.6 492.92c-12.951 10.897-25.652 22.85-38.264 35.514"/>
	<path d="m1928 329.52c-21.121 20.541-42.641 38.689-64.8 53.331"/>
	<path d="m2e3 253.81c-24.128 25.696-47.517 51.892-72 75.709"/>
	<path d="m854.85 1099.4c13.931-12.178 28.107-23.123 42.515-32.618"/>
	<path d="m1171.9 883.66c-3.9996 4.3071-7.9993 8.5987-12.008 12.862"/>
	<path d="m632 1301.5c22.013-11.616 43.771-26.229 64.8-43.881"/>
	<path d="m1201.2 852.19c-2.9213 3.0999-5.838 6.2167-8.7535 9.3452"/>
	<path d="m1115.3 941.35c5.5227-5.105 11.008-10.376 16.471-15.784"/>
	<path d="m1182.7 872c3.2412-3.4976 6.4816-6.9907 9.7261-10.472"/>
	<path d="m935.63 1044.9c11.401-5.6538 22.933-10.714 34.437-15.595"/>
	<path d="m1146.6 910.54c4.4595-4.6179 8.903-9.2961 13.342-14.016"/>
	<path d="m755.12 1201.5c17.608-18.593 34.856-37.692 52.488-56.165"/>
	<path d="m1182.7 872c-3.6028 3.8878-7.2029 7.7772-10.807 11.658"/>
	<path d="m1076.7 973.49c-7.4626 5.4771-15.001 10.574-22.594 15.288"/>
	<path d="m560 1333.8c23.907-10.405 48.383-19.848 72-32.305"/>
	<path d="m1001.1 1016.1c-10.303 4.523-20.672 8.7999-30.994 13.179"/>
	<path d="m897.36 1066.8c12.577-8.2854 25.393-15.504 38.264-21.889"/>
	<path d="m1001.1 1016.1c9.3291-4.0958 18.656-8.4211 27.894-13.173"/>
	<path d="m807.61 1145.3c15.587-16.329 31.208-31.86 47.239-45.877"/>
	<path d="m480 1379c25.83-19.234 53.041-33.474 80-45.21"/>
	<path d="m1115.3 941.35c-6.0593 5.6004-12.156 10.992-18.302 16.143"/>
	<path d="m696.8 1257.6c19.892-16.703 39.104-35.86 58.32-56.149"/>
	<path d="m1076.7 973.49c6.8352-5.0172 13.613-10.357 20.335-15.989"/>
	<path d="m1029 1003c8.4224-4.3328 16.809-9.0392 25.105-14.189"/>
	<path d="m1146.6 910.54c-4.9249 5.0998-9.8617 10.118-14.824 15.03"/>
	<path d="m1201.2 859.09"/>
	<path d="m1131.8 888.19c-5.4644 4.0458-10.951 7.9489-16.471 11.674"/>
	<path d="m1146.6 876.86c-4.9254 3.8714-9.8625 7.658-14.824 11.332"/>
	<path d="m1159.9 866.17c-4.4391 3.6129-8.8827 7.1825-13.342 10.687"/>
	<path d="m1097 911.44c-6.7285 3.9593-13.51 7.6084-20.335 10.916"/>
	<path d="m1076.7 922.36c-7.4753 3.6211-15.018 6.8365-22.594 9.6499"/>
	<path d="m1115.3 899.87c-6.0624 4.0905-12.161 7.9624-18.302 11.576"/>
	<path d="m632 1139.4c21.869-6.0831 43.699-15.265 64.8-27.712"/>
	<path d="m696.8 1111.7c19.846-11.713 39.098-26.099 58.32-41.597"/>
	<path d="m755.12 1070.1c17.606-14.198 34.859-28.997 52.488-43.068"/>
	<path d="m1182.7 847.35c-3.6028 2.9888-7.2029 5.9799-10.807 8.9618"/>
	<path d="m1171.9 856.31c-3.9996 3.3091-7.9993 6.6028-12.008 9.8654"/>
	<path d="m1054.1 932.01c-8.3164 3.087-16.703 5.6989-25.105 7.9246"/>
	<path d="m935.63 958.6c-12.824 3.1616-25.643 7.1761-38.264 12.342"/>
	<path d="m807.61 1027c15.592-12.443 31.232-24.088 47.239-34.09"/>
	<path d="m560 1153.8c23.955-4.4487 48.23-7.7338 72-14.34"/>
	<path d="m854.85 992.95c13.955-8.7172 28.16-16.132 42.515-22.01"/>
	<path d="m1192.5 839.3c-3.2445 2.6719-6.4849 5.3566-9.7261 8.0455"/>
	<path d="m1029 939.93c-9.2626 2.4529-18.58 4.4478-27.894 6.213"/>
	<path d="m1201.2 832.14c-2.9213 2.3709-5.838 4.7599-8.7535 7.1609"/>
	<path d="m970.06 951.59c-11.491 2.0082-23.003 4.185-34.437 7.0024"/>
	<path d="m1001.1 946.15c-10.318 1.9548-20.667 3.6411-30.994 5.4455"/>
	<path d="m1201.2 839.04"/>
	<path d="m480 1179c25.991-12.868 53.183-20.266 80-25.249"/>
	<path d="m560 973.87c24.018 1.579 48.006 4.3996 72 3.765"/>
	<path d="m632 977.64c21.648-0.5781 43.533-4.2206 64.8-11.418"/>
	<path d="m1182.7 824.05c-3.6027 2.0829-7.2031 4.1689-10.807 6.2445"/>
	<path d="m1159.9 837.14c-4.4401 2.4973-8.8843 4.9498-13.342 7.3325"/>
	<path d="m970.06 874.82c-11.474-0.8799-22.956-1.5989-34.437-1.6568"/>
	<path d="m480 979c26.307-6.4099 53.373-6.8799 80-5.1324"/>
	<path d="m1171.9 830.3c-4 2.3036-8.0001 4.5919-12.008 6.846"/>
	<path d="m935.63 873.16c-12.756-0.0629-25.564 0.7158-38.264 2.7201"/>
	<path d="m1201.2 813.49c-2.9208 1.6362-5.8376 3.2919-8.7535 4.96"/>
	<path d="m1192.5 818.45c-3.2441 1.8558-6.4849 3.7257-9.7261 5.5996"/>
	<path d="m1201.2 820.39"/>
	<path d="m1029 877.97c-9.2973 0.1242-18.601-0.2256-27.894-0.8011"/>
	<path d="m1054.1 876.36c-8.3506 1-16.734 1.4995-25.105 1.6122"/>
	<path d="m1146.6 844.48c-4.9277 2.634-9.866 5.1796-14.824 7.6041"/>
	<path d="m897.36 875.88c-14.258 2.2531-28.498 6.0883-42.515 11.319"/>
	<path d="m1076.7 872.39c-7.5006 1.7473-15.046 3.0637-22.594 3.9684"/>
	<path d="m854.85 887.2c-15.941 5.9524-31.626 13.677-47.239 22.212"/>
	<path d="m755.12 939.29c17.592-9.7628 34.877-20.242 52.488-29.87"/>
	<path d="m1097 866.59c-6.7443 2.2726-13.53 4.2161-20.335 5.8022"/>
	<path d="m696.8 966.22c19.731-6.6837 39.068-16.25 58.32-26.932"/>
	<path d="m1131.8 852.08c-5.469 2.6741-10.957 5.1982-16.471 7.5326"/>
	<path d="m1001.1 877.17c-10.336-0.6408-20.66-1.5554-30.994-2.3483"/>
	<path d="m1115.3 859.61c-6.0712 2.5698-12.173 4.9086-18.302 6.9745"/>
	<path d="m1182.7 799.57c-3.6025 1.183-7.2036 2.3699-10.807 3.5451"/>
	<path d="m1192.5 796.4c-3.2435 1.0454-6.4846 2.1061-9.7261 3.1705"/>
	<path d="m1171.9 803.11c-4.0009 1.3049-8.0017 2.5944-12.008 3.8472"/>
	<path d="m970.06 797.22c-11.458-3.7407-22.909-7.3205-34.437-10.258"/>
	<path d="m854.85 780.82c-15.826 1.9568-31.577 5.7641-47.239 10.414"/>
	<path d="m1146.6 810.96c-4.9327 1.4047-9.873 2.717-14.824 3.9016"/>
	<path d="m1159.9 806.96c-4.4425 1.3892-8.8881 2.7321-13.342 4.0005"/>
	<path d="m1131.8 814.86c-5.4783 1.3104-10.97 2.4637-16.471 3.4189"/>
	<path d="m897.36 780.12c-14.135-1.2966-28.395-1.0419-42.515 0.701"/>
	<path d="m935.63 786.96c-12.689-3.2316-25.467-5.66-38.264-6.8365"/>
	<path d="m1001.1 807.31c-10.353-3.2275-20.655-6.7135-30.994-10.089"/>
	<path d="m1201.2 793.62c-2.9198 0.9064-5.837 1.8336-8.7535 2.7736"/>
	<path d="m807.61 791.24c-17.572 5.2184-34.928 11.402-52.488 16.761"/>
	<path d="m1201.2 800.52"/>
	<path d="m560 793.85c24.075 7.5956 47.779 16.339 72 21.748"/>
	<path d="m1076.7 821.41c-7.5354-0.1266-15.079-0.6984-22.594-1.6747"/>
	<path d="m1115.3 818.28c-6.087 1.0563-12.192 1.8701-18.302 2.4036"/>
	<path d="m480 779c26.738 0.1631 53.547 6.5049 80 14.848"/>
	<path d="m1029 815.08c-9.3322-2.2061-18.62-4.8772-27.894-7.7681"/>
	<path d="m1054.1 819.73c-8.3905-1.0908-16.765-2.6873-25.105-4.658"/>
	<path d="m632 815.6c21.414 4.7763 43.272 6.675 64.8 4.7661"/>
	<path d="m696.8 820.37c19.54-1.7387 39.001-6.4726 58.32-12.366"/>
	<path d="m1097 820.68c-6.7693 0.5903-13.558 0.8364-20.335 0.7233"/>
	<path d="m1076.7 768.98c-7.5686-1.9991-15.107-4.4386-22.594-7.2631"/>
	<path d="m696.8 673.99c-21.814-3.461-43.559-10.802-64.8-20.794"/>
	<path d="m854.85 673.54c-15.687-1.9403-31.505-2.0497-47.239-1.2704"/>
	<path d="m755.12 676.05c-19.419 1.1215-38.999 1.0012-58.32-2.0585"/>
	<path d="m807.61 672.27c-17.512 0.8693-34.978 2.7653-52.488 3.7784"/>
	<path d="m1001.1 736.19c-10.364-5.7944-20.651-11.82-30.994-17.755"/>
	<path d="m897.36 683.35c-14.025-4.7557-28.275-8.0503-42.515-9.8148"/>
	<path d="m935.63 699.66c-12.641-6.3464-25.384-11.931-38.264-16.301"/>
	<path d="m1201.2 778.91"/>
	<path d="m480 579c27.148 6.8806 53.658 19.812 80 34.635"/>
	<path d="m560 613.64c24.11 13.57 47.619 28.081 72 39.556"/>
	<path d="m970.06 718.43c-11.449-6.5692-22.877-12.971-34.437-18.776"/>
	<path d="m1146.6 775.83c-4.9402 0.1849-9.8828 0.2751-14.824 0.2351"/>
	<path d="m1192.5 772.62c-3.2424 0.243-6.4843 0.5021-9.7261 0.7648"/>
	<path d="m1159.9 775.13c-4.4462 0.2906-8.8936 0.5338-13.342 0.7004"/>
	<path d="m1201.2 772.01c-2.9183 0.1841-5.8361 0.39-8.7535 0.6087"/>
	<path d="m1029 750.85c-9.3568-4.5262-18.632-9.4891-27.894-14.667"/>
	<path d="m1182.7 773.38c-3.6024 0.2919-7.2043 0.5883-10.807 0.8723"/>
	<path d="m1171.9 774.26c-4.0021 0.3154-8.0044 0.6153-12.008 0.877"/>
	<path d="m1097 773.29c-6.7971-1.0884-13.585-2.5241-20.335-4.3063"/>
	<path d="m1131.8 776.07c-5.4912-0.0448-10.985-0.2509-16.471-0.6553"/>
	<path d="m1115.3 775.41c-6.1072-0.4507-12.215-1.149-18.302-2.123"/>
	<path d="m1054.1 761.72c-8.4231-3.1786-16.787-6.845-25.105-10.868"/>
	<path d="m1201.2 752.78c-2.9166-0.5471-5.835-1.0728-8.7535-1.5856"/>
	<path d="m480 379c27.428 13.826 53.709 33.303 80 54.687"/>
	<path d="m755.12 545c-19.529-3.7669-39.181-8.8478-58.32-16.676"/>
	<path d="m1131.8 739.43c-5.504-1.4243-11-3.0087-16.471-4.7836"/>
	<path d="m632 491.29c-24.462-17.644-47.874-37.976-72-57.603"/>
	<path d="m970.06 641.26c-11.444-9.4353-22.862-18.693-34.437-27.407"/>
	<path d="m1001.1 666.79c-10.369-8.3958-20.65-16.995-30.994-25.523"/>
	<path d="m1115.3 734.64c-6.1254-1.9874-12.233-4.2181-18.302-6.7103"/>
	<path d="m1054.1 705.6c-8.4423-5.3017-16.799-11.061-25.105-17.16"/>
	<path d="m1097 727.93c-6.8195-2.8011-13.604-5.9388-20.335-9.403"/>
	<path d="m807.61 554.38c-17.446-3.5067-35.032-6.0122-52.488-9.3775"/>
	<path d="m696.8 528.33c-22.038-9.0204-43.65-21.786-64.8-37.036"/>
	<path d="m1076.7 718.53c-7.5916-3.908-15.124-8.2357-22.594-12.926"/>
	<path d="m1201.2 759.68"/>
	<path d="m1171.9 747.68c-4.0035-0.6879-8.0072-1.3914-12.008-2.1326"/>
	<path d="m1182.7 749.52c-3.6022-0.611-7.2052-1.2176-10.807-1.8365"/>
	<path d="m854.85 567.49c-15.568-5.8276-31.428-9.9309-47.239-13.111"/>
	<path d="m1159.9 745.55c-4.4503-0.8246-8.8994-1.6966-13.342-2.6436"/>
	<path d="m897.36 587.96c-13.956-8.2299-28.176-15.1-42.515-20.471"/>
	<path d="m1146.6 742.91c-4.9481-1.055-9.8927-2.2046-14.824-3.4805"/>
	<path d="m935.63 613.86c-12.618-9.497-25.334-18.264-38.264-25.891"/>
	<path d="m1192.5 751.19c-3.2412-0.5693-6.4838-1.1229-9.7261-1.6728"/>
	<path d="m1029 688.44c-9.369-6.8806-18.637-14.164-27.894-21.659"/>
	<path d="m755.12 413.96c-19.611-8.698-39.285-18.737-58.32-31.294"/>
	<path d="m1146.6 709.98c-4.9539-2.298-9.8995-4.6877-14.824-7.1962"/>
	<path d="m807.61 436.5c-17.396-7.8569-35.074-14.811-52.488-22.533"/>
	<path d="m854.85 461.45c-15.496-9.6848-31.37-17.782-47.239-24.951"/>
	<path d="m1131.8 702.79c-5.5128-2.8084-11.009-5.771-16.471-8.9122"/>
	<path d="m1097 682.58c-6.8317-4.5186-13.613-9.3557-20.335-14.5"/>
	<path d="m1159.9 715.97c-4.4535-1.9414-8.9038-3.9291-13.342-5.9875"/>
	<path d="m560 253.74c-26.282-27.964-52.443-53.941-80-74.738"/>
	<path d="m1115.3 693.88c-6.1367-3.5291-12.243-7.2906-18.302-11.297"/>
	<path d="m632 329.39c-24.483-23.796-47.872-49.973-72-75.649"/>
	<path d="m696.8 382.67c-22.159-14.624-43.679-32.754-64.8-53.277"/>
	<path d="m897.36 492.57c-13.926-11.703-28.118-22.126-42.515-31.127"/>
	<path d="m1001.1 597.39c-10.369-10.996-20.649-22.17-30.994-33.292"/>
	<path d="m1201.2 740.45"/>
	<path d="m1029 626.04c-9.3722-9.2319-18.638-18.836-27.894-28.651"/>
	<path d="m1201.2 733.55c-2.9153-1.2775-5.834-2.5348-8.7535-3.7795"/>
	<path d="m1076.7 668.08c-7.6023-5.819-15.13-12.032-22.594-18.59"/>
	<path d="m935.63 528.06c-12.612-12.653-25.313-24.596-38.264-35.482"/>
	<path d="m1054.1 649.49c-8.4493-7.424-16.802-15.274-25.105-23.452"/>
	<path d="m1182.7 725.66c-3.6021-1.5137-7.2059-3.0237-10.807-4.545"/>
	<path d="m1171.9 721.11c-4.0048-1.6918-8.0095-3.3992-12.008-5.1421"/>
	<path d="m1192.5 729.77c-3.2404-1.3814-6.4835-2.748-9.7261-4.1108"/>
	<path d="m970.06 564.09c-11.444-12.303-22.858-24.419-34.437-36.039"/>
	<path d="m740.25 1532.1c18.263-29.169 36.098-59.148 54.227-89.024"/>
	<path d="m1223.2 878.78"/>
	<path d="m1093.4 1071.6c6.3496-8.8768 12.647-17.987 18.908-27.309"/>
	<path d="m1112.3 1044.3c5.7052-8.4952 11.372-17.154 17.017-25.954"/>
	<path d="m1072.4 1099.8c7.064-9.1132 14.064-18.531 21.008-28.239"/>
	<path d="m1144.7 994.03c4.6068-7.4091 9.1978-14.878 13.784-22.394"/>
	<path d="m1170.9 951.2c3.7235-6.1584 7.443-12.325 11.165-18.492"/>
	<path d="m1158.5 971.63c4.1411-6.7866 8.2733-13.602 12.405-20.436"/>
	<path d="m680 1621c20.582-27.41 40.474-57.318 60.252-88.903"/>
	<path d="m1129.4 1018.3c5.1262-7.9923 10.227-16.089 15.315-24.273"/>
	<path d="m794.48 1443.1c16.172-26.652 32.286-52.708 48.804-77.57"/>
	<path d="m1192.1 916.08c3.0123-4.9739 6.0256-9.9362 9.0433-14.882"/>
	<path d="m1182 932.71c3.3489-5.549 6.6968-11.094 10.048-16.628"/>
	<path d="m1216.6 876.1c-2.4454 3.9226-4.8867 7.8636-7.3254 11.821"/>
	<path d="m1209.3 887.92c-2.7167 4.4086-5.4288 8.8354-8.139 13.278"/>
	<path d="m926.74 1256.9c11.735-12.97 23.659-25.337 35.578-37.38"/>
	<path d="m1049.1 1128.6c7.8508-9.2278 15.636-18.808 23.343-28.749"/>
	<path d="m1023.2 1157.6c8.7095-9.3389 17.373-19.008 25.936-29.072"/>
	<path d="m962.32 1219.5c10.642-10.752 21.372-21.356 32.02-32.079"/>
	<path d="m1223.2 865.59c-2.2009 3.4865-4.3981 6.9905-6.5925 10.51"/>
	<path d="m887.21 1304c12.966-16.699 26.179-32.374 39.531-47.134"/>
	<path d="m994.34 1187.4c9.6391-9.7073 19.282-19.592 28.818-29.816"/>
	<path d="m843.28 1365.5c14.418-21.698 29.014-42.261 43.924-61.466"/>
	<path d="m1044.9 1290.3c7.9865-14.498 15.918-29.325 23.78-44.496"/>
	<path d="m1068.7 1245.8c7.187-13.869 14.319-28.03 21.402-42.476"/>
	<path d="m1142.3 1090.6c4.6918-10.605 9.369-21.272 14.042-31.99"/>
	<path d="m1018.5 1336.9c8.8604-15.209 17.685-30.713 26.422-46.573"/>
	<path d="m1126.7 1125.5c5.2196-11.524 10.416-23.154 15.602-34.875"/>
	<path d="m1090.1 1203.4c6.4617-13.181 12.878-26.59 19.262-40.212"/>
	<path d="m989.14 1386.3c9.8076-16.288 19.628-32.716 29.358-49.416"/>
	<path d="m1156.3 1058.6c4.2181-9.6755 8.4281-19.382 12.638-29.11"/>
	<path d="m1243.1 878.78"/>
	<path d="m1243.1 861.21c-1.4706 3.1867-2.9395 6.3835-4.4066 9.59"/>
	<path d="m1199.8 958.26c2.7616-6.3516 5.5248-12.689 8.2916-19.009"/>
	<path d="m1169 1029.5c3.7933-8.767 7.5828-17.544 11.374-26.324"/>
	<path d="m1180.3 1003.2c3.4119-7.9017 6.8225-15.8 10.236-23.691"/>
	<path d="m920.27 1503.2c11.959-21.405 24.094-42.206 36.244-62.6"/>
	<path d="m880 1579c13.238-26.263 26.681-51.523 40.271-75.85"/>
	<path d="m1190.6 979.5c3.0692-7.0942 6.1392-14.178 9.2126-21.247"/>
	<path d="m1238.6 870.8c-1.634 3.5714-3.2659 7.1545-4.896 10.749"/>
	<path d="m1222.3 907.12c2.0125-4.5194 4.0271-9.0244 6.0446-13.514"/>
	<path d="m1228.3 893.6c1.8112-4.0303 3.6243-8.0477 5.4398-12.052"/>
	<path d="m1215.6 922.27c2.2361-5.0664 4.4745-10.117 6.7162-15.152"/>
	<path d="m1109.4 1163.1c5.8076-12.394 11.582-24.951 17.335-37.654"/>
	<path d="m1208.1 939.25c2.4849-5.6759 4.9718-11.336 7.4623-16.979"/>
	<path d="m956.52 1440.6c10.833-18.183 21.759-36.194 32.62-54.231"/>
	<path d="m1255.5 888.6c0.9132-3.7132 1.8269-7.4223 2.741-11.127"/>
	<path d="m1258.2 877.47c0.8219-3.3312 1.6442-6.659 2.4669-9.9834"/>
	<path d="m1080 1621c6.7916-26.786 13.553-53.815 20.29-81.081"/>
	<path d="m1219.2 1038.9c2.1211-8.9319 4.2435-17.849 6.3677-26.752"/>
	<path d="m1262.9 878.78"/>
	<path d="m1262.9 858.53c-0.7405 2.9836-1.4806 5.9701-2.2203 8.9594"/>
	<path d="m1100.3 1539.9c6.1082-24.72 12.193-49.62 18.262-74.691"/>
	<path d="m1231.3 988.18c1.718-7.1647 3.4371-14.318 5.1576-21.459"/>
	<path d="m1241.1 947.5c1.3915-5.7493 2.7839-11.49 4.1774-17.222"/>
	<path d="m1252.5 901.01c1.0146-4.1404 2.0297-8.2757 3.0453-12.406"/>
	<path d="m1245.3 930.28c1.2526-5.1519 2.5059-10.296 3.76-15.434"/>
	<path d="m1225.6 1012.1c1.9088-7.9998 3.8188-15.986 5.7305-23.959"/>
	<path d="m1249.1 914.84c1.1274-4.6179 2.2554-9.2297 3.384-13.835"/>
	<path d="m1204.3 1102.1c2.6188-11.125 5.2386-22.236 7.8608-33.33"/>
	<path d="m1149.8 1334.4c4.4426-18.819 8.8784-37.679 13.313-56.573"/>
	<path d="m1163.1 1277.9c3.996-17.026 7.9884-34.07 11.981-51.124"/>
	<path d="m1175.1 1226.7c3.5947-15.354 7.1882-30.71 10.783-46.064"/>
	<path d="m1236.5 966.72c1.5463-6.4174 3.0936-12.825 4.6421-19.222"/>
	<path d="m1185.9 1180.7c3.2344-13.813 6.4686-27.618 9.7051-41.412"/>
	<path d="m1212.2 1068.8c2.3568-9.9707 4.7148-19.926 7.075-29.866"/>
	<path d="m1118.6 1465.2c5.4927-22.691 10.969-45.505 16.435-68.432"/>
	<path d="m1135 1396.8c4.9395-20.715 9.8679-41.507 14.792-62.365"/>
	<path d="m1195.6 1139.3c2.9102-12.404 5.8212-24.795 8.7344-37.172"/>
	<path d="m1282.4 878.78"/>
	<path d="m1282.4 866.55c0.0098-2.9177 0.0194-5.8354 0.0291-8.7532"/>
	<path d="m1282.3 876.28c0.0107-3.2419 0.0214-6.4839 0.032-9.7258"/>
	<path d="m1282.1 943.73c0.0182-5.4903 0.0363-10.98 0.0544-16.471"/>
	<path d="m1282 982.36c0.0225-6.7781 0.0448-13.556 0.0673-20.334"/>
	<path d="m1282 962.03c0.02-6.1002 0.0402-12.2 0.0602-18.301"/>
	<path d="m1282.2 912.43c0.0148-4.4471 0.0294-8.8942 0.0441-13.341"/>
	<path d="m1282.2 927.25c0.0162-4.9412 0.0326-9.8824 0.0488-14.824"/>
	<path d="m1281.7 1058c0.0306-9.2979 0.0614-18.596 0.092-27.893"/>
	<path d="m1281.9 1005c0.0248-7.5312 0.0497-15.062 0.0745-22.594"/>
	<path d="m1281.8 1030.1c0.0276-8.368 0.0552-16.736 0.0829-25.104"/>
	<path d="m1282.2 899.09 0.0396-12.007"/>
	<path d="m1280.7 1362.2c0.0641-19.44 0.1283-38.88 0.1925-58.319"/>
	<path d="m1280.3 1499c0.0792-24 0.1583-48 0.2375-72"/>
	<path d="m1280.9 1303.9c0.0576-17.496 0.1154-34.992 0.1731-52.487"/>
	<path d="m1282.3 887.08c0.012-3.6021 0.0239-7.2042 0.0358-10.806"/>
	<path d="m1281.1 1251.4c0.052-15.746 0.1039-31.492 0.1558-47.238"/>
	<path d="m1280 1579c0.088-26.667 0.176-53.333 0.264-80"/>
	<path d="m1281.2 1204.2c0.0469-14.172 0.0936-28.343 0.1404-42.514"/>
	<path d="m1280.5 1427c0.0712-21.6 0.1425-43.2 0.2136-64.799"/>
	<path d="m1281.5 1123.4c0.038-11.479 0.0758-22.958 0.1136-34.436"/>
	<path d="m1281.6 1088.9c0.0341-10.331 0.068-20.662 0.1021-30.993"/>
	<path d="m1281.4 1161.6c0.0421-12.754 0.0842-25.508 0.1262-38.263"/>
	<path d="m1306.4 878.04c-0.8007-3.3468-1.6016-6.6905-2.4028-10.031"/>
	<path d="m1315.3 915.56c-1.098-4.6353-2.1965-9.265-3.2958-13.889"/>
	<path d="m1323.1 948.33c-1.3556-5.7664-2.7119-11.525-4.0691-17.276"/>
	<path d="m1309.1 889.22c-0.8894-3.7296-1.7793-7.4554-2.6696-11.177"/>
	<path d="m1358.9 1103.1c-2.5509-11.121-5.1027-22.229-7.6564-33.323"/>
	<path d="m1312 901.67c-0.9883-4.1573-1.9771-8.3102-2.9663-12.458"/>
	<path d="m1319 931.05c-1.2201-5.1693-2.4408-10.332-3.6621-15.488"/>
	<path d="m1338.2 1013.1c-1.8593-8.0112-3.7197-16.011-5.5814-23.998"/>
	<path d="m1344.4 1039.9c-2.066-8.9395-4.1331-17.866-6.2018-26.78"/>
	<path d="m1351.3 1069.8c-2.2957-9.9728-4.5923-19.932-6.8907-29.878"/>
	<path d="m1327.6 967.6c-1.5061-6.4335-3.0131-12.858-4.5211-19.273"/>
	<path d="m1399.1 1278.5c-3.8923-16.982-7.7811-33.983-11.67-50.997"/>
	<path d="m1367.4 1140.2c-2.8348-12.391-5.6702-24.771-8.5073-37.14"/>
	<path d="m1426.4 1397.2c-4.811-20.659-9.6116-41.393-14.408-62.192"/>
	<path d="m1376.9 1181.6c-3.1505-13.79-6.3007-27.574-9.4524-41.351"/>
	<path d="m1387.4 1227.5c-3.5017-15.321-7.0018-30.645-10.503-45.97"/>
	<path d="m1460.2 1540c-5.9482-24.684-11.875-49.54-17.786-74.559"/>
	<path d="m1442.5 1465.4c-5.3492-22.639-10.683-45.396-16.008-68.263"/>
	<path d="m1304 868.01c-0.7206-3.004-1.4414-6.0054-2.1626-9.0042"/>
	<path d="m1301.8 878.78"/>
	<path d="m1480 1621c-6.6136-26.781-13.2-53.791-19.763-81.026"/>
	<path d="m1332.6 989.11c-1.6735-7.179-3.3479-14.348-5.0236-21.506"/>
	<path d="m1412 1335c-4.3268-18.766-8.6473-37.574-12.966-56.417"/>
	<path d="m1517.1 1290c-7.8889-14.443-15.726-29.2-23.495-44.29"/>
	<path d="m1373.1 980.71c-3.0332-7.0915-6.0664-14.176-9.1027-21.249"/>
	<path d="m1543.2 1336.5c-8.7516-15.191-17.47-30.659-26.106-46.468"/>
	<path d="m1453.4 1163.5c-5.7384-12.311-11.444-24.784-17.128-37.406"/>
	<path d="m1436.3 1126.1c-5.1576-11.452-10.292-23.012-15.415-34.667"/>
	<path d="m1572.2 1385.9c-9.6877-16.313-19.391-32.751-29.007-49.441"/>
	<path d="m1321.3 878.78"/>
	<path d="m1420.8 1091.5c-4.6364-10.548-9.2578-21.162-13.874-31.83"/>
	<path d="m1394.5 1030.6c-3.7485-8.7405-7.4926-17.495-11.238-26.257"/>
	<path d="m1364 959.47c-2.7289-6.3572-5.459-12.703-8.1921-19.034"/>
	<path d="m1472.4 1203.5c-6.384-13.094-12.724-26.412-19.031-39.943"/>
	<path d="m1383.2 1004.4c-3.3717-7.8884-6.7417-15.777-10.114-23.662"/>
	<path d="m1493.6 1245.7c-7.1-13.79-14.148-27.864-21.146-42.217"/>
	<path d="m1640.2 1503.1c13.425 24.381 26.706 49.674 39.789 75.944"/>
	<path d="m1407 1059.6c-4.1685-9.6344-8.3282-19.304-12.486-28.999"/>
	<path d="m1355.8 940.43c-2.4556-5.6879-4.9128-11.362-7.3732-17.022"/>
	<path d="m1640.2 1503.1c-11.818-21.46-23.806-42.326-35.81-62.787"/>
	<path d="m1341.8 908.2c-1.9885-4.5386-3.979-9.0643-5.972-13.576"/>
	<path d="m1348.5 923.41c-2.2097-5.0828-4.4214-10.152-6.636-15.206"/>
	<path d="m1335.9 894.63c-1.7897-4.0513-3.5812-8.0907-5.375-12.118"/>
	<path d="m1604.4 1440.3c-10.702-18.239-21.496-36.302-32.229-54.376"/>
	<path d="m1325.6 871.69c-1.4497-3.2283-2.9009-6.4474-4.3538-9.6573"/>
	<path d="m1330.5 882.51c-1.6107-3.6161-3.2231-7.2219-4.8374-10.817"/>
	<path d="m1354.6 889.06c-2.4215-3.9728-4.8451-7.9315-7.2725-11.874"/>
	<path d="m1340.7 878.78"/>
	<path d="m1392.7 952.35c-3.6975-6.1396-7.3901-12.292-11.084-18.449"/>
	<path d="m1539.3 1157c-8.6433-9.283-17.245-18.877-25.749-28.851"/>
	<path d="m1674.3 1304c-12.873-16.803-25.988-32.596-39.245-47.471"/>
	<path d="m1362.6 902.38c-2.691-4.4525-5.3837-8.8923-8.0801-13.316"/>
	<path d="m1371.6 917.28c-2.9912-4.9772-5.9829-9.9459-8.9783-14.902"/>
	<path d="m1418.7 994.96c-4.5746-7.3578-9.1323-14.781-13.684-22.255"/>
	<path d="m1766.3 1443.3c-16.06-26.638-32.059-52.708-48.451-77.623"/>
	<path d="m1635 1256.5c-11.648-13.067-23.484-25.523-35.321-37.634"/>
	<path d="m1513.6 1128.1c-7.7922-9.1399-15.522-18.62-23.174-28.454"/>
	<path d="m1599.7 1218.9c-10.561-10.804-21.212-21.44-31.789-32.166"/>
	<path d="m1433.9 1019c-5.0901-7.9229-10.154-15.955-15.204-24.078"/>
	<path d="m1450.8 1044.7c-5.6647-8.4088-11.291-16.984-16.894-25.704"/>
	<path d="m1490.4 1099.7c-7.0122-9.0123-13.963-18.324-20.857-27.924"/>
	<path d="m1469.5 1071.8c-6.304-8.7783-12.556-17.79-18.771-27.014"/>
	<path d="m1381.6 933.9c-3.3252-5.5425-6.6488-11.084-9.9755-16.62"/>
	<path d="m1347.3 877.19c-2.179-3.5388-4.3602-7.0634-6.545-10.572"/>
	<path d="m1567.9 1186.7c-9.5651-9.7014-19.138-19.556-28.61-29.728"/>
	<path d="m1880 1621c-20.428-27.404-40.18-57.264-59.816-88.786"/>
	<path d="m1717.9 1365.7c-14.318-21.76-28.807-42.412-43.606-61.732"/>
	<path d="m1405 972.7c-4.1122-6.7527-8.2145-13.539-12.316-20.349"/>
	<path d="m1820.2 1532.2c-18.132-29.111-35.842-59.032-53.835-88.875"/>
	<path d="m926.46 312.05c11.961 18.547 23.745 37.646 35.538 57.059"/>
	<path d="m886.97 254.27c13.372 18.291 26.483 37.627 39.486 57.789"/>
	<path d="m843.1 199.13c14.866 17.115 29.51 35.486 43.874 55.132"/>
	<path d="m1128.9 611.72c5.076 5.5827 10.18 11.052 15.298 16.427"/>
	<path d="m1222.6 721.22"/>
	<path d="m1170.3 654.9c3.7151 3.7282 7.4348 7.4451 11.152 11.162"/>
	<path d="m1157.9 642.38c4.1235 4.2025 8.2572 8.3707 12.391 12.52"/>
	<path d="m1144.2 628.15c4.5756 4.8052 9.1689 9.5426 13.768 14.23"/>
	<path d="m1216 701.2c2.1984 2.3112 4.3938 4.6394 6.5851 6.9862"/>
	<path d="m740.18 92.113c17.848 18.921 36.168 36.844 54.165 55"/>
	<path d="m1022.8 468.78c8.5785 13.606 17.195 26.912 25.907 39.838"/>
	<path d="m1208.7 693.57c2.4424 2.5226 4.8818 5.0626 7.3168 7.6224"/>
	<path d="m794.35 147.11c16.357 16.502 32.764 33.621 48.748 52.021"/>
	<path d="m1200.5 685.24c2.7131 2.7592 5.424 5.5343 8.13 8.3292"/>
	<path d="m1191.5 676.12c3.0134 3.0294 6.0259 6.0704 9.0334 9.129"/>
	<path d="m993.98 422.05c9.5665 15.788 19.127 31.407 28.785 46.726"/>
	<path d="m1048.7 508.62c7.7073 11.434 15.471 22.542 23.316 33.285"/>
	<path d="m1072 541.9c6.9352 9.496 13.929 18.699 20.984 27.6"/>
	<path d="m1181.5 666.06c3.3462 3.346 6.6935 6.6954 10.037 10.056"/>
	<path d="m1093 569.5c6.2472 7.8801 12.546 15.526 18.886 22.947"/>
	<path d="m680 20.998c19.571 25.936 39.779 49.482 60.183 71.116"/>
	<path d="m961.99 369.11c10.69 17.598 21.301 35.307 31.984 52.938"/>
	<path d="m1111.9 592.45c5.6309 6.5892 11.301 13.008 16.998 19.273"/>
	<path d="m1018.3 287.09c8.7491 19.775 17.525 39.269 26.382 58.416"/>
	<path d="m1233.2 687.15c1.6318 2.8863 3.2615 5.7842 4.8888 8.6941"/>
	<path d="m988.97 219.87c9.7535 22.584 19.494 45.028 29.313 67.222"/>
	<path d="m1179.9 596.65c3.4072 5.6563 6.8158 11.315 10.221 16.982"/>
	<path d="m920.21 63.14c12.171 26.607 24.183 53.794 36.189 81.376"/>
	<path d="m1168.5 577.77c3.783 6.2997 7.5707 12.588 11.357 18.873"/>
	<path d="m920.21 63.14c-13.256-28.976-26.622-57.067-40.21-84.138"/>
	<path d="m1215 655.58c2.2383 3.8252 4.474 7.6663 6.7059 11.524"/>
	<path d="m1044.7 345.51c7.861 16.994 15.767 33.674 23.744 50.009"/>
	<path d="m956.4 144.52c10.89 25.019 21.704 50.189 32.57 75.351"/>
	<path d="m1238.1 695.84c1.4684 2.626 2.9349 5.262 4.3995 7.9083"/>
	<path d="m1068.4 395.51c7.0721 14.482 14.193 28.681 21.369 42.588"/>
	<path d="m1242.5 721.22"/>
	<path d="m1199.3 628.98c2.7623 4.6277 5.5228 9.2701 8.2791 13.93"/>
	<path d="m1227.8 677.59c1.813 3.171 3.6237 6.3552 5.4315 9.5532"/>
	<path d="m1207.6 642.91c2.4866 4.2045 4.9707 8.4249 7.4507 12.663"/>
	<path d="m1190.1 613.63c3.0681 5.1065 6.1355 10.224 9.1987 15.355"/>
	<path d="m1221.7 667.1c2.0146 3.4826 4.0267 6.9799 6.0355 10.493"/>
	<path d="m1109 474.45c5.7379 10.578 11.511 20.991 17.309 31.252"/>
	<path d="m1126.3 505.7c5.1713 9.1514 10.368 18.193 15.578 27.138"/>
	<path d="m1089.8 438.1c6.3685 12.341 12.781 24.456 19.232 36.349"/>
	<path d="m1141.9 532.84c4.6603 8.001 9.3373 15.936 14.02 23.818"/>
	<path d="m1155.9 556.66c4.1991 7.0676 8.4082 14.102 12.618 21.113"/>
	<path d="m1218.9 536.89c2.1184 7.8036 4.2355 15.622 6.3503 23.455"/>
	<path d="m1211.8 510.97c2.3538 8.625 4.7061 17.265 7.056 25.921"/>
	<path d="m1260.2 692.47c0.7385 2.8448 1.4767 5.6924 2.2145 8.5428"/>
	<path d="m1262.4 721.22"/>
	<path d="m1162.9 333.14c3.9806 14.471 7.9653 28.925 11.95 43.367"/>
	<path d="m1257.8 683c0.8204 3.1512 1.6405 6.3058 2.4601 9.4638"/>
	<path d="m1149.6 284.72c4.42 16.179 8.8477 32.316 13.277 48.419"/>
	<path d="m1248.6 648.08c1.1257 4.2747 2.2507 8.5554 3.375 12.842"/>
	<path d="m1255 672.52c0.9117 3.4895 1.8229 6.9832 2.7336 10.481"/>
	<path d="m1252 660.92c1.0131 3.8629 2.0256 7.7308 3.0375 11.604"/>
	<path d="m1118.4 169.25c5.4485 20.515 10.915 40.907 16.391 61.186"/>
	<path d="m1100.2 99.924c6.0494 23.284 12.122 46.389 18.213 69.322"/>
	<path d="m1236.1 600.78c1.5443 5.7817 3.0874 11.573 4.6293 17.375"/>
	<path d="m1134.8 230.43c4.9077 18.171 9.8276 36.265 14.753 54.293"/>
	<path d="m1244.9 633.87c1.2507 4.729 2.5006 9.4651 3.7496 14.209"/>
	<path d="m1225.2 560.35c1.9067 7.0618 3.812 14.137 5.7156 21.225"/>
	<path d="m1204 482.31c2.615 9.5373 5.2288 19.089 7.84 28.658"/>
	<path d="m1240.7 618.15c1.39 5.2297 2.7789 10.468 4.1669 15.715"/>
	<path d="m1185.6 415.49c3.2271 11.699 6.4541 23.405 9.6788 35.122"/>
	<path d="m1195.3 450.61c2.9053 10.555 5.8096 21.123 8.7114 31.706"/>
	<path d="m1080 20.999c6.7177 26.548 13.464 52.854 20.237 78.925"/>
	<path d="m1174.8 376.51c3.5844 12.993 7.1704 25.983 10.755 38.977"/>
	<path d="m1230.9 581.57c1.7159 6.3903 3.4307 12.792 5.1438 19.206"/>
	<path d="m1281.1 306.61c0.0519 15.747 0.1036 31.493 0.1554 47.24"/>
	<path d="m1281.6 469.07c0.0339 10.332 0.0679 20.663 0.1018 30.995"/>
	<path d="m1281.7 500.07c0.0306 9.2984 0.0613 18.597 0.0919 27.895"/>
	<path d="m1281.5 434.63c0.0377 11.479 0.0754 22.959 0.1133 34.438"/>
	<path d="m1281.8 527.96c0.0275 8.3685 0.0549 16.737 0.0824 25.106"/>
	<path d="m1281.2 353.85c0.0466 14.172 0.0933 28.344 0.1398 42.516"/>
	<path d="m1280.9 254.12c0.0576 17.496 0.1152 34.993 0.1727 52.489"/>
	<path d="m1281.4 396.37c0.0421 12.755 0.0841 25.51 0.1262 38.265"/>
	<path d="m1282.1 630.77c0.0161 4.9415 0.0323 9.8831 0.0486 14.825"/>
	<path d="m1282.3 681.75c0.0107 3.2421 0.0214 6.4843 0.032 9.7264"/>
	<path d="m1282.2 658.94 0.0396 12.008"/>
	<path d="m1282.3 670.95c0.0118 3.6024 0.0237 7.2049 0.0355 10.807"/>
	<path d="m1282.1 614.3c0.0181 5.4906 0.0363 10.981 0.0543 16.472"/>
	<path d="m1282.2 645.6c0.0146 4.4473 0.0293 8.8947 0.0439 13.342"/>
	<path d="m1281.9 553.07c0.0248 7.5317 0.0496 15.063 0.0743 22.595"/>
	<path d="m1280-20.999c0.0878 26.667 0.1755 53.333 0.2634 80"/>
	<path d="m1282.4 721.22"/>
	<path d="m1282 596c0.0201 6.1007 0.0402 12.201 0.0602 18.302"/>
	<path d="m1282 575.66c0.0223 6.7785 0.0447 13.557 0.067 20.336"/>
	<path d="m1282.3 691.48c0.0096 2.918 0.0193 5.8359 0.0289 8.7538"/>
	<path d="m1280.5 131c0.071 21.6 0.1422 43.2 0.2133 64.801"/>
	<path d="m1280.3 59.001c0.0789 24 0.1577 48 0.2366 72"/>
	<path d="m1280.7 195.8c0.064 19.44 0.1279 38.88 0.1919 58.321"/>
	<path d="m1460.3 99.978c-5.8929 23.32-11.808 46.469-17.739 69.454"/>
	<path d="m1359.3 483.31c-2.5468 9.5424-5.0925 19.097-7.6361 28.666"/>
	<path d="m1344.8 537.89c-2.0632 7.7964-4.1252 15.605-6.1854 23.428"/>
	<path d="m1351.6 511.98c-2.2924 8.6232-4.5833 17.259-6.8723 25.91"/>
	<path d="m1338.6 561.31c-1.8569 7.0507-3.7125 14.113-5.5667 21.187"/>
	<path d="m1387.6 377.32c-3.4908 13.027-6.9834 26.049-10.475 39.071"/>
	<path d="m1399.3 333.83c-3.877 14.516-7.7579 29.012-11.639 43.494"/>
	<path d="m1426.6 230.79c-4.7803 18.227-9.5719 36.379-14.369 54.465"/>
	<path d="m1412.2 285.25c-4.3051 16.231-8.6174 32.42-12.932 48.574"/>
	<path d="m1367.7 451.57c-2.8292 10.569-5.658 21.148-8.4846 31.739"/>
	<path d="m1377.2 416.39c-3.1428 11.722-6.286 23.449-9.4274 35.183"/>
	<path d="m1304.5 692.99c-0.7192 2.8303-1.4381 5.6632-2.1566 8.4987"/>
	<path d="m1319.4 634.65c-1.2181 4.7118-2.4354 9.4301-3.652 14.155"/>
	<path d="m1312.5 661.59c-0.9867 3.8461-1.9729 7.6968-2.9586 11.552"/>
	<path d="m1323.5 618.99c-1.3536 5.213-2.7064 10.434-4.0582 15.662"/>
	<path d="m1306.9 683.58c-0.7992 3.1358-1.5979 6.2747-2.3964 9.4167"/>
	<path d="m1309.5 673.15c-0.8879 3.4733-1.7754 6.9505-2.6625 10.432"/>
	<path d="m1315.8 648.8c-1.0964 4.2576-2.1921 8.5206-3.2872 12.789"/>
	<path d="m1328 601.66c-1.5042 5.7659-3.0072 11.541-4.5093 17.325"/>
	<path d="m1480 20.999c-6.5442 26.553-13.115 52.878-19.71 78.979"/>
	<path d="m1442.6 169.43c-5.3073 20.567-10.631 41.015-15.965 61.354"/>
	<path d="m1302.3 721.22"/>
	<path d="m1333 582.5c-1.6711 6.3763-3.3412 12.763-5.0099 19.16"/>
	<path d="m1395.2 578.99c-3.7324 6.3294-7.4703 12.643-11.208 18.948"/>
	<path d="m1336.8 678.73c-1.7892 3.1486-3.5763 6.3091-5.3608 9.4821"/>
	<path d="m1331.4 688.21c-1.6101 2.8631-3.2185 5.7368-4.8246 8.6213"/>
	<path d="m1326.6 696.83c-1.449 2.6027-2.8964 5.2145-4.3419 7.8357"/>
	<path d="m1342.7 668.3c-1.9878 3.4622-3.9735 6.9374-5.9562 10.427"/>
	<path d="m1356.7 644.21c-2.4536 4.1921-4.9053 8.3976-7.3533 12.619"/>
	<path d="m1364.9 630.31c-2.7256 4.6224-5.45 9.2562-8.1705 13.904"/>
	<path d="m1349.3 656.83c-2.2087 3.808-4.4152 7.6297-6.6183 11.467"/>
	<path d="m1604.6 144.21c-10.749 24.958-21.422 50.072-32.143 75.192"/>
	<path d="m1322.2 721.22"/>
	<path d="m1407.7 557.75c-4.1433 7.1134-8.2971 14.189-12.453 21.236"/>
	<path d="m1373.9 614.95c-3.0272 5.1102-6.0544 10.227-9.0782 15.355"/>
	<path d="m1543.5 286.59c-8.6372 19.795-17.298 39.326-26.036 58.53"/>
	<path d="m1494.1 395.36c-6.9812 14.567-14.009 28.86-21.09 42.869"/>
	<path d="m1473 438.22c-6.2858 12.436-12.614 24.648-18.98 36.643"/>
	<path d="m1572.5 219.4c-9.6281 22.557-19.242 44.99-28.929 67.192"/>
	<path d="m1517.5 345.12c-7.7603 17.054-15.562 33.808-23.433 50.232"/>
	<path d="m1421.5 533.76c-4.5985 8.0638-9.2141 16.058-13.837 23.995"/>
	<path d="m1640.3 63.037c-12.011 26.546-23.867 53.662-35.716 81.172"/>
	<path d="m1384 597.94c-3.3618 5.6718-6.7258 11.342-10.087 17.016"/>
	<path d="m1454 474.87c-5.6628 10.669-11.36 21.173-17.082 31.524"/>
	<path d="m1680-20.998c-13.407 27.063-26.599 55.117-39.684 84.036"/>
	<path d="m1436.9 506.39c-5.103 9.2302-10.231 18.348-15.374 27.367"/>
	<path d="m1451.9 593.02c-5.5809 6.6932-11.201 13.214-16.849 19.577"/>
	<path d="m1540.2 467.99c-8.5073 13.673-17.048 27.066-25.68 40.101"/>
	<path d="m1568.8 421.17c-9.4875 15.797-18.965 31.449-28.534 46.828"/>
	<path d="m1514.6 508.09c-7.6423 11.539-15.337 22.765-23.112 33.639"/>
	<path d="m1600.5 368.34c-10.601 17.536-21.12 35.207-31.704 52.83"/>
	<path d="m1435.1 612.59c-5.0304 5.667-10.089 11.216-15.164 16.665"/>
	<path d="m1766.7 147.43c-16.207 16.523-32.47 33.623-48.322 51.958"/>
	<path d="m1491.4 541.73c-6.8757 9.6157-13.808 18.946-20.801 27.979"/>
	<path d="m1718.3 199.39c-14.73 17.041-29.25 35.301-43.49 54.812"/>
	<path d="m1674.8 254.2c-13.254 18.162-26.254 37.358-39.141 57.382"/>
	<path d="m1635.7 311.59c-11.859 18.429-23.542 37.422-35.227 56.75"/>
	<path d="m1470.6 569.71c-6.1926 7.9977-12.435 15.764-18.721 23.303"/>
	<path d="m1348.7 702.53c-2.1788 2.2894-4.3551 4.5936-6.5276 6.9143"/>
	<path d="m1342.2 721.22"/>
	<path d="m1820.3 92.254c-17.691 18.989-35.846 36.987-53.691 55.179"/>
	<path d="m1880 20.998c-19.405 25.944-39.432 49.544-59.657 71.257"/>
	<path d="m1356 694.97c-2.4204 2.5051-4.8386 5.0247-7.2528 7.5615"/>
	<path d="m1394 656.29c-3.6814 3.7525-7.3687 7.4882-11.055 11.218"/>
	<path d="m1382.9 667.5c-3.316 3.3553-6.634 6.709-9.9491 10.069"/>
	<path d="m1406.3 643.66c-4.0861 4.2449-8.1833 8.4497-12.283 12.628"/>
	<path d="m1419.9 629.26c-4.5342 4.8681-9.0873 9.6629-13.648 14.401"/>
	<path d="m1364 686.68c-2.6887 2.7479-5.3757 5.5083-8.0587 8.285"/>
	<path d="m1373 677.57c-2.9862 3.027-5.9722 6.0615-8.9542 9.1092"/>
</g>
</svg>
