<?xml version="1.0" encoding="UTF-8"?>
<!DOCTYPE svg  PUBLIC '-//W3C//DTD SVG 1.1//EN'  'http://www.w3.org/Graphics/SVG/1.1/DTD/svg11.dtd'>
<svg enable-background="new 0 0 2664.4233 434" version="1.1" viewBox="0 0 2664.4 434" xml:space="preserve" xmlns="http://www.w3.org/2000/svg">
<rect width="2664.4" height="434" fill="#00f"/>
<g fill="none" stroke="#fff" stroke-miterlimit="10" stroke-width="1.0391">
	<polygon points="55.998 424.81 2608.4 424.81 1540 9.1899 1124.4 9.1899"/>
	
		<line x1="1118.6" x2="1545.8" y1="11.434" y2="11.434"/>
	
		<line x1="1112.5" x2="1551.9" y1="13.805" y2="13.805"/>
	
		<line x1="1106.1" x2="1558.3" y1="16.317" y2="16.317"/>
	
		<line x1="1099.2" x2="1565.2" y1="18.98" y2="18.98"/>
	
		<line x1="1092" x2="1572.5" y1="21.81" y2="21.81"/>
	
		<line x1="1084.2" x2="1580.2" y1="24.821" y2="24.821"/>
	
		<line x1="1076" x2="1588.5" y1="28.034" y2="28.034"/>
	
		<line x1="1067.1" x2="1597.3" y1="31.468" y2="31.468"/>
	
		<line x1="1057.7" x2="1606.7" y1="35.147" y2="35.147"/>
	
		<line x1="1047.5" x2="1616.9" y1="39.098" y2="39.098"/>
	
		<line x1="1036.6" x2="1627.8" y1="43.353" y2="43.353"/>
	
		<line x1="1024.8" x2="1639.7" y1="47.947" y2="47.947"/>
	
		<line x1="1012" x2="1652.4" y1="52.924" y2="52.924"/>
	
		<line x1="998.07" x2="1666.4" y1="58.334" y2="58.334"/>
	
		<line x1="982.9" x2="1681.5" y1="64.234" y2="64.234"/>
	
		<line x1="966.29" x2="1698.1" y1="70.696" y2="70.696"/>
	
		<line x1="948.02" x2="1716.4" y1="77.802" y2="77.802"/>
	
		<line x1="927.84" x2="1736.6" y1="85.656" y2="85.656"/>
	
		<line x1="905.41" x2="1759" y1="94.381" y2="94.381"/>
	
		<line x1="880.34" x2="1784.1" y1="104.13" y2="104.13"/>
	
		<line x1="852.16" x2="1812.3" y1="115.1" y2="115.1"/>
	
		<line x1="820.21" x2="1844.2" y1="127.52" y2="127.52"/>
	
		<line x1="783.72" x2="1880.7" y1="141.72" y2="141.72"/>
	
		<line x1="741.63" x2="1922.8" y1="158.09" y2="158.09"/>
	
		<line x1="692.53" x2="1971.9" y1="177.19" y2="177.19"/>
	
		<line x1="634.54" x2="2029.9" y1="199.75" y2="199.75"/>
	
		<line x1="564.97" x2="2099.4" y1="226.81" y2="226.81"/>
	
		<line x1="480" x2="2184.4" y1="259.87" y2="259.87"/>
	
		<line x1="373.87" x2="2290.6" y1="301.15" y2="301.15"/>
	
		<line x1="237.54" x2="2426.9" y1="354.19" y2="354.19"/>
	
		<line x1="2526.1" x2="1526.6" y1="424.81" y2="9.1899"/>
	
		<line x1="2443.8" x2="1513.2" y1="424.81" y2="9.1899"/>
	
		<line x1="2361.4" x2="1499.8" y1="424.81" y2="9.1899"/>
	
		<line x1="2279.1" x2="1486.4" y1="424.81" y2="9.1899"/>
	
		<line x1="2196.7" x2="1473" y1="424.81" y2="9.1899"/>
	
		<line x1="2114.4" x2="1459.6" y1="424.81" y2="9.1899"/>
	
		<line x1="2032.1" x2="1446.2" y1="424.81" y2="9.1899"/>
	
		<line x1="1949.7" x2="1432.8" y1="424.81" y2="9.1899"/>
	
		<line x1="1867.4" x2="1419.4" y1="424.81" y2="9.1899"/>
	
		<line x1="1785.1" x2="1406" y1="424.81" y2="9.1899"/>
	
		<line x1="1702.7" x2="1392.5" y1="424.81" y2="9.1899"/>
	
		<line x1="1620.4" x2="1379.1" y1="424.81" y2="9.1899"/>
	
		<line x1="1538.1" x2="1365.7" y1="424.81" y2="9.1899"/>
	
		<line x1="1455.7" x2="1352.3" y1="424.81" y2="9.1899"/>
	
		<line x1="1373.4" x2="1338.9" y1="424.81" y2="9.1899"/>
	
		<line x1="1291" x2="1325.5" y1="424.81" y2="9.1899"/>
	
		<line x1="1208.7" x2="1312.1" y1="424.81" y2="9.1899"/>
	
		<line x1="1126.4" x2="1298.7" y1="424.81" y2="9.1899"/>
	
		<line x1="1044" x2="1285.3" y1="424.81" y2="9.1899"/>
	
		<line x1="961.7" x2="1271.9" y1="424.81" y2="9.1899"/>
	
		<line x1="879.36" x2="1258.5" y1="424.81" y2="9.1899"/>
	
		<line x1="797.03" x2="1245.1" y1="424.81" y2="9.1899"/>
	
		<line x1="714.69" x2="1231.7" y1="424.81" y2="9.1899"/>
	
		<line x1="632.35" x2="1218.3" y1="424.81" y2="9.1899"/>
	
		<line x1="550.02" x2="1204.8" y1="424.81" y2="9.1899"/>
	
		<line x1="467.68" x2="1191.4" y1="424.81" y2="9.1899"/>
	
		<line x1="385.34" x2="1178" y1="424.81" y2="9.1899"/>
	
		<line x1="303.01" x2="1164.6" y1="424.81" y2="9.1899"/>
	
		<line x1="220.67" x2="1151.2" y1="424.81" y2="9.1899"/>
	
		<line x1="138.33" x2="1137.8" y1="424.81" y2="9.1899"/>
</g>
</svg>
