<?xml version="1.0" encoding="UTF-8"?>
<svg version="1.1" viewBox="0 0 462.94 462.94" xmlns="http://www.w3.org/2000/svg">
<g transform="translate(592.87 -264.35)">
<g transform="translate(6.8042 -.85053)">
<g transform="translate(-640.06 189.79)">
<g transform="matrix(2.0936,0,0,2.0936,271.75,304.77)" fill="none" stroke="#00f">
<path transform="matrix(.9992 .040076 -.040076 .9992 0 0)" d="m1.5314e-7 100c-3.1564 0-5.7151-44.772-5.7151-100s2.5587-100 5.7151-100h2.6524e-7"/>
<path transform="matrix(.98105 .19375 -.19375 .98105 0 0)" d="m7.1462e-7 100c-14.729 0-26.67-44.772-26.67-100s11.941-100 26.67-100h1.2378e-6"/>
<path transform="matrix(.93263 .36083 -.36083 .93263 0 0)" d="m1.2274e-6 100c-25.299 0-45.807-44.772-45.807-100s20.508-100 45.807-100h2.1259e-6"/>
<path transform="matrix(.83467 .55074 -.55074 .83467 0 0)" d="m1.6565e-6 100c-34.144 0-61.823-44.772-61.823-100s27.679-100 61.823-100h2.8692e-6"/>
<path transform="matrix(.6478 .76181 -.76181 .6478 0 0)" d="m1.9728e-6 100c-40.662 0-73.626-44.772-73.626-100s32.964-100 73.626-100h3.417e-6"/>
<path transform="matrix(.32096 .94709 -.94709 .32096 0 0)" d="m2.1546e-6 100c-44.41 0-80.411-44.772-80.411-100s36.001-100 80.411-100h3.7319e-6"/>
<path transform="matrix(.12102 -.99265 .99265 .12102 0 0)" d="m1.6029e-6 -100c45.131 0 81.717 44.772 81.717 100s-36.586 100-81.717 100"/>
<path transform="matrix(.51469 -.85737 .85737 .51469 0 0)" d="m1.5193e-6 -100c42.776 0 77.453 44.772 77.453 100s-34.677 100-77.453 100"/>
<path transform="matrix(.7618 -.64781 .64781 .7618 0 0)" d="m1.3321e-6 -100c37.507 0 67.912 44.772 67.912 100s-30.405 100-67.912 100"/>
<path transform="matrix(.89493 -.44621 .44621 .89493 0 0)" d="m1.0542e-6 -100c29.681 0 53.742 44.772 53.742 100s-24.061 100-53.742 100"/>
<path transform="matrix(.96303 -.26941 .26941 .96303 0 0)" d="m7.0439e-7 -100c19.833 0 35.91 44.772 35.91 100s-16.077 100-35.91 100"/>
<path transform="matrix(.99384 -.11081 .11081 .99384 0 0)" d="m3.0661e-7 -100c8.6329 0 15.631 44.772 15.631 100s-6.9981 100-15.631 100"/>
<path d="m15.682 98.764c-10.262 1.6294-21.102 1.6294-31.364 1e-6"/>
<path d="m50.483 86.323c-27.345 15.992-72.114 16.242-99.995 0.55695-0.3268-0.18384-0.65047-0.3695-0.97099-0.55695"/>
<path d="m69.65 71.756c-22.73 22.064-72.34 29.384-110.81 16.343-11.746-3.982-21.548-9.604-28.49-16.343"/>
<path d="m83.237 55.422c-17.556 26.368-69.055 39.581-115.03 29.51-23.685-5.189-42.397-15.922-51.444-29.51"/>
<path d="m92.612 37.724c-11.951 29.338-63.102 47.564-114.25 40.71-35.232-4.722-62.742-20.501-70.974-40.71"/>
<path d="m98.16 19.097c-6.05 31.096-54.902 53.49-109.11 50.02-45.879-2.936-82.09-23.706-87.21-50.02"/>
<path d="m100 0c0 31.678-44.772 57.359-100 57.359s-100-25.681-100-57.359v-2.662e-6"/>
<path d="m98.16-19.097c6.05 31.095-32.994 59.116-87.206 62.586s-103.06-18.925-109.11-50.02c-0.81236-4.1756-0.81236-8.3901-1e-6 -12.566"/>
<path d="m92.612-37.724c11.948 29.338-19.826 58.677-70.974 65.532-51.148 6.854-102.3-11.372-114.25-40.71-3.3255-8.1641-3.3255-16.658 1e-6 -24.822"/>
<path d="m83.237-55.422c17.553 26.368-5.478 55.907-51.448 65.977-45.971 10.07-97.47-3.142-115.03-29.51-7.8182-11.742-7.8182-24.725-2e-6 -36.467"/>
<path d="m69.65-71.756c22.731 22.064 9.974 50.52-28.493 63.558s-88.077 5.7209-110.81-16.343c-15.002-14.562-15.002-32.653 1e-6 -47.215"/>
<path d="m50.483-86.322c27.345 15.992 26.91 41.672-0.97099 57.356-27.881 15.685-72.65 15.435-99.995-0.55695-26.97-15.773-26.97-41.026-3e-6 -56.799"/>
<path d="m15.682-98.764c31.286 4.9678 49.627 23.543 40.966 41.488-8.6609 17.945-41.044 28.466-72.33 23.498-31.286-4.9678-49.627-23.543-40.966-41.488 5.5101-11.417 21.062-20.337 40.966-23.498"/>
<path d="m45.399-72.987c0 14.382-20.326 26.041-45.399 26.041s-45.399-11.659-45.399-26.041 20.326-26.041 45.399-26.041 45.399 11.659 45.399 26.041z"/>
<path d="m30.902-77.906c0 9.7895-13.835 17.725-30.902 17.725s-30.902-7.936-30.902-17.725c0-9.7895 13.835-17.725 30.902-17.725s30.902 7.936 30.902 17.725z"/>
<path d="m15.643-80.907c0 4.956-7.0038 8.9737-15.643 8.9737-8.6396 0-15.643-4.0177-15.643-8.9737s7.0038-8.9737 15.643-8.9737c8.6396 0 15.643 4.0177 15.643 8.9737z"/>
<path d="m100 0c0 55.228-44.772 100-100 100s-100-44.772-100-100 44.772-100 100-100 100 44.772 100 100z"/>
</g>
</g>
<path d="m-577.51 500.6c0 48.308 17.819 86.427 43.434 122.35l-12.458-62.892zm44.677-134.4 27.402-6.8127c23.232-35.302 52.58-52.419 82.365-57.993l-43.645 32.6 46.464-11.767 33.359-19.199-7.5798-15.878c-54.803 7.432-105.6 35.697-138.36 79.05zm30.38 133.78 19.658 40.876 58.378 5.574 31.572 123.87h38.72l44.081-55.74-2.3828-34.683c19.062-15.483 33.954-34.683 39.911-59.456l-29.784 7.432-38.72-63.172 8.9353-6.1933 38.124 55.74 37.528-34.063c-19.658-2.4773-32.763-12.387-38.124-29.728l67.909 11.148 24.423 52.024 10.722-69.365 30.38 37.16c-2.8659-96.539-70.887-167.22-154.28-190.14 0 21.057-11.318 38.399-27.402 48.308l-21.445-13.006-41.103 24.773 14.297 14.245 22.041-27.251-4.1698 33.444c-26.806 0-39.911 4.3353-56.591 13.625l-3.5741 17.341-18.466-4.3353-7.744 21.677 16.084 4.9547c8.9354-11.767 16.084-19.199 33.359-23.535l17.871 20.438-10.722 3.716 6.5526 5.574 9.531-11.767-13.701-19.819c13.701 0 21.445 8.6707 26.21 30.347l24.423-37.16 29.784 13.006-2.9784 8.0513-35.146 3.0967v13.625l26.806 1.858-8.3397 22.296c-48.847 0-63.143-1.2387-73.27-24.154l-40.507-2.4773c-29.784 18.58-44.677 42.734-48.847 71.843zm57.782-128.2 23.828 6.1933v-24.773zm132.24 24.154 11.914-6.8127 16.084 34.683-10.722 2.4773zm6.5526 247.11 10.722 4.3353 17.871-42.734-22.636 14.864z" fill="#00f" fill-opacity=".96863"/>
</g>
</g>
</svg>
