<?xml version="1.0" encoding="UTF-8"?>
<svg version="1.1" viewBox="0 0 350 350" xml:space="preserve" xmlns="http://www.w3.org/2000/svg">
  
  <defs>
    <clipPath id="a">
      <path d="m0 0h4680v6120h-4680v-6120z"/>
    </clipPath>
  </defs>
  
  <g transform="matrix(1.25 0 0 -1.25 -110.63 607.71)">
    <g transform="matrix(.1 0 0 .1 7.3286 17.49)">
      
        <g clip-path="url(#a)">
          <path d="m2456.2 3232.4-1.05 97.3 2.76-1.02 74.15-27.53 9.89-3.68 0.18-9.79 1.63-86.77-87.56 31.49z" fill="#5d5d5d"/>
          <path d="m2455.2 3329.7 1.05-97.3-67.26-42.3-0.38 83.78-0.06 12.52 12.37 8.04 54.28 35.26z" fill="#929292"/>
          <path d="m1001.4 3153.6 7.46 60.66 29.27 26.39-7.35-61.06-29.38-25.99z" fill="#929292"/>
          <path d="m2442.5 4506.9 0.83-77.03-59.74-52.88-0.23 50.16-0.12 26.31 59.26 53.44z" fill="#929292"/>
          <path d="m2442.5 4506.9 77.46-39.76 0.44-22.95 1.01-53.66-78.08 39.34-0.83 77.03z" fill="#5d5d5d"/>
          <path d="m890.01 2247.4 8.746 71.14 15.453 10.05 15.195 9.87-8.64-71.72-30.754-19.34z" fill="#929292"/>
          <path d="m3524.1 2932.8 9.35-87.74-67.53 24.29-8.9 88.36 46.35-17.21 20.73-7.7z" fill="#5d5d5d"/>
          <path d="m3409.2 4010.8 7.62-71.49-61.87 31.18-7.24 71.86 61.49-31.55z" fill="#5d5d5d"/>
          <path d="m2380.3 4343.5 14.52 12.75 6.01-1061.8-12.37-8.04 0.06-12.52-3.77-2.44-4.36 1049.4-0.09 22.6z" fill="#747474"/>
          <path d="m2255 3187.5 8.24 1053.1 22-2.88-5.77-1034.4-24.47-15.83z" fill="#626262"/>
          <path d="m2263.3 4240.6-8.24-1053.1-26.57-17.19 10.54 1027 0.23 22.19 24.04 21.12z" fill="#747474"/>
          <path d="m1204.2 3310.2-91.17-861.58-14.85-9.61 89.9 840.18 1.99 18.6 14.13 12.41z" fill="#747474"/>
          <path d="m1113 2448.6 91.17 861.58 17.44-1.69-88.2-846.69-20.41-13.2z" fill="#626262"/>
          <path d="m950.56 2343.5 98.618 830.51 16.75-1.54-95.653-816.22-19.715-12.75z" fill="#626262"/>
          <path d="m1029.8 2394.8 95.12 845.79 17.09-1.62-92.16-831.19-20.05-12.98z" fill="#626262"/>
          <path d="m1124.9 3240.6-95.12-845.79-14.14-9.15 93.69 824.79 2.08 18.3 13.49 11.85z" fill="#747474"/>
          <path d="m2002.7 4011.7-33.94-1009.4-23.32-15.08 35.13 984.35 0.76 21.39 21.37 18.77z" fill="#747474"/>
          <path d="m1968.7 3002.3 33.94 1009.4 20.91-2.56-31.27-991.61-23.58-15.26z" fill="#626262"/>
          <path d="m2107.2 3091.9 21.91 1030.9 21.45-2.72-19.34-1012.7-24.02-15.54z" fill="#626262"/>
          <path d="m2129.1 4122.8-21.91-1030.9-24.86-16.09 23.61 1005.3 0.52 21.79 22.64 19.9z" fill="#747474"/>
          <path d="m1287.2 3383.2-86.69-877.92-15.63-10.12 85.62 856.11 1.89 18.91 14.81 13.02z" fill="#747474"/>
          <path d="m1200.6 2505.3 86.69 877.92 17.81-1.78-83.73-862.71-20.77-13.43z" fill="#626262"/>
          <path d="m1770.4 3807.7-53.9-968.56-20.62-13.35 54.22 944.49 1.19 20.64 19.11 16.78z" fill="#747474"/>
          <path d="m1716.6 2839.1 53.9 968.56 19.92-2.29-51.08-951.57-22.74-14.7z" fill="#626262"/>
          <path d="m1838.8 2918.2 44.54 988.65 20.41-2.42-41.79-971.25-23.16-14.98z" fill="#626262"/>
          <path d="m1883.3 3906.8-44.54-988.65-21.91-14.18 45.28 964.08 0.98 21.01 20.19 17.74z" fill="#747474"/>
          <path d="m1374.4 3459.8-81.63-894.83-16.48-10.66 80.78 872.59 1.78 19.24 15.55 13.66z" fill="#747474"/>
          <path d="m1292.8 2564.9 81.63 894.83 18.2-1.87-78.69-879.28-21.14-13.68z" fill="#626262"/>
          <path d="m1390 2627.9 75.91 912.31 18.61-1.96-73-896.43-21.52-13.92z" fill="#626262"/>
          <path d="m1465.9 3540.2-75.91-912.31-17.39-11.25 75.31 889.63 1.66 19.58 16.33 14.35z" fill="#747474"/>
          <path d="m1562.2 3624.7-69.46-930.43-18.38-11.89 69.13 907.29 1.52 19.93 17.19 15.1z" fill="#747474"/>
          <path d="m1492.7 2694.3 69.46 930.43 19.02-2.06-66.56-914.19-21.92-14.18z" fill="#626262"/>
          <path d="m1601.4 2764.6 62.15 949.17 19.46-2.18-59.29-932.55-22.32-14.44z" fill="#626262"/>
          <path d="m1663.6 3713.8-62.15-949.17-19.45-12.58 62.13 925.56 1.36 20.28 18.11 15.91z" fill="#747474"/>
          <path d="m2705.7 4056.8-152.06 72.05-0.73 34.04 151.56-72.44 1.23-33.65z" fill="#494949"/>
          <path d="m2876.5 3975.9-147.59 69.93-1.31 33.6 147.13-70.33 1.77-33.2z" fill="#494949"/>
          <path d="m2726.4 4109.1 146.72-70.66 1.56-29.36-147.13 70.33-1.15 29.69z" fill="#353635"/>
          <path d="m2549.4 4194.4 154.03-74.18 1.09-29.75-151.56 72.44-3.56 31.49z" fill="#353635"/>
          <path d="m2913 3990.8 1.89-33.1-15.48 7.33-1.84 33.15 15.43-7.38z" fill="#494949"/>
          <path d="m2931.6 4010.3-18.69-19.47-15.43 7.38-1.63 29.3 35.75-17.21z" fill="#353635"/>
          <path d="m2931.6 4010.3 4.27-72.4-21.07 19.83-1.89 33.1 18.69 19.47z" fill="#6f6f6f"/>
          <path d="m2706.1 4046.5-155.14 73.31 2.7 9.06 152.06-72.05 0.38-10.32z" fill="#727272"/>
          <path d="m2877 3965.7-147.74 69.81-0.4 10.3 147.59-69.93 0.55-10.18z" fill="#727272"/>
          <path d="m2935.9 3937.9-35.99 17-0.56 10.16 15.48-7.33 21.07-19.83z" fill="#727272"/>
          <path d="m2551 4119.8-1.59 74.59 3.56-31.49 0.73-34.04-2.7-9.06z" fill="#353635"/>
          <path d="m2728.2 3442-161.16 64.16-0.83 38.45 160.6-64.69 1.39-37.92z" fill="#494949"/>
          <path d="m2908.8 3370.1-156 62.11-1.48 37.84 155.5-62.63 1.98-37.32z" fill="#494949"/>
          <path d="m2750.1 3500.8 155.07-63.05 1.62-30.36-155.5 62.63-1.19 30.78z" fill="#353635"/>
          <path d="m2562.5 3577.1 163.23-66.37 1.13-30.84-160.6 64.69-3.76 32.52z" fill="#353635"/>
          <path d="m2947.1 3391.2 2.12-37.18-16.34 6.5-2.07 37.24 16.29-6.56z" fill="#494949"/>
          <path d="m2966.9 3412.7-19.75-21.52-16.29 6.56-1.68 30.29 37.72-15.33z" fill="#353635"/>
          <path d="m2966.9 3412.7 4.79-81.32-22.42 22.62-2.12 37.18 19.75 21.52z" fill="#6f6f6f"/>
          <path d="m2728.8 3427.7-164.48 65.19 2.8 13.3 161.16-64.16 0.52-14.33z" fill="#727272"/>
          <path d="m2909.5 3356-156.2 61.91-0.55 14.3 156-62.11 0.75-14.1z" fill="#727272"/>
          <path d="m2971.7 3331.4-37.98 15.05-0.78 14.07 16.34-6.5 22.42-22.62z" fill="#727272"/>
          <path d="m2564.3 3492.8-1.79 84.27 3.76-32.52 0.83-38.45-2.8-13.3z" fill="#353635"/>
          <path d="m2701.7 4166.5-150.44 73.31-0.71 33.29 149.94-73.67 1.21-32.93z" fill="#494949"/>
          <path d="m2870.7 4084.1-146.09 71.18-1.28 32.87 145.63-71.55 1.74-32.5z" fill="#494949"/>
          <path d="m2722.2 4217.7 145.23-71.88 1.55-29.17-145.63 71.55-1.15 29.5z" fill="#353635"/>
          <path d="m2547 4304.4 152.39-75.43 1.08-29.54-149.94 73.67-3.53 31.3z" fill="#353635"/>
          <path d="m2906.8 4098 1.85-32.4-15.33 7.47-1.8 32.44 15.28-7.51z" fill="#494949"/>
          <path d="m2925.3 4117.2-18.5-19.11-15.28 7.51-1.61 29.12 35.39-17.52z" fill="#353635"/>
          <path d="m2925.3 4117.2 4.18-70.86-20.83 19.35-1.85 32.4 18.5 19.11z" fill="#6f6f6f"/>
          <path d="m2702 4156.9-153.48 74.61 2.69 8.34 150.44-73.31 0.35-9.64z" fill="#727272"/>
          <path d="m2725 4145.7 146.21-71.08 1.93-36.17-146.72 70.66-1.42 36.59z" fill="#5d5d5d"/>
          <path d="m2871.2 4074.6-146.21 71.08-0.38 9.62 146.09-71.18 0.5-9.52z" fill="#727272"/>
          <path d="m2929.5 4046.3-35.63 17.32-0.53 9.5 15.33-7.47 20.83-19.35z" fill="#727272"/>
          <path d="m2548.6 4231.5-1.55 72.93 3.53-31.3 0.71-33.29-2.69-8.34z" fill="#353635"/>
          <path d="m2712.9 3860-154.97 69.68-0.77 35.42 154.46-70.11 1.28-34.99z" fill="#494949"/>
          <path d="m2886.8 3781.8-150.3 67.58-1.36 34.92 149.82-68 1.84-34.5z" fill="#494949"/>
          <path d="m2883.4 3845.9-149.4 68.37-4.72 121.22 147.74-69.81 6.38-119.78z" fill="#5d5d5d"/>
          <path d="m2734 3914.3 149.4-68.37 1.58-29.68-149.82 68-1.16 30.05z" fill="#353635"/>
          <path d="m2553.6 3996.9 156.98-71.84 1.1-30.11-154.46 70.11-3.62 31.84z" fill="#353635"/>
          <path d="m2923.9 3798.6 1.96-34.39-15.76 7.09-1.91 34.42 15.71-7.12z" fill="#494949"/>
          <path d="m2942.9 3818.7-19.02-20.11-15.71 7.12-1.64 29.63 36.37-16.64z" fill="#353635"/>
          <path d="m2942.9 3818.7 4.44-75.21-21.5 20.71-1.96 34.39 19.02 20.11z" fill="#6f6f6f"/>
          <path d="m2713.4 3848.4-158.14 70.88 2.74 10.37 154.97-69.68 0.43-11.57z" fill="#727272"/>
          <path d="m2887.4 3770.4-150.46 67.44-0.45 11.54 150.3-67.58 0.61-11.4z" fill="#727272"/>
          <path d="m2947.4 3743.5-36.63 16.42-0.63 11.38 15.76-7.09 21.5-20.71z" fill="#727272"/>
          <path d="m2555.2 3919.3-1.65 77.63 3.62-31.84 0.77-35.42-2.74-10.37z" fill="#353635"/>
          <path d="m2720.4 3655.2-158.01 67.06-0.79 36.89 157.47-67.53 1.33-36.42z" fill="#494949"/>
          <path d="m2897.6 3580-153.1 64.98-1.41 36.34 152.6-65.46 1.91-35.86z" fill="#494949"/>
          <path d="m2741.9 3711.7 152.19-65.85 1.6-30.02-152.6 65.46-1.19 30.41z" fill="#353635"/>
          <path d="m2894.1 3645.9-152.19 65.85-4.9 126.08 150.46-67.44 6.63-124.49z" fill="#5d5d5d"/>
          <path d="m2557.9 3791.3 160.04-69.24 1.12-30.47-157.47 67.53-3.69 32.18z" fill="#353635"/>
          <path d="m2935.3 3598.9 2.04-35.75-16.04 6.81-1.99 35.79 15.99-6.85z" fill="#494949"/>
          <path d="m2954.7 3619.6-19.38-20.79-15.99 6.85-1.66 29.96 37.03-16.02z" fill="#353635"/>
          <path d="m2954.7 3619.6 4.61-78.17-21.95 21.63-2.04 35.75 19.38 20.79z" fill="#6f6f6f"/>
          <path d="m2720.9 3642.3-161.25 68.18 2.77 11.78 158.01-67.06 0.47-12.9z" fill="#727272"/>
          <path d="m2898.3 3567.3-153.28 64.81-0.5 12.88 153.1-64.98 0.68-12.71z" fill="#727272"/>
          <path d="m2745 3632.1 153.28-64.81 2.09-39.38-153.82 64.29-1.55 39.9z" fill="#5d5d5d"/>
          <path d="m2959.3 3541.5-37.29 15.76-0.7 12.68 16.04-6.81 21.95-21.63z" fill="#727272"/>
          <path d="m2559.6 3710.4-1.71 80.85 3.69-32.18 0.79-36.89-2.77-11.78z" fill="#353635"/>
          <path d="m2733.4 3299.3-163.26 62.12-0.85 39.51 162.68-62.69 1.43-38.94z" fill="#494949"/>
          <path d="m2916.2 3229.8-157.95 60.1-1.51 38.85 157.42-60.65 2.04-38.3z" fill="#494949"/>
          <path d="m2912.6 3298.6-156.99 61.09-2.27 58.18 156.2-61.91 3.06-57.36z" fill="#5d5d5d"/>
          <path d="m2755.6 3359.7 156.99-61.09 1.63-30.57-157.42 60.65-1.2 31.01z" fill="#353635"/>
          <path d="m2565.5 3433.7 165.36-64.34 1.13-31.09-162.68 62.69-3.81 32.74z" fill="#353635"/>
          <path d="m2955 3252.4 2.17-38.16-16.53 6.29-2.12 38.22 16.48-6.35z" fill="#494949"/>
          <path d="m2975 3274.4-19.99-22-16.48 6.35-1.69 30.5 38.16-14.85z" fill="#353635"/>
          <path d="m2975 3274.4 4.92-83.46-22.74 23.3-2.17 38.16 19.99 22z" fill="#6f6f6f"/>
          <path d="m2734 3284-166.64 63.09 2.82 14.36 163.26-62.12 0.56-15.33z" fill="#727272"/>
          <path d="m2917 3214.7-158.15 59.88-0.6 15.3 157.95-60.1 0.8-15.08z" fill="#727272"/>
          <path d="m2980 3190.9-38.43 14.56-0.84 15.03 16.53-6.29 22.74-23.3z" fill="#727272"/>
          <path d="m2567.4 3347.1-1.84 86.61 3.81-32.74 0.85-39.51-2.82-14.36z" fill="#353635"/>
          <path d="m3045.7 3998.9-55.82 27.2-2.09 32.19 55.66-27.34 2.25-32.05z" fill="#494949"/>
          <path d="m3200.6 3923.4-132.65 64.63-2.31 32 132.27-64.99 2.69-31.64z" fill="#494949"/>
          <path d="m3063.6 4048.7 131.93-65.3 2.42-28.4-132.27 64.99-2.08 28.71z" fill="#353635"/>
          <path d="m2985 4087.6 56.39-27.91 2.02-28.76-55.66 27.34-2.75 29.33z" fill="#353635"/>
          <path d="m3307.6 3901.1 2.99-31.33-87.98 42.87-2.75 31.58 87.74-43.12z" fill="#494949"/>
          <path d="m3324.6 3919.5-17.02-18.39-87.74 43.12-2.48 28.35 107.24-53.08z" fill="#353635"/>
          <path d="m3324.6 3919.5 6.67-68.54-20.7 18.82-2.99 31.33 17.02 18.39z" fill="#6f6f6f"/>
          <path d="m3046.3 3989.5-56.75 27.58 0.27 9.01 55.82-27.2 0.66-9.39z" fill="#727272"/>
          <path d="m3201.4 3914.1-132.76 64.54-0.68 9.36 132.65-64.63 0.79-9.27z" fill="#727272"/>
          <path d="m3331.3 3851-107.88 52.44-0.8 9.25 87.98-42.87 20.7-18.82z" fill="#727272"/>
          <path d="m2989.6 4017.1-4.57 70.53 2.75-29.33 2.09-32.19-0.27-9.01z" fill="#353635"/>
          <path d="m3053.2 3892.2-56.36 26.71-2.14 32.88 56.2-26.86 2.3-32.73z" fill="#494949"/>
          <path d="m3209.6 3818.1-133.89 63.44-2.36 32.67 133.51-63.82 2.74-32.29z" fill="#494949"/>
          <path d="m3204.4 3878.9-133.17 64.13-2.58 35.6 132.76-64.54 2.99-35.19z" fill="#5d5d5d"/>
          <path d="m3071.2 3943.1 133.17-64.13 2.43-28.57-133.51 63.82-2.09 28.88z" fill="#353635"/>
          <path d="m2991.9 3981.3 56.93-27.42 2.04-28.94-56.2 26.86-2.77 29.5z" fill="#353635"/>
          <path d="m3317.5 3797.5 3.05-31.99-88.78 42.07-2.81 32.23 88.54-42.31z" fill="#494949"/>
          <path d="m3334.7 3816.2-17.18-18.71-88.54 42.31-2.48 28.51 108.2-52.11z" fill="#353635"/>
          <path d="m3334.7 3816.2 6.8-69.95-20.93 19.25-3.05 31.99 17.18 18.71z" fill="#6f6f6f"/>
          <path d="m3053.9 3882.2-57.3 27.07 0.24 9.67 56.36-26.71 0.7-10.03z" fill="#727272"/>
          <path d="m3210.4 3808.2-134 63.32-0.73 10.02 133.89-63.44 0.84-9.9z" fill="#727272"/>
          <path d="m3341.5 3746.2-108.84 51.44-0.87 9.88 88.78-42.07 20.93-19.25z" fill="#727272"/>
          <path d="m2996.6 3909.2-4.67 72.05 2.77-29.5 2.14-32.88-0.24-9.67z" fill="#353635"/>
          <path d="m3066.6 3700.9-57.33 25.78-2.21 34.14 57.15-25.95 2.39-33.97z" fill="#494949"/>
          <path d="m3225.6 3629.4-136.11 61.2-2.45 33.91 135.72-61.61 2.84-33.5z" fill="#494949"/>
          <path d="m3084.9 3753.7 135.38-61.95 2.46-28.83-135.72 61.61-2.12 29.17z" fill="#353635"/>
          <path d="m3220.3 3691.8-135.38 61.95-8.52 117.78 134-63.32 9.9-116.41z" fill="#5d5d5d"/>
          <path d="m3004.2 3790.6 57.9-26.5 2.05-29.24-57.15 25.95-2.8 29.79z" fill="#353635"/>
          <path d="m3335.2 3611.9 3.16-33.16-90.19 40.55-2.92 33.43 89.95-40.82z" fill="#494949"/>
          <path d="m3352.7 3631.2-17.46-19.3-89.95 40.82-2.5 28.78 109.91-50.3z" fill="#353635"/>
          <path d="m3352.7 3631.2 7.06-72.52-21.36 20.06-3.16 33.16 17.46 19.3z" fill="#6f6f6f"/>
          <path d="m3067.4 3689.7-58.29 26.13 0.17 10.88 57.33-25.78 0.79-11.23z" fill="#727272"/>
          <path d="m3226.6 3618.4-136.24 61.07-0.81 11.2 136.11-61.2 0.94-11.07z" fill="#727272"/>
          <path d="m3359.8 3558.7-110.59 49.57-0.96 11.04 90.19-40.55 21.36-20.06z" fill="#727272"/>
          <path d="m3009.1 3715.8-4.84 74.81 2.8-29.79 2.21-34.14-0.17-10.88z" fill="#353635"/>
          <path d="m3080.5 3502.3-58.33 24.76-2.3 35.47 58.15-24.94 2.48-35.29z" fill="#494949"/>
          <path d="m3242.3 3433.7-138.41 58.74-2.55 35.21 138-59.19 2.96-34.76z" fill="#494949"/>
          <path d="m3236.8 3497.6-137.67 59.56-8.85 122.3 136.24-61.07 10.28-120.79z" fill="#5d5d5d"/>
          <path d="m3099.2 3557.1 137.67-59.56 2.47-29.11-138 59.19-2.14 29.48z" fill="#353635"/>
          <path d="m3017.1 3592.6 58.92-25.49 2.07-29.54-58.15 24.94-2.84 30.09z" fill="#353635"/>
          <path d="m3353.6 3419.4 3.28-34.4-91.65 38.9-3.02 34.7 91.39-39.2z" fill="#494949"/>
          <path d="m3371.4 3439.4-17.77-19.92-91.39 39.2-2.53 29.04 111.69-48.32z" fill="#353635"/>
          <path d="m3371.4 3439.4 7.31-75.22-21.8 20.9-3.28 34.4 17.77 19.92z" fill="#6f6f6f"/>
          <path d="m3081.4 3489.8-59.31 25.08 0.1 12.18 58.33-24.76 0.88-12.5z" fill="#727272"/>
          <path d="m3243.3 3421.4-138.55 58.59-0.9 12.47 138.41-58.74 1.04-12.32z" fill="#727272"/>
          <path d="m3104.8 3480 138.55-58.59 3.25-38.16-139 58.09-2.8 38.66z" fill="#5d5d5d"/>
          <path d="m3378.7 3364.2-112.38 47.52-1.07 12.28 91.65-38.9 21.8-20.9z" fill="#727272"/>
          <path d="m3022.1 3514.9-5.04 77.74 2.84-30.09 2.3-35.47-0.1-12.18z" fill="#353635"/>
          <path d="m3095 3296-59.37 23.63-2.39 36.89 59.18-23.84 2.58-36.68z" fill="#494949"/>
          <path d="m3259.5 3230.5-140.79 56.05-2.64 36.6 140.36-56.54 3.07-36.11z" fill="#494949"/>
          <path d="m3114 3352.9 140.02-56.93 2.5-29.38-140.36 56.54-2.16 29.77z" fill="#353635"/>
          <path d="m3030.4 3386.9 59.97-24.38 2.09-29.84-59.18 23.84-2.88 30.38z" fill="#353635"/>
          <path d="m3372.6 3219.8 3.41-35.7-93.16 37.09-3.14 36.03 92.89-37.42z" fill="#494949"/>
          <path d="m3390.7 3240.4-18.07-20.57-92.89 37.42-2.56 29.31 113.52-46.16z" fill="#353635"/>
          <path d="m3390.7 3240.4 7.59-78.07-22.25 21.8-3.41 35.7 18.07 20.57z" fill="#6f6f6f"/>
          <path d="m3096 3282.1-60.37 23.93 0.03 13.57 59.37-23.63 0.97-13.87z" fill="#727272"/>
          <path d="m3260.7 3216.8-140.95 55.86-1 13.84 140.79-56.05 1.16-13.65z" fill="#727272"/>
          <path d="m3398.3 3162.3-114.23 45.27-1.18 13.62 93.16-37.09 22.25-21.8z" fill="#727272"/>
          <path d="m3035.6 3306-5.24 80.84 2.88-30.38 2.39-36.89-0.03-13.57z" fill="#353635"/>
          <path d="m3104.7 3158.1-60.07 22.85-2.45 37.85 59.87-23.07 2.65-37.63z" fill="#494949"/>
          <path d="m3271.1 3094.8-142.37 54.16-2.71 37.55 141.93-54.69 3.15-37.02z" fill="#494949"/>
          <path d="m3265.4 3161.3-141.59 55.11-4.08 56.23 140.95-55.86 4.72-55.48z" fill="#5d5d5d"/>
          <path d="m3123.8 3216.4 141.59-55.11 2.51-29.55-141.93 54.69-2.17 29.97z" fill="#353635"/>
          <path d="m3039.3 3249.3 60.66-23.6 2.11-30.04-59.87 23.07-2.9 30.57z" fill="#353635"/>
          <path d="m3385.3 3086.6 3.49-36.59-94.16 35.83-3.22 36.93 93.89-36.17z" fill="#494949"/>
          <path d="m3403.6 3107.6-18.28-21.02-93.89 36.17-2.57 29.49 114.74-44.64z" fill="#353635"/>
          <path d="m3403.6 3107.6 7.78-80.02-22.57 22.41-3.49 36.59 18.28 21.02z" fill="#6f6f6f"/>
          <path d="m3105.8 3143.3-61.09 23.12-0.02 14.53 60.07-22.85 1.04-14.8z" fill="#727272"/>
          <path d="m3272.3 3080.2-142.54 53.97-1.07 14.76 142.37-54.16 1.24-14.57z" fill="#727272"/>
          <path d="m3411.4 3027.6-115.46 43.71-1.27 14.53 94.16-35.83 22.57-22.41z" fill="#727272"/>
          <path d="m3044.7 3166.4-5.37 82.95 2.9-30.57 2.45-37.85 0.02-14.53z" fill="#353635"/>
          <path d="m2285.3 4237.8 95.14 83.11 4.36-1049.4-105.27-68.11 5.77 1034.4z" fill="#929292"/>
          <path d="m2150.6 4120.1 88.45 77.27-10.54-1027-97.25-62.92 19.34 1012.7z" fill="#929292"/>
          <path d="m2023.6 4009.1 82.37 71.96-23.61-1005.3-90.03-58.24 31.27 991.61z" fill="#929292"/>
          <path d="m1903.7 3904.4 76.83 67.12-35.13-984.35-83.49-54.02 41.79 971.25z" fill="#929292"/>
          <path d="m1790.4 3805.4 71.77 62.7-45.28-964.08-77.57-50.19 51.08 951.57z" fill="#929292"/>
          <path d="m1683 3711.6 67.13 58.65-54.22-944.49-72.2-46.71 59.29 932.55z" fill="#929292"/>
          <path d="m1581.2 3622.7 62.87 54.92-62.13-925.56-67.3-43.55 66.56 914.19z" fill="#929292"/>
          <path d="m1484.5 3538.2 58.95 51.5-69.13-907.29-62.82-40.64 73 896.43z" fill="#929292"/>
          <path d="m1392.6 3457.9 55.34 48.35-75.31-889.63-58.72-38 78.69 879.28z" fill="#929292"/>
          <path d="m1305.1 3381.4 52.01 45.44-80.78-872.59-54.96-35.56 83.73 862.71z" fill="#929292"/>
          <path d="m1221.6 3308.5 48.93 42.74-85.62-856.11-51.51-33.32 88.2 846.69z" fill="#929292"/>
          <path d="m1142 3239 46.06 40.25-89.9-840.18-48.32-31.26 92.16 831.19z" fill="#929292"/>
          <path d="m1065.9 3172.5 43.41 37.92-93.69-824.79-45.373-29.35 95.653 816.22z" fill="#929292"/>
          <path d="m2747.6 3565.8 154.18-63.93 3.42-64.12-155.07 63.05-2.53 65z" fill="#5d5d5d"/>
          <path d="m2624.5 3620.8 5.26 14.02 9.1 2.29 0.37-12.65-8.9-10.08-5.83 6.42z" fill="#5f5f5f"/>
          <path d="m2431.7 3241.8-9.57-9.81-9.59-2.34-7.04 5.71-2.62 12.17 2.46 15.39 6.88 14.53 9.49 9.82 9.58 2.48 7.12-5.59 2.7-12.18-2.45-15.53-6.96-14.65z" fill="#929292"/>
          <path d="m2525.4 3272.5 4.32-18.29-3.75-15.39-10.86-8.36-15.13 0.95-15.31 10.06-11.35 16.49-4.3 18.44 3.88 15.39 10.98 8.22 15.11-1.1 15.17-10.07 11.24-16.34z" fill="#5d5d5d"/>
          <path d="m1726.6 2078.5 0.17 3.27 4.87-0.98-5.04-2.29z" fill="#929292"/>
          <path d="m1821.2 2088.2-0.24-5.55-8.34 1.72 8.58 3.83z" fill="#5d5d5d"/>
          <path d="m1015.2 3178.8-0.34 2.31 4.26 9.65 0.04 0.02-1.32-10.83-0.21-0.28-2.43-0.87z" fill="#fff"/>
          <path d="m1028.1 3204.6-2.18-9.72-3.85-9.12-4.27-5.78 1.32 10.83 1.93 15.84 3.29 2.94 3.44 3.09 0.25-0.39 0.07-7.69z" fill="#929292"/>
          <path d="m1024.4 3209.6-4.98 1.51 2.46 3.35 3.91 1.44 2.05-3.21-3.44-3.09z" fill="#353550"/>
          <path d="m1019.4 3211.1 4.98-1.51-3.29-2.94-1.93-15.84-0.04-0.02-4.26-9.65 0.34-2.31-1.47-0.52-2.28 3.64-0.05 7.69 2.17 9.67 3.83 9.07 2 2.72z" fill="#5d5d5d"/>
          <path d="m2421.6 4430.4-8.51-10.53-8.52-4.61-6.24 2.52-2.33 8.93 2.19 12.94 0.67 1.47 3.21 2.88 24.83 22.24 0.68-0.26 2.4-8.91-2.19-13.04-6.19-13.63z" fill="#929292"/>
          <path d="m2481.6 4475.3 13.53-10.46 8.08-11.92-43 21.95 7.91 3.78 13.48-3.35z" fill="#353550"/>
          <path d="m2505.1 4450.1 3.83-15.17-3.37-11.53-9.72-4.81-13.5 3.25-13.65 10.48-10.1 14.89-3.82 15.27 3.49 11.52 1.9 0.91 43-21.95 1.94-2.86z" fill="#5d5d5d"/>
          <path d="m2402.1 4444-1.55 0.79 3.8 8.38 8.44 10.52 8.51 4.7 5.63-2.15-24.83-22.24z" fill="#353550"/>
          <path d="m2400.6 4444.7 1.55-0.79-3.21-2.88 1.66 3.67z" fill="#5d5d5d"/>
          <path d="m3046.8 4151.6 78.84-1103.5-12.96-3.79-2.32 32.96-4.62 65.92-1.04 14.8-2.65 37.63-2.11 30.04-3.96 56.36-0.97 13.87-2.58 36.68-2.09 29.84-8.95 127.35-0.88 12.5-2.48 35.29-2.07 29.54-8.61 122.54-0.79 11.23-2.39 33.97-2.05 29.24-8.29 118.01-0.7 10.03-2.3 32.73-2.04 28.94-2.5 35.66-0.66 9.39-2.25 32.05-2.02 28.76-4.2 59.79-1.93 27.38 11.57 4.77z" fill="#616161"/>
          <path d="m3136.3 3044.3-10.62 3.9-78.84 1103.5 9.65-4.9 2.78-38.34 4.32-59.68 2.08-28.71 2.31-32 0.68-9.36 2.58-35.6 2.09-28.88 2.36-32.67 0.73-10.02 8.52-117.78 2.12-29.17 2.45-33.91 0.81-11.2 8.85-122.3 2.14-29.48 2.55-35.21 0.9-12.47 2.8-38.66 0.88-12.13 0.96-13.37 4.56-62.92 2.16-29.77 2.64-36.6 1-13.84 4.08-56.23 2.17-29.97 2.71-37.55 1.07-14.76 4.76-65.76 1.75-24.14z" fill="#3c3c3c"/>
          <path d="m3115.3 3038.2-2.63 6.22 12.96 3.79 10.62-3.9-6.4-6.18-14.55 0.07z" fill="#2c2c2c"/>
          <path d="m2707.8 4323.6 27.5-726.76-12.91 5.39-1.47 39.99-0.47 12.9-1.33 36.42-1.12 30.47-4.62 126.32-0.43 11.57-1.28 34.99-1.1 30.11-4.45 121.44-0.38 10.32-1.23 33.65-1.09 29.75-1.34 36.65-0.35 9.64-1.21 32.93-1.08 29.54-2.25 61.38-1.03 28.1 11.64 5.2z" fill="#616161"/>
          <path d="m2707.8 4323.6 10.53-5.34 1.53-39.35 2.38-61.27 1.15-29.5 1.28-32.87 0.38-9.62 1.42-36.59 1.15-29.69 1.31-33.6 0.4-10.3 4.72-121.22 1.16-30.05 1.36-34.92 0.45-11.54 4.9-126.08 1.19-30.41 1.41-36.34 0.5-12.88 1.55-39.9-11.27 4.71-27.5 726.76z" fill="#3c3c3c"/>
          <path d="m2762.5 3181.5-11.7 4.29-15.07 398.58 11.28-4.7 0.54-13.8 2.53-65 1.19-30.78 1.48-37.84 0.55-14.3 2.27-58.18 1.2-31.01 1.51-38.85 0.6-15.3 2.65-68.11 0.97-25z" fill="#3c3c3c"/>
          <path d="m2741.4 3174.7-3.65 6.85 13.06 4.18 11.7-4.29-5.85-6.81-15.26 0.07z" fill="#2c2c2c"/>
          <path d="m906.17 2272.4-1.141 8.49 4.766 11.68 0.043 0.03-2.43-19.94-0.218-0.25-1.02-0.01z" fill="#fff"/>
          <path d="m903.14 2272.4-2.286 5.44 0.079 9.44 2.41 10.91 4.105 9.5 4.703 5.54h0.188l-2.504-20.6-0.043-0.03-4.766-11.68 1.141-8.49-3.027-0.03z" fill="#5d5d5d"/>
          <path d="m918.46 2298.5-2.418-10.98-4.133-9.54-4.508-5.28 2.43 19.94 2.504 20.6 3.867 0.1 2.313-5.39-0.055-9.45z" fill="#929292"/>
          <path d="m1040 3176.8 1354.8 1194.6 0.09-15.23-14.52-12.75 0.09-22.6-95.14-83.11-22 2.88-24.04-21.12-0.23-22.19-88.45-77.27-21.45 2.72-22.64-19.9-0.52-21.79-82.37-71.96-20.91 2.56-21.37-18.77-0.76-21.39-76.83-67.12-20.41 2.42-20.19-17.74-0.98-21.01-71.77-62.7-19.92 2.29-19.11-16.78-1.19-20.64-67.13-58.65-19.46 2.18-18.11-15.91-1.36-20.28-62.87-54.92-19.02 2.06-17.19-15.1-1.52-19.93-58.95-51.5-18.61 1.96-16.33-14.35-1.66-19.58-55.34-48.35-18.2 1.87-15.55-13.66-1.78-19.24-52.01-45.44-17.81 1.78-14.81-13.02-1.89-18.91-48.93-42.74-17.44 1.69-14.13-12.41-1.99-18.6-46.06-40.25-17.09 1.62-13.49-11.85-2.08-18.3-43.41-37.92-16.75 1.54-9.2 2.77z" fill="#585850"/>
          <path d="m3109.4 3415.8 139.3-57.76 5.28-62.09-140.02 56.93-4.56 62.92z" fill="#5d5d5d"/>
          <path d="m3270.6 3361.6 84.12-35.02-9.06-8.79-73.91 30.64-1.15 13.17z" fill="#2c2c2c"/>
          <path d="m3508.2 2893.9 0.93-0.62 4.06-11.24-0.91-8.73-1.73-1.9-2.35 22.49z" fill="#fff"/>
          <path d="m3492.1 2931.9 12.1-8.39 1.13-1.67 2.93-27.93 2.35-22.49-0.86-0.95-11.29 0.11-12.19 8.39-9.79 14.41-4.72 16.54 1.59 14.19 7.46 8.03 11.29-0.24z" fill="#5d5d5d"/>
          <path d="m3513.9 2909.2 4.73-16.42-1.5-14.18-4.79-5.29 0.91 8.73-4.06 11.24-0.93 0.62-2.93 27.93 8.57-12.63z" fill="#929292"/>
          <path d="m2534 3194.9 921.58-330.33-61.42-27.92 57.81-20.33-1630.8-728.16-8.58-3.83-50.43 10.31-30.52-13.88-4.87 0.98-762.47 154.24 26.789 16.37-60.195 12.31 1470.6 921.01 74.48-26.2 58 35.43z" fill="#444"/>
          <path d="m3513.5 2843.8-57.94 20.76 10.37 4.72 67.53-24.29-71.96-32.03-9.55 3.35 61.55 27.49z" fill="#444"/>
          <path d="m3455.5 2864.6 57.94-20.76-61.55-27.49-57.81 20.33 61.42 27.92z" fill="#444"/>
          <path d="m939.44 2336.3 100.54 840.48 9.2-2.77-98.618-830.51-11.121-7.2z" fill="#78776c"/>
          <path d="m2719.8 4279 144.38-72.55 3.23-60.6-145.23 71.88-2.38 61.27z" fill="#5d5d5d"/>
          <path d="m2886.6 4195.2 64.97-32.65 65.01-1050.4-71.34 26.41-3.71 66.97 38.43-14.56-4.92 83.46-38.16 14.85-3.18 57.23 37.98-15.05-4.79 81.32-37.72 15.33-7.17 129.21 37.29-15.76-4.61 78.17-37.03 16.02-6.9 124.24 36.63-16.42-4.44 75.21-36.37 16.64-6.64 119.55 35.99-17-4.27 72.4-35.75 17.21-2 36.11 35.63-17.32-4.18 70.86-35.39 17.52-3.36 60.5z" fill="#5d5d5d"/>
          <path d="m2951.6 4162.5 85.63-43.02 4.2-59.79-56.39 27.91 4.57-70.53 56.75-27.58 2.5-35.66-56.93 27.42 4.67-72.05 57.3-27.07 8.29-118.01-57.9 26.5 4.84-74.81 58.29-26.13 8.61-122.54-58.92 25.49 5.04-77.74 59.31-25.08 8.95-127.35-59.97 24.38 5.24-80.84 60.37-23.93 3.96-56.36-60.66 23.6 5.37-82.95 61.09-23.12 4.62-65.92-93.82 34.73-65.01 1050.4z" fill="#5d5d5d"/>
          <path d="m3059.3 4108.4 131.23-65.95 5.02-59.03-131.93 65.3-4.32 59.68z" fill="#5d5d5d"/>
          <path d="m3395 3975.1 0.81-0.33 3.35-8.19-3.03-2.29-1.13 10.81z" fill="#fff"/>
          <path d="m3360.8 4001.7 1.62 11.01 1.35 0.99 28.18-14.38 0.54-0.28 2.51-23.97 1.13-10.81-0.8-0.6-10.4 2.07-11.12 8.8-8.84 13.19-4.17 13.98z" fill="#5d5d5d"/>
          <path d="m3394.6 4001.1-2.7-1.78-28.18 14.38 5.6 4.1 10.39-2.16 11.05-8.8 3.84-5.74z" fill="#353550"/>
          <path d="m3391.9 3999.4 2.7 1.78 4.93-7.34 4.17-13.9-1.54-11.02-3.05-2.29-3.35 8.19-0.81 0.33-2.51 23.97-0.54 0.28z" fill="#929292"/>
          <path d="m2874.3 4239.2 39.05-716.7-13.03 5.44-2.09 39.38-0.68 12.71-1.91 35.86-1.6 30.02-6.63 124.49-0.61 11.4-1.84 34.5-1.58 29.68-6.38 119.78-0.55 10.18-1.77 33.2-1.56 29.36-1.93 36.17-0.5 9.52-1.74 32.5-1.55 29.17-3.23 60.6-1.48 27.76 11.61 4.98z" fill="#616161"/>
          <path d="m2946.6 3113.9-11.15 4.1-21.37 392.1 2.32-0.97-0.67 12.35-2.33 0.97-39.05 716.7 10.09-5.12 2.16-38.86 3.36-60.5 1.61-29.12 1.8-32.44 0.53-9.5 2-36.11 1.63-29.3 1.84-33.15 0.56-10.16 6.64-119.55 1.64-29.63 1.91-34.42 0.63-11.38 6.9-124.24 1.66-29.96 1.99-35.79 0.7-12.68 7.17-129.21 1.68-30.29 2.07-37.24 0.78-14.07 3.18-57.23 1.69-30.5 2.12-38.22 0.84-15.03 3.71-66.97 1.36-24.58z" fill="#3c3c3c"/>
          <path d="m2925.6 3107.5-3.13 6.53 13.02 3.99 11.15-4.1-6.13-6.49-14.91 0.07z" fill="#2c2c2c"/>
          <path d="m3188.2 4069.5 11.52 4.57 60.05-696.39-13.21 5.52-3.25 38.16-1.04 12.32-2.96 34.76-2.47 29.11-10.28 120.79-0.94 11.07-2.84 33.5-2.46 28.83-9.9 116.41-0.84 9.9-2.74 32.29-2.43 28.57-2.99 35.19-0.79 9.27-2.69 31.64-2.42 28.4-5.02 59.03-2.3 27.06z" fill="#616161"/>
          <path d="m3199.7 4074.1 9.27-4.7 3.3-37.87 5.13-58.93 2.48-28.35 2.75-31.58 0.8-9.25 3.06-35.13 2.48-28.51 2.81-32.23 0.87-9.88 10.12-116.18 2.5-28.78 2.92-33.43 0.96-11.04 10.5-120.54 2.53-29.04 3.02-34.7 1.07-12.28 3.32-38.08-9.84 4.11-60.05 696.39z" fill="#3c3c3c"/>
          <path d="m3303.6 2982.8-10.16 3.73-32.69 379.16 9.85-4.1 1.15-13.17 5.39-61.95 2.56-29.31 3.14-36.03 1.18-13.62 4.82-55.35 2.57-29.49 3.22-36.93 1.27-14.53 5.63-64.68 2.07-23.73z" fill="#3c3c3c"/>
          <path d="m3282.8 2977-2.21 5.95 12.89 3.63 10.16-3.73-6.63-5.91-14.21 0.06z" fill="#2c2c2c"/>
          <path d="m2445.9 4416.6 66.77-33.55 19.35-1081.9-74.15 27.53-11.97 1087.9z" fill="#5d5d5d"/>
          <path d="m2735.8 3584.3-12.43-8.45-92.95 38.54 8.9 10.08 96.48-40.17z" fill="#2c2c2c"/>
          <path d="m2723.3 3575.9 12.43 8.45 15.07-398.58-13.06-4.18-1.25 34.16-2.5 68.26-0.56 15.33-1.43 38.94-1.13 31.09-2.14 58.3-0.52 14.33-1.39 37.92-1.13 30.84-2.39 65.14z" fill="#616161"/>
          <path d="m2735.3 3596.9 0.48-12.55-96.48 40.17-0.37 12.65 83.46-34.88 12.91-5.39z" fill="#3c3c3c"/>
          <path d="m2746.5 3592.2 0.49-12.54-11.28 4.7-0.48 12.55 11.27-4.71z" fill="#3c3c3c"/>
          <path d="m2459.1 3221.8-57.61-36.07-12.54 4.41 67.26 42.3 87.56-31.49-9.8-5.99-74.87 26.84z" fill="#444"/>
          <path d="m2401.5 3185.7 57.61 36.07 74.87-26.84-58-35.43-74.48 26.2z" fill="#444"/>
          <path d="m2445.9 4416.6-51.17-45.12-11.18 5.52 59.74 52.88 78.08-39.34-8.7-7.49-66.77 33.55z" fill="#444"/>
          <path d="m2394.8 4371.5 51.17 45.12 11.97-1087.9-2.76 1.02-54.28-35.26-6.01 1061.8-0.09 15.23z" fill="#929292"/>
          <path d="m1046.2 3229.2-6.27-52.34-9.21 2.78 7.35 61.06 15.6-4.8-7.47-6.7z" fill="#5d5d5d"/>
          <path d="m1040 3176.8 6.27 52.34 7.47 6.7 1329.6 1191.3 0.23-50.16 11.18-5.52-1354.8-1194.6z" fill="#929292"/>
          <path d="m1014.7 3154.6 25.25 22.27-100.54-840.48-10.035 2.13-15.195-9.87 99.939 821.21 0.58 4.74z" fill="#929292"/>
          <path d="m1040 3176.8-25.25-22.27-0.58-4.74-12.76 3.8 29.38 25.99 9.21-2.78z" fill="#444"/>
          <path d="m930.87 2264.7 8.57 71.65 11.121 7.2 19.715 12.75 45.373 29.35 14.14 9.15 20.05 12.98 48.32 31.26 14.85 9.61 20.41 13.2 51.51 33.32 15.63 10.12 20.77 13.43 54.96 35.56 16.48 10.66 21.14 13.68 58.72 38 17.39 11.25 21.52 13.92 103.12 66.71 67.3 43.55 19.45 12.58 94.52 61.15 20.62 13.35 22.74 14.7 77.57 50.19 21.91 14.18 23.16 14.98 83.49 54.02 23.32 15.08 23.58 15.26 90.03 58.24 24.86 16.09 24.02 15.54 123.82 80.11 24.47 15.83 105.27 68.11 3.77 2.44 0.38-83.78 12.54-4.41-1470.6-921.01z" fill="#929292"/>
          <path d="m939.44 2336.3-8.57-71.65-10.105 2.06 8.64 71.72 10.035-2.13z" fill="#5d5d5d"/>
          <path d="m964.28 2236-59.859 12.11 26.453 16.57 60.195-12.31-26.789-16.37z" fill="#444"/>
          <path d="m904.42 2248.1 59.859-12.11-4.422-2.7-69.843 14.1 30.754 19.34 10.105-2.06-26.453-16.57z" fill="#444"/>
          <path d="m1812.6 2084.4-30.74-13.73-50.21 10.16 30.52 13.88 50.43-10.31z" fill="#444"/>
          <path d="m1781.8 2070.6 30.74 13.73 8.34-1.72-35.85-15.95-58.48 11.81 5.04 2.29 50.21-10.16z" fill="#444"/>
          <path d="m3455.5 2864.6-8.8 88.25 10.27 4.83 8.9-88.36-10.37-4.72z" fill="#929292"/>
          <path d="m3446.7 2952.8-145.17 53.73-5.63 64.68 115.46-43.71-7.78 80.02-114.74 44.64-4.82 55.35 114.23-45.27-7.59 78.07-113.52 46.16-5.39 61.95 73.91-30.64 9.06 8.79-1.12 11.85-84.04 35.12-3.32 38.08 112.38-47.52-7.31 75.22-111.69 48.32-10.5 120.54 110.59-49.57-7.06 72.52-109.91 50.3-10.12 116.18 108.84-51.44-6.8 69.95-108.2 52.11-3.06 35.13 107.88-52.44-6.67 68.54-107.24 53.08-5.13 58.93 133.52-67.09 100.94-1011.6z" fill="#5d5d5d"/>
          <path d="m3277.8 3015.4-143.29 53.04-4.76 65.76 142.54-53.97 5.51-64.83z" fill="#5d5d5d"/>
          <path d="m2920.6 3147.6-159.08 58.88-2.65 68.11 158.15-59.88 3.58-67.11z" fill="#5d5d5d"/>
          <path d="m2736.5 3215.7-194.38 71.95-0.18 9.79-9.89 3.68-19.35 1081.9 184.45-92.68 2.25-61.38-152.39 75.43 1.55-72.93 153.48-74.61 1.34-36.65-154.03 74.18 1.59-74.59 155.14-73.31 4.45-121.44-156.98 71.84 1.65-77.63 158.14-70.88 4.62-126.32-160.04 69.24 1.71-80.85 161.25-68.18 1.47-39.99-83.46 34.88-9.1-2.29-5.26-14.02 5.83-6.42 92.95-38.54 2.39-65.14-163.23 66.37 1.79-84.27 164.48-65.19 2.14-58.3-165.36 64.34 1.84-86.61 166.64-63.09 2.5-68.26z" fill="#5d5d5d"/>
          <path d="m2542.1 3287.7 194.38-71.95 1.25-34.16 3.65-6.85 15.26-0.07 5.85 6.81-0.97 25 159.08-58.88 1.79-33.58 3.13-6.53 14.91-0.07 6.13 6.49-1.36 24.58 71.34-26.41 93.82-34.73 2.32-32.96 2.63-6.22 14.55-0.07 6.4 6.18-1.75 24.14 143.29-53.04 2.76-32.42 2.21-5.95 14.21-0.06 6.63 5.91-2.07 23.73 145.17-53.73 8.8-88.25-921.58 330.33 9.8 5.99-1.63 86.77z" fill="#5d5d5d"/>
          <path d="m3398.9 3937.8-53.07 26.67 9.16 6.05 61.87-31.18-16.97-10.98-0.99 9.44z" fill="#444"/>
          <path d="m3345.8 3964.4 53.07-26.67 0.99-9.44 103.5-987.85-46.35 17.21-10.27-4.83-100.94 1011.6z" fill="#5d5d5d"/>
          <path d="m3345.8 3964.4-6.15 61.6-9.19 4.69 17.26 11.62 7.24-71.86-9.16-6.05z" fill="#929292"/>
          <path d="m3339.6 4026 6.15-61.6-133.52 67.09-3.3 37.87-9.27 4.7-11.52-4.57 2.3-27.06-131.23 65.95-2.78 38.34-9.65 4.9-11.57-4.77 1.93-27.38-85.63 43.02-64.97 32.65-2.16 38.86-10.09 5.12-11.61-4.98 1.48-27.76-144.38 72.55-1.53 39.35-10.53 5.34-11.64-5.2 1.03-28.1-184.45 92.68 8.7 7.49-1.01 53.66 810.06-413.46 9.19-4.69z" fill="#5d5d5d"/>
          <path d="m2914.1 3510.1-12.32-8.19-154.18 63.93-0.54 13.8 167.04-69.54z" fill="#2c2c2c"/>
          <path d="m2901.8 3501.9 12.32 8.19 21.37-392.1-13.02-3.99-1.79 33.58-3.58 67.11-0.8 15.08-2.04 38.3-1.63 30.57-3.06 57.36-0.75 14.1-1.98 37.32-1.62 30.36-3.42 64.12z" fill="#616161"/>
          <path d="m2913.4 3522.4 0.68-12.35-167.04 69.54-0.49 12.54 153.82-64.29 13.03-5.44z" fill="#3c3c3c"/>
          <path d="m2914.1 3510.1-0.68 12.35 2.33-0.97 0.67-12.35-2.32 0.97z" fill="#3c3c3c"/>
          <path d="m3259.8 3377.7 1.03-11.96-152.36 63.44-0.88 12.13 139-58.09 13.21-5.52z" fill="#3c3c3c"/>
          <path d="m3248.7 3358 12.1 7.69 32.69-379.16-12.89-3.63-2.76 32.42-5.51 64.83-1.24 14.57-3.15 37.02-2.51 29.55-4.72 55.48-1.16 13.65-3.07 36.11-2.5 29.38-5.28 62.09z" fill="#616161"/>
          <path d="m3260.8 3365.7-12.1-7.69-139.3 57.76-0.96 13.37 152.36-63.44z" fill="#2c2c2c"/>
          <path d="m3270.6 3361.6-1.04 11.95 84.04-35.12 1.12-11.85-84.12 35.02z" fill="#3c3c3c"/>
          <path d="m3269.6 3373.6 1.04-11.95-9.85 4.1-1.03 11.96 9.84-4.11z" fill="#3c3c3c"/>
          <path d="m3399.9 3928.3 16.97 10.98" fill="none" stroke="#000" stroke-miterlimit="10" stroke-width="10"/>
          <path d="m3391.9 3999.4 2.7 1.78" fill="none" stroke="#000" stroke-miterlimit="10" stroke-width="5"/>
          <path d="m3409.2 4010.8 7.62-71.49" fill="none" stroke="#000" stroke-miterlimit="10" stroke-width="10"/>
          <path d="m3409.2 4010.8-61.49 31.55" fill="none" stroke="#000" stroke-miterlimit="10" stroke-width="10"/>
          <path d="m3355 3970.5-7.24 71.86" fill="none" stroke="#000" stroke-miterlimit="10" stroke-width="5"/>
          <path d="m3416.8 3939.3-61.87 31.18" fill="none" stroke="#000" stroke-miterlimit="10" stroke-width="5"/>
          <path d="m3345.8 3964.4 9.16 6.05" fill="none" stroke="#000" stroke-miterlimit="10" stroke-width="5"/>
          <path d="m3347.7 4042.3-17.26-11.62" fill="none" stroke="#000" stroke-miterlimit="10" stroke-width="10"/>
          <path d="m3403.7 3979.9-4.17 13.9" fill="none" stroke="#000" stroke-miterlimit="10" stroke-width="10"/>
          <path d="m3390.8 4006.9-11.05 8.8" fill="none" stroke="#000" stroke-miterlimit="10" stroke-width="10"/>
          <path d="m3379.7 4015.7-10.39 2.16" fill="none" stroke="#000" stroke-miterlimit="10" stroke-width="10"/>
          <path d="m3362.4 4012.8-1.62-11.01" fill="none" stroke="#000" stroke-miterlimit="10" stroke-width="10"/>
          <path d="m3360.8 4001.7 4.17-13.98" fill="none" stroke="#000" stroke-miterlimit="10" stroke-width="10"/>
          <path d="m3364.9 3987.8 8.84-13.19" fill="none" stroke="#000" stroke-miterlimit="10" stroke-width="10"/>
          <path d="m3373.8 3974.6 11.12-8.8" fill="none" stroke="#000" stroke-miterlimit="10" stroke-width="10"/>
          <path d="m3384.9 3965.8 10.4-2.07" fill="none" stroke="#000" stroke-miterlimit="10" stroke-width="10"/>
          <path d="m3402.2 3968.9 1.54 11.02" fill="none" stroke="#000" stroke-miterlimit="10" stroke-width="10"/>
          <path d="m3395.8 3974.8-0.81 0.33" fill="none" stroke="#000" stroke-miterlimit="10" stroke-width="10"/>
          <path d="m3399.1 3966.6-3.35 8.19" fill="none" stroke="#000" stroke-miterlimit="10" stroke-width="10"/>
          <path d="m3345.8 3964.4-133.52 67.09" fill="none" stroke="#000" stroke-miterlimit="10" stroke-width="5"/>
          <path d="m3190.5 4042.5-131.23 65.95" fill="none" stroke="#000" stroke-miterlimit="10" stroke-width="5"/>
          <path d="m3037.2 4119.5-85.63 43.02" fill="none" stroke="#000" stroke-miterlimit="10" stroke-width="5"/>
          <path d="m2951.6 4162.5-64.97 32.65" fill="none" stroke="#000" stroke-miterlimit="10" stroke-width="5"/>
          <path d="m2864.2 4206.4-144.38 72.55" fill="none" stroke="#000" stroke-miterlimit="10" stroke-width="5"/>
          <path d="m2697.2 4290.4-184.45 92.68" fill="none" stroke="#000" stroke-miterlimit="10" stroke-width="5"/>
          <path d="m3110.4 3077.3-93.82 34.73" fill="none" stroke="#000" stroke-miterlimit="10" stroke-width="5"/>
          <path d="m3016.6 3112.1-71.34 26.41" fill="none" stroke="#000" stroke-miterlimit="10" stroke-width="5"/>
          <path d="m1040 3176.8-100.56-840.5" fill="none" stroke="#000" stroke-miterlimit="10" stroke-width="5"/>
          <path d="m3016.6 3112.1-65.01 1050.4" fill="none" stroke="#000" stroke-miterlimit="10" stroke-width="5"/>
          <path d="m2512.7 4383 19.35-1081.9" fill="none" stroke="#000" stroke-miterlimit="10" stroke-width="5"/>
          <path d="m3345.8 3964.4 100.9-1011.6" fill="none" stroke="#000" stroke-miterlimit="10" stroke-width="5"/>
          <path d="m3513.5 2843.8-57.94 20.76" fill="none" stroke="#000" stroke-miterlimit="10" stroke-width="5"/>
          <path d="m3455.5 2864.6-921.58 330.33" fill="none" stroke="#000" stroke-miterlimit="10" stroke-width="5"/>
          <path d="m2401.5 3185.7-1470.6-921" fill="none" stroke="#000" stroke-miterlimit="10" stroke-width="5"/>
          <path d="m3461.5 2813 71.96 32.03" fill="none" stroke="#000" stroke-miterlimit="10" stroke-width="10"/>
          <path d="m3524.1 2932.8 9.35-87.74" fill="none" stroke="#000" stroke-miterlimit="10" stroke-width="10"/>
          <path d="m3394.1 2836.7 57.81-20.33" fill="none" stroke="#000" stroke-miterlimit="10" stroke-width="10"/>
          <path d="m3451.9 2816.4 9.55-3.35" fill="none" stroke="#000" stroke-miterlimit="10" stroke-width="10"/>
          <path d="m3465.9 2869.3-8.9 88.36" fill="none" stroke="#000" stroke-miterlimit="10" stroke-width="5"/>
          <path d="m3533.4 2845-67.53 24.29" fill="none" stroke="#000" stroke-miterlimit="10" stroke-width="5"/>
          <path d="m3457 2957.7-10.27-4.83" fill="none" stroke="#000" stroke-miterlimit="10" stroke-width="10"/>
          <path d="m3518.6 2892.8-4.73 16.42" fill="none" stroke="#000" stroke-miterlimit="10" stroke-width="10"/>
          <path d="m3504.2 2923.5-12.1 8.39" fill="none" stroke="#000" stroke-miterlimit="10" stroke-width="10"/>
          <path d="m3492.1 2931.9-11.29 0.24" fill="none" stroke="#000" stroke-miterlimit="10" stroke-width="10"/>
          <path d="m3480.8 2932.1-7.46-8.03" fill="none" stroke="#000" stroke-miterlimit="10" stroke-width="10"/>
          <path d="m3473.3 2924.1-1.59-14.19" fill="none" stroke="#000" stroke-miterlimit="10" stroke-width="10"/>
          <path d="m3471.7 2909.9 4.72-16.54" fill="none" stroke="#000" stroke-miterlimit="10" stroke-width="10"/>
          <path d="m3476.5 2893.4 9.79-14.41" fill="none" stroke="#000" stroke-miterlimit="10" stroke-width="10"/>
          <path d="m3486.2 2879 12.19-8.39" fill="none" stroke="#000" stroke-miterlimit="10" stroke-width="10"/>
          <path d="m3498.4 2870.6 11.29-0.11" fill="none" stroke="#000" stroke-miterlimit="10" stroke-width="10"/>
          <path d="m3517.1 2878.6 1.5 14.18" fill="none" stroke="#000" stroke-miterlimit="10" stroke-width="10"/>
          <path d="m3509.2 2893.3-0.93 0.62" fill="none" stroke="#000" stroke-miterlimit="10" stroke-width="10"/>
          <path d="m3512.3 2873.3 0.91 8.73" fill="none" stroke="#000" stroke-miterlimit="10" stroke-width="10"/>
          <path d="m3513.2 2882-4.06 11.24" fill="none" stroke="#000" stroke-miterlimit="10" stroke-width="10"/>
          <path d="m2445.9 4416.6 11.97-1087.9" fill="none" stroke="#000" stroke-miterlimit="10" stroke-width="5"/>
          <path d="m3107.6 3441.3 0.88-12.13" fill="none" stroke="#000" stroke-miterlimit="10" stroke-width="10"/>
          <path d="m3353.6 3338.5 1.12-11.85" fill="none" stroke="#000" stroke-miterlimit="10" stroke-width="10"/>
          <path d="m3354.8 3326.6-9.06-8.79" fill="none" stroke="#000" stroke-miterlimit="10" stroke-width="10"/>
          <path d="m1040 3176.8 1354.8 1194.7" fill="none" stroke="#000" stroke-miterlimit="10" stroke-width="5"/>
          <path d="m959.86 2233.3 4.422 2.7" fill="none" stroke="#000" stroke-miterlimit="10" stroke-width="10"/>
          <path d="m964.28 2236 26.789 16.37" fill="none" stroke="#000" stroke-miterlimit="10" stroke-width="10"/>
          <path d="m890.01 2247.4 69.843-14.1" fill="none" stroke="#000" stroke-miterlimit="10" stroke-width="10"/>
          <path d="m890.01 2247.4 8.746 71.14" fill="none" stroke="#000" stroke-miterlimit="10" stroke-width="10"/>
          <path d="m939.44 2336.3-10.035 2.13" fill="none" stroke="#000" stroke-miterlimit="10" stroke-width="10"/>
          <path d="m920.77 2266.8 8.64 71.72" fill="none" stroke="#000" stroke-miterlimit="10" stroke-width="5"/>
          <path d="m991.07 2252.4-60.195 12.31" fill="none" stroke="#000" stroke-miterlimit="10" stroke-width="5"/>
          <path d="m930.87 2264.7-10.105 2.06" fill="none" stroke="#000" stroke-miterlimit="10" stroke-width="5"/>
          <path d="m890.01 2247.4 30.754 19.34" fill="none" stroke="#000" stroke-miterlimit="10" stroke-width="5"/>
          <path d="m916.05 2287.5 2.418 10.98" fill="none" stroke="#000" stroke-miterlimit="10" stroke-width="10"/>
          <path d="m911.91 2278 4.133 9.54" fill="none" stroke="#000" stroke-miterlimit="10" stroke-width="10"/>
          <path d="m900.86 2277.8 2.286-5.44" fill="none" stroke="#000" stroke-miterlimit="10" stroke-width="10"/>
          <path d="m903.34 2298.2-2.41-10.91" fill="none" stroke="#000" stroke-miterlimit="10" stroke-width="10"/>
          <path d="m912.15 2313.2-4.703-5.54" fill="none" stroke="#000" stroke-miterlimit="10" stroke-width="10"/>
          <path d="m907.45 2307.7-4.105-9.5" fill="none" stroke="#000" stroke-miterlimit="10" stroke-width="10"/>
          <path d="m918.46 2298.5 0.055 9.45" fill="none" stroke="#000" stroke-miterlimit="10" stroke-width="10"/>
          <path d="m918.52 2307.9-2.313 5.39" fill="none" stroke="#000" stroke-miterlimit="10" stroke-width="10"/>
          <path d="m900.93 2287.3-0.079-9.44" fill="none" stroke="#000" stroke-miterlimit="10" stroke-width="10"/>
          <path d="m905.03 2280.9 1.141-8.49" fill="none" stroke="#000" stroke-miterlimit="10" stroke-width="10"/>
          <path d="m909.84 2292.6-0.043-0.03" fill="none" stroke="#000" stroke-miterlimit="10" stroke-width="10"/>
          <path d="m909.79 2292.6-4.766-11.68" fill="none" stroke="#000" stroke-miterlimit="10" stroke-width="10"/>
          <path d="m2512.7 4383 8.7 7.49" fill="none" stroke="#000" stroke-miterlimit="10" stroke-width="10"/>
          <path d="m2383.6 4377 11.18-5.52" fill="none" stroke="#000" stroke-miterlimit="10" stroke-width="10"/>
          <path d="m2400.6 4444.7 1.55-0.79" fill="none" stroke="#000" stroke-miterlimit="10" stroke-width="5"/>
          <path d="m2520 4467.1-77.46 39.76" fill="none" stroke="#000" stroke-miterlimit="10" stroke-width="10"/>
          <path d="m2443.3 4429.9-0.83 77.03" fill="none" stroke="#000" stroke-miterlimit="10" stroke-width="5"/>
          <path d="m2521.4 4390.5-78.08 39.34" fill="none" stroke="#000" stroke-miterlimit="10" stroke-width="5"/>
          <path d="m2383.6 4377 59.74 52.88" fill="none" stroke="#000" stroke-miterlimit="10" stroke-width="5"/>
          <path d="m2442.5 4506.9-59.26-53.44" fill="none" stroke="#000" stroke-miterlimit="10" stroke-width="10"/>
          <path d="m2509 4434.9-3.83 15.17" fill="none" stroke="#000" stroke-miterlimit="10" stroke-width="10"/>
          <path d="m2495.1 4464.9-13.53 10.46" fill="none" stroke="#000" stroke-miterlimit="10" stroke-width="10"/>
          <path d="m2481.6 4475.3-13.48 3.35" fill="none" stroke="#000" stroke-miterlimit="10" stroke-width="10"/>
          <path d="m2458.3 4474-3.49-11.52" fill="none" stroke="#000" stroke-miterlimit="10" stroke-width="10"/>
          <path d="m2454.8 4462.5 3.82-15.27" fill="none" stroke="#000" stroke-miterlimit="10" stroke-width="10"/>
          <path d="m2458.6 4447.2 10.1-14.89" fill="none" stroke="#000" stroke-miterlimit="10" stroke-width="10"/>
          <path d="m2468.7 4432.3 13.65-10.48" fill="none" stroke="#000" stroke-miterlimit="10" stroke-width="10"/>
          <path d="m2482.4 4421.8 13.5-3.25" fill="none" stroke="#000" stroke-miterlimit="10" stroke-width="10"/>
          <path d="m2495.9 4418.6 9.72 4.81" fill="none" stroke="#000" stroke-miterlimit="10" stroke-width="10"/>
          <path d="m2505.6 4423.4 3.37 11.53" fill="none" stroke="#000" stroke-miterlimit="10" stroke-width="10"/>
          <path d="m2413.1 4419.8 8.51 10.53" fill="none" stroke="#000" stroke-miterlimit="10" stroke-width="10"/>
          <path d="m2427.8 4444 2.19 13.04" fill="none" stroke="#000" stroke-miterlimit="10" stroke-width="10"/>
          <path d="m2421.6 4430.4 6.19 13.63" fill="none" stroke="#000" stroke-miterlimit="10" stroke-width="10"/>
          <path d="m2398.4 4417.7 6.24-2.52" fill="none" stroke="#000" stroke-miterlimit="10" stroke-width="10"/>
          <path d="m2398.2 4439.6-2.19-12.94" fill="none" stroke="#000" stroke-miterlimit="10" stroke-width="10"/>
          <path d="m2412.8 4463.6-8.44-10.52" fill="none" stroke="#000" stroke-miterlimit="10" stroke-width="10"/>
          <path d="m2430 4457-2.4 8.91" fill="none" stroke="#000" stroke-miterlimit="10" stroke-width="10"/>
          <path d="m2421.3 4468.3-8.51-4.7" fill="none" stroke="#000" stroke-miterlimit="10" stroke-width="10"/>
          <path d="m2396 4426.7 2.33-8.93" fill="none" stroke="#000" stroke-miterlimit="10" stroke-width="10"/>
          <path d="m2404.6 4415.2 8.52 4.61" fill="none" stroke="#000" stroke-miterlimit="10" stroke-width="10"/>
          <path d="m1001.4 3153.6 12.76-3.8" fill="none" stroke="#000" stroke-miterlimit="10" stroke-width="10"/>
          <path d="m1001.4 3153.6 7.46 60.66" fill="none" stroke="#000" stroke-miterlimit="10" stroke-width="10"/>
          <path d="m1019.4 3211.1 4.98-1.51" fill="none" stroke="#000" stroke-miterlimit="10" stroke-width="5"/>
          <path d="m1053.7 3235.9-15.6 4.8" fill="none" stroke="#000" stroke-miterlimit="10" stroke-width="10"/>
          <path d="m1030.8 3179.6 7.35 61.06" fill="none" stroke="#000" stroke-miterlimit="10" stroke-width="5"/>
          <path d="m1001.4 3153.6 29.38 25.99" fill="none" stroke="#000" stroke-miterlimit="10" stroke-width="5"/>
          <path d="m1038.1 3240.7-29.27-26.39" fill="none" stroke="#000" stroke-miterlimit="10" stroke-width="10"/>
          <path d="m1025.9 3194.8 2.18 9.72" fill="none" stroke="#000" stroke-miterlimit="10" stroke-width="10"/>
          <path d="m1022.1 3185.7 3.85 9.12" fill="none" stroke="#000" stroke-miterlimit="10" stroke-width="10"/>
          <path d="m1011.4 3181.9 2.28-3.64" fill="none" stroke="#000" stroke-miterlimit="10" stroke-width="10"/>
          <path d="m1013.6 3199.3-2.17-9.67" fill="none" stroke="#000" stroke-miterlimit="10" stroke-width="10"/>
          <path d="m1017.4 3208.3-3.83-9.07" fill="none" stroke="#000" stroke-miterlimit="10" stroke-width="10"/>
          <path d="m1028.1 3204.6-0.07 7.69" fill="none" stroke="#000" stroke-miterlimit="10" stroke-width="10"/>
          <path d="m1025.8 3215.8-3.91-1.44" fill="none" stroke="#000" stroke-miterlimit="10" stroke-width="10"/>
          <path d="m1011.4 3189.6 0.05-7.69" fill="none" stroke="#000" stroke-miterlimit="10" stroke-width="10"/>
          <path d="m1014.8 3181.1 0.34-2.31" fill="none" stroke="#000" stroke-miterlimit="10" stroke-width="10"/>
          <path d="m1019.1 3190.8-0.04-0.02" fill="none" stroke="#000" stroke-miterlimit="10" stroke-width="10"/>
          <path d="m1019.1 3190.8-4.26-9.65" fill="none" stroke="#000" stroke-miterlimit="10" stroke-width="10"/>
          <path d="m1785.1 2066.7 35.85 15.95" fill="none" stroke="#000" stroke-miterlimit="10" stroke-width="10"/>
          <path d="m1821.2 2088.2-0.24-5.55" fill="none" stroke="#000" stroke-miterlimit="10" stroke-width="10"/>
          <path d="m1726.6 2078.5 58.48-11.81" fill="none" stroke="#000" stroke-miterlimit="10" stroke-width="10"/>
          <path d="m1726.6 2078.5 0.17 3.27" fill="none" stroke="#000" stroke-miterlimit="10" stroke-width="10"/>
          <path d="m1820.9 2082.6-8.34 1.72" fill="none" stroke="#000" stroke-miterlimit="10" stroke-width="5"/>
          <path d="m1812.6 2084.4-50.43 10.31" fill="none" stroke="#000" stroke-miterlimit="10" stroke-width="5"/>
          <path d="m1726.6 2078.5 5.04 2.29" fill="none" stroke="#000" stroke-miterlimit="10" stroke-width="5"/>
          <path d="m1731.6 2080.8 30.52 13.88" fill="none" stroke="#000" stroke-miterlimit="10" stroke-width="5"/>
          <path d="m2503.2 4453-43 21.95" fill="none" stroke="#000" stroke-miterlimit="10" stroke-width="10"/>
          <path d="m2388.9 3190.1 12.54-4.41" fill="none" stroke="#000" stroke-miterlimit="10" stroke-width="10"/>
          <path d="m2401.5 3185.7 74.48-26.2" fill="none" stroke="#000" stroke-miterlimit="10" stroke-width="10"/>
          <path d="m2456.2 3232.4-1.05 97.3" fill="none" stroke="#000" stroke-miterlimit="10" stroke-width="5"/>
          <path d="m2543.8 3200.9-87.56 31.49" fill="none" stroke="#000" stroke-miterlimit="10" stroke-width="5"/>
          <path d="m2388.9 3190.1 67.26 42.3" fill="none" stroke="#000" stroke-miterlimit="10" stroke-width="5"/>
          <path d="m2529.7 3254.2-4.32 18.29" fill="none" stroke="#000" stroke-miterlimit="10" stroke-width="10"/>
          <path d="m2525.4 3272.5-11.24 16.34" fill="none" stroke="#000" stroke-miterlimit="10" stroke-width="10"/>
          <path d="m2514.2 3288.8-15.2 10.1" fill="none" stroke="#000" stroke-miterlimit="10" stroke-width="10"/>
          <path d="m2499 3298.9-15.11 1.1" fill="none" stroke="#000" stroke-miterlimit="10" stroke-width="10"/>
          <path d="m2483.9 3300-10.98-8.22" fill="none" stroke="#000" stroke-miterlimit="10" stroke-width="10"/>
          <path d="m2472.9 3291.8-3.88-15.39" fill="none" stroke="#000" stroke-miterlimit="10" stroke-width="10"/>
          <path d="m2469 3276.4 4.3-18.44" fill="none" stroke="#000" stroke-miterlimit="10" stroke-width="10"/>
          <path d="m2473.3 3258 11.35-16.49" fill="none" stroke="#000" stroke-miterlimit="10" stroke-width="10"/>
          <path d="m2484.7 3241.5 15.31-10.06" fill="none" stroke="#000" stroke-miterlimit="10" stroke-width="10"/>
          <path d="m2500 3231.4 15.13-0.95" fill="none" stroke="#000" stroke-miterlimit="10" stroke-width="10"/>
          <path d="m2515.1 3230.5 10.86 8.36" fill="none" stroke="#000" stroke-miterlimit="10" stroke-width="10"/>
          <path d="m2526 3238.8 3.75 15.39" fill="none" stroke="#000" stroke-miterlimit="10" stroke-width="10"/>
          <path d="m2422.2 3232 9.57 9.81" fill="none" stroke="#000" stroke-miterlimit="10" stroke-width="10"/>
          <path d="m2438.7 3256.5 2.45 15.53" fill="none" stroke="#000" stroke-miterlimit="10" stroke-width="10"/>
          <path d="m2431.7 3241.8 6.96 14.65" fill="none" stroke="#000" stroke-miterlimit="10" stroke-width="10"/>
          <path d="m2405.5 3235.4 7.04-5.71" fill="none" stroke="#000" stroke-miterlimit="10" stroke-width="10"/>
          <path d="m2405.4 3262.9-2.46-15.39" fill="none" stroke="#000" stroke-miterlimit="10" stroke-width="10"/>
          <path d="m2421.8 3287.3-9.49-9.82" fill="none" stroke="#000" stroke-miterlimit="10" stroke-width="10"/>
          <path d="m2412.3 3277.5-6.88-14.53" fill="none" stroke="#000" stroke-miterlimit="10" stroke-width="10"/>
          <path d="m2441.2 3272-2.7 12.18" fill="none" stroke="#000" stroke-miterlimit="10" stroke-width="10"/>
          <path d="m2431.3 3289.8-9.58-2.48" fill="none" stroke="#000" stroke-miterlimit="10" stroke-width="10"/>
          <path d="m2438.4 3284.2-7.12 5.59" fill="none" stroke="#000" stroke-miterlimit="10" stroke-width="10"/>
          <path d="m2402.9 3247.6 2.62-12.17" fill="none" stroke="#000" stroke-miterlimit="10" stroke-width="10"/>
          <path d="m2412.6 3229.7 9.59 2.34" fill="none" stroke="#000" stroke-miterlimit="10" stroke-width="10"/>
          <path d="m2624.5 3620.8 5.26 14.02" fill="none" stroke="#000" stroke-miterlimit="10" stroke-width="10"/>
          <path d="m2638.9 3637.2 0.37-12.65" fill="none" stroke="#000" stroke-miterlimit="10" stroke-width="5"/>
          <path d="m2915.7 3521.5 0.67-12.35" fill="none" stroke="#000" stroke-miterlimit="10" stroke-width="10"/>
          <path d="m2630.4 3614.4-5.83 6.42" fill="none" stroke="#000" stroke-miterlimit="10" stroke-width="10"/>
          <path d="m2639.3 3624.5-8.9-10.08" fill="none" stroke="#000" stroke-miterlimit="10" stroke-width="5"/>
          <path d="m2629.8 3634.9 9.1 2.29" fill="none" stroke="#000" stroke-miterlimit="10" stroke-width="10"/>
          <path d="m1049.2 3174-9.2 2.77" fill="none" stroke="#000" stroke-miterlimit="10" stroke-width="5"/>
          <path d="m1065.9 3172.5 43.41 37.92" fill="none" stroke="#000" stroke-miterlimit="10" stroke-width="10"/>
          <path d="m1142 3239 46.06 40.25" fill="none" stroke="#000" stroke-miterlimit="10" stroke-width="10"/>
          <path d="m1221.6 3308.5 48.93 42.74" fill="none" stroke="#000" stroke-miterlimit="10" stroke-width="10"/>
          <path d="m1305.1 3381.4 52.01 45.44" fill="none" stroke="#000" stroke-miterlimit="10" stroke-width="10"/>
          <path d="m1392.6 3457.9 55.34 48.35" fill="none" stroke="#000" stroke-miterlimit="10" stroke-width="10"/>
          <path d="m1484.5 3538.2 58.95 51.5" fill="none" stroke="#000" stroke-miterlimit="10" stroke-width="10"/>
          <path d="m1581.2 3622.7 62.87 54.92" fill="none" stroke="#000" stroke-miterlimit="10" stroke-width="10"/>
          <path d="m1683 3711.6 67.13 58.65" fill="none" stroke="#000" stroke-miterlimit="10" stroke-width="10"/>
          <path d="m1790.4 3805.4 71.77 62.7" fill="none" stroke="#000" stroke-miterlimit="10" stroke-width="10"/>
          <path d="m1903.7 3904.4 76.83 67.12" fill="none" stroke="#000" stroke-miterlimit="10" stroke-width="10"/>
          <path d="m2023.6 4009.1 82.37 71.96" fill="none" stroke="#000" stroke-miterlimit="10" stroke-width="10"/>
          <path d="m2150.6 4120.1 88.45 77.27" fill="none" stroke="#000" stroke-miterlimit="10" stroke-width="10"/>
          <path d="m2285.3 4237.8 95.14 83.11" fill="none" stroke="#000" stroke-miterlimit="10" stroke-width="10"/>
          <path d="m1562.2 3624.7 19.02-2.06" fill="none" stroke="#000" stroke-miterlimit="10" stroke-width="10"/>
          <path d="m1374.4 3459.8 18.2-1.87" fill="none" stroke="#000" stroke-miterlimit="10" stroke-width="10"/>
          <path d="m1770.4 3807.7 19.92-2.29" fill="none" stroke="#000" stroke-miterlimit="10" stroke-width="10"/>
          <path d="m1287.2 3383.2 17.81-1.78" fill="none" stroke="#000" stroke-miterlimit="10" stroke-width="10"/>
          <path d="m2002.7 4011.7 20.91-2.56" fill="none" stroke="#000" stroke-miterlimit="10" stroke-width="10"/>
          <path d="m1883.3 3906.8 20.41-2.42" fill="none" stroke="#000" stroke-miterlimit="10" stroke-width="10"/>
          <path d="m1049.2 3174 16.75-1.54" fill="none" stroke="#000" stroke-miterlimit="10" stroke-width="10"/>
          <path d="m1204.2 3310.2 17.44-1.69" fill="none" stroke="#000" stroke-miterlimit="10" stroke-width="10"/>
          <path d="m1124.9 3240.6 17.09-1.62" fill="none" stroke="#000" stroke-miterlimit="10" stroke-width="10"/>
          <path d="m1663.6 3713.8 19.46-2.18" fill="none" stroke="#000" stroke-miterlimit="10" stroke-width="10"/>
          <path d="m1465.9 3540.2 18.61-1.96" fill="none" stroke="#000" stroke-miterlimit="10" stroke-width="10"/>
          <path d="m2129.1 4122.8 21.45-2.72" fill="none" stroke="#000" stroke-miterlimit="10" stroke-width="10"/>
          <path d="m2263.3 4240.6 22-2.88" fill="none" stroke="#000" stroke-miterlimit="10" stroke-width="10"/>
          <path d="m3399.5 3993.8-4.93 7.34" fill="none" stroke="#000" stroke-miterlimit="10" stroke-width="10"/>
          <path d="m3394.6 4001.1-3.84 5.74" fill="none" stroke="#000" stroke-miterlimit="10" stroke-width="10"/>
          <path d="m3369.3 4017.8-5.6-4.1" fill="none" stroke="#000" stroke-miterlimit="10" stroke-width="10"/>
          <path d="m3363.7 4013.7-1.35-0.99" fill="none" stroke="#000" stroke-miterlimit="10" stroke-width="10"/>
          <path d="m3395.3 3963.7 0.8 0.6" fill="none" stroke="#000" stroke-miterlimit="10" stroke-width="10"/>
          <path d="m3392.4 3999.1 2.51-23.97" fill="none" stroke="#000" stroke-miterlimit="10" stroke-width="10"/>
          <path d="m3395 3975.1 1.13-10.81" fill="none" stroke="#000" stroke-miterlimit="10" stroke-width="10"/>
          <path d="m3398.9 3937.8 0.99-9.44" fill="none" stroke="#000" stroke-miterlimit="10" stroke-width="10"/>
          <path d="m3399.9 3928.3 103.5-987.85" fill="none" stroke="#000" stroke-miterlimit="10" stroke-width="10"/>
          <path d="m3505.3 2921.8 2.93-27.93" fill="none" stroke="#000" stroke-miterlimit="10" stroke-width="10"/>
          <path d="m3508.2 2893.9 2.35-22.49" fill="none" stroke="#000" stroke-miterlimit="10" stroke-width="10"/>
          <path d="m907.41 2272.7 2.43 19.94" fill="none" stroke="#000" stroke-miterlimit="10" stroke-width="10"/>
          <path d="m909.84 2292.6 2.504 20.6" fill="none" stroke="#000" stroke-miterlimit="10" stroke-width="10"/>
          <path d="m914.21 2328.6 99.939 821.21" fill="none" stroke="#000" stroke-miterlimit="10" stroke-width="10"/>
          <path d="m1014.2 3149.8 0.58 4.74" fill="none" stroke="#000" stroke-miterlimit="10" stroke-width="10"/>
          <path d="m1017.8 3179.9 1.32 10.83" fill="none" stroke="#000" stroke-miterlimit="10" stroke-width="10"/>
          <path d="m1019.1 3190.8 1.93 15.84" fill="none" stroke="#000" stroke-miterlimit="10" stroke-width="10"/>
          <path d="m1821.2 2088.2-8.58-3.83" fill="none" stroke="#000" stroke-miterlimit="10" stroke-width="10"/>
          <path d="m3524.1 2932.8-20.73 7.7" fill="none" stroke="#000" stroke-miterlimit="10" stroke-width="10"/>
          <path d="m3503.4 2940.5-46.35 17.21" fill="none" stroke="#000" stroke-miterlimit="10" stroke-width="10"/>
          <path d="m3394.1 2836.7 61.42 27.92" fill="none" stroke="#000" stroke-miterlimit="10" stroke-width="5"/>
          <path d="m3455.5 2864.6 10.37 4.72" fill="none" stroke="#000" stroke-miterlimit="10" stroke-width="5"/>
          <path d="m3513.9 2909.2-8.57 12.63" fill="none" stroke="#000" stroke-miterlimit="10" stroke-width="10"/>
          <path d="m3505.3 2921.8-1.13 1.67" fill="none" stroke="#000" stroke-miterlimit="10" stroke-width="10"/>
          <path d="m3509.7 2870.5 0.86 0.95" fill="none" stroke="#000" stroke-miterlimit="10" stroke-width="10"/>
          <path d="m2394.8 4371.5 0.09-15.23" fill="none" stroke="#000" stroke-miterlimit="10" stroke-width="10"/>
          <path d="m2394.9 4356.2 6.01-1061.8" fill="none" stroke="#000" stroke-miterlimit="10" stroke-width="10"/>
          <path d="m1021.1 3206.6 3.29 2.94" fill="none" stroke="#000" stroke-miterlimit="10" stroke-width="10"/>
          <path d="m1024.4 3209.6 3.44 3.09" fill="none" stroke="#000" stroke-miterlimit="10" stroke-width="10"/>
          <path d="m1046.2 3229.2 7.47 6.7" fill="none" stroke="#000" stroke-miterlimit="10" stroke-width="10"/>
          <path d="m1053.7 3235.9 1329.7 1191.2" fill="none" stroke="#000" stroke-miterlimit="10" stroke-width="10"/>
          <path d="m2398.9 4441.1 3.21 2.88" fill="none" stroke="#000" stroke-miterlimit="10" stroke-width="10"/>
          <path d="m2402.1 4444 24.83 22.24" fill="none" stroke="#000" stroke-miterlimit="10" stroke-width="10"/>
          <path d="m950.56 2343.5-11.121-7.2" fill="none" stroke="#000" stroke-miterlimit="10" stroke-width="10"/>
          <path d="m929.41 2338.5-15.195-9.87" fill="none" stroke="#000" stroke-miterlimit="10" stroke-width="10"/>
          <path d="m914.21 2328.6-15.453-10.05" fill="none" stroke="#000" stroke-miterlimit="10" stroke-width="10"/>
          <path d="m907.19 2272.4 0.218 0.25" fill="none" stroke="#000" stroke-miterlimit="10" stroke-width="10"/>
          <path d="m907.41 2272.7 4.508 5.28" fill="none" stroke="#000" stroke-miterlimit="10" stroke-width="10"/>
          <path d="m916.21 2313.3-3.867-0.1" fill="none" stroke="#000" stroke-miterlimit="10" stroke-width="10"/>
          <path d="m912.34 2313.2h-0.188" fill="none" stroke="#000" stroke-miterlimit="10" stroke-width="10"/>
          <path d="m903.14 2272.4 3.027 0.03" fill="none" stroke="#000" stroke-miterlimit="10" stroke-width="10"/>
          <path d="m906.17 2272.4 1.02 0.01" fill="none" stroke="#000" stroke-miterlimit="10" stroke-width="10"/>
          <path d="m2520 4467.1 0.44-22.95" fill="none" stroke="#000" stroke-miterlimit="10" stroke-width="10"/>
          <path d="m2520.4 4444.2 1.01-53.66" fill="none" stroke="#000" stroke-miterlimit="10" stroke-width="10"/>
          <path d="m2383.6 4377-0.23 50.16" fill="none" stroke="#000" stroke-miterlimit="10" stroke-width="10"/>
          <path d="m2383.4 4427.1-0.12 26.31" fill="none" stroke="#000" stroke-miterlimit="10" stroke-width="10"/>
          <path d="m2505.1 4450.1-1.94 2.86" fill="none" stroke="#000" stroke-miterlimit="10" stroke-width="10"/>
          <path d="m2503.2 4453-8.08 11.92" fill="none" stroke="#000" stroke-miterlimit="10" stroke-width="10"/>
          <path d="m2468.1 4478.7-7.91-3.78" fill="none" stroke="#000" stroke-miterlimit="10" stroke-width="10"/>
          <path d="m2460.2 4474.9-1.9-0.91" fill="none" stroke="#000" stroke-miterlimit="10" stroke-width="10"/>
          <path d="m2398.9 4441.1-0.67-1.47" fill="none" stroke="#000" stroke-miterlimit="10" stroke-width="10"/>
          <path d="m2427.6 4465.9-0.68 0.26" fill="none" stroke="#000" stroke-miterlimit="10" stroke-width="10"/>
          <path d="m2427 4466.2-5.63 2.15" fill="none" stroke="#000" stroke-miterlimit="10" stroke-width="10"/>
          <path d="m1040 3176.8-9.21 2.78" fill="none" stroke="#000" stroke-miterlimit="10" stroke-width="5"/>
          <path d="m1017.6 3179.7 0.21 0.28" fill="none" stroke="#000" stroke-miterlimit="10" stroke-width="10"/>
          <path d="m1017.8 3179.9 4.27 5.78" fill="none" stroke="#000" stroke-miterlimit="10" stroke-width="10"/>
          <path d="m1021.8 3214.4-2.46-3.35" fill="none" stroke="#000" stroke-miterlimit="10" stroke-width="10"/>
          <path d="m1019.4 3211.1-2-2.72" fill="none" stroke="#000" stroke-miterlimit="10" stroke-width="10"/>
          <path d="m1028 3212.2-0.25 0.39" fill="none" stroke="#000" stroke-miterlimit="10" stroke-width="10"/>
          <path d="m1027.8 3212.6-2.05 3.21" fill="none" stroke="#000" stroke-miterlimit="10" stroke-width="10"/>
          <path d="m1013.7 3178.3 1.47 0.52" fill="none" stroke="#000" stroke-miterlimit="10" stroke-width="10"/>
          <path d="m1015.2 3178.8 2.43 0.87" fill="none" stroke="#000" stroke-miterlimit="10" stroke-width="10"/>
          <path d="m3392.4 3999.1-0.54 0.28" fill="none" stroke="#000" stroke-miterlimit="10" stroke-width="10"/>
          <path d="m3391.9 3999.4-28.18 14.38" fill="none" stroke="#000" stroke-miterlimit="10" stroke-width="10"/>
          <path d="m3339.6 4026-9.19 4.69" fill="none" stroke="#000" stroke-miterlimit="10" stroke-width="10"/>
          <path d="m3330.5 4030.7-810.1 413.5" fill="none" stroke="#000" stroke-miterlimit="10" stroke-width="10"/>
          <path d="m2476 3159.5 58 35.43" fill="none" stroke="#000" stroke-miterlimit="10" stroke-width="10"/>
          <path d="m2534 3194.9 9.8 5.99" fill="none" stroke="#000" stroke-miterlimit="10" stroke-width="10"/>
          <path d="m2542 3297.5 0.18-9.79" fill="none" stroke="#000" stroke-miterlimit="10" stroke-width="10"/>
          <path d="m2542.1 3287.7 1.63-86.77" fill="none" stroke="#000" stroke-miterlimit="10" stroke-width="10"/>
          <path d="m2388.9 3190.1-0.38 83.78" fill="none" stroke="#000" stroke-miterlimit="10" stroke-width="10"/>
          <path d="m2388.6 3273.9-0.06 12.52" fill="none" stroke="#000" stroke-miterlimit="10" stroke-width="10"/>
          <path d="m2542 3297.5-9.89 3.68" fill="none" stroke="#000" stroke-miterlimit="10" stroke-width="10"/>
          <path d="m2455.2 3329.7-54.28-35.26" fill="none" stroke="#000" stroke-miterlimit="10" stroke-width="10"/>
          <path d="m2400.9 3294.4-12.37-8.04" fill="none" stroke="#000" stroke-miterlimit="10" stroke-width="10"/>
          <path d="m3396.1 3964.3 3.03 2.29" fill="none" stroke="#000" stroke-miterlimit="10" stroke-width="10"/>
          <path d="m3399.1 3966.6 3.05 2.29" fill="none" stroke="#000" stroke-miterlimit="10" stroke-width="10"/>
          <path d="m3513.5 2843.8-61.55-27.49" fill="none" stroke="#000" stroke-miterlimit="10" stroke-width="10"/>
          <path d="m3451.9 2816.4-1630.7-728.2" fill="none" stroke="#000" stroke-miterlimit="10" stroke-width="10"/>
          <path d="m1731.6 2080.8-4.87 0.98" fill="none" stroke="#000" stroke-miterlimit="10" stroke-width="10"/>
          <path d="m1726.8 2081.8-762.52 154.2" fill="none" stroke="#000" stroke-miterlimit="10" stroke-width="10"/>
          <path d="m3510.6 2871.4 1.73 1.9" fill="none" stroke="#000" stroke-miterlimit="10" stroke-width="10"/>
          <path d="m3512.3 2873.3 4.79 5.29" fill="none" stroke="#000" stroke-miterlimit="10" stroke-width="10"/>
          <path d="m970.28 2356.3-19.715-12.75" fill="none" stroke="#000" stroke-miterlimit="10" stroke-width="10"/>
          <path d="m2404.4 4453.1-3.8-8.38" fill="none" stroke="#000" stroke-miterlimit="10" stroke-width="10"/>
          <path d="m2400.6 4444.7-1.66-3.67" fill="none" stroke="#000" stroke-miterlimit="10" stroke-width="10"/>
          <path d="m2532.1 3301.2-74.15 27.53" fill="none" stroke="#000" stroke-miterlimit="10" stroke-width="10"/>
          <path d="m2457.9 3328.7-2.76 1.02" fill="none" stroke="#000" stroke-miterlimit="10" stroke-width="10"/>
          <path d="m1601.4 2764.6-19.45-12.58" fill="none" stroke="#000" stroke-miterlimit="10" stroke-width="10"/>
          <path d="m1582 2752-67.3-43.55" fill="none" stroke="#000" stroke-miterlimit="10" stroke-width="10"/>
          <path d="m1514.7 2708.5-21.92-14.18" fill="none" stroke="#000" stroke-miterlimit="10" stroke-width="10"/>
          <path d="m1739.3 2853.8-22.74-14.7" fill="none" stroke="#000" stroke-miterlimit="10" stroke-width="10"/>
          <path d="m1716.6 2839.1-20.62-13.35" fill="none" stroke="#000" stroke-miterlimit="10" stroke-width="10"/>
          <path d="m1390 2627.9-17.39-11.25" fill="none" stroke="#000" stroke-miterlimit="10" stroke-width="10"/>
          <path d="m1816.9 2904-77.57-50.19" fill="none" stroke="#000" stroke-miterlimit="10" stroke-width="10"/>
          <path d="m1695.9 2825.8-72.2-46.71" fill="none" stroke="#000" stroke-miterlimit="10" stroke-width="10"/>
          <path d="m1623.7 2779.1-22.32-14.44" fill="none" stroke="#000" stroke-miterlimit="10" stroke-width="10"/>
          <path d="m1492.7 2694.3-18.38-11.89" fill="none" stroke="#000" stroke-miterlimit="10" stroke-width="10"/>
          <path d="m1372.6 2616.6-58.72-38" fill="none" stroke="#000" stroke-miterlimit="10" stroke-width="10"/>
          <path d="m1313.9 2578.6-21.14-13.68" fill="none" stroke="#000" stroke-miterlimit="10" stroke-width="10"/>
          <path d="m1292.8 2564.9-16.48-10.66" fill="none" stroke="#000" stroke-miterlimit="10" stroke-width="10"/>
          <path d="m1838.8 2918.2-21.91-14.18" fill="none" stroke="#000" stroke-miterlimit="10" stroke-width="10"/>
          <path d="m1474.4 2682.4-62.82-40.64" fill="none" stroke="#000" stroke-miterlimit="10" stroke-width="10"/>
          <path d="m1411.5 2641.8-21.52-13.92" fill="none" stroke="#000" stroke-miterlimit="10" stroke-width="10"/>
          <path d="m1276.3 2554.3-54.96-35.56" fill="none" stroke="#000" stroke-miterlimit="10" stroke-width="10"/>
          <path d="m1221.3 2518.7-20.77-13.43" fill="none" stroke="#000" stroke-miterlimit="10" stroke-width="10"/>
          <path d="m1015.6 2385.6-45.373-29.35" fill="none" stroke="#000" stroke-miterlimit="10" stroke-width="10"/>
          <path d="m2107.2 3091.9-24.86-16.09" fill="none" stroke="#000" stroke-miterlimit="10" stroke-width="10"/>
          <path d="m1029.8 2394.8-14.14-9.15" fill="none" stroke="#000" stroke-miterlimit="10" stroke-width="10"/>
          <path d="m2082.4 3075.8-90.03-58.24" fill="none" stroke="#000" stroke-miterlimit="10" stroke-width="10"/>
          <path d="m1992.3 3017.5-23.58-15.26" fill="none" stroke="#000" stroke-miterlimit="10" stroke-width="10"/>
          <path d="m1968.7 3002.3-23.32-15.08" fill="none" stroke="#000" stroke-miterlimit="10" stroke-width="10"/>
          <path d="m1200.6 2505.3-15.63-10.12" fill="none" stroke="#000" stroke-miterlimit="10" stroke-width="10"/>
          <path d="m2255 3187.5-26.57-17.19" fill="none" stroke="#000" stroke-miterlimit="10" stroke-width="10"/>
          <path d="m2228.5 3170.3-97.25-62.92" fill="none" stroke="#000" stroke-miterlimit="10" stroke-width="10"/>
          <path d="m2131.2 3107.4-24.02-15.54" fill="none" stroke="#000" stroke-miterlimit="10" stroke-width="10"/>
          <path d="m1945.4 2987.2-83.49-54.02" fill="none" stroke="#000" stroke-miterlimit="10" stroke-width="10"/>
          <path d="m1861.9 2933.2-23.16-14.98" fill="none" stroke="#000" stroke-miterlimit="10" stroke-width="10"/>
          <path d="m2388.6 3273.9-3.77-2.44" fill="none" stroke="#000" stroke-miterlimit="10" stroke-width="10"/>
          <path d="m1184.9 2495.2-51.51-33.32" fill="none" stroke="#000" stroke-miterlimit="10" stroke-width="10"/>
          <path d="m1133.4 2461.8-20.41-13.2" fill="none" stroke="#000" stroke-miterlimit="10" stroke-width="10"/>
          <path d="m1113 2448.6-14.85-9.61" fill="none" stroke="#000" stroke-miterlimit="10" stroke-width="10"/>
          <path d="m2384.8 3271.4-105.27-68.11" fill="none" stroke="#000" stroke-miterlimit="10" stroke-width="10"/>
          <path d="m2279.5 3203.3-24.47-15.83" fill="none" stroke="#000" stroke-miterlimit="10" stroke-width="10"/>
          <path d="m1098.2 2439-48.32-31.26" fill="none" stroke="#000" stroke-miterlimit="10" stroke-width="10"/>
          <path d="m1049.8 2407.8-20.05-12.98" fill="none" stroke="#000" stroke-miterlimit="10" stroke-width="10"/>
        </g>
      
    </g>
  </g>
</svg>
