<?xml version="1.0" encoding="UTF-8"?>
<!DOCTYPE svg  PUBLIC '-//W3C//DTD SVG 1.1//EN'  'http://www.w3.org/Graphics/SVG/1.1/DTD/svg11.dtd'>
<svg enable-background="new 0 0 1000 1000" version="1.1" viewBox="0 0 1e3 1e3" xml:space="preserve" xmlns="http://www.w3.org/2000/svg">
<g fill="none" stroke="#000" stroke-miterlimit="10">
	<line x1="50" x2="50" y1="500.04" y2="612.55"/>
	<line x1="162.66" x2="275.17" y1="950" y2="950"/>
	<line x1="275.17" x2="387.68" y1="950" y2="950"/>
	<line x1="837.71" x2="725.2" y1="50" y2="50"/>
	<line x1="950" x2="950" y1="950" y2="837.5"/>
	<line x1="50" x2="50" y1="837.5" y2="724.98"/>
	<line x1="50" x2="50" y1="612.55" y2="724.98"/>
	<line x1="725.2" x2="612.68" y1="50" y2="50"/>
	<line x1="612.68" x2="500.16" y1="50" y2="50"/>
	<line x1="50" x2="162.66" y1="950" y2="950"/>
	<line x1="950" x2="950" y1="500" y2="387.5"/>
	<line x1="950" x2="950" y1="725" y2="612.5"/>
	<line x1="950" x2="950" y1="612.5" y2="500"/>
	<line x1="387.68" x2="500.16" y1="950" y2="950"/>
	<line x1="950" x2="950" y1="837.5" y2="725"/>
	<line x1="950" x2="950" y1="387.5" y2="275.01"/>
	<line x1="725.13" x2="612.65" y1="950" y2="950"/>
	<line x1="500.16" x2="612.65" y1="950" y2="950"/>
	<line x1="950" x2="950" y1="162.51" y2="275.01"/>
	<line x1="950" x2="837.71" y1="50" y2="50"/>
	<line x1="837.61" x2="950" y1="950" y2="950"/>
	<line x1="275.13" x2="387.65" y1="50" y2="50"/>
	<line x1="50" x2="50" y1="50" y2="162.47"/>
	<line x1="50" x2="50" y1="162.47" y2="274.94"/>
	<line x1="837.61" x2="725.13" y1="950" y2="950"/>
	<line x1="950" x2="950" y1="50" y2="162.51"/>
	<line x1="162.61" x2="50" y1="50" y2="50"/>
	<line x1="50" x2="50" y1="950" y2="837.5"/>
	<line x1="500.16" x2="387.65" y1="50" y2="50"/>
	<line x1="50" x2="50" y1="274.94" y2="387.4"/>
	<line x1="50" x2="50" y1="387.4" y2="500.04"/>
	<line x1="162.61" x2="275.13" y1="50" y2="50"/>
	<line x1="95" x2="95" y1="398.57" y2="500.07"/>
	<line x1="95" x2="95" y1="702.45" y2="601.34"/>
	<line x1="601.53" x2="500.31" y1="905" y2="905"/>
	<line x1="196.47" x2="297.75" y1="95" y2="95"/>
	<line x1="95" x2="196.55" y1="905" y2="905"/>
	<line x1="95" x2="95" y1="95" y2="196.19"/>
	<line x1="297.75" x2="399.03" y1="95" y2="95"/>
	<line x1="803.97" x2="905" y1="905" y2="905"/>
	<line x1="95" x2="95" y1="297.38" y2="398.57"/>
	<line x1="905" x2="905" y1="297.52" y2="196.27"/>
	<line x1="297.82" x2="399.1" y1="905" y2="905"/>
	<line x1="95" x2="95" y1="500.07" y2="601.34"/>
	<line x1="399.1" x2="500.31" y1="905" y2="905"/>
	<line x1="196.55" x2="297.82" y1="905" y2="905"/>
	<line x1="803.97" x2="702.75" y1="905" y2="905"/>
	<line x1="601.59" x2="500.31" y1="95" y2="95"/>
	<line x1="905" x2="804.16" y1="95" y2="95"/>
	<line x1="702.88" x2="601.59" y1="95" y2="95"/>
	<line x1="804.16" x2="702.88" y1="95" y2="95"/>
	<line x1="95" x2="95" y1="702.45" y2="803.75"/>
	<line x1="905" x2="905" y1="297.52" y2="398.75"/>
	<line x1="95" x2="95" y1="196.19" y2="297.38"/>
	<line x1="399.03" x2="500.31" y1="95" y2="95"/>
	<line x1="905" x2="905" y1="95" y2="196.27"/>
	<line x1="905" x2="905" y1="905" y2="803.75"/>
	<line x1="95" x2="95" y1="905" y2="803.75"/>
	<line x1="905" x2="905" y1="500" y2="398.75"/>
	<line x1="905" x2="905" y1="702.5" y2="601.25"/>
	<line x1="702.75" x2="601.53" y1="905" y2="905"/>
	<line x1="905" x2="905" y1="601.25" y2="500"/>
	<line x1="196.47" x2="95" y1="95" y2="95"/>
	<line x1="905" x2="905" y1="803.75" y2="702.5"/>
	<line x1="864.5" x2="864.5" y1="408.88" y2="500"/>
	<line x1="226.94" x2="135.5" y1="135.5" y2="135.5"/>
	<line x1="773.69" x2="864.5" y1="864.5" y2="864.5"/>
	<line x1="135.5" x2="135.5" y1="135.5" y2="226.54"/>
	<line x1="135.5" x2="135.5" y1="408.61" y2="500.1"/>
	<line x1="682.79" x2="591.62" y1="135.5" y2="135.5"/>
	<line x1="500.45" x2="409.37" y1="864.5" y2="864.5"/>
	<line x1="500.45" x2="591.62" y1="135.5" y2="135.5"/>
	<line x1="864.5" x2="773.96" y1="135.5" y2="135.5"/>
	<line x1="864.5" x2="864.5" y1="591.12" y2="500"/>
	<line x1="864.5" x2="864.5" y1="682.25" y2="591.12"/>
	<line x1="318.21" x2="409.37" y1="864.5" y2="864.5"/>
	<line x1="135.5" x2="135.5" y1="591.26" y2="500.1"/>
	<line x1="227.05" x2="318.21" y1="864.5" y2="864.5"/>
	<line x1="135.5" x2="227.05" y1="864.5" y2="864.5"/>
	<line x1="135.5" x2="135.5" y1="226.54" y2="317.58"/>
	<line x1="773.69" x2="682.61" y1="864.5" y2="864.5"/>
	<line x1="773.96" x2="682.79" y1="135.5" y2="135.5"/>
	<line x1="864.5" x2="864.5" y1="135.5" y2="226.65"/>
	<line x1="135.5" x2="135.5" y1="682.18" y2="773.38"/>
	<line x1="135.5" x2="135.5" y1="864.5" y2="773.38"/>
	<line x1="864.5" x2="864.5" y1="317.77" y2="226.65"/>
	<line x1="135.5" x2="135.5" y1="591.26" y2="682.18"/>
	<line x1="682.61" x2="591.53" y1="864.5" y2="864.5"/>
	<line x1="864.5" x2="864.5" y1="408.88" y2="317.77"/>
	<line x1="591.53" x2="500.45" y1="864.5" y2="864.5"/>
	<line x1="864.5" x2="864.5" y1="773.38" y2="682.25"/>
	<line x1="226.94" x2="318.11" y1="135.5" y2="135.5"/>
	<line x1="409.28" x2="500.45" y1="135.5" y2="135.5"/>
	<line x1="135.5" x2="135.5" y1="317.58" y2="408.61"/>
	<line x1="318.11" x2="409.28" y1="135.5" y2="135.5"/>
	<line x1="864.5" x2="864.5" y1="864.5" y2="773.38"/>
	<line x1="171.95" x2="171.95" y1="417.66" y2="500.12"/>
	<line x1="828.05" x2="828.05" y1="828.05" y2="746.04"/>
	<line x1="582.52" x2="500.57" y1="828.05" y2="828.05"/>
	<line x1="828.05" x2="746.77" y1="171.95" y2="171.95"/>
	<line x1="500.57" x2="582.64" y1="171.95" y2="171.95"/>
	<line x1="171.95" x2="171.95" y1="171.95" y2="253.85"/>
	<line x1="171.95" x2="171.95" y1="500.12" y2="582.18"/>
	<line x1="582.64" x2="664.71" y1="171.95" y2="171.95"/>
	<line x1="664.48" x2="582.52" y1="828.05" y2="828.05"/>
	<line x1="746.77" x2="664.71" y1="171.95" y2="171.95"/>
	<line x1="828.05" x2="828.05" y1="417.99" y2="336"/>
	<line x1="828.05" x2="828.05" y1="500" y2="417.99"/>
	<line x1="171.95" x2="171.95" y1="582.18" y2="663.94"/>
	<line x1="336.43" x2="418.5" y1="171.95" y2="171.95"/>
	<line x1="828.05" x2="828.05" y1="336" y2="253.99"/>
	<line x1="418.5" x2="500.57" y1="171.95" y2="171.95"/>
	<line x1="171.95" x2="171.95" y1="253.85" y2="335.75"/>
	<line x1="171.95" x2="171.95" y1="663.94" y2="746.04"/>
	<line x1="828.05" x2="828.05" y1="746.04" y2="664.02"/>
	<line x1="828.05" x2="828.05" y1="664.02" y2="582.01"/>
	<line x1="500.57" x2="418.61" y1="828.05" y2="828.05"/>
	<line x1="171.95" x2="171.95" y1="335.75" y2="417.66"/>
	<line x1="171.95" x2="254.5" y1="828.05" y2="828.05"/>
	<line x1="254.5" x2="336.56" y1="828.05" y2="828.05"/>
	<line x1="254.36" x2="336.43" y1="171.95" y2="171.95"/>
	<line x1="254.36" x2="171.95" y1="171.95" y2="171.95"/>
	<line x1="828.05" x2="828.05" y1="171.95" y2="253.99"/>
	<line x1="418.61" x2="336.56" y1="828.05" y2="828.05"/>
	<line x1="828.05" x2="828.05" y1="500" y2="582.01"/>
	<line x1="746.43" x2="664.48" y1="828.05" y2="828.05"/>
	<line x1="171.95" x2="171.95" y1="828.05" y2="746.04"/>
	<line x1="746.43" x2="828.05" y1="828.05" y2="828.05"/>
	<line x1="204.76" x2="204.76" y1="574.01" y2="647.52"/>
	<line x1="204.76" x2="204.76" y1="500.15" y2="574.01"/>
	<line x1="204.76" x2="204.76" y1="647.52" y2="721.43"/>
	<line x1="204.76" x2="204.76" y1="352.11" y2="425.79"/>
	<line x1="204.76" x2="204.76" y1="425.79" y2="500.15"/>
	<line x1="795.24" x2="795.24" y1="721.43" y2="647.62"/>
	<line x1="721.9" x2="795.24" y1="795.24" y2="795.24"/>
	<line x1="795.24" x2="722.31" y1="204.76" y2="204.76"/>
	<line x1="648.43" x2="722.31" y1="204.76" y2="204.76"/>
	<line x1="204.76" x2="204.76" y1="278.43" y2="352.11"/>
	<line x1="648.16" x2="721.9" y1="795.24" y2="795.24"/>
	<line x1="352.91" x2="426.79" y1="204.76" y2="204.76"/>
	<line x1="500.68" x2="426.93" y1="795.24" y2="795.24"/>
	<line x1="795.24" x2="795.24" y1="795.24" y2="721.43"/>
	<line x1="500.67" x2="574.55" y1="204.76" y2="204.76"/>
	<line x1="648.16" x2="574.42" y1="795.24" y2="795.24"/>
	<line x1="204.76" x2="279.21" y1="795.24" y2="795.24"/>
	<line x1="795.24" x2="795.24" y1="500" y2="426.19"/>
	<line x1="795.24" x2="795.24" y1="426.19" y2="352.41"/>
	<line x1="279.04" x2="352.91" y1="204.76" y2="204.76"/>
	<line x1="795.24" x2="795.24" y1="352.41" y2="278.6"/>
	<line x1="353.07" x2="279.21" y1="795.24" y2="795.24"/>
	<line x1="426.79" x2="500.67" y1="204.76" y2="204.76"/>
	<line x1="204.76" x2="204.76" y1="795.24" y2="721.43"/>
	<line x1="204.76" x2="204.76" y1="204.76" y2="278.43"/>
	<line x1="795.24" x2="795.24" y1="573.81" y2="500"/>
	<line x1="795.24" x2="795.24" y1="647.62" y2="573.81"/>
	<line x1="574.55" x2="648.43" y1="204.76" y2="204.76"/>
	<line x1="426.93" x2="353.07" y1="795.24" y2="795.24"/>
	<line x1="574.42" x2="500.68" y1="795.24" y2="795.24"/>
	<line x1="795.24" x2="795.24" y1="204.76" y2="278.6"/>
	<line x1="279.04" x2="204.76" y1="204.76" y2="204.76"/>
	<line x1="765.72" x2="765.72" y1="367.18" y2="300.75"/>
	<line x1="234.28" x2="234.28" y1="566.66" y2="632.75"/>
	<line x1="765.72" x2="765.72" y1="433.57" y2="367.18"/>
	<line x1="633.79" x2="700.3" y1="234.28" y2="234.28"/>
	<line x1="301.25" x2="367.75" y1="234.28" y2="234.28"/>
	<line x1="234.28" x2="301.45" y1="765.72" y2="765.72"/>
	<line x1="234.28" x2="234.28" y1="699.29" y2="632.75"/>
	<polyline points="765.72 765.72 765.72 765.72 765.72 699.29"/>
	<line x1="500.77" x2="567.28" y1="234.28" y2="234.28"/>
	<line x1="234.28" x2="234.28" y1="366.84" y2="433.12"/>
	<line x1="367.75" x2="434.26" y1="234.28" y2="234.28"/>
	<line x1="765.72" x2="765.72" y1="500" y2="433.57"/>
	<line x1="434.26" x2="500.77" y1="234.28" y2="234.28"/>
	<line x1="699.83" x2="765.72" y1="765.72" y2="765.72"/>
	<line x1="301.25" x2="234.28" y1="234.28" y2="234.28"/>
	<line x1="700.3" x2="765.72" y1="234.28" y2="234.28"/>
	<line x1="367.93" x2="301.45" y1="765.72" y2="765.72"/>
	<line x1="567.12" x2="500.77" y1="765.72" y2="765.72"/>
	<line x1="567.12" x2="633.48" y1="765.72" y2="765.72"/>
	<line x1="567.28" x2="633.79" y1="234.28" y2="234.28"/>
	<line x1="234.28" x2="234.28" y1="500.17" y2="566.66"/>
	<line x1="500.77" x2="434.42" y1="765.72" y2="765.72"/>
	<line x1="765.72" x2="765.72" y1="632.86" y2="566.43"/>
	<line x1="234.28" x2="234.28" y1="433.12" y2="500.17"/>
	<line x1="765.72" x2="765.72" y1="234.28" y2="300.75"/>
	<line x1="434.42" x2="367.93" y1="765.72" y2="765.72"/>
	<polyline points="234.28 765.72 234.28 765.72 234.28 699.29"/>
	<line x1="765.72" x2="765.72" y1="566.43" y2="500"/>
	<line x1="234.28" x2="234.28" y1="234.28" y2="300.56"/>
	<line x1="765.72" x2="765.72" y1="699.29" y2="632.86"/>
	<line x1="234.28" x2="234.28" y1="300.56" y2="366.84"/>
	<line x1="699.83" x2="633.48" y1="765.72" y2="765.72"/>
	<line x1="441.16" x2="381.31" y1="739.15" y2="739.15"/>
	<line x1="321.46" x2="260.85" y1="739.15" y2="739.15"/>
	<line x1="739.15" x2="739.15" y1="260.85" y2="320.69"/>
	<line x1="260.85" x2="260.85" y1="320.47" y2="380.09"/>
	<line x1="739.15" x2="739.15" y1="500" y2="440.21"/>
	<line x1="679.96" x2="739.15" y1="739.15" y2="739.15"/>
	<line x1="620.26" x2="560.56" y1="739.15" y2="739.15"/>
	<line x1="680.48" x2="739.15" y1="260.85" y2="260.85"/>
	<line x1="560.73" x2="620.61" y1="260.85" y2="260.85"/>
	<line x1="739.15" x2="739.15" y1="559.79" y2="500"/>
	<line x1="500.86" x2="560.56" y1="739.15" y2="739.15"/>
	<line x1="260.85" x2="260.85" y1="619.45" y2="679.36"/>
	<line x1="381.31" x2="321.46" y1="739.15" y2="739.15"/>
	<line x1="321.24" x2="260.85" y1="260.85" y2="260.85"/>
	<line x1="260.85" x2="260.85" y1="260.85" y2="320.47"/>
	<line x1="679.96" x2="620.26" y1="739.15" y2="739.15"/>
	<line x1="440.98" x2="500.86" y1="260.85" y2="260.85"/>
	<line x1="739.15" x2="739.15" y1="440.21" y2="380.47"/>
	<line x1="739.15" x2="739.15" y1="739.15" y2="679.36"/>
	<line x1="321.24" x2="381.11" y1="260.85" y2="260.85"/>
	<line x1="260.85" x2="260.85" y1="739.15" y2="679.36"/>
	<line x1="260.85" x2="260.85" y1="500.19" y2="560.04"/>
	<line x1="739.15" x2="739.15" y1="679.36" y2="619.57"/>
	<line x1="500.86" x2="560.73" y1="260.85" y2="260.85"/>
	<line x1="500.86" x2="441.16" y1="739.15" y2="739.15"/>
	<line x1="381.11" x2="440.98" y1="260.85" y2="260.85"/>
	<line x1="739.15" x2="739.15" y1="380.47" y2="320.69"/>
	<line x1="260.85" x2="260.85" y1="439.71" y2="500.19"/>
	<line x1="739.15" x2="739.15" y1="619.57" y2="559.79"/>
	<line x1="620.61" x2="680.48" y1="260.85" y2="260.85"/>
	<line x1="260.85" x2="260.85" y1="560.04" y2="619.45"/>
	<line x1="260.85" x2="260.85" y1="380.09" y2="439.71"/>
	<polyline points="339.23 284.77 284.77 284.77 284.77 284.77"/>
	<line x1="339.47" x2="284.77" y1="715.23" y2="715.23"/>
	<line x1="608.37" x2="554.65" y1="715.23" y2="715.23"/>
	<line x1="715.23" x2="715.23" y1="284.77" y2="338.63"/>
	<line x1="715.23" x2="715.23" y1="392.43" y2="338.63"/>
	<line x1="715.23" x2="715.23" y1="446.19" y2="392.43"/>
	<line x1="662.08" x2="715.23" y1="715.23" y2="715.23"/>
	<line x1="608.37" x2="662.08" y1="715.23" y2="715.23"/>
	<line x1="284.77" x2="284.77" y1="607.48" y2="661.43"/>
	<line x1="284.77" x2="284.77" y1="715.23" y2="661.43"/>
	<polyline points="662.65 284.77 715.23 284.77 715.23 284.77"/>
	<line x1="715.23" x2="715.23" y1="715.23" y2="661.43"/>
	<line x1="284.77" x2="284.77" y1="392.02" y2="445.64"/>
	<line x1="554.65" x2="500.94" y1="715.23" y2="715.23"/>
	<line x1="284.77" x2="284.77" y1="500.21" y2="554.08"/>
	<line x1="447.23" x2="500.94" y1="715.23" y2="715.23"/>
	<line x1="447.03" x2="500.94" y1="284.77" y2="284.77"/>
	<line x1="715.23" x2="715.23" y1="661.43" y2="607.62"/>
	<line x1="608.74" x2="662.65" y1="284.77" y2="284.77"/>
	<line x1="715.23" x2="715.23" y1="607.62" y2="553.81"/>
	<line x1="447.23" x2="393.35" y1="715.23" y2="715.23"/>
	<line x1="284.77" x2="284.77" y1="445.64" y2="500.21"/>
	<line x1="715.23" x2="715.23" y1="553.81" y2="500"/>
	<line x1="284.77" x2="284.77" y1="284.77" y2="338.39"/>
	<line x1="284.77" x2="284.77" y1="338.39" y2="392.02"/>
	<line x1="554.84" x2="608.74" y1="284.77" y2="284.77"/>
	<line x1="500.94" x2="554.84" y1="284.77" y2="284.77"/>
	<line x1="393.13" x2="447.03" y1="284.77" y2="284.77"/>
	<line x1="339.23" x2="393.13" y1="284.77" y2="284.77"/>
	<line x1="715.23" x2="715.23" y1="500" y2="446.19"/>
	<line x1="284.77" x2="284.77" y1="554.08" y2="607.48"/>
	<line x1="393.35" x2="339.47" y1="715.23" y2="715.23"/>
	<line x1="306.29" x2="306.29" y1="306.29" y2="354.52"/>
	<line x1="646.6" x2="693.71" y1="306.29" y2="306.29"/>
	<line x1="693.71" x2="693.71" y1="403.19" y2="354.78"/>
	<line x1="693.71" x2="693.71" y1="451.57" y2="403.19"/>
	<line x1="693.71" x2="693.71" y1="306.29" y2="354.78"/>
	<line x1="549.54" x2="598.07" y1="306.29" y2="306.29"/>
	<line x1="306.29" x2="306.29" y1="450.98" y2="500.22"/>
	<line x1="501.01" x2="452.69" y1="693.71" y2="693.71"/>
	<polyline points="306.29 693.71 306.29 693.71 306.29 645.28"/>
	<line x1="355.42" x2="403.95" y1="306.29" y2="306.29"/>
	<line x1="693.71" x2="693.71" y1="596.86" y2="548.43"/>
	<line x1="693.71" x2="693.71" y1="548.43" y2="500"/>
	<line x1="404.18" x2="452.69" y1="693.71" y2="693.71"/>
	<line x1="355.68" x2="306.29" y1="693.71" y2="693.71"/>
	<line x1="306.29" x2="306.29" y1="596.71" y2="645.28"/>
	<line x1="693.71" x2="693.71" y1="500" y2="451.57"/>
	<line x1="404.18" x2="355.68" y1="693.71" y2="693.71"/>
	<line x1="598.07" x2="646.6" y1="306.29" y2="306.29"/>
	<line x1="645.99" x2="597.66" y1="693.71" y2="693.71"/>
	<line x1="403.95" x2="452.48" y1="306.29" y2="306.29"/>
	<polyline points="693.71 693.71 693.71 693.71 693.71 645.28"/>
	<line x1="306.29" x2="306.29" y1="402.75" y2="450.98"/>
	<line x1="501.01" x2="549.54" y1="306.29" y2="306.29"/>
	<line x1="306.29" x2="306.29" y1="548.72" y2="596.71"/>
	<line x1="645.99" x2="693.71" y1="693.71" y2="693.71"/>
	<line x1="306.29" x2="306.29" y1="354.52" y2="402.75"/>
	<line x1="693.71" x2="693.71" y1="645.28" y2="596.86"/>
	<line x1="355.42" x2="306.29" y1="306.29" y2="306.29"/>
	<line x1="306.29" x2="306.29" y1="500.22" y2="548.72"/>
	<line x1="452.48" x2="501.01" y1="306.29" y2="306.29"/>
	<line x1="549.34" x2="597.66" y1="693.71" y2="693.71"/>
	<line x1="549.34" x2="501.01" y1="693.71" y2="693.71"/>
	<line x1="457.38" x2="501.07" y1="325.66" y2="325.66"/>
	<line x1="325.66" x2="325.66" y1="369.04" y2="412.41"/>
	<line x1="501.07" x2="544.55" y1="674.34" y2="674.34"/>
	<line x1="325.66" x2="325.66" y1="587.01" y2="630.75"/>
	<line x1="674.34" x2="674.34" y1="630.75" y2="587.17"/>
	<line x1="501.07" x2="544.76" y1="325.66" y2="325.66"/>
	<line x1="674.34" x2="674.34" y1="674.34" y2="630.75"/>
	<line x1="674.34" x2="674.34" y1="500" y2="456.42"/>
	<line x1="325.66" x2="325.66" y1="412.41" y2="455.79"/>
	<line x1="674.34" x2="674.34" y1="587.17" y2="543.58"/>
	<line x1="588.03" x2="544.55" y1="674.34" y2="674.34"/>
	<line x1="501.07" x2="457.6" y1="674.34" y2="674.34"/>
	<line x1="325.66" x2="325.66" y1="455.79" y2="500.24"/>
	<line x1="325.66" x2="325.66" y1="500.24" y2="543.9"/>
	<line x1="674.34" x2="674.34" y1="543.58" y2="500"/>
	<line x1="588.46" x2="632.15" y1="325.66" y2="325.66"/>
	<line x1="674.34" x2="674.34" y1="412.88" y2="369.31"/>
	<line x1="674.34" x2="674.34" y1="325.66" y2="369.31"/>
	<line x1="674.34" x2="674.34" y1="456.42" y2="412.88"/>
	<line x1="457.6" x2="413.93" y1="674.34" y2="674.34"/>
	<line x1="370.27" x2="325.66" y1="674.34" y2="674.34"/>
	<line x1="325.66" x2="325.66" y1="674.34" y2="630.75"/>
	<line x1="370.27" x2="413.93" y1="674.34" y2="674.34"/>
	<line x1="325.66" x2="325.66" y1="543.9" y2="587.01"/>
	<line x1="632.15" x2="674.34" y1="325.66" y2="325.66"/>
	<line x1="631.5" x2="588.03" y1="674.34" y2="674.34"/>
	<line x1="631.5" x2="674.34" y1="674.34" y2="674.34"/>
	<line x1="544.76" x2="588.46" y1="325.66" y2="325.66"/>
	<line x1="369.99" x2="325.66" y1="325.66" y2="325.66"/>
	<line x1="369.99" x2="413.69" y1="325.66" y2="325.66"/>
	<line x1="325.66" x2="325.66" y1="325.66" y2="369.04"/>
	<line x1="413.69" x2="457.38" y1="325.66" y2="325.66"/>
	<line x1="540.47" x2="579.81" y1="343.09" y2="343.09"/>
	<line x1="656.91" x2="656.91" y1="343.09" y2="382.39"/>
	<line x1="656.91" x2="656.91" y1="421.6" y2="382.39"/>
	<line x1="656.91" x2="656.91" y1="460.77" y2="421.6"/>
	<polyline points="383.11 343.09 343.09 343.09 343.09 343.09"/>
	<line x1="656.91" x2="656.91" y1="578.45" y2="539.23"/>
	<line x1="462.02" x2="422.71" y1="656.91" y2="656.91"/>
	<line x1="656.91" x2="656.91" y1="617.68" y2="578.45"/>
	<line x1="422.45" x2="461.79" y1="343.09" y2="343.09"/>
	<line x1="656.91" x2="656.91" y1="500" y2="460.77"/>
	<line x1="343.09" x2="343.09" y1="343.09" y2="382.1"/>
	<line x1="383.11" x2="422.45" y1="343.09" y2="343.09"/>
	<line x1="343.09" x2="343.09" y1="460.11" y2="500.25"/>
	<line x1="343.09" x2="343.09" y1="578.29" y2="617.68"/>
	<line x1="656.91" x2="656.91" y1="656.91" y2="617.68"/>
	<line x1="461.79" x2="501.13" y1="343.09" y2="343.09"/>
	<line x1="579.36" x2="540.24" y1="656.91" y2="656.91"/>
	<line x1="343.09" x2="383.4" y1="656.91" y2="656.91"/>
	<polyline points="619.15 343.09 656.91 343.09 656.91 343.09"/>
	<line x1="343.09" x2="343.09" y1="539.56" y2="578.29"/>
	<line x1="422.71" x2="383.4" y1="656.91" y2="656.91"/>
	<line x1="501.13" x2="540.47" y1="343.09" y2="343.09"/>
	<line x1="618.47" x2="579.36" y1="656.91" y2="656.91"/>
	<line x1="343.09" x2="343.09" y1="382.1" y2="421.11"/>
	<line x1="656.91" x2="656.91" y1="539.23" y2="500"/>
	<line x1="343.09" x2="343.09" y1="421.11" y2="460.11"/>
	<line x1="462.02" x2="501.13" y1="656.91" y2="656.91"/>
	<line x1="618.47" x2="656.91" y1="656.91" y2="656.91"/>
	<line x1="579.81" x2="619.15" y1="343.09" y2="343.09"/>
	<line x1="540.24" x2="501.13" y1="656.91" y2="656.91"/>
	<line x1="343.09" x2="343.09" y1="500.25" y2="539.56"/>
	<line x1="343.09" x2="343.09" y1="656.91" y2="617.68"/>
	<line x1="641.21" x2="641.21" y1="641.21" y2="605.91"/>
	<line x1="606.74" x2="641.21" y1="641.21" y2="641.21"/>
	<line x1="641.21" x2="641.21" y1="464.7" y2="429.45"/>
	<line x1="465.76" x2="501.18" y1="358.79" y2="358.79"/>
	<line x1="394.91" x2="358.79" y1="358.79" y2="358.79"/>
	<line x1="641.21" x2="641.21" y1="358.79" y2="394.16"/>
	<line x1="641.21" x2="641.21" y1="605.91" y2="570.61"/>
	<line x1="358.79" x2="358.79" y1="428.93" y2="464"/>
	<line x1="358.79" x2="358.79" y1="464" y2="500.26"/>
	<line x1="394.91" x2="430.33" y1="358.79" y2="358.79"/>
	<line x1="430.61" x2="395.22" y1="641.21" y2="641.21"/>
	<line x1="641.21" x2="641.21" y1="500" y2="464.7"/>
	<line x1="358.79" x2="358.79" y1="393.86" y2="428.93"/>
	<line x1="607.45" x2="641.21" y1="358.79" y2="358.79"/>
	<line x1="571.55" x2="536.37" y1="641.21" y2="641.21"/>
	<line x1="572.03" x2="607.45" y1="358.79" y2="358.79"/>
	<line x1="606.74" x2="571.55" y1="641.21" y2="641.21"/>
	<line x1="395.22" x2="358.79" y1="641.21" y2="641.21"/>
	<line x1="641.21" x2="641.21" y1="570.61" y2="535.3"/>
	<line x1="430.33" x2="465.76" y1="358.79" y2="358.79"/>
	<line x1="358.79" x2="358.79" y1="535.65" y2="570.43"/>
	<line x1="536.37" x2="501.18" y1="641.21" y2="641.21"/>
	<line x1="536.6" x2="572.03" y1="358.79" y2="358.79"/>
	<line x1="501.18" x2="466" y1="641.21" y2="641.21"/>
	<line x1="358.79" x2="358.79" y1="358.79" y2="393.86"/>
	<line x1="641.21" x2="641.21" y1="429.45" y2="394.16"/>
	<line x1="358.79" x2="358.79" y1="641.21" y2="605.91"/>
	<line x1="641.21" x2="641.21" y1="535.3" y2="500"/>
	<line x1="501.18" x2="536.6" y1="358.79" y2="358.79"/>
	<line x1="358.79" x2="358.79" y1="500.26" y2="535.65"/>
	<line x1="358.79" x2="358.79" y1="570.43" y2="605.91"/>
	<line x1="430.61" x2="466" y1="641.21" y2="641.21"/>
	<line x1="627.09" x2="627.09" y1="372.91" y2="404.75"/>
	<line x1="627.09" x2="627.09" y1="531.77" y2="500"/>
	<line x1="596.18" x2="627.09" y1="627.09" y2="627.09"/>
	<line x1="627.09" x2="627.09" y1="404.75" y2="436.51"/>
	<line x1="372.91" x2="372.91" y1="435.97" y2="467.51"/>
	<line x1="627.09" x2="627.09" y1="500" y2="468.23"/>
	<line x1="372.91" x2="372.91" y1="563.37" y2="595.32"/>
	<line x1="469.58" x2="437.72" y1="627.09" y2="627.09"/>
	<line x1="627.09" x2="627.09" y1="627.09" y2="595.32"/>
	<line x1="437.43" x2="469.33" y1="372.91" y2="372.91"/>
	<line x1="564.53" x2="532.88" y1="627.09" y2="627.09"/>
	<line x1="501.23" x2="533.12" y1="372.91" y2="372.91"/>
	<line x1="627.09" x2="627.09" y1="468.23" y2="436.51"/>
	<line x1="596.18" x2="564.53" y1="627.09" y2="627.09"/>
	<line x1="405.85" x2="372.91" y1="627.09" y2="627.09"/>
	<line x1="372.91" x2="372.91" y1="500.27" y2="532.13"/>
	<line x1="372.91" x2="372.91" y1="467.51" y2="500.27"/>
	<line x1="372.91" x2="372.91" y1="595.32" y2="627.09"/>
	<line x1="469.33" x2="501.23" y1="372.91" y2="372.91"/>
	<line x1="627.09" x2="627.09" y1="595.32" y2="563.55"/>
	<line x1="533.12" x2="565.02" y1="372.91" y2="372.91"/>
	<line x1="372.91" x2="372.91" y1="532.13" y2="563.37"/>
	<line x1="532.88" x2="501.23" y1="627.09" y2="627.09"/>
	<line x1="501.23" x2="469.58" y1="627.09" y2="627.09"/>
	<line x1="372.91" x2="372.91" y1="372.91" y2="404.44"/>
	<line x1="627.09" x2="627.09" y1="563.55" y2="531.77"/>
	<line x1="565.02" x2="596.92" y1="372.91" y2="372.91"/>
	<polyline points="596.92 372.91 627.09 372.91 627.09 372.91"/>
	<line x1="405.53" x2="437.43" y1="372.91" y2="372.91"/>
	<polyline points="405.53 372.91 372.91 372.91 372.91 372.91"/>
	<line x1="372.91" x2="372.91" y1="404.44" y2="435.97"/>
	<line x1="405.85" x2="437.72" y1="627.09" y2="627.09"/>
	<line x1="501.27" x2="529.99" y1="385.62" y2="385.62"/>
	<line x1="529.74" x2="501.27" y1="614.38" y2="614.38"/>
	<line x1="614.38" x2="614.38" y1="471.4" y2="442.87"/>
	<line x1="586.67" x2="558.21" y1="614.38" y2="614.38"/>
	<line x1="385.62" x2="385.62" y1="442.31" y2="470.66"/>
	<line x1="614.38" x2="614.38" y1="414.28" y2="442.87"/>
	<line x1="586.67" x2="614.38" y1="614.38" y2="614.38"/>
	<line x1="614.38" x2="614.38" y1="500" y2="471.4"/>
	<line x1="558.72" x2="587.44" y1="385.62" y2="385.62"/>
	<line x1="385.62" x2="415.43" y1="614.38" y2="614.38"/>
	<line x1="385.62" x2="385.62" y1="614.38" y2="585.79"/>
	<line x1="614.38" x2="614.38" y1="557.19" y2="528.6"/>
	<line x1="385.62" x2="385.62" y1="413.96" y2="442.31"/>
	<line x1="385.62" x2="385.62" y1="500.28" y2="528.97"/>
	<line x1="444.12" x2="415.43" y1="614.38" y2="614.38"/>
	<line x1="472.8" x2="444.12" y1="614.38" y2="614.38"/>
	<line x1="614.38" x2="614.38" y1="614.38" y2="585.79"/>
	<line x1="385.62" x2="385.62" y1="385.62" y2="413.96"/>
	<line x1="472.54" x2="501.27" y1="385.62" y2="385.62"/>
	<line x1="415.1" x2="385.62" y1="385.62" y2="385.62"/>
	<line x1="614.38" x2="614.38" y1="528.6" y2="500"/>
	<line x1="587.44" x2="614.38" y1="385.62" y2="385.62"/>
	<line x1="385.62" x2="385.62" y1="470.66" y2="500.28"/>
	<line x1="558.21" x2="529.74" y1="614.38" y2="614.38"/>
	<line x1="529.99" x2="558.72" y1="385.62" y2="385.62"/>
	<line x1="501.27" x2="472.8" y1="614.38" y2="614.38"/>
	<line x1="385.62" x2="385.62" y1="557.01" y2="585.79"/>
	<line x1="415.1" x2="443.82" y1="385.62" y2="385.62"/>
	<line x1="614.38" x2="614.38" y1="585.79" y2="557.19"/>
	<line x1="614.38" x2="614.38" y1="385.62" y2="414.28"/>
	<line x1="443.82" x2="472.54" y1="385.62" y2="385.62"/>
	<line x1="385.62" x2="385.62" y1="528.97" y2="557.01"/>
	<line x1="449.87" x2="424.04" y1="602.95" y2="602.95"/>
	<line x1="475.71" x2="449.87" y1="602.95" y2="602.95"/>
	<line x1="397.05" x2="397.05" y1="577.21" y2="602.95"/>
	<line x1="602.95" x2="602.95" y1="551.47" y2="525.74"/>
	<line x1="397.05" x2="397.05" y1="526.12" y2="551.28"/>
	<line x1="527.17" x2="553.04" y1="397.05" y2="397.05"/>
	<line x1="578.91" x2="602.95" y1="397.05" y2="397.05"/>
	<line x1="397.05" x2="397.05" y1="397.05" y2="422.54"/>
	<line x1="397.05" x2="397.05" y1="473.5" y2="500.29"/>
	<line x1="501.31" x2="475.71" y1="602.95" y2="602.95"/>
	<line x1="553.04" x2="578.91" y1="397.05" y2="397.05"/>
	<line x1="602.95" x2="602.95" y1="577.21" y2="551.47"/>
	<line x1="397.05" x2="397.05" y1="500.29" y2="526.12"/>
	<line x1="526.91" x2="501.31" y1="602.95" y2="602.95"/>
	<line x1="423.7" x2="449.57" y1="397.05" y2="397.05"/>
	<line x1="501.31" x2="527.17" y1="397.05" y2="397.05"/>
	<line x1="602.95" x2="602.95" y1="500" y2="474.26"/>
	<line x1="602.95" x2="602.95" y1="422.87" y2="448.59"/>
	<line x1="602.95" x2="602.95" y1="397.05" y2="422.87"/>
	<line x1="602.95" x2="602.95" y1="474.26" y2="448.59"/>
	<line x1="397.05" x2="397.05" y1="448.02" y2="473.5"/>
	<line x1="602.95" x2="602.95" y1="525.74" y2="500"/>
	<line x1="552.52" x2="526.91" y1="602.95" y2="602.95"/>
	<line x1="449.57" x2="475.44" y1="397.05" y2="397.05"/>
	<line x1="602.95" x2="602.95" y1="602.95" y2="577.21"/>
	<line x1="475.44" x2="501.31" y1="397.05" y2="397.05"/>
	<line x1="397.05" x2="397.05" y1="551.28" y2="577.21"/>
	<line x1="397.05" x2="424.04" y1="602.95" y2="602.95"/>
	<line x1="397.05" x2="397.05" y1="422.54" y2="448.02"/>
	<line x1="578.12" x2="602.95" y1="602.95" y2="602.95"/>
	<line x1="578.12" x2="552.52" y1="602.95" y2="602.95"/>
	<line x1="423.7" x2="397.05" y1="397.05" y2="397.05"/>
	<line x1="524.37" x2="501.34" y1="592.65" y2="592.65"/>
	<line x1="478.04" x2="501.34" y1="407.35" y2="407.35"/>
	<line x1="592.65" x2="592.65" y1="430.59" y2="453.74"/>
	<line x1="547.4" x2="524.37" y1="592.65" y2="592.65"/>
	<line x1="407.35" x2="431.79" y1="592.65" y2="592.65"/>
	<line x1="407.35" x2="407.35" y1="476.05" y2="500.3"/>
	<line x1="592.65" x2="592.65" y1="500" y2="476.84"/>
	<line x1="547.4" x2="570.42" y1="592.65" y2="592.65"/>
	<line x1="407.35" x2="407.35" y1="592.65" y2="569.49"/>
	<line x1="592.65" x2="592.65" y1="592.65" y2="569.49"/>
	<line x1="592.65" x2="592.65" y1="476.84" y2="453.74"/>
	<line x1="431.45" x2="407.35" y1="407.35" y2="407.35"/>
	<line x1="592.65" x2="592.65" y1="546.33" y2="523.16"/>
	<line x1="407.35" x2="407.35" y1="453.15" y2="476.05"/>
	<line x1="570.42" x2="592.65" y1="592.65" y2="592.65"/>
	<line x1="478.32" x2="455.06" y1="592.65" y2="592.65"/>
	<line x1="592.65" x2="592.65" y1="569.49" y2="546.33"/>
	<line x1="524.64" x2="547.94" y1="407.35" y2="407.35"/>
	<line x1="547.94" x2="571.24" y1="407.35" y2="407.35"/>
	<line x1="592.65" x2="592.65" y1="407.35" y2="430.59"/>
	<line x1="501.34" x2="478.32" y1="592.65" y2="592.65"/>
	<line x1="454.74" x2="478.04" y1="407.35" y2="407.35"/>
	<line x1="407.35" x2="407.35" y1="407.35" y2="430.25"/>
	<line x1="571.24" x2="592.65" y1="407.35" y2="407.35"/>
	<line x1="455.06" x2="431.79" y1="592.65" y2="592.65"/>
	<line x1="431.45" x2="454.74" y1="407.35" y2="407.35"/>
	<line x1="407.35" x2="407.35" y1="500.3" y2="523.56"/>
	<line x1="407.35" x2="407.35" y1="430.25" y2="453.15"/>
	<line x1="501.34" x2="524.64" y1="407.35" y2="407.35"/>
	<line x1="407.35" x2="407.35" y1="546.13" y2="569.49"/>
	<line x1="592.65" x2="592.65" y1="523.16" y2="500"/>
	<line x1="407.35" x2="407.35" y1="523.56" y2="546.13"/>
	<line x1="501.37" x2="480.67" y1="583.39" y2="583.39"/>
	<line x1="583.39" x2="583.39" y1="479.15" y2="458.37"/>
	<line x1="501.37" x2="522.36" y1="416.61" y2="416.61"/>
	<line x1="563.5" x2="542.79" y1="583.39" y2="583.39"/>
	<line x1="522.08" x2="542.79" y1="583.39" y2="583.39"/>
	<line x1="416.61" x2="416.61" y1="521.25" y2="541.49"/>
	<line x1="583.39" x2="583.39" y1="520.85" y2="500"/>
	<line x1="438.42" x2="416.61" y1="416.61" y2="416.61"/>
	<line x1="416.61" x2="416.61" y1="457.77" y2="478.35"/>
	<line x1="522.36" x2="543.34" y1="416.61" y2="416.61"/>
	<line x1="583.39" x2="583.39" y1="562.54" y2="541.69"/>
	<line x1="480.39" x2="501.37" y1="416.61" y2="416.61"/>
	<line x1="438.42" x2="459.4" y1="416.61" y2="416.61"/>
	<line x1="416.61" x2="416.61" y1="416.61" y2="437.19"/>
	<line x1="416.61" x2="416.61" y1="500.3" y2="521.25"/>
	<polyline points="416.61 562.54 416.61 583.39 416.61 583.39"/>
	<line x1="459.4" x2="480.39" y1="416.61" y2="416.61"/>
	<line x1="416.61" x2="416.61" y1="437.19" y2="457.77"/>
	<line x1="543.34" x2="564.33" y1="416.61" y2="416.61"/>
	<line x1="459.72" x2="438.77" y1="583.39" y2="583.39"/>
	<line x1="564.33" x2="583.39" y1="416.61" y2="416.61"/>
	<line x1="583.39" x2="583.39" y1="416.61" y2="437.54"/>
	<line x1="583.39" x2="583.39" y1="437.54" y2="458.37"/>
	<line x1="416.61" x2="438.77" y1="583.39" y2="583.39"/>
	<line x1="416.61" x2="416.61" y1="478.35" y2="500.3"/>
	<line x1="583.39" x2="583.39" y1="500" y2="479.15"/>
	<polyline points="583.39 583.39 583.39 583.39 583.39 562.54"/>
	<line x1="480.67" x2="459.72" y1="583.39" y2="583.39"/>
	<line x1="583.39" x2="583.39" y1="541.69" y2="520.85"/>
	<line x1="563.5" x2="583.39" y1="583.39" y2="583.39"/>
	<line x1="522.08" x2="501.37" y1="583.39" y2="583.39"/>
	<line x1="416.61" x2="416.61" y1="541.49" y2="562.54"/>
	<line x1="575.05" x2="575.05" y1="481.24" y2="462.54"/>
	<line x1="424.95" x2="424.95" y1="519.17" y2="537.32"/>
	<line x1="575.05" x2="575.05" y1="500" y2="481.24"/>
	<line x1="424.95" x2="424.95" y1="424.95" y2="443.44"/>
	<line x1="424.95" x2="424.95" y1="480.42" y2="500.31"/>
	<line x1="575.05" x2="575.05" y1="443.79" y2="462.54"/>
	<line x1="482.49" x2="501.4" y1="424.95" y2="424.95"/>
	<polyline points="558.11 424.95 575.05 424.95 575.05 424.95"/>
	<line x1="575.05" x2="575.05" y1="424.95" y2="443.79"/>
	<line x1="424.95" x2="445.05" y1="575.05" y2="575.05"/>
	<line x1="424.95" x2="424.95" y1="443.44" y2="461.93"/>
	<line x1="424.95" x2="424.95" y1="575.05" y2="556.29"/>
	<line x1="444.69" x2="463.59" y1="424.95" y2="424.95"/>
	<line x1="482.78" x2="463.92" y1="575.05" y2="575.05"/>
	<line x1="575.05" x2="575.05" y1="537.52" y2="518.76"/>
	<line x1="501.4" x2="520.02" y1="575.05" y2="575.05"/>
	<line x1="539.2" x2="558.11" y1="424.95" y2="424.95"/>
	<line x1="424.95" x2="424.95" y1="500.31" y2="519.17"/>
	<line x1="463.92" x2="445.05" y1="575.05" y2="575.05"/>
	<line x1="424.95" x2="424.95" y1="537.32" y2="556.29"/>
	<line x1="463.59" x2="482.49" y1="424.95" y2="424.95"/>
	<line x1="538.64" x2="520.02" y1="575.05" y2="575.05"/>
	<line x1="575.05" x2="575.05" y1="518.76" y2="500"/>
	<polyline points="444.69 424.95 424.95 424.95 424.95 424.95"/>
	<line x1="575.05" x2="575.05" y1="556.29" y2="537.52"/>
	<line x1="424.95" x2="424.95" y1="461.93" y2="480.42"/>
	<line x1="501.4" x2="520.3" y1="424.95" y2="424.95"/>
	<line x1="520.3" x2="539.2" y1="424.95" y2="424.95"/>
	<line x1="501.4" x2="482.78" y1="575.05" y2="575.05"/>
	<line x1="538.64" x2="557.26" y1="575.05" y2="575.05"/>
	<line x1="575.05" x2="575.05" y1="575.05" y2="556.29"/>
	<line x1="557.26" x2="575.05" y1="575.05" y2="575.05"/>
	<line x1="432.46" x2="432.46" y1="432.46" y2="449.06"/>
	<line x1="567.54" x2="567.54" y1="432.46" y2="449.42"/>
	<line x1="501.42" x2="518.45" y1="432.46" y2="432.46"/>
	<line x1="450.33" x2="432.46" y1="432.46" y2="432.46"/>
	<line x1="567.54" x2="567.54" y1="516.89" y2="500"/>
	<line x1="450.33" x2="467.36" y1="432.46" y2="432.46"/>
	<line x1="467.36" x2="484.39" y1="432.46" y2="432.46"/>
	<line x1="432.46" x2="432.46" y1="482.28" y2="500.31"/>
	<line x1="518.45" x2="535.48" y1="432.46" y2="432.46"/>
	<line x1="484.69" x2="467.7" y1="567.54" y2="567.54"/>
	<line x1="567.54" x2="567.54" y1="550.66" y2="533.77"/>
	<line x1="432.46" x2="432.46" y1="500.31" y2="517.3"/>
	<line x1="484.69" x2="501.43" y1="567.54" y2="567.54"/>
	<line x1="518.17" x2="501.43" y1="567.54" y2="567.54"/>
	<polyline points="432.46 550.66 432.46 567.54 432.46 567.54"/>
	<line x1="551.65" x2="534.91" y1="567.54" y2="567.54"/>
	<line x1="551.65" x2="567.54" y1="567.54" y2="567.54"/>
	<line x1="518.17" x2="534.91" y1="567.54" y2="567.54"/>
	<polyline points="567.54 567.54 567.54 567.54 567.54 550.66"/>
	<line x1="567.54" x2="567.54" y1="533.77" y2="516.89"/>
	<line x1="432.46" x2="432.46" y1="449.06" y2="465.67"/>
	<line x1="432.46" x2="432.46" y1="465.67" y2="482.28"/>
	<line x1="552.51" x2="567.54" y1="432.46" y2="432.46"/>
	<line x1="432.46" x2="432.46" y1="550.66" y2="533.56"/>
	<line x1="467.7" x2="450.7" y1="567.54" y2="567.54"/>
	<line x1="432.46" x2="432.46" y1="517.3" y2="533.56"/>
	<line x1="567.54" x2="567.54" y1="500" y2="483.11"/>
	<line x1="450.7" x2="432.46" y1="567.54" y2="567.54"/>
	<line x1="567.54" x2="567.54" y1="449.42" y2="466.3"/>
	<line x1="567.54" x2="567.54" y1="466.3" y2="483.11"/>
	<line x1="484.39" x2="501.42" y1="432.46" y2="432.46"/>
	<line x1="535.48" x2="552.51" y1="432.46" y2="432.46"/>
	<line x1="439.21" x2="439.21" y1="454.13" y2="469.04"/>
	<line x1="560.79" x2="560.79" y1="530.39" y2="515.2"/>
	<line x1="439.21" x2="439.21" y1="500.32" y2="515.62"/>
	<line x1="560.79" x2="560.79" y1="454.49" y2="469.68"/>
	<line x1="439.21" x2="439.21" y1="530.18" y2="515.62"/>
	<line x1="560.79" x2="560.79" y1="469.68" y2="484.8"/>
	<line x1="470.76" x2="486.1" y1="439.21" y2="439.21"/>
	<line x1="560.79" x2="560.79" y1="484.8" y2="500"/>
	<line x1="532.13" x2="547.47" y1="439.21" y2="439.21"/>
	<line x1="439.21" x2="439.21" y1="439.21" y2="454.13"/>
	<line x1="439.21" x2="439.21" y1="545.59" y2="560.79"/>
	<line x1="439.21" x2="439.21" y1="530.18" y2="545.59"/>
	<line x1="516.79" x2="532.13" y1="439.21" y2="439.21"/>
	<line x1="455.42" x2="439.21" y1="439.21" y2="439.21"/>
	<line x1="547.47" x2="560.79" y1="439.21" y2="439.21"/>
	<line x1="439.21" x2="439.21" y1="483.95" y2="500.32"/>
	<line x1="560.79" x2="560.79" y1="439.21" y2="454.49"/>
	<line x1="486.1" x2="501.45" y1="439.21" y2="439.21"/>
	<line x1="546.6" x2="560.79" y1="560.79" y2="560.79"/>
	<line x1="560.79" x2="560.79" y1="515.2" y2="500"/>
	<line x1="546.6" x2="531.55" y1="560.79" y2="560.79"/>
	<line x1="560.79" x2="560.79" y1="560.79" y2="545.59"/>
	<line x1="531.55" x2="516.5" y1="560.79" y2="560.79"/>
	<line x1="560.79" x2="560.79" y1="545.59" y2="530.39"/>
	<line x1="501.45" x2="516.5" y1="560.79" y2="560.79"/>
	<line x1="439.21" x2="439.21" y1="469.04" y2="483.95"/>
	<line x1="501.45" x2="486.4" y1="560.79" y2="560.79"/>
	<line x1="471.1" x2="486.4" y1="560.79" y2="560.79"/>
	<line x1="471.1" x2="455.79" y1="560.79" y2="560.79"/>
	<line x1="455.42" x2="470.76" y1="439.21" y2="439.21"/>
	<line x1="501.45" x2="516.79" y1="439.21" y2="439.21"/>
	<line x1="439.21" x2="455.79" y1="560.79" y2="560.79"/>
	<line x1="445.29" x2="445.29" y1="554.71" y2="541.03"/>
	<line x1="445.29" x2="445.29" y1="527.14" y2="541.03"/>
	<line x1="474.16" x2="460.37" y1="554.71" y2="554.71"/>
	<line x1="459.99" x2="473.81" y1="445.29" y2="445.29"/>
	<line x1="474.16" x2="487.94" y1="554.71" y2="554.71"/>
	<line x1="460.37" x2="445.29" y1="554.71" y2="554.71"/>
	<line x1="487.64" x2="501.47" y1="445.29" y2="445.29"/>
	<line x1="554.71" x2="554.71" y1="513.68" y2="527.35"/>
	<line x1="528.53" x2="515" y1="554.71" y2="554.71"/>
	<line x1="515.29" x2="529.12" y1="445.29" y2="445.29"/>
	<line x1="445.29" x2="445.29" y1="472.07" y2="485.46"/>
	<line x1="554.71" x2="554.71" y1="472.72" y2="486.32"/>
	<line x1="445.29" x2="445.29" y1="514.11" y2="527.14"/>
	<line x1="554.71" x2="554.71" y1="459.05" y2="472.72"/>
	<line x1="554.71" x2="554.71" y1="554.71" y2="541.03"/>
	<line x1="501.47" x2="515.29" y1="445.29" y2="445.29"/>
	<polyline points="542.94 445.29 554.71 445.29 554.71 445.29"/>
	<line x1="554.71" x2="554.71" y1="500" y2="513.68"/>
	<line x1="554.71" x2="554.71" y1="486.32" y2="500"/>
	<line x1="529.12" x2="542.94" y1="445.29" y2="445.29"/>
	<line x1="445.29" x2="445.29" y1="514.11" y2="500.32"/>
	<line x1="445.29" x2="445.29" y1="445.29" y2="458.68"/>
	<line x1="445.29" x2="445.29" y1="485.46" y2="500.32"/>
	<line x1="554.71" x2="554.71" y1="445.29" y2="459.05"/>
	<line x1="542.06" x2="554.71" y1="554.71" y2="554.71"/>
	<line x1="473.81" x2="487.64" y1="445.29" y2="445.29"/>
	<line x1="542.06" x2="528.53" y1="554.71" y2="554.71"/>
	<line x1="445.29" x2="445.29" y1="458.68" y2="472.07"/>
	<line x1="487.94" x2="501.47" y1="554.71" y2="554.71"/>
	<line x1="515" x2="501.47" y1="554.71" y2="554.71"/>
	<line x1="554.71" x2="554.71" y1="541.03" y2="527.35"/>
	<polyline points="459.99 445.29 445.29 445.29 445.29 445.29"/>
	<line x1="537.96" x2="549.24" y1="549.24" y2="549.24"/>
	<line x1="549.24" x2="549.24" y1="463.16" y2="475.45"/>
	<line x1="450.76" x2="450.76" y1="536.93" y2="524.4"/>
	<line x1="501.49" x2="489.33" y1="549.24" y2="549.24"/>
	<line x1="549.24" x2="549.24" y1="512.31" y2="524.62"/>
	<line x1="549.24" x2="549.24" y1="475.45" y2="487.69"/>
	<line x1="513.65" x2="501.49" y1="549.24" y2="549.24"/>
	<line x1="450.76" x2="450.76" y1="450.76" y2="462.78"/>
	<line x1="450.76" x2="450.76" y1="512.75" y2="524.4"/>
	<line x1="476.91" x2="489.33" y1="549.24" y2="549.24"/>
	<line x1="464.49" x2="476.91" y1="549.24" y2="549.24"/>
	<line x1="526.4" x2="538.86" y1="450.76" y2="450.76"/>
	<line x1="549.24" x2="549.24" y1="500" y2="512.31"/>
	<line x1="450.76" x2="450.76" y1="549.24" y2="536.93"/>
	<line x1="476.56" x2="464.1" y1="450.76" y2="450.76"/>
	<line x1="464.49" x2="450.76" y1="549.24" y2="549.24"/>
	<line x1="450.76" x2="450.76" y1="500.33" y2="512.75"/>
	<line x1="549.24" x2="549.24" y1="536.93" y2="524.62"/>
	<polyline points="464.1 450.76 450.76 450.76 450.76 450.76"/>
	<line x1="501.48" x2="513.94" y1="450.76" y2="450.76"/>
	<line x1="525.81" x2="537.96" y1="549.24" y2="549.24"/>
	<polyline points="549.24 450.76 549.24 450.76 538.86 450.76"/>
	<line x1="450.76" x2="450.76" y1="474.8" y2="486.82"/>
	<line x1="489.02" x2="501.48" y1="450.76" y2="450.76"/>
	<line x1="525.81" x2="513.65" y1="549.24" y2="549.24"/>
	<line x1="549.24" x2="549.24" y1="549.24" y2="536.93"/>
	<line x1="476.56" x2="489.02" y1="450.76" y2="450.76"/>
	<line x1="549.24" x2="549.24" y1="463.16" y2="450.76"/>
	<line x1="450.76" x2="450.76" y1="462.78" y2="474.8"/>
	<line x1="450.76" x2="450.76" y1="500.33" y2="486.82"/>
	<line x1="513.94" x2="526.4" y1="450.76" y2="450.76"/>
	<line x1="549.24" x2="549.24" y1="487.69" y2="500"/>
	<line x1="95" x2="135.5" y1="905" y2="864.5"/>
	<line x1="343.09" x2="358.79" y1="656.91" y2="641.21"/>
	<line x1="407.35" x2="397.05" y1="592.65" y2="602.95"/>
	<line x1="439.21" x2="432.46" y1="560.79" y2="567.54"/>
	<line x1="583.39" x2="575.05" y1="416.61" y2="424.95"/>
	<line x1="424.95" x2="432.46" y1="575.05" y2="567.54"/>
	<line x1="549.24" x2="554.71" y1="450.76" y2="445.29"/>
	<line x1="407.35" x2="416.61" y1="592.65" y2="583.39"/>
	<line x1="424.95" x2="416.61" y1="575.05" y2="583.39"/>
	<line x1="385.62" x2="372.91" y1="614.38" y2="627.09"/>
	<line x1="950" x2="905" y1="50" y2="95"/>
	<line x1="450.76" x2="445.29" y1="549.24" y2="554.71"/>
	<line x1="171.95" x2="204.76" y1="828.05" y2="795.24"/>
	<path d="m549.24 450.76"/>
	<line x1="592.65" x2="602.95" y1="407.35" y2="397.05"/>
	<line x1="602.95" x2="614.38" y1="397.05" y2="385.62"/>
	<line x1="567.54" x2="575.05" y1="432.46" y2="424.95"/>
	<line x1="554.71" x2="560.79" y1="445.29" y2="439.21"/>
	<line x1="583.39" x2="592.65" y1="416.61" y2="407.35"/>
	<line x1="560.79" x2="567.54" y1="439.21" y2="432.46"/>
	<line x1="614.38" x2="627.09" y1="385.62" y2="372.91"/>
	<line x1="828.05" x2="795.24" y1="171.95" y2="204.76"/>
	<line x1="693.71" x2="715.23" y1="306.29" y2="284.77"/>
	<line x1="445.29" x2="439.21" y1="554.71" y2="560.79"/>
	<line x1="795.24" x2="765.72" y1="204.76" y2="234.28"/>
	<line x1="1e3" x2="950" y2="50"/>
	<line x2="50" y1="1e3" y2="950"/>
	<line x1="234.28" x2="260.85" y1="765.72" y2="739.15"/>
	<line x1="385.62" x2="397.05" y1="614.38" y2="602.95"/>
	<line x1="641.21" x2="656.91" y1="358.79" y2="343.09"/>
	<line x1="674.34" x2="693.71" y1="325.66" y2="306.29"/>
	<path d="m450.76 549.24"/>
	<line x1="358.79" x2="372.91" y1="641.21" y2="627.09"/>
	<line x1="674.34" x2="656.91" y1="325.66" y2="343.09"/>
	<line x1="284.77" x2="306.29" y1="715.23" y2="693.71"/>
	<line x1="325.66" x2="306.29" y1="674.34" y2="693.71"/>
	<line x1="765.72" x2="739.15" y1="234.28" y2="260.85"/>
	<line x1="135.5" x2="171.95" y1="864.5" y2="828.05"/>
	<line x1="739.15" x2="715.23" y1="260.85" y2="284.77"/>
	<line x1="50" x2="95" y1="950" y2="905"/>
	<line x1="864.5" x2="828.05" y1="135.5" y2="171.95"/>
	<line x1="641.21" x2="627.09" y1="358.79" y2="372.91"/>
	<line x1="343.09" x2="325.66" y1="656.91" y2="674.34"/>
	<line x1="260.85" x2="284.77" y1="739.15" y2="715.23"/>
	<line x1="234.28" x2="204.76" y1="765.72" y2="795.24"/>
	<line x1="905" x2="864.5" y1="95" y2="135.5"/>
	<line x1="1e3" x2="950" y1="1e3" y2="950"/>
	<line x1="260.85" x2="284.77" y1="260.85" y2="284.77"/>
	<line x1="575.05" x2="567.54" y1="575.05" y2="567.54"/>
	<line x1="450.76" x2="445.29" y1="450.76" y2="445.29"/>
	<line x1="416.61" x2="424.95" y1="416.61" y2="424.95"/>
	<line x1="432.46" x2="439.21" y1="432.46" y2="439.21"/>
	<line x1="950" x2="905" y1="950" y2="905"/>
	<line x1="439.21" x2="445.29" y1="439.21" y2="445.29"/>
	<line x1="693.71" x2="674.34" y1="693.71" y2="674.34"/>
	<line x1="358.79" x2="343.09" y1="358.79" y2="343.09"/>
	<line x1="407.35" x2="416.61" y1="407.35" y2="416.61"/>
	<path d="m549.24 549.24"/>
	<line x1="385.62" x2="372.91" y1="385.62" y2="372.91"/>
	<line x1="656.91" x2="641.21" y1="656.91" y2="641.21"/>
	<line x1="795.24" x2="765.72" y1="795.24" y2="765.72"/>
	<line x1="674.34" x2="656.91" y1="674.34" y2="656.91"/>
	<line x1="602.95" x2="592.65" y1="602.95" y2="592.65"/>
	<line x1="135.5" x2="171.95" y1="135.5" y2="171.95"/>
	<line x1="828.05" x2="795.24" y1="828.05" y2="795.24"/>
	<line x1="171.95" x2="204.76" y1="171.95" y2="204.76"/>
	<line x1="715.23" x2="693.71" y1="715.23" y2="693.71"/>
	<line x1="204.76" x2="234.28" y1="204.76" y2="234.28"/>
	<line x1="306.29" x2="284.77" y1="306.29" y2="284.77"/>
	<line x1="234.28" x2="260.85" y1="234.28" y2="260.85"/>
	<line x1="641.21" x2="627.09" y1="641.21" y2="627.09"/>
	<line x1="432.46" x2="424.95" y1="432.46" y2="424.95"/>
	<line x1="567.54" x2="560.79" y1="567.54" y2="560.79"/>
	<line x1="50" x2="95" y1="50" y2="95"/>
	<line x1="95" x2="135.5" y1="95" y2="135.5"/>
	<line x1="614.38" x2="602.95" y1="614.38" y2="602.95"/>
	<line x2="50" y2="50"/>
	<line x1="554.71" x2="549.24" y1="554.71" y2="549.24"/>
	<line x1="627.09" x2="614.38" y1="627.09" y2="614.38"/>
	<line x1="864.5" x2="828.05" y1="864.5" y2="828.05"/>
	<line x1="560.79" x2="554.71" y1="560.79" y2="554.71"/>
	<line x1="306.29" x2="325.66" y1="306.29" y2="325.66"/>
	<line x1="905" x2="864.5" y1="905" y2="864.5"/>
	<line x1="592.65" x2="583.39" y1="592.65" y2="583.39"/>
	<line x1="739.15" x2="715.23" y1="739.15" y2="715.23"/>
	<line x1="397.05" x2="407.35" y1="397.05" y2="407.35"/>
	<line x1="325.66" x2="343.09" y1="325.66" y2="343.09"/>
	<line x1="385.62" x2="397.05" y1="385.62" y2="397.05"/>
	<line x1="358.79" x2="372.91" y1="358.79" y2="372.91"/>
	<line x1="765.72" x2="739.15" y1="765.72" y2="739.15"/>
	<path d="m450.76 450.76"/>
	<line x1="583.39" x2="575.05" y1="583.39" y2="575.05"/>
	<line x1="1e3" x2="1e3" y1="250" y2="125"/>
	<line x1="1e3" x2="1e3" y1="375" y2="250"/>
	<line x1="1e3" x2="1e3" y1="625" y2="500"/>
	<line x1="1e3" x2="1e3" y1="1e3" y2="875"/>
	<line x1="1e3" x2="1e3" y1="750" y2="625"/>
	<line x1="1e3" x2="1e3" y1="500" y2="375"/>
	<line x1="1e3" x2="1e3" y2="125"/>
	<line x1="1e3" x2="1e3" y1="875" y2="750"/>
	<line x1="125" x2="250"/>
	<line x1="750" x2="625"/>
	<line x1="375" x2="250"/>
	<line x1="125"/>
	<line x1="875" x2="750"/>
	<line x1="1e3" x2="875"/>
	<line x1="500" x2="375"/>
	<line x1="625" x2="500"/>
	<line y1="250" y2="375"/>
	<line y1="625" y2="750"/>
	<line y1="750" y2="875"/>
	<line y1="125" y2="250"/>
	<line y1="500" y2="625"/>
	<line y1="375" y2="500"/>
	<line y1="1e3" y2="875"/>
	<line y2="125"/>
	<line x2="125" y1="1e3" y2="1e3"/>
	<line x1="125" x2="250" y1="1e3" y2="1e3"/>
	<line x1="375" x2="500" y1="1e3" y2="1e3"/>
	<line x1="500" x2="625" y1="1e3" y2="1e3"/>
	<line x1="250" x2="375" y1="1e3" y2="1e3"/>
	<line x1="625" x2="750" y1="1e3" y2="1e3"/>
	<line x1="875" x2="750" y1="1e3" y2="1e3"/>
	<line x1="875" x2="1e3" y1="1e3" y2="1e3"/>
	<line x1="765.72" x2="795.24" y1="699.29" y2="721.43"/>
	<line x1="864.5" x2="905" y1="773.38" y2="803.75"/>
	<line x1="765.72" x2="739.15" y1="699.29" y2="679.36"/>
	<line x1="693.71" x2="674.34" y1="645.28" y2="630.75"/>
	<line x1="656.91" x2="674.34" y1="617.68" y2="630.75"/>
	<line x1="567.54" x2="560.79" y1="550.66" y2="545.59"/>
	<line x1="567.54" x2="575.05" y1="550.66" y2="556.29"/>
	<line x1="583.39" x2="575.05" y1="562.54" y2="556.29"/>
	<line x1="795.24" x2="828.05" y1="721.43" y2="746.04"/>
	<line x1="627.09" x2="641.21" y1="595.32" y2="605.91"/>
	<line x1="693.71" x2="715.23" y1="645.28" y2="661.43"/>
	<line x1="715.23" x2="739.15" y1="661.43" y2="679.36"/>
	<line x1="592.65" x2="602.95" y1="569.49" y2="577.21"/>
	<line x1="554.71" x2="560.79" y1="541.03" y2="545.59"/>
	<line x1="602.95" x2="614.38" y1="577.21" y2="585.79"/>
	<line x1="905" x2="950" y1="803.75" y2="837.5"/>
	<line x1="583.39" x2="592.65" y1="562.54" y2="569.49"/>
	<line x1="1e3" x2="950" y1="875" y2="837.5"/>
	<line x1="614.38" x2="627.09" y1="585.79" y2="595.32"/>
	<line x1="641.21" x2="656.91" y1="605.91" y2="617.68"/>
	<line x1="549.24" x2="554.71" y1="536.93" y2="541.03"/>
	<line x1="828.05" x2="864.5" y1="746.04" y2="773.38"/>
	<path d="m549.24 536.93"/>
	<line x1="583.39" x2="592.65" y1="541.69" y2="546.33"/>
	<line x1="575.05" x2="583.39" y1="537.52" y2="541.69"/>
	<line x1="592.65" x2="602.95" y1="546.33" y2="551.47"/>
	<line x1="739.15" x2="715.23" y1="619.57" y2="607.62"/>
	<line x1="560.79" x2="554.71" y1="530.39" y2="527.35"/>
	<path d="m549.24 524.62"/>
	<line x1="602.95" x2="614.38" y1="551.47" y2="557.19"/>
	<line x1="1e3" x2="950" y1="750" y2="725"/>
	<line x1="554.71" x2="549.24" y1="527.35" y2="524.62"/>
	<line x1="674.34" x2="693.71" y1="587.17" y2="596.86"/>
	<line x1="765.72" x2="795.24" y1="632.86" y2="647.62"/>
	<line x1="739.15" x2="765.72" y1="619.57" y2="632.86"/>
	<line x1="828.05" x2="864.5" y1="664.02" y2="682.25"/>
	<line x1="795.24" x2="828.05" y1="647.62" y2="664.02"/>
	<line x1="560.79" x2="567.54" y1="530.39" y2="533.77"/>
	<line x1="575.05" x2="567.54" y1="537.52" y2="533.77"/>
	<line x1="641.21" x2="656.91" y1="570.61" y2="578.45"/>
	<line x1="627.09" x2="641.21" y1="563.55" y2="570.61"/>
	<line x1="614.38" x2="627.09" y1="557.19" y2="563.55"/>
	<line x1="693.71" x2="715.23" y1="596.86" y2="607.62"/>
	<line x1="674.34" x2="656.91" y1="587.17" y2="578.45"/>
	<line x1="950" x2="905" y1="725" y2="702.5"/>
	<line x1="864.5" x2="905" y1="682.25" y2="702.5"/>
	<line x1="614.38" x2="627.09" y1="528.6" y2="531.77"/>
	<line x1="602.95" x2="614.38" y1="525.74" y2="528.6"/>
	<line x1="567.54" x2="560.79" y1="516.89" y2="515.2"/>
	<line x1="656.91" x2="641.21" y1="539.23" y2="535.3"/>
	<line x1="627.09" x2="641.21" y1="531.77" y2="535.3"/>
	<line x1="549.24" x2="554.71" y1="512.31" y2="513.68"/>
	<line x1="1e3" x2="950" y1="625" y2="612.5"/>
	<line x1="715.23" x2="739.15" y1="553.81" y2="559.79"/>
	<line x1="739.15" x2="765.72" y1="559.79" y2="566.43"/>
	<line x1="715.23" x2="693.71" y1="553.81" y2="548.43"/>
	<line x1="765.72" x2="795.24" y1="566.43" y2="573.81"/>
	<line x1="567.54" x2="575.05" y1="516.89" y2="518.76"/>
	<line x1="674.34" x2="693.71" y1="543.58" y2="548.43"/>
	<path d="m549.24 512.31"/>
	<line x1="554.71" x2="560.79" y1="513.68" y2="515.2"/>
	<line x1="795.24" x2="828.05" y1="573.81" y2="582.01"/>
	<line x1="656.91" x2="674.34" y1="539.23" y2="543.58"/>
	<line x1="575.05" x2="583.39" y1="518.76" y2="520.85"/>
	<line x1="592.65" x2="602.95" y1="523.16" y2="525.74"/>
	<line x1="583.39" x2="592.65" y1="520.85" y2="523.16"/>
	<line x1="950" x2="905" y1="612.5" y2="601.25"/>
	<line x1="905" x2="864.5" y1="601.25" y2="591.12"/>
	<line x1="828.05" x2="864.5" y1="582.01" y2="591.12"/>
	<line x1="1e3" x2="950" y1="500" y2="500"/>
	<path d="m549.24 500"/>
	<line x1="592.65" x2="602.95" y1="500" y2="500"/>
	<line x1="950" x2="905" y1="500" y2="500"/>
	<line x1="549.24" x2="554.71" y1="500" y2="500"/>
	<line x1="554.71" x2="560.79" y1="500" y2="500"/>
	<line x1="560.79" x2="567.54" y1="500" y2="500"/>
	<line x1="583.39" x2="592.65" y1="500" y2="500"/>
	<line x1="614.38" x2="627.09" y1="500" y2="500"/>
	<line x1="602.95" x2="614.38" y1="500" y2="500"/>
	<line x1="641.21" x2="627.09" y1="500" y2="500"/>
	<line x1="575.05" x2="583.39" y1="500" y2="500"/>
	<line x1="567.54" x2="575.05" y1="500" y2="500"/>
	<line x1="864.5" x2="828.05" y1="500" y2="500"/>
	<line x1="739.15" x2="765.72" y1="500" y2="500"/>
	<line x1="715.23" x2="739.15" y1="500" y2="500"/>
	<line x1="765.72" x2="795.24" y1="500" y2="500"/>
	<line x1="693.71" x2="715.23" y1="500" y2="500"/>
	<line x1="656.91" x2="674.34" y1="500" y2="500"/>
	<line x1="641.21" x2="656.91" y1="500" y2="500"/>
	<line x1="828.05" x2="795.24" y1="500" y2="500"/>
	<line x1="693.71" x2="674.34" y1="500" y2="500"/>
	<line x1="905" x2="864.5" y1="500" y2="500"/>
	<line x1="641.21" x2="656.91" y1="464.7" y2="460.77"/>
	<line x1="674.34" x2="693.71" y1="456.42" y2="451.57"/>
	<line x1="950" x2="905" y1="387.5" y2="398.75"/>
	<line x1="592.65" x2="602.95" y1="476.84" y2="474.26"/>
	<line x1="602.95" x2="614.38" y1="474.26" y2="471.4"/>
	<line x1="583.39" x2="592.65" y1="479.15" y2="476.84"/>
	<line x1="554.71" x2="560.79" y1="486.32" y2="484.8"/>
	<line x1="627.09" x2="641.21" y1="468.23" y2="464.7"/>
	<line x1="575.05" x2="583.39" y1="481.24" y2="479.15"/>
	<line x1="905" x2="864.5" y1="398.75" y2="408.88"/>
	<path d="m549.24 487.69"/>
	<line x1="864.5" x2="828.05" y1="408.88" y2="417.99"/>
	<line x1="627.09" x2="614.38" y1="468.23" y2="471.4"/>
	<line x1="674.34" x2="656.91" y1="456.42" y2="460.77"/>
	<line x1="795.24" x2="765.72" y1="426.19" y2="433.57"/>
	<line x1="549.24" x2="554.71" y1="487.69" y2="486.32"/>
	<line x1="567.54" x2="575.05" y1="483.11" y2="481.24"/>
	<line x1="693.71" x2="715.23" y1="451.57" y2="446.19"/>
	<line x1="715.23" x2="739.15" y1="446.19" y2="440.21"/>
	<line x1="1e3" x2="950" y1="375" y2="387.5"/>
	<line x1="560.79" x2="567.54" y1="484.8" y2="483.11"/>
	<line x1="828.05" x2="795.24" y1="417.99" y2="426.19"/>
	<line x1="739.15" x2="765.72" y1="440.21" y2="433.57"/>
	<line x1="627.09" x2="641.21" y1="436.51" y2="429.45"/>
	<line x1="795.24" x2="765.72" y1="352.41" y2="367.18"/>
	<line x1="656.91" x2="641.21" y1="421.6" y2="429.45"/>
	<line x1="554.71" x2="560.79" y1="472.72" y2="469.68"/>
	<line x1="583.39" x2="575.05" y1="458.37" y2="462.54"/>
	<line x1="693.71" x2="715.23" y1="403.19" y2="392.43"/>
	<line x1="715.23" x2="739.15" y1="392.43" y2="380.47"/>
	<line x1="674.34" x2="693.71" y1="412.88" y2="403.19"/>
	<line x1="560.79" x2="567.54" y1="469.68" y2="466.3"/>
	<line x1="765.72" x2="739.15" y1="367.18" y2="380.47"/>
	<line x1="575.05" x2="567.54" y1="462.54" y2="466.3"/>
	<path d="m549.24 475.45"/>
	<line x1="549.24" x2="554.71" y1="475.45" y2="472.72"/>
	<line x1="614.38" x2="602.95" y1="442.87" y2="448.59"/>
	<line x1="602.95" x2="592.65" y1="448.59" y2="453.74"/>
	<line x1="592.65" x2="583.39" y1="453.74" y2="458.37"/>
	<line x1="614.38" x2="627.09" y1="442.87" y2="436.51"/>
	<line x1="656.91" x2="674.34" y1="421.6" y2="412.88"/>
	<line x1="1e3" x2="950" y1="250" y2="275.01"/>
	<line x1="864.5" x2="828.05" y1="317.77" y2="336"/>
	<line x1="828.05" x2="795.24" y1="336" y2="352.41"/>
	<line x1="950" x2="905" y1="275.01" y2="297.52"/>
	<line x1="905" x2="864.5" y1="297.52" y2="317.77"/>
	<line x1="554.71" x2="560.79" y1="459.05" y2="454.49"/>
	<line x1="583.39" x2="575.05" y1="437.54" y2="443.79"/>
	<line x1="602.95" x2="592.65" y1="422.87" y2="430.59"/>
	<line x1="864.5" x2="828.05" y1="226.65" y2="253.99"/>
	<line x1="575.05" x2="567.54" y1="443.79" y2="449.42"/>
	<line x1="567.54" x2="560.79" y1="449.42" y2="454.49"/>
	<line x1="592.65" x2="583.39" y1="430.59" y2="437.54"/>
	<line x1="674.34" x2="656.91" y1="369.31" y2="382.39"/>
	<line x1="693.71" x2="674.34" y1="354.78" y2="369.31"/>
	<line x1="715.23" x2="693.71" y1="338.63" y2="354.78"/>
	<line x1="614.38" x2="602.95" y1="414.28" y2="422.87"/>
	<line x1="627.09" x2="614.38" y1="404.75" y2="414.28"/>
	<line x1="656.91" x2="641.21" y1="382.39" y2="394.16"/>
	<line x1="1e3" x2="950" y1="125" y2="162.51"/>
	<line x1="795.24" x2="765.72" y1="278.6" y2="300.75"/>
	<line x1="828.05" x2="795.24" y1="253.99" y2="278.6"/>
	<line x1="549.24" x2="554.71" y1="463.16" y2="459.05"/>
	<line x1="765.72" x2="739.15" y1="300.75" y2="320.69"/>
	<line x1="641.21" x2="627.09" y1="394.16" y2="404.75"/>
	<path d="m549.24 463.16"/>
	<line x1="739.15" x2="715.23" y1="320.69" y2="338.63"/>
	<line x1="905" x2="864.5" y1="196.27" y2="226.65"/>
	<line x1="950" x2="905" y1="162.51" y2="196.27"/>
	<line x1="234.28" x2="260.85" y1="699.29" y2="679.36"/>
	<line x1="432.46" x2="424.95" y1="550.66" y2="556.29"/>
	<line x1="95" x2="135.5" y1="803.75" y2="773.38"/>
	<line x1="450.76" x2="445.29" y1="536.93" y2="541.03"/>
	<line x1="397.05" x2="407.35" y1="577.21" y2="569.49"/>
	<line x1="439.21" x2="445.29" y1="545.59" y2="541.03"/>
	<line x1="284.77" x2="306.29" y1="661.43" y2="645.28"/>
	<line x1="416.61" x2="424.95" y1="562.54" y2="556.29"/>
	<line x1="171.95" x2="204.76" y1="746.04" y2="721.43"/>
	<line x1="439.21" x2="432.46" y1="545.59" y2="550.66"/>
	<line x1="372.91" x2="358.79" y1="595.32" y2="605.91"/>
	<line x1="50" x2="95" y1="837.5" y2="803.75"/>
	<line x1="325.66" x2="306.29" y1="630.75" y2="645.28"/>
	<line x1="260.85" x2="284.77" y1="679.36" y2="661.43"/>
	<line x1="325.66" x2="343.09" y1="630.75" y2="617.68"/>
	<line x1="204.76" x2="234.28" y1="721.43" y2="699.29"/>
	<line x2="50" y1="875" y2="837.5"/>
	<line x1="397.05" x2="385.62" y1="577.21" y2="585.79"/>
	<line x1="135.5" x2="171.95" y1="773.38" y2="746.04"/>
	<line x1="372.91" x2="385.62" y1="595.32" y2="585.79"/>
	<line x1="343.09" x2="358.79" y1="617.68" y2="605.91"/>
	<line x1="416.61" x2="407.35" y1="562.54" y2="569.49"/>
	<path d="m450.76 536.93"/>
	<line x1="407.35" x2="397.05" y1="546.13" y2="551.28"/>
	<line x1="416.61" x2="407.35" y1="541.49" y2="546.13"/>
	<line x1="424.95" x2="416.61" y1="537.32" y2="541.49"/>
	<line x1="385.62" x2="372.91" y1="557.01" y2="563.37"/>
	<line x1="372.91" x2="358.79" y1="563.37" y2="570.43"/>
	<line x1="397.05" x2="385.62" y1="551.28" y2="557.01"/>
	<line x1="95" x2="135.5" y1="702.45" y2="682.18"/>
	<line x1="135.5" x2="171.95" y1="682.18" y2="663.94"/>
	<line x1="171.95" x2="204.76" y1="663.94" y2="647.52"/>
	<line x1="439.21" x2="432.46" y1="530.18" y2="533.56"/>
	<line x1="432.46" x2="424.95" y1="533.56" y2="537.32"/>
	<line x1="358.79" x2="343.09" y1="570.43" y2="578.29"/>
	<line x1="284.77" x2="260.85" y1="607.48" y2="619.45"/>
	<line x1="204.76" x2="234.28" y1="647.52" y2="632.75"/>
	<line x1="50" x2="95" y1="724.98" y2="702.45"/>
	<line x1="234.28" x2="260.85" y1="632.75" y2="619.45"/>
	<line x1="445.29" x2="439.21" y1="527.14" y2="530.18"/>
	<line x1="343.09" x2="325.66" y1="578.29" y2="587.01"/>
	<line x1="450.76" x2="445.29" y1="524.4" y2="527.14"/>
	<line x1="306.29" x2="284.77" y1="596.71" y2="607.48"/>
	<line x1="325.66" x2="306.29" y1="587.01" y2="596.71"/>
	<path d="m450.76 524.4"/>
	<line x2="50" y1="750" y2="724.98"/>
	<line x1="50" x2="95" y1="612.55" y2="601.34"/>
	<line x1="95" x2="135.5" y1="601.34" y2="591.26"/>
	<line x1="439.21" x2="432.46" y1="515.62" y2="517.3"/>
	<line x1="424.95" x2="416.61" y1="519.17" y2="521.25"/>
	<line x1="306.29" x2="284.77" y1="548.72" y2="554.08"/>
	<line x2="50" y1="625" y2="612.55"/>
	<line x1="432.46" x2="424.95" y1="517.3" y2="519.17"/>
	<line x1="284.77" x2="260.85" y1="554.08" y2="560.04"/>
	<line x1="450.76" x2="445.29" y1="512.75" y2="514.11"/>
	<line x1="445.29" x2="439.21" y1="514.11" y2="515.62"/>
	<path d="m450.76 512.75"/>
	<line x1="343.09" x2="325.66" y1="539.56" y2="543.9"/>
	<line x1="358.79" x2="343.09" y1="535.65" y2="539.56"/>
	<line x1="416.61" x2="407.35" y1="521.25" y2="523.56"/>
	<line x1="260.85" x2="234.28" y1="560.04" y2="566.66"/>
	<line x1="372.91" x2="358.79" y1="532.13" y2="535.65"/>
	<line x1="234.28" x2="204.76" y1="566.66" y2="574.01"/>
	<line x1="171.95" x2="204.76" y1="582.18" y2="574.01"/>
	<line x1="385.62" x2="372.91" y1="528.97" y2="532.13"/>
	<line x1="135.5" x2="171.95" y1="591.26" y2="582.18"/>
	<line x1="407.35" x2="397.05" y1="523.56" y2="526.12"/>
	<line x1="325.66" x2="306.29" y1="543.9" y2="548.72"/>
	<line x1="397.05" x2="385.62" y1="526.12" y2="528.97"/>
	<line x1="439.21" x2="432.46" y1="500.32" y2="500.31"/>
	<line x1="445.29" x2="439.21" y1="500.32" y2="500.32"/>
	<line x1="432.46" x2="424.95" y1="500.31" y2="500.31"/>
	<line x1="306.29" x2="284.77" y1="500.22" y2="500.21"/>
	<line x1="234.28" x2="204.76" y1="500.17" y2="500.15"/>
	<line x1="416.61" x2="407.35" y1="500.3" y2="500.3"/>
	<line x1="424.95" x2="416.61" y1="500.31" y2="500.3"/>
	<line x1="407.35" x2="397.05" y1="500.3" y2="500.29"/>
	<line x1="260.85" x2="234.28" y1="500.19" y2="500.17"/>
	<line x1="284.77" x2="260.85" y1="500.21" y2="500.19"/>
	<line x1="325.66" x2="306.29" y1="500.24" y2="500.22"/>
	<line x1="450.76" x2="445.29" y1="500.33" y2="500.32"/>
	<line x1="204.76" x2="171.95" y1="500.15" y2="500.12"/>
	<path d="m450.76 500.33"/>
	<line x1="50" x2="95" y1="500.04" y2="500.07"/>
	<line x1="372.91" x2="358.79" y1="500.27" y2="500.26"/>
	<line x1="397.05" x2="385.62" y1="500.29" y2="500.28"/>
	<line x2="50" y1="500" y2="500.04"/>
	<line x1="343.09" x2="325.66" y1="500.25" y2="500.24"/>
	<line x1="358.79" x2="343.09" y1="500.26" y2="500.25"/>
	<line x1="95" x2="135.5" y1="500.07" y2="500.1"/>
	<line x1="135.5" x2="171.95" y1="500.1" y2="500.12"/>
	<line x1="385.62" x2="372.91" y1="500.28" y2="500.27"/>
	<line x1="372.91" x2="358.79" y1="467.51" y2="464"/>
	<line x1="135.5" x2="95" y1="408.61" y2="398.57"/>
	<line x1="234.28" x2="204.76" y1="433.12" y2="425.79"/>
	<line x1="171.95" x2="135.5" y1="417.66" y2="408.61"/>
	<line x1="204.76" x2="171.95" y1="425.79" y2="417.66"/>
	<line x1="325.66" x2="306.29" y1="455.79" y2="450.98"/>
	<line x1="260.85" x2="234.28" y1="439.71" y2="433.12"/>
	<line x1="284.77" x2="260.85" y1="445.64" y2="439.71"/>
	<path d="m450.76 486.82"/>
	<line x2="50" y1="375" y2="387.4"/>
	<line x1="50" x2="95" y1="387.4" y2="398.57"/>
	<line x1="306.29" x2="284.77" y1="450.98" y2="445.64"/>
	<line x1="416.61" x2="407.35" y1="478.35" y2="476.05"/>
	<line x1="445.29" x2="439.21" y1="485.46" y2="483.95"/>
	<line x1="424.95" x2="416.61" y1="480.42" y2="478.35"/>
	<line x1="450.76" x2="445.29" y1="486.82" y2="485.46"/>
	<line x1="343.09" x2="325.66" y1="460.11" y2="455.79"/>
	<line x1="439.21" x2="432.46" y1="483.95" y2="482.28"/>
	<line x1="432.46" x2="424.95" y1="482.28" y2="480.42"/>
	<line x1="385.62" x2="372.91" y1="470.66" y2="467.51"/>
	<line x1="407.35" x2="397.05" y1="476.05" y2="473.5"/>
	<line x1="397.05" x2="385.62" y1="473.5" y2="470.66"/>
	<line x1="358.79" x2="343.09" y1="464" y2="460.11"/>
	<line x1="450.76" x2="445.29" y1="474.8" y2="472.07"/>
	<line x2="50" y1="250" y2="274.94"/>
	<line x1="171.95" x2="135.5" y1="335.75" y2="317.58"/>
	<line x1="407.35" x2="397.05" y1="453.15" y2="448.02"/>
	<line x1="95" x2="50" y1="297.38" y2="274.94"/>
	<line x1="306.29" x2="284.77" y1="402.75" y2="392.02"/>
	<line x1="325.66" x2="306.29" y1="412.41" y2="402.75"/>
	<line x1="397.05" x2="385.62" y1="448.02" y2="442.31"/>
	<line x1="358.79" x2="343.09" y1="428.93" y2="421.11"/>
	<line x1="385.62" x2="372.91" y1="442.31" y2="435.97"/>
	<line x1="204.76" x2="171.95" y1="352.11" y2="335.75"/>
	<line x1="135.5" x2="95" y1="317.58" y2="297.38"/>
	<line x1="372.91" x2="358.79" y1="435.97" y2="428.93"/>
	<path d="m450.76 474.8"/>
	<line x1="432.46" x2="424.95" y1="465.67" y2="461.93"/>
	<line x1="439.21" x2="432.46" y1="469.04" y2="465.67"/>
	<line x1="234.28" x2="204.76" y1="366.84" y2="352.11"/>
	<line x1="424.95" x2="416.61" y1="461.93" y2="457.77"/>
	<line x1="260.85" x2="234.28" y1="380.09" y2="366.84"/>
	<line x1="416.61" x2="407.35" y1="457.77" y2="453.15"/>
	<line x1="284.77" x2="260.85" y1="392.02" y2="380.09"/>
	<line x1="445.29" x2="439.21" y1="472.07" y2="469.04"/>
	<line x1="343.09" x2="325.66" y1="421.11" y2="412.41"/>
	<line x1="171.95" x2="135.5" y1="253.85" y2="226.54"/>
	<line x1="416.61" x2="407.35" y1="437.19" y2="430.25"/>
	<line x1="204.76" x2="171.95" y1="278.43" y2="253.85"/>
	<line x1="234.28" x2="204.76" y1="300.56" y2="278.43"/>
	<line x1="407.35" x2="397.05" y1="430.25" y2="422.54"/>
	<line x1="385.62" x2="372.91" y1="413.96" y2="404.44"/>
	<line x1="424.95" x2="416.61" y1="443.44" y2="437.19"/>
	<line x1="50" y1="162.47" y2="125"/>
	<line x1="397.05" x2="385.62" y1="422.54" y2="413.96"/>
	<line x1="95" x2="50" y1="196.19" y2="162.47"/>
	<line x1="135.5" x2="95" y1="226.54" y2="196.19"/>
	<line x1="260.85" x2="234.28" y1="320.47" y2="300.56"/>
	<line x1="325.66" x2="306.29" y1="369.04" y2="354.52"/>
	<path d="m450.76 462.78"/>
	<line x1="343.09" x2="325.66" y1="382.1" y2="369.04"/>
	<line x1="450.76" x2="445.29" y1="462.78" y2="458.68"/>
	<line x1="372.91" x2="358.79" y1="404.44" y2="393.86"/>
	<line x1="284.77" x2="260.85" y1="338.39" y2="320.47"/>
	<line x1="358.79" x2="343.09" y1="393.86" y2="382.1"/>
	<line x1="439.21" x2="432.46" y1="454.13" y2="449.06"/>
	<line x1="432.46" x2="424.95" y1="449.06" y2="443.44"/>
	<line x1="445.29" x2="439.21" y1="458.68" y2="454.13"/>
	<line x1="306.29" x2="284.77" y1="354.52" y2="338.39"/>
	<line x1="162.66" x2="196.55" y1="950" y2="905"/>
	<path d="m464.49 549.24"/>
	<line x1="383.4" x2="395.22" y1="656.91" y2="641.21"/>
	<line x1="395.22" x2="405.85" y1="641.21" y2="627.09"/>
	<line x1="370.27" x2="383.4" y1="674.34" y2="656.91"/>
	<line x1="415.43" x2="424.04" y1="614.38" y2="602.95"/>
	<line x1="431.79" x2="438.77" y1="592.65" y2="583.39"/>
	<line x1="424.04" x2="431.79" y1="602.95" y2="592.65"/>
	<line x1="125" x2="162.66" y1="1e3" y2="950"/>
	<line x1="405.85" x2="415.43" y1="627.09" y2="614.38"/>
	<line x1="196.55" x2="227.05" y1="905" y2="864.5"/>
	<line x1="445.05" x2="450.7" y1="575.05" y2="567.54"/>
	<line x1="438.77" x2="445.05" y1="583.39" y2="575.05"/>
	<line x1="460.37" x2="455.79" y1="554.71" y2="560.79"/>
	<line x1="455.79" x2="450.7" y1="560.79" y2="567.54"/>
	<line x1="279.21" x2="301.45" y1="795.24" y2="765.72"/>
	<line x1="355.68" x2="370.27" y1="693.71" y2="674.34"/>
	<line x1="339.47" x2="355.68" y1="715.23" y2="693.71"/>
	<line x1="301.45" x2="321.46" y1="765.72" y2="739.15"/>
	<line x1="464.49" x2="460.37" y1="549.24" y2="554.71"/>
	<line x1="254.5" x2="279.21" y1="828.05" y2="795.24"/>
	<line x1="321.46" x2="339.47" y1="739.15" y2="715.23"/>
	<line x1="227.05" x2="254.5" y1="864.5" y2="828.05"/>
	<line x1="353.07" x2="367.93" y1="795.24" y2="765.72"/>
	<line x1="367.93" x2="381.31" y1="765.72" y2="739.15"/>
	<line x1="413.93" x2="422.71" y1="674.34" y2="656.91"/>
	<line x1="336.56" x2="353.07" y1="828.05" y2="795.24"/>
	<line x1="404.18" x2="413.93" y1="693.71" y2="674.34"/>
	<line x1="381.31" x2="393.35" y1="739.15" y2="715.23"/>
	<line x1="318.21" x2="336.56" y1="864.5" y2="828.05"/>
	<line x1="422.71" x2="430.61" y1="656.91" y2="641.21"/>
	<path d="m476.91 549.24"/>
	<line x1="476.91" x2="474.16" y1="549.24" y2="554.71"/>
	<line x1="449.87" x2="455.06" y1="602.95" y2="592.65"/>
	<line x1="430.61" x2="437.72" y1="641.21" y2="627.09"/>
	<line x1="437.72" x2="444.12" y1="627.09" y2="614.38"/>
	<line x1="275.17" x2="297.82" y1="950" y2="905"/>
	<line x1="250" x2="275.17" y1="1e3" y2="950"/>
	<line x1="444.12" x2="449.87" y1="614.38" y2="602.95"/>
	<line x1="474.16" x2="471.1" y1="554.71" y2="560.79"/>
	<line x1="463.92" x2="467.7" y1="575.05" y2="567.54"/>
	<line x1="467.7" x2="471.1" y1="567.54" y2="560.79"/>
	<line x1="459.72" x2="463.92" y1="583.39" y2="575.05"/>
	<line x1="393.35" x2="404.18" y1="715.23" y2="693.71"/>
	<line x1="455.06" x2="459.72" y1="592.65" y2="583.39"/>
	<line x1="297.82" x2="318.21" y1="905" y2="864.5"/>
	<line x1="484.69" x2="486.4" y1="567.54" y2="560.79"/>
	<line x1="486.4" x2="487.94" y1="560.79" y2="554.71"/>
	<line x1="375" x2="387.68" y1="1e3" y2="950"/>
	<line x1="462.02" x2="466" y1="656.91" y2="641.21"/>
	<path d="m489.33 549.24"/>
	<line x1="489.33" x2="487.94" y1="549.24" y2="554.71"/>
	<line x1="387.68" x2="399.1" y1="950" y2="905"/>
	<line x1="469.58" x2="472.8" y1="627.09" y2="614.38"/>
	<line x1="475.71" x2="478.32" y1="602.95" y2="592.65"/>
	<line x1="482.78" x2="484.69" y1="575.05" y2="567.54"/>
	<line x1="478.32" x2="480.67" y1="592.65" y2="583.39"/>
	<line x1="466" x2="469.58" y1="641.21" y2="627.09"/>
	<line x1="480.67" x2="482.78" y1="583.39" y2="575.05"/>
	<line x1="452.69" x2="457.6" y1="693.71" y2="674.34"/>
	<line x1="418.61" x2="426.93" y1="828.05" y2="795.24"/>
	<line x1="426.93" x2="434.42" y1="795.24" y2="765.72"/>
	<line x1="434.42" x2="441.16" y1="765.72" y2="739.15"/>
	<line x1="472.8" x2="475.71" y1="614.38" y2="602.95"/>
	<line x1="441.16" x2="447.23" y1="739.15" y2="715.23"/>
	<line x1="457.6" x2="462.02" y1="674.34" y2="656.91"/>
	<line x1="399.1" x2="409.37" y1="905" y2="864.5"/>
	<line x1="409.37" x2="418.61" y1="864.5" y2="828.05"/>
	<line x1="447.23" x2="452.69" y1="715.23" y2="693.71"/>
	<path d="m501.49 549.24"/>
	<line x1="501.47" x2="501.49" y1="554.71" y2="549.24"/>
	<line x1="501.45" x2="501.47" y1="560.79" y2="554.71"/>
	<line x1="501.31" x2="501.34" y1="602.95" y2="592.65"/>
	<line x1="501.23" x2="501.27" y1="627.09" y2="614.38"/>
	<line x1="501.27" x2="501.31" y1="614.38" y2="602.95"/>
	<line x1="501.37" x2="501.4" y1="583.39" y2="575.05"/>
	<line x1="501.34" x2="501.37" y1="592.65" y2="583.39"/>
	<line x1="501.07" x2="501.13" y1="674.34" y2="656.91"/>
	<line x1="501.18" x2="501.23" y1="641.21" y2="627.09"/>
	<line x1="501.13" x2="501.18" y1="656.91" y2="641.21"/>
	<line x1="501.4" x2="501.43" y1="575.05" y2="567.54"/>
	<line x1="500.45" x2="500.57" y1="864.5" y2="828.05"/>
	<line x1="500.16" x2="500.31" y1="950" y2="905"/>
	<line x1="500.57" x2="500.68" y1="828.05" y2="795.24"/>
	<line x1="501.43" x2="501.45" y1="567.54" y2="560.79"/>
	<line x1="500.68" x2="500.77" y1="795.24" y2="765.72"/>
	<line x1="500" x2="500.16" y1="1e3" y2="950"/>
	<line x1="500.77" x2="500.86" y1="765.72" y2="739.15"/>
	<line x1="500.31" x2="500.45" y1="905" y2="864.5"/>
	<line x1="500.94" x2="501.01" y1="715.23" y2="693.71"/>
	<line x1="501.01" x2="501.07" y1="693.71" y2="674.34"/>
	<line x1="500.86" x2="500.94" y1="739.15" y2="715.23"/>
	<line x1="516.5" x2="515" y1="560.79" y2="554.71"/>
	<line x1="522.08" x2="520.02" y1="583.39" y2="575.05"/>
	<line x1="526.91" x2="524.37" y1="602.95" y2="592.65"/>
	<line x1="518.17" x2="516.5" y1="567.54" y2="560.79"/>
	<line x1="549.34" x2="544.55" y1="693.71" y2="674.34"/>
	<line x1="520.02" x2="518.17" y1="575.05" y2="567.54"/>
	<line x1="524.37" x2="522.08" y1="592.65" y2="583.39"/>
	<line x1="536.37" x2="532.88" y1="641.21" y2="627.09"/>
	<line x1="540.24" x2="536.37" y1="656.91" y2="641.21"/>
	<line x1="544.55" x2="540.24" y1="674.34" y2="656.91"/>
	<line x1="529.74" x2="526.91" y1="614.38" y2="602.95"/>
	<line x1="574.42" x2="567.12" y1="795.24" y2="765.72"/>
	<line x1="554.65" x2="549.34" y1="715.23" y2="693.71"/>
	<line x1="591.53" x2="582.52" y1="864.5" y2="828.05"/>
	<line x1="560.56" x2="554.65" y1="739.15" y2="715.23"/>
	<line x1="567.12" x2="560.56" y1="765.72" y2="739.15"/>
	<line x1="612.65" x2="601.53" y1="950" y2="905"/>
	<line x1="601.53" x2="591.53" y1="905" y2="864.5"/>
	<line x1="515" x2="513.65" y1="554.71" y2="549.24"/>
	<path d="m513.65 549.24"/>
	<line x1="625" x2="612.65" y1="1e3" y2="950"/>
	<line x1="532.88" x2="529.74" y1="627.09" y2="614.38"/>
	<line x1="582.52" x2="574.42" y1="828.05" y2="795.24"/>
	<line x1="648.16" x2="633.48" y1="795.24" y2="765.72"/>
	<line x1="558.21" x2="552.52" y1="614.38" y2="602.95"/>
	<line x1="664.48" x2="648.16" y1="828.05" y2="795.24"/>
	<line x1="608.37" x2="597.66" y1="715.23" y2="693.71"/>
	<line x1="597.66" x2="588.03" y1="693.71" y2="674.34"/>
	<line x1="682.61" x2="664.48" y1="864.5" y2="828.05"/>
	<path d="m525.81 549.24"/>
	<line x1="588.03" x2="579.36" y1="674.34" y2="656.91"/>
	<line x1="571.55" x2="564.53" y1="641.21" y2="627.09"/>
	<line x1="552.52" x2="547.4" y1="602.95" y2="592.65"/>
	<line x1="620.26" x2="608.37" y1="739.15" y2="715.23"/>
	<line x1="564.53" x2="558.21" y1="627.09" y2="614.38"/>
	<line x1="633.48" x2="620.26" y1="765.72" y2="739.15"/>
	<line x1="725.13" x2="750" y1="950" y2="1e3"/>
	<line x1="579.36" x2="571.55" y1="656.91" y2="641.21"/>
	<line x1="547.4" x2="542.79" y1="592.65" y2="583.39"/>
	<line x1="725.13" x2="702.75" y1="950" y2="905"/>
	<line x1="538.64" x2="534.91" y1="575.05" y2="567.54"/>
	<line x1="542.79" x2="538.64" y1="583.39" y2="575.05"/>
	<line x1="534.91" x2="531.55" y1="567.54" y2="560.79"/>
	<line x1="702.75" x2="682.61" y1="905" y2="864.5"/>
	<line x1="528.53" x2="525.81" y1="554.71" y2="549.24"/>
	<line x1="531.55" x2="528.53" y1="560.79" y2="554.71"/>
	<line x1="546.6" x2="542.06" y1="560.79" y2="554.71"/>
	<path d="m537.96 549.24"/>
	<line x1="570.42" x2="563.5" y1="592.65" y2="583.39"/>
	<line x1="662.08" x2="645.99" y1="715.23" y2="693.71"/>
	<line x1="746.43" x2="721.9" y1="828.05" y2="795.24"/>
	<line x1="551.65" x2="546.6" y1="567.54" y2="560.79"/>
	<line x1="557.26" x2="551.65" y1="575.05" y2="567.54"/>
	<line x1="586.67" x2="578.12" y1="614.38" y2="602.95"/>
	<line x1="803.97" x2="773.69" y1="905" y2="864.5"/>
	<line x1="721.9" x2="699.83" y1="795.24" y2="765.72"/>
	<line x1="645.99" x2="631.5" y1="693.71" y2="674.34"/>
	<line x1="699.83" x2="679.96" y1="765.72" y2="739.15"/>
	<line x1="596.18" x2="586.67" y1="627.09" y2="614.38"/>
	<line x1="606.74" x2="596.18" y1="641.21" y2="627.09"/>
	<line x1="631.5" x2="618.47" y1="674.34" y2="656.91"/>
	<line x1="618.47" x2="606.74" y1="656.91" y2="641.21"/>
	<line x1="563.5" x2="557.26" y1="583.39" y2="575.05"/>
	<line x1="542.06" x2="537.96" y1="554.71" y2="549.24"/>
	<line x1="679.96" x2="662.08" y1="739.15" y2="715.23"/>
	<line x1="875" x2="837.61" y1="1e3" y2="950"/>
	<line x1="773.69" x2="746.43" y1="864.5" y2="828.05"/>
	<line x1="578.12" x2="570.42" y1="602.95" y2="592.65"/>
	<line x1="837.61" x2="803.97" y1="950" y2="905"/>
	<line x1="279.04" x2="301.25" y1="204.76" y2="234.28"/>
	<line x1="254.36" x2="279.04" y1="171.95" y2="204.76"/>
	<line x1="226.94" x2="254.36" y1="135.5" y2="171.95"/>
	<line x1="405.53" x2="415.1" y1="372.91" y2="385.62"/>
	<path d="m464.1 450.76"/>
	<line x1="431.45" x2="438.42" y1="407.35" y2="416.61"/>
	<line x1="423.7" x2="431.45" y1="397.05" y2="407.35"/>
	<line x1="415.1" x2="423.7" y1="385.62" y2="397.05"/>
	<line x1="459.99" x2="464.1" y1="445.29" y2="450.76"/>
	<line x1="162.61" x2="196.47" y1="50" y2="95"/>
	<line x1="339.23" x2="355.42" y1="284.77" y2="306.29"/>
	<line x1="455.42" x2="459.99" y1="439.21" y2="445.29"/>
	<line x1="196.47" x2="226.94" y1="95" y2="135.5"/>
	<line x1="450.33" x2="455.42" y1="432.46" y2="439.21"/>
	<line x1="444.69" x2="450.33" y1="424.95" y2="432.46"/>
	<line x1="321.24" x2="339.23" y1="260.85" y2="284.77"/>
	<line x1="355.42" x2="369.99" y1="306.29" y2="325.66"/>
	<line x1="369.99" x2="383.11" y1="325.66" y2="343.09"/>
	<line x1="438.42" x2="444.69" y1="416.61" y2="424.95"/>
	<line x1="383.11" x2="394.91" y1="343.09" y2="358.79"/>
	<line x1="125" x2="162.61" y2="50"/>
	<line x1="301.25" x2="321.24" y1="234.28" y2="260.85"/>
	<line x1="394.91" x2="405.53" y1="358.79" y2="372.91"/>
	<line x1="336.43" x2="352.91" y1="171.95" y2="204.76"/>
	<line x1="470.76" x2="473.81" y1="439.21" y2="445.29"/>
	<line x1="318.11" x2="336.43" y1="135.5" y2="171.95"/>
	<line x1="437.43" x2="443.82" y1="372.91" y2="385.62"/>
	<line x1="275.13" x2="297.75" y1="50" y2="95"/>
	<line x1="430.33" x2="437.43" y1="358.79" y2="372.91"/>
	<line x1="275.13" x2="250" y1="50"/>
	<line x1="459.4" x2="463.59" y1="416.61" y2="424.95"/>
	<line x1="352.91" x2="367.75" y1="204.76" y2="234.28"/>
	<line x1="297.75" x2="318.11" y1="95" y2="135.5"/>
	<line x1="473.81" x2="476.56" y1="445.29" y2="450.76"/>
	<line x1="367.75" x2="381.11" y1="234.28" y2="260.85"/>
	<path d="m476.56 450.76"/>
	<line x1="449.57" x2="454.74" y1="397.05" y2="407.35"/>
	<line x1="467.36" x2="470.76" y1="432.46" y2="439.21"/>
	<line x1="454.74" x2="459.4" y1="407.35" y2="416.61"/>
	<line x1="443.82" x2="449.57" y1="385.62" y2="397.05"/>
	<line x1="463.59" x2="467.36" y1="424.95" y2="432.46"/>
	<line x1="393.13" x2="403.95" y1="284.77" y2="306.29"/>
	<line x1="403.95" x2="413.69" y1="306.29" y2="325.66"/>
	<line x1="381.11" x2="393.13" y1="260.85" y2="284.77"/>
	<line x1="413.69" x2="422.45" y1="325.66" y2="343.09"/>
	<line x1="422.45" x2="430.33" y1="343.09" y2="358.79"/>
	<line x1="461.79" x2="465.76" y1="343.09" y2="358.79"/>
	<line x1="457.38" x2="461.79" y1="325.66" y2="343.09"/>
	<line x1="487.64" x2="489.02" y1="445.29" y2="450.76"/>
	<path d="m489.02 450.76"/>
	<line x1="426.79" x2="434.26" y1="204.76" y2="234.28"/>
	<line x1="486.1" x2="487.64" y1="439.21" y2="445.29"/>
	<line x1="418.5" x2="426.79" y1="171.95" y2="204.76"/>
	<line x1="480.39" x2="482.49" y1="416.61" y2="424.95"/>
	<line x1="484.39" x2="486.1" y1="432.46" y2="439.21"/>
	<line x1="482.49" x2="484.39" y1="424.95" y2="432.46"/>
	<line x1="399.03" x2="409.28" y1="95" y2="135.5"/>
	<line x1="387.65" x2="399.03" y1="50" y2="95"/>
	<line x1="472.54" x2="475.44" y1="385.62" y2="397.05"/>
	<line x1="409.28" x2="418.5" y1="135.5" y2="171.95"/>
	<line x1="478.04" x2="480.39" y1="407.35" y2="416.61"/>
	<line x1="465.76" x2="469.33" y1="358.79" y2="372.91"/>
	<line x1="452.48" x2="457.38" y1="306.29" y2="325.66"/>
	<line x1="475.44" x2="478.04" y1="397.05" y2="407.35"/>
	<line x1="440.98" x2="447.03" y1="260.85" y2="284.77"/>
	<line x1="447.03" x2="452.48" y1="284.77" y2="306.29"/>
	<line x1="375" x2="387.65" y2="50"/>
	<line x1="434.26" x2="440.98" y1="234.28" y2="260.85"/>
	<line x1="469.33" x2="472.54" y1="372.91" y2="385.62"/>
	<line x1="500.67" x2="500.77" y1="204.76" y2="234.28"/>
	<line x1="501.01" x2="501.07" y1="306.29" y2="325.66"/>
	<line x1="501.07" x2="501.13" y1="325.66" y2="343.09"/>
	<line x1="500.94" x2="501.01" y1="284.77" y2="306.29"/>
	<line x1="501.13" x2="501.18" y1="343.09" y2="358.79"/>
	<line x1="500.77" x2="500.86" y1="234.28" y2="260.85"/>
	<line x1="500.57" x2="500.67" y1="171.95" y2="204.76"/>
	<line x1="500.86" x2="500.94" y1="260.85" y2="284.77"/>
	<line x1="501.34" x2="501.37" y1="407.35" y2="416.61"/>
	<line x1="501.45" x2="501.47" y1="439.21" y2="445.29"/>
	<line x1="501.4" x2="501.42" y1="424.95" y2="432.46"/>
	<line x1="501.42" x2="501.45" y1="432.46" y2="439.21"/>
	<line x1="501.31" x2="501.34" y1="397.05" y2="407.35"/>
	<line x1="501.37" x2="501.4" y1="416.61" y2="424.95"/>
	<line x1="501.18" x2="501.23" y1="358.79" y2="372.91"/>
	<line x1="500" x2="500.16" y2="50"/>
	<path d="m501.48 450.76"/>
	<line x1="501.27" x2="501.31" y1="385.62" y2="397.05"/>
	<line x1="501.23" x2="501.27" y1="372.91" y2="385.62"/>
	<line x1="501.47" x2="501.48" y1="445.29" y2="450.76"/>
	<line x1="500.31" x2="500.45" y1="95" y2="135.5"/>
	<line x1="500.16" x2="500.31" y1="50" y2="95"/>
	<line x1="500.45" x2="500.57" y1="135.5" y2="171.95"/>
	<line x1="612.68" x2="601.59" y1="50" y2="95"/>
	<line x1="549.54" x2="544.76" y1="306.29" y2="325.66"/>
	<line x1="540.47" x2="536.6" y1="343.09" y2="358.79"/>
	<line x1="544.76" x2="540.47" y1="325.66" y2="343.09"/>
	<line x1="536.6" x2="533.12" y1="358.79" y2="372.91"/>
	<line x1="567.28" x2="560.73" y1="234.28" y2="260.85"/>
	<line x1="574.55" x2="567.28" y1="204.76" y2="234.28"/>
	<line x1="591.62" x2="582.64" y1="135.5" y2="171.95"/>
	<line x1="582.64" x2="574.55" y1="171.95" y2="204.76"/>
	<line x1="554.84" x2="549.54" y1="284.77" y2="306.29"/>
	<line x1="560.73" x2="554.84" y1="260.85" y2="284.77"/>
	<line x1="515.29" x2="513.94" y1="445.29" y2="450.76"/>
	<line x1="524.64" x2="522.36" y1="407.35" y2="416.61"/>
	<line x1="520.3" x2="518.45" y1="424.95" y2="432.46"/>
	<line x1="527.17" x2="524.64" y1="397.05" y2="407.35"/>
	<line x1="516.79" x2="515.29" y1="439.21" y2="445.29"/>
	<line x1="518.45" x2="516.79" y1="432.46" y2="439.21"/>
	<line x1="522.36" x2="520.3" y1="416.61" y2="424.95"/>
	<line x1="529.99" x2="527.17" y1="385.62" y2="397.05"/>
	<line x1="625" x2="612.68" y2="50"/>
	<line x1="601.59" x2="591.62" y1="95" y2="135.5"/>
	<path d="m513.94 450.76"/>
	<line x1="533.12" x2="529.99" y1="372.91" y2="385.62"/>
	<line x1="572.03" x2="565.02" y1="358.79" y2="372.91"/>
	<line x1="535.48" x2="532.13" y1="432.46" y2="439.21"/>
	<line x1="532.13" x2="529.12" y1="439.21" y2="445.29"/>
	<line x1="529.12" x2="526.4" y1="445.29" y2="450.76"/>
	<line x1="539.2" x2="535.48" y1="424.95" y2="432.46"/>
	<line x1="547.94" x2="543.34" y1="407.35" y2="416.61"/>
	<line x1="553.04" x2="547.94" y1="397.05" y2="407.35"/>
	<line x1="543.34" x2="539.2" y1="416.61" y2="424.95"/>
	<line x1="702.88" x2="682.79" y1="95" y2="135.5"/>
	<path d="m526.4 450.76"/>
	<line x1="579.81" x2="572.03" y1="343.09" y2="358.79"/>
	<line x1="558.72" x2="553.04" y1="385.62" y2="397.05"/>
	<line x1="664.71" x2="648.43" y1="171.95" y2="204.76"/>
	<line x1="633.79" x2="620.61" y1="234.28" y2="260.85"/>
	<line x1="620.61" x2="608.74" y1="260.85" y2="284.77"/>
	<line x1="682.79" x2="664.71" y1="135.5" y2="171.95"/>
	<line x1="648.43" x2="633.79" y1="204.76" y2="234.28"/>
	<line x1="588.46" x2="579.81" y1="325.66" y2="343.09"/>
	<line x1="725.2" x2="702.88" y1="50" y2="95"/>
	<line x1="565.02" x2="558.72" y1="372.91" y2="385.62"/>
	<line x1="608.74" x2="598.07" y1="284.77" y2="306.29"/>
	<line x1="750" x2="725.2" y2="50"/>
	<line x1="598.07" x2="588.46" y1="306.29" y2="325.66"/>
	<line x1="607.45" x2="596.92" y1="358.79" y2="372.91"/>
	<line x1="662.65" x2="646.6" y1="284.77" y2="306.29"/>
	<line x1="680.48" x2="662.65" y1="260.85" y2="284.77"/>
	<line x1="646.6" x2="632.15" y1="306.29" y2="325.66"/>
	<line x1="700.3" x2="680.48" y1="234.28" y2="260.85"/>
	<line x1="596.92" x2="587.44" y1="372.91" y2="385.62"/>
	<line x1="804.16" x2="773.96" y1="95" y2="135.5"/>
	<line x1="632.15" x2="619.15" y1="325.66" y2="343.09"/>
	<line x1="773.96" x2="746.77" y1="135.5" y2="171.95"/>
	<line x1="746.77" x2="722.31" y1="171.95" y2="204.76"/>
	<line x1="722.31" x2="700.3" y1="204.76" y2="234.28"/>
	<line x1="619.15" x2="607.45" y1="343.09" y2="358.79"/>
	<line x1="542.94" x2="538.86" y1="445.29" y2="450.76"/>
	<path d="m538.86 450.76"/>
	<line x1="837.71" x2="804.16" y1="50" y2="95"/>
	<line x1="875" x2="837.71" y2="50"/>
	<line x1="547.47" x2="542.94" y1="439.21" y2="445.29"/>
	<line x1="571.24" x2="564.33" y1="407.35" y2="416.61"/>
	<line x1="564.33" x2="558.11" y1="416.61" y2="424.95"/>
	<line x1="578.91" x2="571.24" y1="397.05" y2="407.35"/>
	<line x1="587.44" x2="578.91" y1="385.62" y2="397.05"/>
	<line x1="552.51" x2="547.47" y1="432.46" y2="439.21"/>
	<line x1="558.11" x2="552.51" y1="424.95" y2="432.46"/>
</g>
</svg>
