<?xml version="1.0" encoding="UTF-8"?>
<!DOCTYPE svg  PUBLIC '-//W3C//DTD SVG 1.1//EN'  'http://www.w3.org/Graphics/SVG/1.1/DTD/svg11.dtd'>
<svg enable-background="new 0 0 1620.0999 1620.0999" version="1.1" viewBox="0 0 1620.1 1620.1" xml:space="preserve" xmlns="http://www.w3.org/2000/svg">
<g fill="none" stroke="#000" stroke-miterlimit="10">
	
		<path d="m811.55 346.26c-0.36 245.04-0.7207 490.08-1.0811 735.12l-0.2703 183.78c-0.045 30.63-0.0901 61.26-0.1351 91.89-0.0289 19.675-0.0097 53.008-0.0097 53.008v200"/>
		<path d="m811.55 346.26c10.841 244.56 21.593 489.13 32.39 733.7 2.6992 61.143 5.3983 122.29 8.0975 183.43 1.3495 30.571 2.6992 61.143 4.0488 91.714 0.8677 19.656 4.1741 52.843 4.1741 52.843l16.736 199.3"/>
		<path d="m811.55 346.26c22.09 243.12 43.751 486.31 65.626 729.49 5.4689 60.793 10.938 121.59 16.407 182.38 2.7344 30.396 5.4689 60.793 8.2033 91.19 1.7621 19.587 8.3287 52.337 8.3287 52.337l33.354 197.2"/>
		<path d="m811.55 346.26c33.391 240.71 65.597 481.64 98.395 722.49 8.1996 60.212 16.399 120.43 24.599 180.64 4.0998 30.106 8.1996 60.213 12.299 90.319 2.651 19.467 12.425 51.493 12.425 51.493l49.738 193.72"/>
		<path d="m811.55 346.26c44.749 237.3 86.977 475.15 130.47 712.78 10.872 59.406 21.744 118.81 32.616 178.22 5.436 29.703 10.872 59.406 16.308 89.108 3.5315 19.296 16.433 50.317 16.433 50.317l65.773 188.88"/>
		<path d="m811.55 346.26c56.167 232.84 107.74 466.89 161.61 700.4 13.468 58.378 26.936 116.76 40.403 175.13 6.7339 29.189 13.468 58.378 20.202 87.567 4.4001 19.073 20.327 48.818 20.327 48.818l81.347 182.71"/>
		<path d="m811.55 346.26c67.646 227.27 127.75 456.91 191.62 685.46 15.968 57.137 31.937 114.27 47.905 171.41 7.9843 28.568 15.968 57.137 23.953 85.705 5.2537 18.798 24.077 47.006 24.077 47.006l96.351 175.26"/>
		<path d="m811.55 346.26c79.185 220.54 146.85 445.28 220.28 668.05 18.356 55.691 36.713 111.38 55.069 167.07 9.1781 27.845 18.356 55.691 27.534 83.536 6.0885 18.472 27.659 44.893 27.659 44.893l110.68 166.58"/>
		<path d="m811.55 346.26c90.772 212.54 164.92 432.09 247.38 648.29 20.615 54.05 41.23 108.1 61.844 162.15 10.307 27.025 20.615 54.05 30.922 81.074 6.9008 18.093 31.047 42.495 31.047 42.495l124.23 156.74"/>
		<path d="m811.55 346.26c102.38 203.15 181.83 417.43 272.74 626.33 22.728 52.225 45.456 104.45 68.184 156.68 11.364 26.113 22.728 52.226 34.092 78.338 7.6868 17.663 34.216 39.828 34.216 39.828l136.91 145.79"/>
		<path d="m811.55 346.26c57.848 95.365 98.727 200.48 148.09 300.94 49.363 100.46 98.726 200.92 148.09 301.38 24.681 50.231 49.363 100.46 74.044 150.69l37.022 75.346c8.4423 17.182 37.146 36.911 37.146 36.911l148.63 133.83"/>
		<path d="m811.55 346.26c63.813 88.744 105.85 191.79 158.77 287.95 52.922 96.159 105.84 192.32 158.77 288.48 26.461 48.08 52.922 96.159 79.383 144.24 13.23 24.04 26.461 48.08 39.691 72.12 9.1635 16.65 39.815 33.764 39.815 33.764l159.31 120.92"/>
		<path d="m811.55 346.26c35.086 39.98 56.111 90.97 84.164 136.75 28.054 45.786 56.108 91.572 84.162 137.36 56.108 91.574 112.22 183.15 168.32 274.72 28.054 45.787 56.108 91.575 84.163 137.36 14.027 22.894 28.054 45.787 42.081 68.681 9.8461 16.07 42.205 30.41 42.205 30.41l168.87 107.17"/>
		<path d="m811.55 346.26c37.889 35.412 58.903 86.046 88.352 129.41 29.45 43.368 58.9 86.737 88.35 130.11 58.9 86.738 117.8 173.48 176.7 260.22 29.45 43.37 58.9 86.739 88.35 130.11 14.725 21.685 29.45 43.37 44.175 65.054 10.486 15.442 44.298 26.873 44.298 26.873l177.24 92.659"/>
		<path d="m811.55 346.26c40.413 30.188 61.28 80.903 91.919 121.74 30.639 40.842 61.278 81.684 91.916 122.53 61.278 81.686 122.55 163.37 183.83 245.06 30.639 40.844 61.277 81.687 91.916 122.53 15.319 20.422 30.639 40.844 45.958 61.265 11.08 14.77 46.081 23.176 46.081 23.176l184.37 77.503"/>
		<path d="m811.55 346.26c42.48 24.304 63.227 75.575 94.838 113.8 31.612 38.225 63.224 76.451 94.835 114.68 63.224 76.453 126.45 152.91 189.67 229.36 31.612 38.227 63.224 76.454 94.835 114.68 15.806 19.114 31.612 38.227 47.418 57.34 11.623 14.056 47.54 19.346 47.54 19.346l190.21 61.803"/>
		<path d="m811.55 346.26c21.739 8.5199 32.367 34.574 48.547 52.336 16.182 17.764 32.363 35.532 48.544 53.299 32.363 35.536 64.725 71.073 97.088 106.61 64.725 71.075 129.45 142.15 194.18 213.23 32.362 35.538 64.725 71.076 97.088 106.61 16.181 17.769 32.362 35.538 48.544 53.307 12.113 13.302 48.666 15.409 48.666 15.409l194.72 45.67"/>
		<path d="m811.55 346.26c21.92 5.0939 32.89 31.734 49.332 48.125 16.444 16.393 32.886 32.789 49.328 49.186 32.886 32.794 65.771 65.589 98.657 98.384 65.772 65.591 131.54 131.18 197.31 196.77 32.886 32.796 65.771 65.592 98.657 98.388 16.443 16.398 32.886 32.796 49.328 49.194 12.547 12.513 49.45 11.394 49.45 11.394l197.85 29.217"/>
		<path d="m811.55 346.26c21.566 1.6546 33.183 28.858 49.77 43.861 16.589 15.005 33.178 30.013 49.766 45.021 33.178 30.017 66.355 60.036 99.532 90.054 66.355 60.038 132.71 120.08 199.06 180.12 33.178 30.019 66.355 60.039 99.532 90.058 16.589 15.01 33.178 30.019 49.766 45.029 12.921 11.691 49.888 7.3284 49.888 7.3284l199.61 12.558"/>
		<path d="m811.55 346.26c10-0.8473 16.625 12.377 24.931 19.171 8.3104 6.7971 16.618 13.6 24.927 20.405 16.619 13.609 33.236 27.222 49.854 40.834 33.236 27.226 66.472 54.454 99.708 81.681 66.472 54.456 132.94 108.91 199.42 163.37 33.236 27.228 66.472 54.457 99.708 81.685 16.618 13.614 33.236 27.228 49.854 40.842 13.235 10.842 49.975 3.2408 49.975 3.2408l199.96-4.1885"/>
		<path d="m811.55 346.26c9.3127-2.2282 16.537 10.885 24.8 16.982 8.2665 6.1005 16.531 12.208 24.796 18.315 16.531 12.216 33.061 24.436 49.591 36.655 33.061 24.44 66.121 48.881 99.182 73.323 66.121 48.883 132.24 97.767 198.36 146.65 33.061 24.442 66.121 48.884 99.182 73.326 16.53 12.221 33.061 24.442 49.591 36.663 13.486 9.9702 49.712-0.8401 49.712-0.8401l198.9-20.906"/>
		<path d="m811.55 346.26c8.47-3.3586 16.334 9.4054 24.494 14.813 8.1645 5.4102 16.327 10.827 24.49 16.244 16.327 10.835 32.653 21.674 48.979 32.513 32.653 21.678 65.306 43.358 97.958 65.038 65.306 43.36 130.61 86.72 195.92 130.08 32.653 21.68 65.306 43.361 97.958 65.041l48.979 32.521c13.674 9.079 49.1-4.8858 49.1-4.8858l196.46-37.476"/>
		<path d="m811.55 346.26c7.5481-4.2186 16.015 7.9494 24.016 12.678 8.0049 4.731 16.008 9.4686 24.012 14.207 16.008 9.4766 32.015 18.956 48.023 28.436 32.016 18.96 64.031 37.922 96.046 56.884 64.031 37.924 128.06 75.849 192.09 113.77 32.015 18.962 64.031 37.925 96.046 56.887 16.008 9.4813 32.015 18.962 48.023 28.444 13.799 8.1733 48.143-8.8678 48.143-8.8678l192.63-53.784"/>
		<path d="m811.55 346.26c6.6136-4.8214 15.584 6.5271 23.37 10.593 7.7892 4.0677 15.576 8.1418 23.364 12.216 15.577 8.1492 31.153 16.302 46.729 24.454 31.153 16.305 62.305 32.612 93.458 48.919 62.305 32.614 124.61 65.228 186.92 97.843 31.153 16.307 62.305 32.615 93.458 48.922 15.576 8.1537 31.153 16.307 46.729 24.461 13.863 7.257 46.849-12.758 46.849-12.758l187.46-69.714"/>
		<path d="m811.55 346.26c5.7147-5.2004 15.043 5.1484 22.559 8.5721 7.5186 3.4249 15.036 6.8559 22.553 10.287 15.036 6.8628 30.071 13.728 45.106 20.594 30.071 13.732 60.142 27.465 90.212 41.198 60.142 27.467 120.28 54.934 180.42 82.402 30.071 13.734 60.142 27.468 90.212 41.201 15.035 6.8669 30.071 13.734 45.106 20.601 13.867 6.3335 45.226-16.53 45.226-16.53l180.97-85.156"/>
		<path d="m811.55 346.26c4.8805-5.397 14.396 3.8232 21.589 6.6294 7.1951 2.807 14.389 5.6198 21.583 8.4328 14.389 5.6261 28.778 11.255 43.166 16.884 28.778 11.258 57.555 22.517 86.332 33.777 57.555 22.519 115.11 45.038 172.66 67.558 28.778 11.26 57.555 22.52 86.332 33.779 14.389 5.6299 28.778 11.26 43.166 16.89 13.815 5.4052 43.286-20.156 43.286-20.156l173.21-100"/>
		<path d="m811.55 346.26c8.402-11.055 27.288 6.9974 40.928 11.445 13.641 4.4479 27.282 8.8983 40.922 13.349 27.282 8.9011 54.563 17.803 81.845 26.706 54.563 17.805 109.13 35.61 163.69 53.415 27.282 8.9026 54.563 17.805 81.845 26.708 13.641 4.4514 27.282 8.9027 40.922 13.354 13.708 4.4732 41.042-23.612 41.042-23.612l164.23-114.14"/>
		<path d="m811.55 346.26c6.954-10.837 25.6 4.6969 38.397 8.0332 12.797 3.3365 25.594 6.6753 38.391 10.014 25.594 6.6776 51.187 13.356 76.781 20.035 51.187 13.357 102.37 26.715 153.56 40.073 25.594 6.679 51.187 13.358 76.781 20.037 12.797 3.3395 25.594 6.679 38.391 10.018 13.551 3.5363 38.51-26.872 38.51-26.872l154.1-127.48"/>
		<path d="m811.55 346.26c5.6762-10.428 23.732 2.551 35.595 4.8506 11.863 2.2996 23.726 4.6012 35.589 6.9028 23.726 4.6031 47.451 9.2072 71.177 13.811 47.451 9.2082 94.903 18.417 142.35 27.626 23.726 4.6043 47.451 9.2087 71.177 13.813 11.863 2.3022 23.726 4.6044 35.588 6.9066 13.348 2.5903 35.707-29.914 35.707-29.914l142.89-139.93"/>
		<path d="m811.55 346.26c4.5614-9.8763 21.698 0.575 32.543 1.9196 10.845 1.3446 21.691 2.6907 32.536 4.0369 21.691 2.6923 43.381 5.3854 65.072 8.0785 43.381 5.3862 86.762 10.773 130.14 16.159 21.691 2.6933 43.381 5.3866 65.072 8.0799 10.845 1.3467 21.691 2.6933 32.536 4.04 13.1 1.6266 32.654-32.718 32.654-32.718l130.68-151.4"/>
		<path d="m811.55 346.26c3.5991-9.2262 19.51-1.2173 29.261-0.7393 9.7514 0.478 19.503 0.9572 29.254 1.4365 19.503 0.9585 39.006 1.9176 58.508 2.8767 39.006 1.9182 78.011 3.8367 117.02 5.7552 19.503 0.9592 39.006 1.9185 58.508 2.8778 9.7513 0.4796 19.503 0.9593 29.254 1.4389 12.808 0.63 29.372-35.262 29.372-35.262l117.56-161.8"/>
		<path d="m811.55 346.26c5.4118-16.551 34.362-3.4014 51.54-3.9876s34.355-1.172 51.532-1.7578c34.355-1.1715 68.71-2.3428 103.06-3.5141 17.177-0.5857 34.355-1.1713 51.532-1.7569 8.5887-0.2928 17.178-0.5856 25.766-0.8784 12.466-0.425 25.884-37.53 25.884-37.53l103.61-171.07"/>
		<path d="m811.55 346.26c3.9775-14.8 29.469-6.1341 44.201-8.065 14.731-1.9309 29.462-3.8616 44.193-5.7922 29.462-3.8613 58.924-7.7224 88.386-11.584 14.731-1.9305 29.462-3.8611 44.193-5.7916 7.3656-0.9653 14.731-1.9305 22.097-2.8958 12.052-1.5795 22.215-39.505 22.215-39.505l88.927-179.14"/>
		<path d="m811.55 346.26c2.8001-13.022 24.369-8.4401 36.55-11.506 12.181-3.0663 24.362-6.1324 36.542-9.1985 24.362-6.1322 48.723-12.264 73.084-18.396 12.181-3.066 24.362-6.132 36.542-9.1981 6.0903-1.533 12.181-3.066 18.271-4.599 11.519-2.8995 18.389-41.174 18.389-41.174l73.625-185.96"/>
		<path d="m811.55 346.26c1.8604-11.3 19.096-10.303 28.64-14.288s19.089-7.9684 28.633-11.953c19.089-7.9683 38.177-15.937 57.266-23.905 9.5443-3.9841 19.089-7.9682 28.633-11.952 4.7722-1.9921 9.5443-3.9841 14.316-5.9762 10.75-4.4874 14.434-42.525 14.434-42.525l57.806-191.46"/>
		<path d="m811.55 346.26c2.0867-17.893 27.369-21.068 41.049-30.424s27.361-18.714 41.042-28.07c6.8403-4.6784 13.681-9.3568 20.521-14.035 3.4202-2.3392 6.8403-4.6784 10.26-7.0176 9.47-6.4769 10.378-43.548 10.378-43.548l41.582-195.63"/>
		<path d="m811.55 346.26c1.0527-15.031 16.358-22.94 24.534-33.228 8.1754-10.288 16.351-20.576 24.526-30.864 4.0877-5.144 8.1754-10.288 12.263-15.432 2.0438-2.572 4.0877-5.144 6.1315-7.7159 7.0649-8.8905 6.2493-44.236 6.2493-44.236l25.067-198.42"/>
		<path d="m811.55 346.26c0.5931-24.436 10.454-45.387 15.677-66.897 1.3058-5.3776 2.6116-10.755 3.9174-16.133 0.6528-2.6888 1.3057-5.3776 1.9586-8.0663 2.6665-10.982 2.0765-44.584 2.0765-44.584l8.3751-199.82"/>
		<path d="m811.55 346.26c-0.5266-24.592-11.88-45.38-17.824-66.891-1.4859-5.3776-2.9719-10.755-4.4578-16.133-0.743-2.6888-1.486-5.3776-2.2289-8.0663-3.0121-10.901-2.1111-44.59-2.1111-44.59l-8.3751-199.82"/>
		<path d="m811.55 346.26c-1.0294-15.207-17.064-22.921-25.6-33.209s-17.072-20.576-25.607-30.864c-4.2679-5.144-8.5357-10.288-12.804-15.432-2.1339-2.572-4.2678-5.144-6.4018-7.7159-7.267-8.7587-6.2839-44.255-6.2839-44.255l-25.067-198.42"/>
		<path d="m811.55 346.26c-2.0924-18.137-28.074-21.036-42.115-30.393s-28.082-18.714-42.123-28.07l-21.062-14.035c-3.5102-2.3392-7.0204-4.6784-10.531-7.0176-9.5811-6.3848-10.413-43.579-10.413-43.579l-41.582-195.63"/>
		<path d="m811.55 346.26c-1.881-11.412-19.442-10.259-29.166-14.243-9.7244-3.9844-19.449-7.9687-29.173-11.953-19.449-7.9684-38.898-15.937-58.347-23.905-9.7244-3.9842-19.449-7.9683-29.173-11.952-4.8622-1.9921-9.7245-3.9841-14.587-5.9762-10.83-4.4368-14.469-42.569-14.469-42.569l-57.806-191.46"/>
		<path d="m811.55 346.26c-2.8578-13.141-24.714-8.3833-37.076-11.45-12.361-3.0665-24.722-6.1327-37.083-9.1988-24.722-6.1323-49.444-12.264-74.165-18.396-12.361-3.0661-24.722-6.1321-37.083-9.1982-6.1805-1.533-12.361-3.066-18.541-4.5991-11.593-2.8755-18.423-41.23-18.423-41.23l-73.625-185.96"/>
		<path d="m811.55 346.26c-4.0906-14.915-29.815-6.0655-44.727-7.9968-14.911-1.9312-29.822-3.8619-44.734-5.7926-29.822-3.8614-59.645-7.7226-89.468-11.584-14.911-1.9306-29.823-3.8611-44.734-5.7917-7.4556-0.9653-14.911-1.9306-22.367-2.8958-12.128-1.5703-22.248-39.573-22.248-39.573l-88.927-179.14"/>
		<path d="m811.55 346.26c-2.8641-8.5382-17.351-2.7322-26.03-3.0269-8.6788-0.2947-17.358-0.588-26.036-0.8812-17.358-0.5865-34.715-1.1724-52.073-1.7582-34.715-1.1717-69.431-2.343-104.15-3.5143-17.358-0.5857-34.715-1.1713-52.073-1.757-8.6788-0.2928-17.358-0.5857-26.036-0.8785-12.546-0.4233-25.918-37.609-25.918-37.609l-103.61-171.07"/>
		<path d="m811.55 346.26c-3.7368-9.2356-19.676-1.1255-29.518-0.6482-9.8415 0.4773-19.683 0.9564-29.524 1.4354-19.683 0.9582-39.366 1.9171-59.049 2.8762-39.366 1.918-78.732 3.8365-118.1 5.7549-19.683 0.9592-39.366 1.9185-59.049 2.8777-9.8415 0.4796-19.683 0.9593-29.524 1.4389-12.892 0.6283-29.406-35.352-29.406-35.352l-117.56-161.8"/>
		<path d="m811.55 346.26c-4.7662-9.8567-21.864 0.6769-32.8 2.0207-10.935 1.3438-21.871 2.6898-32.806 4.0358-21.871 2.692-43.742 5.385-65.612 8.078-43.742 5.386-87.483 10.773-131.22 16.159-21.871 2.6933-43.742 5.3866-65.612 8.0799-10.935 1.3466-21.871 2.6933-32.806 4.04-13.185 1.6236-32.687-32.817-32.687-32.817l-130.68-151.4"/>
		<path d="m811.55 346.26c-5.9651-10.358-23.9 2.6622-35.852 4.961-11.953 2.2989-23.906 4.6003-35.859 6.9017-23.906 4.6028-47.812 9.2068-71.718 13.811-47.812 9.208-95.623 18.417-143.44 27.625-23.906 4.6043-47.812 9.2086-71.718 13.813-11.953 2.3022-23.906 4.6043-35.859 6.9065-13.431 2.5869-35.74-30.023-35.74-30.023l-142.89-139.93"/>
		<path d="m811.55 346.26c-7.3439-10.688-25.768 4.8165-38.655 8.1521-12.887 3.3358-25.774 6.6744-38.661 10.013-25.774 6.6772-51.548 13.356-77.322 20.034-51.548 13.357-103.1 26.715-154.64 40.073-25.774 6.679-51.548 13.358-77.322 20.037-12.887 3.3395-25.774 6.679-38.661 10.018-13.631 3.5323-38.541-26.989-38.541-26.989l-154.1-127.48"/>
		<path d="m811.55 346.26c-8.9062-10.785-27.457 7.1246-41.187 11.572-13.731 4.4473-27.462 8.8976-41.193 13.348-27.462 8.9007-54.924 17.803-82.385 26.705-54.924 17.804-109.85 35.61-164.77 53.415-27.462 8.9026-54.924 17.805-82.385 26.708-13.731 4.4513-27.462 8.9026-41.193 13.354-13.783 4.4682-41.073-23.736-41.073-23.736l-164.23-114.14"/>
		<path d="m811.55 346.26c-5.1823-5.1866-14.475 3.9594-21.713 6.7643-7.2402 2.8059-14.479 5.6183-21.718 8.431-14.479 5.6255-28.958 11.254-43.436 16.883-28.958 11.258-57.915 22.517-86.873 33.776-57.915 22.519-115.83 45.038-173.75 67.558-28.958 11.26-57.915 22.52-86.873 33.779l-43.436 16.89c-13.883 5.3983-43.316-20.287-43.316-20.287l-173.21-100"/>
		<path d="m811.55 346.26c-6.0748-4.8845-15.122 5.2899-22.683 8.7124-7.5637 3.4239-15.126 6.8546-22.688 10.286-15.126 6.8622-30.251 13.728-45.376 20.594-30.251 13.732-60.502 27.465-90.753 41.198-60.502 27.467-121 54.934-181.51 82.402-30.251 13.734-60.502 27.468-90.753 41.201-15.126 6.8669-30.251 13.734-45.376 20.601-13.929 6.3235-45.256-16.667-45.256-16.667l-180.97-85.156"/>
		<path d="m811.55 346.26c-7.0166-4.3671-15.664 6.6727-23.495 10.738-7.8343 4.0669-15.667 8.1407-23.5 12.215-15.667 8.1488-31.333 16.301-46.999 24.453-31.333 16.305-62.666 32.612-93.998 48.918-62.666 32.614-125.33 65.228-188 97.843-31.333 16.307-62.666 32.615-93.998 48.922l-46.999 24.461c-13.916 7.2429-46.879-12.9-46.879-12.9l-187.46-69.714"/>
		<path d="m811.55 346.26c-7.963-3.598-16.096 8.0981-24.142 12.826-8.05 4.7304-16.098 9.4678-24.147 14.206-16.098 9.4762-32.196 18.956-48.293 28.436-32.196 18.96-64.391 37.922-96.586 56.884-64.391 37.924-128.78 75.848-193.17 113.77-32.196 18.962-64.391 37.925-96.586 56.887-16.098 9.4812-32.196 18.962-48.293 28.444-13.844 8.1539-48.172-9.0139-48.172-9.0139l-192.63-53.784"/>
		<path d="m811.55 346.26c-8.8496-2.5597-16.415 9.556-24.621 14.963-8.2095 5.4099-16.417 10.827-24.625 16.244-16.417 10.835-32.833 21.674-49.25 32.512-32.833 21.678-65.666 43.358-98.499 65.037-65.666 43.36-131.33 86.72-197 130.08-32.833 21.68-65.666 43.361-98.499 65.041l-49.25 32.521c-13.711 9.0535-49.128-5.0347-49.128-5.0347l-196.46-37.476"/>
		<path d="m811.55 346.26c-9.6015-1.2664-16.619 11.036-24.927 17.134-8.3115 6.1004-16.621 12.207-24.931 18.315-16.621 12.216-33.241 24.435-49.861 36.655-33.241 24.44-66.482 48.881-99.722 73.323-66.482 48.883-132.96 97.767-199.44 146.65-33.241 24.442-66.482 48.884-99.722 73.326-16.62 12.221-33.241 24.442-49.861 36.663-13.515 9.9377-49.74-0.9908-49.74-0.9908l-198.9-20.906"/>
		<path d="m811.55 346.26c-20.873 0.6254-33.414 26.12-50.121 39.727-16.709 13.609-33.416 27.222-50.124 40.834-33.416 27.226-66.832 54.454-100.25 81.681-66.832 54.456-133.66 108.91-200.5 163.37l-100.25 81.685c-16.708 13.614-33.416 27.228-50.124 40.842-13.257 10.802-50.002 3.0893-50.002 3.0893l-199.96-4.1886"/>
		<path d="m811.55 346.26c-21.431 3.9357-33.356 29.009-50.033 44.012-16.68 15.005-33.358 30.013-50.036 45.021-33.358 30.017-66.715 60.036-100.07 90.054-66.716 60.038-133.43 120.08-200.15 180.12-33.358 30.019-66.715 60.039-100.07 90.058-16.679 15.01-33.358 30.02-50.036 45.029-12.938 11.643-49.914 7.1772-49.914 7.1772l-199.61 12.558"/>
		<path d="m811.55 346.26c-21.468 7.2733-33.064 31.883-49.596 48.274-16.534 16.393-33.066 32.79-49.599 49.186-33.066 32.794-66.132 65.589-99.198 98.384-66.132 65.591-132.26 131.18-198.4 196.77-33.066 32.796-66.132 65.592-99.198 98.388-16.533 16.398-33.066 32.796-49.599 49.194-12.559 12.457-49.476 11.244-49.476 11.244l-197.85 29.217"/>
		<path d="m811.55 346.26c-21.049 10.476-32.541 34.72-48.812 52.483-16.272 17.765-32.543 35.532-48.814 53.3-32.543 35.536-65.086 71.073-97.628 106.61-65.086 71.075-130.17 142.15-195.26 213.23-32.543 35.538-65.085 71.076-97.628 106.61-16.271 17.769-32.543 35.538-48.814 53.307-12.123 13.238-48.691 15.262-48.691 15.262l-194.72 45.67"/>
		<path d="m811.55 346.26c-40.736 27.524-63.582 75.718-95.374 113.94-31.792 38.225-63.584 76.451-95.376 114.68-63.584 76.453-127.17 152.91-190.75 229.36-31.792 38.227-63.584 76.454-95.376 114.68l-47.688 57.34c-11.631 13.985-47.565 19.202-47.565 19.202l-190.21 61.803"/>
		<path d="m811.55 346.26c-38.613 32.792-61.636 81.041-92.454 121.88-30.819 40.842-61.638 81.685-92.456 122.53-61.638 81.686-123.28 163.37-184.91 245.06-30.819 40.844-61.638 81.687-92.456 122.53-15.41 20.422-30.819 40.844-46.228 61.265-11.087 14.694-46.105 23.036-46.105 23.036l-184.37 77.503"/>
		<path d="m811.55 346.26c-36.174 37.453-59.259 86.179-88.889 129.55-29.63 43.368-59.26 86.737-88.891 130.11-59.261 86.739-118.52 173.48-177.78 260.22-29.63 43.37-59.26 86.739-88.891 130.11-14.815 21.685-29.63 43.37-44.445 65.055-10.494 15.36-44.322 26.738-44.322 26.738l-177.24 92.659"/>
		<path d="m811.55 346.26c-66.675 83.914-112.94 182.67-169.4 274.24-56.469 91.574-112.94 183.15-169.41 274.72-28.234 45.787-56.469 91.575-84.703 137.36-14.117 22.894-28.234 45.787-42.352 68.681-9.8564 15.984-42.228 30.283-42.228 30.283l-168.87 107.17"/>
		<path d="m811.55 346.26c-61.274 90.851-106.56 191.91-159.85 288.07-53.282 96.159-106.56 192.32-159.85 288.48-26.641 48.08-53.282 96.16-79.923 144.24-13.32 24.04-26.641 48.08-39.962 72.12-9.1771 16.562-39.838 33.644-39.838 33.644l-159.31 120.92"/>
		<path d="m811.55 346.26c-110.3 194.83-198.89 401.51-298.34 602.43-24.862 50.231-49.723 100.46-74.585 150.69-12.431 25.115-24.862 50.231-37.292 75.346-8.4602 17.093-37.168 36.798-37.168 36.798l-148.63 133.83"/>
		<path d="m811.55 346.26c-99.53 204.98-183.27 417.53-274.9 626.44-22.908 52.225-45.817 104.45-68.725 156.68-11.454 26.113-22.908 52.225-34.362 78.338-7.7095 17.576-34.238 39.724-34.238 39.724l-136.91 145.79"/>
		<path d="m811.55 346.26c-88.666 213.8-166.36 432.19-249.54 648.39-20.795 54.05-41.59 108.1-62.385 162.15-10.398 27.025-20.795 54.05-31.192 81.074-6.9289 18.009-31.068 42.401-31.068 42.401l-124.23 156.74"/>
		<path d="m811.55 346.26c-77.745 221.37-148.29 445.37-222.44 668.13-18.536 55.691-37.073 111.38-55.609 167.07-9.2682 27.845-18.536 55.69-27.805 83.536-6.1221 18.393-27.68 44.809-27.68 44.809l-110.68 166.58"/>
		<path d="m811.55 346.26c-66.785 227.81-129.19 456.98-193.78 685.53-16.149 57.137-32.297 114.27-48.446 171.41-8.0743 28.568-16.149 57.137-24.223 85.705-5.2928 18.727-24.098 46.933-24.098 46.933l-96.351 175.26"/>
		<path d="m811.55 346.26c-55.793 233.15-109.18 466.95-163.78 700.46-13.648 58.378-27.296 116.76-40.944 175.13-6.824 29.189-13.648 58.378-20.472 87.567-4.4445 19.011-20.347 48.756-20.347 48.756l-81.347 182.71"/>
		<path d="m811.55 346.26c-44.772 237.47-88.418 475.2-132.63 712.83-11.052 59.406-22.105 118.81-33.157 178.22-5.5262 29.703-11.052 59.406-16.578 89.109-3.5803 19.244-16.453 50.268-16.453 50.268l-65.773 188.88"/>
		<path d="m811.55 346.26c-33.721 240.8-67.038 481.68-100.56 722.53-8.3798 60.213-16.76 120.43-25.139 180.64-4.1899 30.106-8.3798 60.213-12.57 90.319-2.7037 19.427-12.444 51.455-12.444 51.455l-49.738 193.72"/>
		<path d="m811.55 346.26c-22.637 243.16-45.192 486.34-67.788 729.51-5.649 60.793-11.298 121.59-16.947 182.38-2.8245 30.397-5.649 60.793-8.4736 91.19-1.8176 19.56-8.3481 52.312-8.3481 52.312l-33.354 197.2"/>
		<path d="m811.55 346.26c-11.518 244.57-23.035 489.14-34.552 733.72-2.8793 61.143-5.7587 122.29-8.6381 183.43-1.4396 30.572-2.8793 61.143-4.319 91.714-0.925 19.643-4.1935 52.831-4.1935 52.831l-16.736 199.3"/>
	
	
		<path d="m810.05 1610c-442.19 0-800-357.81-800-800s357.81-800 800-800 800 357.81 800 800-357.81 800-800 800z"/>
		<path d="m1599.5 810.05c0-436.37-353.1-789.47-789.47-789.47s-789.47 353.1-789.47 789.47 353.1 789.47 789.47 789.47 789.47-353.1 789.47-789.47z"/>
		<path d="m810.05 1589c-430.55 0-778.95-348.4-778.95-778.95s348.4-778.95 778.95-778.95 778.95 348.4 778.95 778.95-348.4 778.95-778.95 778.95z"/>
		<path d="m1578.5 810.05c0-424.73-343.69-768.42-768.42-768.42s-768.42 343.69-768.42 768.42 343.69 768.42 768.42 768.42 768.42-343.69 768.42-768.42z"/>
		<path d="m810.05 1567.9c-418.91 0-757.89-338.98-757.89-757.89s338.98-757.89 757.89-757.89 757.89 338.98 757.89 757.89-338.98 757.89-757.89 757.89z"/>
		<path d="m1557.4 810.05c0-413.1-334.27-747.37-747.37-747.37s-747.37 334.27-747.37 747.37 334.27 747.37 747.37 747.37 747.37-334.27 747.37-747.37z"/>
		<path d="m810.05 1546.9c-407.28 0-736.84-329.56-736.84-736.84s329.56-736.84 736.84-736.84 736.84 329.56 736.84 736.84-329.56 736.84-736.84 736.84z"/>
		<path d="m1536.4 810.05c0-401.46-324.86-726.32-726.32-726.32s-726.32 324.86-726.32 726.32 324.86 726.32 726.32 726.32 726.32-324.86 726.32-726.32z"/>
		<path d="m810.05 1525.8c-395.64 0-715.79-320.15-715.79-715.79s320.15-715.79 715.79-715.79 715.79 320.15 715.79 715.79-320.15 715.79-715.79 715.79z"/>
		<path d="m1515.3 810.05c0-389.82-315.44-705.26-705.26-705.26s-705.26 315.44-705.26 705.26 315.44 705.26 705.26 705.26 705.26-315.44 705.26-705.26z"/>
		<path d="m810.05 1504.8c-384 0-694.74-310.73-694.74-694.74s310.73-694.74 694.74-694.74 694.74 310.73 694.74 694.74-310.73 694.74-694.74 694.74z"/>
		<path d="m1494.3 810.05c0-378.19-306.02-684.21-684.21-684.21s-684.21 306.02-684.21 684.21 306.02 684.21 684.21 684.21 684.21-306.02 684.21-684.21z"/>
		<path d="m810.05 1483.7c-372.37 0-673.68-301.32-673.68-673.68s301.32-673.68 673.68-673.68 673.68 301.32 673.68 673.68-301.32 673.68-673.68 673.68z"/>
		<path d="m1473.2 810.05c0-366.55-296.61-663.16-663.16-663.16s-663.16 296.61-663.16 663.16 296.61 663.16 663.16 663.16 663.16-296.61 663.16-663.16z"/>
		<path d="m810.05 1462.7c-360.73 0-652.63-291.9-652.63-652.63s291.9-652.63 652.63-652.63 652.63 291.9 652.63 652.63-291.9 652.63-652.63 652.63z"/>
		<path d="m1452.2 810.05c0-354.91-287.19-642.11-642.11-642.11s-642.11 287.19-642.11 642.11 287.19 642.11 642.11 642.11 642.11-287.19 642.11-642.11z"/>
		<path d="m810.05 1441.6c-349.1 0-631.58-282.48-631.58-631.58s282.48-631.58 631.58-631.58 631.58 282.48 631.58 631.58-282.48 631.58-631.58 631.58z"/>
		<path d="m1431.1 810.05c0-343.28-277.78-621.05-621.05-621.05s-621.05 277.78-621.05 621.05 277.78 621.05 621.05 621.05 621.05-277.78 621.05-621.05z"/>
		<path d="m810.05 1420.6c-337.46 0-610.53-273.07-610.53-610.53s273.07-610.53 610.53-610.53 610.53 273.07 610.53 610.53-273.07 610.53-610.53 610.53z"/>
		<path d="m1410 810.05c0-331.64-268.36-600-600-600s-600 268.36-600 600 268.36 600 600 600 600-268.36 600-600z"/>
		<path d="m810.05 1399.5c-325.82 0-589.47-263.65-589.47-589.47s263.65-589.47 589.47-589.47 589.47 263.65 589.47 589.47-263.65 589.47-589.47 589.47z"/>
		<path d="m1389 810.05c0-320-258.94-578.95-578.95-578.95s-578.95 258.94-578.95 578.95 258.94 578.95 578.95 578.95 578.95-258.94 578.95-578.95z"/>
		<path d="m810.05 1378.5c-314.19 0-568.42-254.24-568.42-568.42s254.24-568.42 568.42-568.42 568.42 254.24 568.42 568.42-254.24 568.42-568.42 568.42z"/>
		<path d="m1367.9 810.05c0-308.37-249.53-557.89-557.89-557.89s-557.89 249.53-557.89 557.89 249.53 557.89 557.89 557.89 557.89-249.53 557.89-557.89z"/>
		<path d="m810.07 1352.2c-302.61-0.1986-547.12-239.61-547.36-548.47 0.2412-296.23 244.7-548.33 547.37-548.63 302.62 0.2084 547.13 252.39 547.36 548.48-0.2516 309.02-244.8 548.34-547.37 548.62z"/>
		<path d="m1346.9 794.76c-0.0137-70.07-13.662-141.74-42.153-209.34-25.812-61.177-64.579-120.52-114.99-171.06-90.211-90.329-230.48-157.51-379.69-157.55-149.32 0.0829-289.53 67.35-379.7 157.65-50.424 50.561-89.185 109.91-114.99 171.09-28.495 67.615-42.14 139.28-42.155 209.36 0.0153 78.617 16.36 148.5 42.152 209.69 28.514 67.583 68.229 124.04 114.99 170.92 104.38 104.52 230.62 157.29 379.69 157.33 148.98-0.0802 275.23-52.809 379.7-157.44 46.751-46.878 86.475-103.35 114.99-170.95 25.788-61.194 42.139-131.09 42.156-209.71z"/>
		<path d="m810.12 1313.5c-146.44-0.0372-269.69-51.556-372.25-154.25-45.846-45.96-84.782-101.32-112.74-167.58-25.286-60-41.31-128.51-41.325-205.59 0.0144-68.701 13.392-138.97 41.328-205.26 25.304-59.98 63.305-118.17 112.74-167.74 88.395-88.538 225.8-154.49 372.25-154.57 146.34 0.0394 283.81 65.903 372.25 154.46 49.424 49.547 87.431 107.73 112.74 167.71 27.932 66.277 41.313 136.55 41.326 205.25-0.0161 77.08-16.047 145.61-41.329 205.6-27.96 66.277-66.905 121.65-112.74 167.61-102.6 102.77-225.92 154.28-372.25 154.36z"/>
		<path d="m1325.9 777.13c-0.0132-67.328-13.126-136.2-40.5-201.15-24.8-58.783-62.047-115.81-110.48-164.36-86.673-86.793-221.39-151.34-364.8-151.38-143.52 0.0806-278.18 64.717-364.81 151.49-48.447 48.583-85.688 105.61-110.49 164.4-27.377 64.969-40.488 133.83-40.502 201.16 0.0147 75.541 15.719 142.69 40.499 201.49 27.396 64.938 65.553 119.19 110.48 164.23 100.51 100.65 221.29 151.14 364.8 151.17 143.41-0.078 264.26-50.562 364.81-151.28 44.918-45.044 83.084-99.309 110.48-164.26 24.777-58.8 40.487-125.96 40.503-201.5z"/>
		<path d="m810.18 1274.8c-140.59-0.0349-258.9-49.498-357.36-148.09-44.013-44.126-81.391-97.272-108.23-160.89-24.274-57.605-39.658-123.38-39.672-197.39 0.0138-65.959 12.857-133.42 39.675-197.07 24.292-57.586 60.772-113.46 108.23-161.05 84.859-85.004 216.77-148.32 357.36-148.4 140.49 0.037 272.46 63.272 357.36 148.3 47.447 47.57 83.934 103.43 108.23 161.02 26.815 63.632 39.66 131.1 39.673 197.06-0.0155 74.004-15.405 139.8-39.676 197.4-26.841 63.632-64.229 116.79-108.23 160.92-98.499 98.667-216.88 148.12-357.36 148.2z"/>
		<path d="m1305 759.49c-0.0126-64.587-12.591-130.65-38.847-192.96-23.788-56.389-59.514-111.09-105.97-157.67-83.134-83.257-212.35-145.18-349.91-145.21-137.67 0.0781-266.83 62.084-349.92 145.32-46.469 46.605-82.19 101.31-105.98 157.7-26.26 62.323-38.835 128.38-38.849 192.97 0.0141 72.464 15.077 136.88 38.846 193.28 26.277 62.293 62.877 114.33 105.97 157.54 96.404 96.546 212.26 144.98 349.91 145.01 137.55-0.0756 253.47-48.505 349.92-145.12 43.085-43.21 79.693-95.266 105.98-157.58 23.766-56.406 38.834-120.83 38.85-193.3z"/>
		<path d="m810.24 1236.1c-134.73-0.0325-248.12-47.439-342.47-141.94-42.179-42.291-78-93.228-103.72-154.2-23.263-55.21-38.005-118.25-38.019-189.18 0.0132-63.218 12.321-127.88 38.022-188.88 23.279-55.192 58.24-108.74 103.72-154.36 81.322-81.471 207.73-142.16 342.47-142.24 134.63 0.0346 261.1 60.641 342.47 142.13 45.47 45.592 80.436 99.131 103.72 154.32 25.698 60.986 38.008 125.65 38.02 188.86-0.0149 70.927-14.763 133.98-38.023 189.19-25.722 60.987-61.552 111.94-103.72 154.23-94.394 94.565-207.85 141.97-342.47 142.04z"/>
		<path d="m1284 741.85c-0.012-61.846-12.055-125.1-37.194-184.77-22.775-53.995-56.981-106.37-101.46-150.98-79.596-79.722-203.32-139.01-335.02-139.05-131.81 0.0757-255.47 59.45-335.03 139.15-44.492 44.627-78.693 97.013-101.47 151.01-25.142 59.678-37.182 122.93-37.196 184.78 0.0135 69.387 14.435 131.06 37.193 185.08 25.159 59.648 60.202 109.48 101.46 150.85 92.301 92.446 203.23 138.82 335.02 138.86 131.7-0.0732 242.68-46.448 335.03-138.96 41.251-41.376 76.302-91.223 101.47-150.89 22.754-54.012 37.182-115.7 37.196-185.09z"/>
		<path d="m810.29 1197.4c-128.87-0.0302-237.33-45.381-327.58-135.78-40.345-40.457-74.609-89.184-99.209-147.51-22.252-52.816-36.353-113.13-36.366-180.97 0.0127-60.476 11.786-122.33 36.369-180.68 22.267-52.799 55.708-104.02 99.211-147.66 77.786-77.937 198.7-136 327.58-136.07 128.78 0.0322 249.75 58.01 327.58 135.96 43.494 43.614 76.939 94.831 99.208 147.63 24.58 58.341 36.355 120.2 36.367 180.67-0.0143 67.85-14.121 128.17-36.37 180.99-24.604 58.341-58.876 107.08-99.211 147.54-90.289 90.464-198.81 135.81-327.58 135.88z"/>
		<path d="m1263 724.21c-0.0114-59.104-11.519-119.56-35.54-176.58-21.763-51.601-54.449-101.66-96.954-144.28-76.058-76.186-194.28-132.85-320.13-132.88-125.95 0.0733-244.12 56.817-320.14 132.99-42.515 42.649-75.195 92.713-96.956 144.31-24.025 57.032-35.53 117.48-35.542 176.59 0.0128 66.31 13.794 125.25 35.54 176.87 24.041 57.003 57.526 104.63 96.954 144.17 88.198 88.346 194.19 132.67 320.13 132.7 125.85-0.0709 231.9-44.392 320.14-132.8 39.418-39.542 72.911-87.179 96.956-144.2 21.743-51.618 35.529-110.57 35.543-176.88z"/>
		<path d="m810.35 1158.8c-123.01-0.0278-226.54-43.322-312.69-129.62-38.511-38.622-71.218-85.141-94.699-140.82-21.24-50.422-34.7-108-34.713-172.77 0.0121-57.734 11.25-116.78 34.716-172.49 21.255-50.405 53.176-99.308 94.702-140.97 74.25-74.403 189.67-129.83 312.69-129.9 122.93 0.0298 238.4 55.378 312.69 129.8 41.517 41.637 73.442 90.531 94.699 140.94 23.463 55.695 34.703 114.75 34.714 172.48-0.0137 64.774-13.479 122.36-34.717 172.78-23.486 55.696-56.2 102.23-94.701 140.85-86.184 86.362-189.77 129.66-312.69 129.73z"/>
		<path d="m1242 706.57c-0.0109-56.362-10.983-114.01-33.887-168.38-20.751-49.207-51.916-96.94-92.444-137.59-72.519-72.65-185.24-126.68-305.24-126.71-120.09 0.0709-232.77 54.184-305.25 126.82-40.538 40.671-71.698 88.412-92.447 137.62-22.907 54.386-33.878 112.03-33.889 168.4 0.0122 63.234 13.152 119.44 33.886 168.67 22.922 54.358 54.85 99.772 92.444 137.48 84.094 84.246 185.16 126.51 305.24 126.54 119.99-0.0686 221.11-42.335 305.25-126.65 37.585-37.708 69.52-83.136 92.446-137.51 20.732-49.224 33.877-105.44 33.89-168.68z"/>
		<path d="m810.41 1120.1c-117.15-0.0255-215.76-41.264-297.8-123.46-36.678-36.788-67.827-81.097-90.19-134.13-20.229-48.027-33.048-102.87-33.06-164.56 0.0116-54.993 10.714-111.24 33.063-164.3 20.243-48.012 50.643-94.592 90.192-134.27 70.713-70.87 180.64-123.67 297.8-123.74 117.07 0.0273 227.05 52.747 297.8 123.63 39.54 39.659 69.945 86.231 90.189 134.24 22.346 53.05 33.05 109.3 33.061 164.29-0.0131 61.697-12.837 116.55-33.064 164.58-22.367 53.05-53.524 97.374-90.192 134.16-82.079 82.26-180.74 123.5-297.8 123.57z"/>
		<path d="m1221 688.94c-0.0103-53.621-10.447-108.47-32.234-160.19-19.739-46.813-49.383-92.224-87.935-130.89-68.981-69.115-176.21-120.52-290.35-120.55-114.23 0.0685-221.41 51.551-290.36 120.65-38.56 38.693-68.2 84.112-87.937 130.93-21.79 51.74-32.225 106.58-32.236 160.2 0.0116 60.157 12.51 113.63 32.233 160.46 21.804 51.713 52.174 94.917 87.935 130.79 79.992 80.146 176.13 120.36 290.35 120.38 114.14-0.0663 210.33-40.278 290.36-120.49 35.752-35.874 66.129-79.093 87.937-130.82 19.721-46.83 32.225-100.31 32.237-160.47z"/>
		<path d="m810.46 1081.4c-111.3-0.0232-204.97-39.206-282.91-117.3-34.844-34.953-64.436-77.053-85.68-127.44-19.218-45.633-31.396-97.74-31.407-156.36 0.011-52.251 10.179-105.69 31.41-156.11 19.231-45.618 48.111-89.876 85.683-127.58 67.177-67.336 171.61-117.5 282.91-117.57 111.22 0.0249 215.7 50.116 282.91 117.46 37.563 37.682 66.447 81.931 85.68 127.55 21.228 50.405 31.398 103.85 31.408 156.1-0.0125 58.62-12.195 110.74-31.411 156.37-21.248 50.405-50.847 92.519-85.682 127.48-77.974 78.159-171.7 117.34-282.91 117.41z"/>
		<path d="m1200 671.3c-0.0098-50.879-9.9116-102.92-30.581-152-18.726-44.419-46.851-87.507-83.425-124.2-65.443-65.579-167.17-114.36-275.46-114.38-108.38 0.066-210.06 48.918-275.47 114.49-36.583 36.715-64.703 79.811-83.428 124.23-20.672 49.095-30.572 101.13-30.583 152.01 0.011 57.08 11.868 107.82 30.58 152.26 20.685 49.068 49.498 90.063 83.425 124.1 75.888 76.046 167.1 114.2 275.46 114.22 108.28-0.0641 199.54-38.221 275.47-114.33 33.918-34.04 62.738-75.049 83.428-124.13 18.71-44.435 30.572-95.186 30.584-152.27z"/>
		<path d="m810.52 1042.7c-105.44-0.0209-194.18-37.147-268.02-111.14-33.01-33.119-61.044-73.01-81.171-120.75-18.206-43.238-29.743-92.611-29.754-148.15 0.0105-49.51 9.6431-100.15 29.757-147.92 18.219-43.224 45.579-85.16 81.173-120.89 63.64-63.802 162.57-111.34 268.02-111.4 105.37 0.0225 204.35 47.485 268.02 111.3 35.586 35.704 62.95 77.631 81.17 120.85 20.111 47.759 29.745 98.397 29.755 147.91-0.0118 55.544-11.553 104.93-29.758 148.16-20.13 47.76-48.171 87.664-81.173 120.79-73.87 74.057-162.66 111.19-268.02 111.25z"/>
		<path d="m1179 653.66c-0.0092-48.138-9.3759-97.373-28.928-143.81-17.714-42.026-44.318-82.791-78.916-117.51-61.904-62.044-158.13-108.19-260.57-108.21-102.52 0.0636-198.7 46.285-260.58 108.32-34.606 34.737-61.206 75.511-78.918 117.54-19.555 46.449-28.92 95.682-28.93 143.82 0.0103 54.004 11.226 102.01 28.927 144.05 19.567 46.423 46.823 85.209 78.916 117.41 71.785 71.946 158.07 108.04 260.57 108.06 102.43-0.0617 188.76-36.165 260.58-108.17 32.085-32.206 59.347-71.006 78.918-117.44 17.699-42.041 28.92-90.057 28.931-144.06z"/>
		<path d="m810.58 1004c-99.58-0.0186-183.4-35.089-253.13-104.98-31.176-31.284-57.653-68.966-76.661-114.07-17.195-40.844-28.091-87.482-28.101-139.95 0.0099-46.768 9.1075-94.599 28.104-139.73 17.207-40.831 43.046-80.444 76.664-114.19 60.104-60.268 153.54-105.17 253.13-105.24 99.513 0.0201 192.99 44.854 253.13 105.13 33.609 33.726 59.453 73.331 76.661 114.16 18.993 45.114 28.092 92.947 28.101 139.71-0.0112 52.467-10.911 99.115-28.104 139.96-19.011 45.114-45.495 82.81-76.663 114.1-69.765 69.955-153.63 105.03-253.13 105.09z"/>
		<path d="m1158 636.02c-0.0087-45.396-8.8401-91.826-27.275-135.62-16.702-39.632-41.785-78.074-74.406-110.81-58.366-58.508-149.1-102.03-245.68-102.05-96.661 0.0612-187.35 43.652-245.69 102.15-32.628 32.759-57.708 71.21-74.409 110.84-18.437 43.803-27.268 90.232-27.277 135.63 0.0097 50.927 10.585 96.198 27.274 135.84 18.449 43.778 44.147 80.354 74.406 110.72 67.682 67.846 149.03 101.89 245.68 101.91 96.577-0.0594 177.97-34.108 245.69-102.01 30.252-30.372 55.956-66.962 74.408-110.75 16.688-39.647 27.267-84.928 27.278-135.86z"/>
		<path d="m810.64 965.3c-93.723-0.0163-172.61-33.03-238.24-98.826-29.342-29.45-54.262-64.922-72.152-107.38-16.184-38.449-26.438-82.353-26.448-131.74 0.0094-44.027 8.5719-89.053 26.451-131.53 16.195-38.437 40.514-75.728 72.154-107.5 56.568-56.735 144.51-99.01 238.24-99.07 93.66 0.0176 181.64 42.223 238.24 98.963 31.632 31.749 55.956 69.031 72.151 107.47 17.876 42.469 26.44 87.496 26.448 131.52-0.0106 49.39-10.269 93.304-26.451 131.75-17.893 42.469-42.819 77.955-72.154 107.41-65.66 65.853-144.59 98.875-238.24 98.933z"/>
		<path d="m1137 618.39c-0.0314-80.247-31.959-167.72-95.518-231.54-54.828-54.972-140.06-95.863-230.79-95.879-90.804 0.0588-176 41.019-230.8 95.987-63.585 63.878-95.49 151.34-95.523 231.59 0.0395 100.74 40.707 176.63 95.518 231.67 63.579 63.746 140 95.732 230.79 95.747 90.724-0.0571 167.19-32.051 230.8-95.854 54.78-55.031 95.482-130.97 95.524-231.72z"/>
		<path d="m810.69 926.61c-87.865-0.0139-161.82-30.972-223.35-92.667-53.043-53.269-92.398-126.72-92.437-224.22 0.0322-77.674 30.908-162.32 92.442-224.15 53.031-53.201 135.48-92.846 223.35-92.903 87.806 0.0152 170.29 39.592 223.35 92.796 61.51 61.774 92.407 146.43 92.437 224.1-0.0404 97.509-39.429 171.01-92.442 224.27-61.555 61.752-135.55 92.718-223.35 92.774z"/>
		<path d="m1116 600.75c-0.0293-75.09-29.896-156.94-89.356-216.66-51.289-51.437-131.02-89.698-215.9-89.712-84.946 0.0564-164.64 38.386-215.91 89.82-59.483 59.774-89.329 141.61-89.361 216.7 0.0368 94.263 38.08 165.28 89.355 216.78 59.476 59.646 130.97 89.575 215.9 89.588 84.87-0.0547 156.4-29.994 215.91-89.695 51.246-51.495 89.322-122.55 89.361-216.82z"/>
		<path d="m810.75 887.92c-82.007-0.0117-151.04-28.913-208.46-86.509-49.507-49.731-86.238-118.31-86.274-209.33 0.0302-72.516 28.847-151.54 86.279-209.26 49.495-49.668 126.44-86.682 208.46-86.737 81.953 0.0128 158.94 36.96 208.46 86.629 57.41 57.67 86.246 136.7 86.274 209.22-0.0378 91.029-36.8 159.65-86.28 209.37-57.45 57.65-126.52 86.562-208.46 86.616z"/>
		<path d="m1095 583.11c-0.0272-69.933-27.833-146.15-83.193-201.77-47.751-47.901-121.99-83.534-201.01-83.546-79.088 0.054-153.29 35.753-201.02 83.653-55.382 55.669-83.169 131.88-83.198 201.82 0.0342 87.784 35.453 153.92 83.193 201.88 55.373 55.545 121.94 83.419 201.01 83.43 79.016-0.0524 145.62-27.938 201.02-83.536 47.712-47.958 83.162-114.14 83.198-201.93z"/>
		<path d="m810.81 849.23c-76.149-0.0093-140.25-26.855-193.57-80.35-45.972-46.192-80.078-109.89-80.111-194.44 0.0281-67.36 26.786-140.76 80.117-194.37 45.958-46.134 117.41-80.517 193.57-80.57 76.099 0.0104 147.59 34.329 193.57 80.462 53.31 53.567 80.086 126.98 80.112 194.33-0.0352 84.55-34.172 148.29-80.117 194.48-53.346 53.548-117.48 80.406-193.57 80.457z"/>
		<path d="m1074 565.47c-0.0251-64.776-25.771-135.37-77.03-186.89-44.212-44.365-112.95-77.37-186.12-77.379-73.23 0.0516-141.94 33.12-186.13 77.487-51.28 51.564-77.008 122.15-77.035 186.93 0.0316 81.304 32.826 142.57 77.03 186.99 51.27 51.445 112.9 77.263 186.12 77.271 73.163-0.0501 134.83-25.881 186.13-77.378 44.179-44.422 77.002-105.72 77.036-187.03z"/>
		<path d="m810.86 810.54c-70.291-7e-3 -129.46-24.796-178.68-74.192-42.436-42.654-73.918-101.48-73.949-179.54 0.026-62.202 24.725-129.98 73.954-179.49 42.422-42.6 108.38-74.353 178.68-74.403 70.246 0.0079 136.24 31.698 178.68 74.296 49.21 49.464 73.925 117.25 73.949 179.44-0.0326 78.07-31.543 136.93-73.954 179.59-49.241 49.446-108.45 74.25-178.68 74.299z"/>
		<path d="m1053 547.84c-0.0231-59.619-23.708-124.59-70.868-172-40.674-40.83-103.92-71.206-171.23-71.212-67.372 0.0492-130.58 30.486-171.24 71.32-47.178 47.459-70.848 112.42-70.873 172.05 0.029 74.825 30.199 131.21 70.867 172.09 47.166 47.345 103.87 71.107 171.23 71.113 67.309-0.0478 124.05-23.824 171.24-71.219 40.645-40.885 70.842-97.308 70.873-172.14z"/>
		<path d="m810.92 771.85c-64.434-0.0047-118.67-22.738-163.79-68.033-38.9-39.116-67.758-93.062-67.786-164.65 0.0239-57.045 22.664-119.2 67.792-164.6 38.885-39.067 99.348-68.189 163.79-68.237 64.392 0.0055 124.88 29.067 163.79 68.129 45.11 45.361 67.764 107.52 67.786 164.56-0.03 71.591-28.914 125.57-67.792 164.69-45.136 45.344-99.409 68.094-163.79 68.14z"/>
		<path d="m1032 530.2c-0.021-54.462-21.646-113.81-64.705-157.12-37.136-37.294-94.879-65.041-156.34-65.046-61.514 0.0468-119.23 27.853-156.35 65.153-43.076 43.355-64.687 102.69-64.71 157.16 0.0263 68.346 27.572 119.85 64.705 157.2 43.063 43.245 94.84 64.95 156.34 64.954 61.456-0.0454 113.26-21.767 156.35-65.061 37.111-37.349 64.682-88.894 64.71-157.24z"/>
		<path d="m810.98 733.16c-58.576-0.0024-107.89-20.68-148.9-61.875-35.365-35.577-61.598-84.647-61.624-149.75 0.0218-51.888 20.603-108.41 61.629-149.72 35.349-35.533 90.316-62.024 148.9-62.07 58.538 0.0031 113.53 26.436 148.9 61.962 41.01 41.258 61.604 97.79 61.624 149.67-0.0273 65.112-26.285 114.22-61.629 149.8-41.031 41.243-90.372 61.937-148.9 61.981z"/>
		<path d="m1011 512.56c-0.0189-49.305-19.583-103.02-58.542-142.23-33.597-33.758-85.842-58.877-141.45-58.879-55.657 0.0444-107.88 25.22-141.46 58.987-38.975 39.25-58.527 92.964-58.548 142.27 0.0237 61.866 24.945 108.5 58.542 142.31 38.96 39.145 85.808 58.794 141.45 58.796 55.602-0.0431 102.48-19.71 141.46-58.902 33.578-33.813 58.522-80.479 58.548-142.35z"/>
		<path d="m811.03 694.47c-52.718-1e-4 -97.101-18.621-134.01-55.716-31.829-32.039-55.438-76.232-55.461-134.86 0.0197-46.731 18.542-97.634 55.466-134.83 31.813-32 81.284-55.86 134.01-55.903 52.685 6e-4 102.18 23.805 134.01 55.796 36.91 37.155 55.443 88.061 55.461 134.79-0.0247 58.632-23.656 102.86-55.466 134.9-36.926 37.141-81.336 55.781-134.01 55.823z"/>
		<path d="m990.01 494.92c-0.0168-44.148-17.52-92.241-52.38-127.34-30.059-30.223-76.806-52.713-126.56-52.712-49.799 0.042-96.522 22.588-126.57 52.82-34.873 35.145-52.366 83.236-52.385 127.39 0.0211 55.386 22.318 97.142 52.38 127.41 34.857 35.045 76.775 52.638 126.56 52.637 49.749-0.0407 91.692-17.654 126.57-52.743 30.044-30.276 52.362-72.064 52.385-127.46z"/>
		<path d="m811.09 655.78c-46.86 0.0022-86.314-16.563-119.12-49.558-28.293-28.5-49.278-67.817-49.298-119.96 0.0176-41.574 16.482-86.853 49.304-119.95 28.276-28.466 72.252-49.696 119.12-49.737 46.831-0.0018 90.829 21.174 119.12 49.629 32.81 33.052 49.283 78.333 49.298 119.9-0.0222 52.152-21.027 91.501-49.304 120.01-32.822 33.039-72.299 49.624-119.12 49.664z"/>
		<path d="m969.02 477.29c-0.0147-38.991-15.458-81.459-46.217-112.46-26.52-26.687-67.77-46.549-111.67-46.546-43.941 0.0396-85.168 19.954-111.68 46.654-30.771 31.04-46.206 73.507-46.222 112.5 0.0185 48.907 19.692 85.786 46.217 112.52 30.754 30.945 67.743 46.482 111.67 46.478 43.895-0.0384 80.907-15.597 111.68-46.585 26.51-26.74 46.202-63.649 46.223-112.56z"/>
		<path d="m811.15 617.09c-41.002 0.0045-75.527-14.504-104.23-43.399-24.758-24.962-43.118-59.402-43.136-105.07 0.0156-36.417 14.421-76.072 43.141-105.06 24.74-24.932 63.219-43.532 104.23-43.57 40.978-0.0042 79.478 18.543 104.23 43.463 28.71 28.949 43.122 68.604 43.136 105.02-0.0195 45.673-18.398 80.143-43.141 105.11-28.717 28.937-63.263 43.468-104.23 43.505z"/>
		<path d="m948.02 459.65c-0.0126-33.834-13.395-70.676-40.054-97.574-22.982-23.152-58.733-40.385-96.784-40.379-38.083 0.0372-73.815 17.322-96.786 40.487-26.669 26.936-40.045 63.779-40.06 97.618 0.0158 42.427 17.064 74.429 40.054 97.622 26.651 26.844 58.711 40.325 96.784 40.319 38.042-0.0361 70.122-13.54 96.786-40.426 22.977-23.203 40.042-55.234 40.06-97.667z"/>
		<path d="m811.2 578.4c-35.144 0.0068-64.74-12.446-89.339-37.24-21.222-21.423-36.958-50.987-36.973-90.174 0.0134-31.26 12.36-65.291 36.978-90.175 21.204-21.399 54.187-37.368 89.341-37.404 35.124-0.0067 68.126 15.912 89.339 37.296 24.61 24.846 36.962 58.876 36.973 90.131-0.0169 39.194-15.769 68.785-36.979 90.22-24.612 24.835-54.227 37.311-89.341 37.346z"/>
		<path d="m927.03 442.01c-0.0105-28.677-11.332-59.894-33.892-82.689-19.444-19.616-49.697-34.221-81.894-34.213-32.225 0.0348-62.461 14.689-81.896 34.321-22.568 22.831-33.885 54.05-33.897 82.732 0.0132 35.948 14.438 63.073 33.892 82.727 22.548 22.744 49.679 34.168 81.894 34.16 32.188-0.0337 59.337-11.483 81.896-34.267 19.443-19.666 33.882-46.819 33.897-82.772z"/>
		<path d="m811.26 539.71c-59.542-0.0054-105.21-35.044-105.26-106.36 0.0114-26.103 10.299-54.511 30.816-75.29 17.667-17.866 45.155-31.204 74.451-31.238 29.27-0.0092 56.774 13.281 74.449 31.13 20.51 20.744 30.801 49.148 30.81 75.246-0.0597 71.336-45.819 106.42-105.27 106.51z"/>
		<path d="m906.03 424.38c-0.0316-41.612-41.172-95.849-94.733-95.851-53.649 0.0884-94.706 54.372-94.741 96.002 0.0488 64.24 41.148 95.832 94.733 95.833 53.5-0.0851 94.687-31.725 94.741-95.985z"/>
		<path d="m811.32 501.02c-47.629 0.0038-84.164-28.142-84.207-85.306 0.0312-37.07 36.522-85.393 84.215-85.477 47.612-0.0037 84.179 48.274 84.207 85.326-0.0481 57.184-36.663 85.377-84.214 85.457z"/>
		<path d="m885.04 406.74c-0.0242-32.491-32.017-74.809-73.681-74.801-41.736 0.0788-73.661 42.443-73.688 74.952 0.0374 50.088 32.008 74.787 73.681 74.778 41.603-0.0755 73.646-24.822 73.688-74.93z"/>
		<path d="m811.38 462.33c-35.716 0.0131-63.123-21.239-63.154-64.25 0.0239-27.949 27.382-64.354 63.162-64.428 35.716-0.0138 63.134 36.345 63.154 64.276-0.0368 43.032-27.507 64.331-63.162 64.401z"/>
		<path d="m864.04 389.11c-0.0168-23.371-22.861-53.771-52.628-53.752-29.824 0.0693-52.616 30.515-52.636 53.904 0.0259 35.934 22.868 53.739 52.628 53.721 29.706-0.0657 52.605-17.918 52.636-53.872z"/>
		<path d="m811.43 423.64c-23.803 0.0221-42.082-14.334-42.102-43.191 0.0165-18.829 18.242-43.317 42.109-43.382 23.818-0.0241 42.088 24.418 42.102 43.23-0.0254 28.878-18.352 43.281-42.109 43.342z"/>
		<path d="m843.04 371.48c-0.0095-14.254-13.705-32.74-31.575-32.71-17.911 0.0604-31.57 18.592-31.583 32.862 0.0145 21.779 13.728 32.684 31.575 32.658 17.81-0.0556 31.564-11.009 31.583-32.809z"/>
		<path d="m811.49 384.94c-11.891 0.0302-21.04-7.4207-21.049-22.118 0.0091-9.7124 9.1006-22.292 21.057-22.348 11.922-0.0356 21.043 12.5 21.049 22.197-0.0139 14.72-9.1946 22.22-21.057 22.27z"/>
		<path d="m822.05 353.9c-0.0021-5.1494-4.5469-11.754-10.522-11.71-6.0038 0.0555-10.525 6.7007-10.531 11.861 0.0031 7.6058 4.587 11.586 10.523 11.554 5.9162-0.0427 10.522-4.0727 10.53-11.704z"/>
	
</g>
</svg>
