<?xml version="1.0" encoding="UTF-8"?>
<!DOCTYPE svg  PUBLIC '-//W3C//DTD SVG 1.1//EN'  'http://www.w3.org/Graphics/SVG/1.1/DTD/svg11.dtd'>
<svg enable-background="new 0 0 2622.05 1606.371" version="1.1" viewBox="0 0 2622 1606.4" xml:space="preserve" xmlns="http://www.w3.org/2000/svg">

	<path d="m201.57 128.05h-103.28c-37.958-33.443-64.286-71.591-67.264-109.04h109.01c2.712 37.272 26.565 75.36 61.536 109.04z"/>
	<path d="m323.8 128.05h-103.28c-34.422-33.726-57.823-71.798-60.486-109.04h109.01c2.401 37.082 23.352 75.05 54.758 109.04z"/>
	<path d="m446.02 128.05h-103.28c-30.849-34.041-51.354-71.985-53.707-109.04h109.01c2.095 36.913 20.186 74.709 47.979 109.04z"/>
	<path d="m568.24 128.05h-103.28c-27.228-34.386-44.881-72.151-46.928-109.04h109.01c1.792 36.766 17.08 74.344 41.2 109.04z"/>
	<path d="m690.46 128.05h-103.28c-23.545-34.754-38.405-72.295-40.149-109.04h109.01c1.491 36.64 14.049 73.964 34.421 109.04z"/>
	<path d="m812.68 128.05h-103.28c-19.783-35.135-31.925-72.418-33.37-109.04h109.01c1.195 36.536 11.107 73.589 27.642 109.04z"/>
	<path d="m934.9 128.05h-103.28c-15.932-35.507-25.443-72.518-26.591-109.04h109.01c0.9 36.455 8.262 73.243 20.863 109.04z"/>
	<path d="m1057.1 128.05h-103.28c-11.983-35.845-18.958-72.596-19.812-109.04h109.01c0.606 36.396 5.509 72.959 14.084 109.04z"/>
	<path d="m1179.3 128.05h-103.28c-7.943-36.118-12.472-72.651-13.033-109.04h109.01c0.314 36.36 2.833 72.767 7.304 109.04z"/>
	<path d="m1301.6 128.05h-103.28c-3.83-36.292-5.985-72.684-6.254-109.04h109.01c0.024 36.347 0.204 72.694 0.526 109.04z"/>
	<path d="m1423.8 128.05h-103.28c0.322-36.346 0.503-72.693 0.525-109.04h109.01c-0.268 36.356-2.423 72.748-6.253 109.04z"/>
	<path d="m1546 128.05h-103.28c4.47-36.272 6.99-72.68 7.304-109.04h109.01c-0.56 36.389-5.09 72.922-13.032 109.04z"/>
	<path d="m1668.2 128.05h-103.28c8.574-36.081 13.477-72.644 14.083-109.04h109.01c-0.854 36.444-7.829 73.194-19.812 109.04z"/>
	<path d="m1790.4 128.05h-103.28c12.601-35.797 19.963-72.585 20.862-109.04h109.01c-1.148 36.522-10.659 73.533-26.591 109.04z"/>
	<path d="m1912.7 128.05h-103.28c16.535-35.451 26.447-72.504 27.641-109.04h109.01c-1.444 36.622-13.586 73.905-33.369 109.04z"/>
	<path d="m2034.9 128.05h-103.28c20.372-35.076 32.929-72.4 34.42-109.04h109.01c-1.744 36.745-16.604 74.286-40.149 109.04z"/>
	<path d="m2157.1 128.05h-103.28c24.12-34.696 39.408-72.274 41.199-109.04h109.01c-2.047 36.889-19.699 74.654-46.928 109.04z"/>
	<path d="m2279.3 128.05h-103.28c27.793-34.331 45.884-72.127 47.978-109.04h109.01c-2.352 37.055-22.857 74.999-53.706 109.04z"/>
	<path d="m2401.5 128.05h-103.28c31.406-33.99 52.357-71.957 54.757-109.04h109.01c-2.662 37.242-26.063 75.314-60.485 109.04z"/>
	<path d="m2523.8 128.05h-103.28c34.972-33.68 58.825-71.767 61.536-109.04h109.01c-2.977 37.449-29.305 75.597-67.264 109.04z"/>
	<path d="m403.98 260.71h-84.442c-73.962-34.85-139.54-70.034-191.95-109.04h100.79c47.737 38.839 107.84 74.138 175.6 109.04z"/>
	<path d="m503.9 260.71h-84.442c-66.629-34.913-125.72-70.235-172.6-109.04h100.79c42.227 38.609 95.826 74.061 156.26 109.04z"/>
	<path d="m603.83 260.71h-84.442c-59.297-34.993-111.88-70.47-153.26-109.04h100.79c36.743 38.343 83.813 73.963 136.91 109.04z"/>
	<path d="m703.75 260.71h-84.442c-51.963-35.095-98.019-70.742-133.92-109.04h100.79c31.301 38.037 71.808 73.837 117.57 109.04z"/>
	<path d="m803.67 260.71h-84.442c-44.623-35.226-84.109-71.054-114.57-109.04h100.79c25.916 37.696 59.818 73.676 98.223 109.04z"/>
	<path d="m903.59 260.71h-84.442c-37.264-35.392-70.137-71.399-95.226-109.04h100.79c20.613 37.334 47.862 73.476 78.879 109.04z"/>
	<path d="m1003.5 260.71h-84.442c-29.867-35.599-56.082-71.763-75.881-109.04h100.79c15.408 36.975 35.969 73.239 59.534 109.04z"/>
	<path d="m1103.4 260.71h-84.442c-22.403-35.84-41.926-72.118-56.536-109.04h100.79c10.313 36.66 24.17 72.99 40.189 109.04z"/>
	<path d="m1203.4 260.71h-84.442c-14.839-36.087-27.659-72.422-37.191-109.04h100.79c5.316 36.436 12.488 72.784 20.844 109.04z"/>
	<path d="m1303.3 260.71h-84.442c-7.159-36.279-13.298-72.628-17.846-109.04h100.79c0.382 36.347 0.897 72.694 1.499 109.04z"/>
	<path d="m1403.2 260.71h-84.442c0.602-36.346 1.117-72.693 1.499-109.04h100.79c-4.548 36.413-10.687 72.761-17.846 109.04z"/>
	<path d="m1503.1 260.71h-84.442c8.356-36.256 15.528-72.604 20.843-109.04h100.79c-9.531 36.618-22.351 72.954-37.19 109.04z"/>
	<path d="m1603.1 260.71h-84.442c16.019-36.05 29.876-72.381 40.188-109.04h100.79c-14.609 36.922-34.131 73.2-56.535 109.04z"/>
	<path d="m1703 260.71h-84.442c23.566-35.801 44.126-72.065 59.533-109.04h100.79c-19.798 37.277-46.013 73.441-75.88 109.04z"/>
	<path d="m1802.9 260.71h-84.442c31.016-35.564 58.266-71.706 78.878-109.04h100.79c-25.088 37.641-57.962 73.648-95.225 109.04z"/>
	<path d="m1902.8 260.71h-84.442c38.406-35.364 72.307-71.344 98.223-109.04h100.79c-30.461 37.986-69.947 73.815-114.57 109.04z"/>
	<path d="m2002.7 260.71h-84.442c45.761-35.203 86.268-71.003 117.57-109.04h100.79c-35.896 38.298-81.952 73.945-133.92 109.04z"/>
	<path d="m2102.7 260.71h-84.442c53.099-35.077 100.17-70.698 136.91-109.04h100.79c-41.374 38.571-93.963 74.048-153.26 109.04z"/>
	<path d="m2202.6 260.71h-84.442c60.432-34.979 114.03-70.431 156.26-109.04h100.79c-46.88 38.805-105.98 74.127-172.6 109.04z"/>
	<path d="m2302.5 260.71h-84.442c67.765-34.902 127.87-70.201 175.6-109.04h100.79c-52.404 39.006-117.99 74.19-191.95 109.04z"/>
	<path d="m693.35 393.38h-57.502c-91.563-36.114-180.78-71.643-264.7-109.04h80.046c76.704 37.365 158.37 72.92 242.15 109.04z"/>
	<path d="m761.4 393.38h-57.502c-82.352-36.121-162.64-71.682-238.02-109.04h80.046c68.166 37.317 140.91 72.911 215.48 109.04z"/>
	<path d="m829.44 393.38h-57.502c-73.141-36.131-144.5-71.732-211.34-109.04h80.046c59.626 37.254 123.44 72.899 188.8 109.04z"/>
	<path d="m897.49 393.38h-57.502c-63.931-36.143-126.36-71.797-184.67-109.04h80.046c51.09 37.173 105.98 72.883 162.12 109.04z"/>
	<path d="m965.53 393.38h-57.502c-54.721-36.16-108.22-71.882-157.99-109.04h80.046c42.56 37.066 88.509 72.862 135.45 109.04z"/>
	<path d="m1033.6 393.38h-57.502c-45.51-36.182-90.074-71.993-131.32-109.04h80.046c34.052 36.929 71.048 72.833 108.77 109.04z"/>
	<path d="m1101.6 393.38h-57.502c-36.295-36.212-71.901-72.135-104.64-109.04h80.046c25.584 36.761 53.595 72.796 82.095 109.04z"/>
	<path d="m1169.7 393.38h-57.502c-27.071-36.251-53.685-72.307-77.963-109.04h80.046c17.184 36.577 36.156 72.753 55.419 109.04z"/>
	<path d="m1237.7 393.38h-57.502c-17.829-36.295-35.395-72.491-51.286-109.04h80.046c8.874 36.419 18.741 72.712 28.742 109.04z"/>
	<path d="m1305.8 393.38h-57.502c-8.564-36.333-17.016-72.64-24.61-109.04h80.046c0.636 36.347 1.346 72.694 2.066 109.04z"/>
	<path d="m1373.8 393.38h-57.502c0.719-36.347 1.43-72.693 2.067-109.04h80.046c-7.595 36.4-16.046 72.708-24.611 109.04z"/>
	<path d="m1441.8 393.38h-57.502c10.001-36.328 19.869-72.622 28.743-109.04h80.046c-15.892 36.55-33.458 72.746-51.287 109.04z"/>
	<path d="m1509.9 393.38h-57.502c19.263-36.288 38.235-72.463 55.419-109.04h80.046c-24.278 36.733-50.892 72.79-77.963 109.04z"/>
	<path d="m1577.9 393.38h-57.502c28.5-36.244 56.511-72.279 82.095-109.04h80.046c-32.738 36.905-68.345 72.828-104.64 109.04z"/>
	<path d="m1646 393.38h-57.502c37.723-36.207 74.719-72.111 108.77-109.04h80.046c-41.242 37.047-85.806 72.858-131.32 109.04z"/>
	<path d="m1714 393.38h-57.502c46.937-36.178 92.886-71.974 135.45-109.04h80.046c-49.769 37.158-103.27 72.88-157.99 109.04z"/>
	<path d="m1782.1 393.38h-57.502c56.148-36.157 111.03-71.867 162.12-109.04h80.046c-58.305 37.243-120.74 72.897-184.67 109.04z"/>
	<path d="m1850.1 393.38h-57.502c65.358-36.141 129.17-71.786 188.8-109.04h80.046c-66.844 37.308-138.2 72.909-211.34 109.04z"/>
	<path d="m1918.2 393.38h-57.502c74.568-36.129 147.31-71.723 215.48-109.04h80.046c-75.383 37.358-155.67 72.919-238.02 109.04z"/>
	<path d="m1986.2 393.38h-57.502c83.779-36.12 165.45-71.675 242.15-109.04h80.046c-83.918 37.398-173.13 72.926-264.7 109.04z"/>
	<path d="m991.4 526.04h-29.756c-84.515-37.356-174.1-72.89-265.82-109.04h52.395c83.922 36.155 165.93 71.715 243.18 109.04z"/>
	<path d="m1026.6 526.04h-29.756c-75.922-37.319-156.54-72.884-239.03-109.04h52.395c74.692 36.163 147.73 71.761 216.39 109.04z"/>
	<path d="m1061.8 526.04h-29.756c-67.327-37.271-138.98-72.876-212.24-109.04h52.395c65.464 36.173 129.54 71.82 189.6 109.04z"/>
	<path d="m1097 526.04h-29.756c-58.731-37.209-121.42-72.866-185.45-109.04h52.395c56.235 36.186 111.35 71.898 162.81 109.04z"/>
	<path d="m1132.2 526.04h-29.756c-50.137-37.128-103.86-72.852-158.66-109.04h52.395c47.005 36.205 93.142 72 136.02 109.04z"/>
	<path d="m1167.5 526.04h-29.756c-41.553-37.022-86.298-72.833-131.87-109.04h52.395c37.773 36.229 74.919 72.131 109.23 109.04z"/>
	<path d="m1202.7 526.04h-29.756c-32.99-36.886-68.742-72.807-105.08-109.04h52.395c28.535 36.26 56.66 72.292 82.445 109.04z"/>
	<path d="m1237.9 526.04h-29.756c-24.469-36.721-51.193-72.775-78.294-109.04h52.395c19.281 36.297 38.332 72.47 55.655 109.04z"/>
	<path d="m1273.1 526.04h-29.756c-16.019-36.543-33.658-72.737-51.504-109.04h52.395c10.01 36.331 19.919 72.624 28.865 109.04z"/>
	<path d="m1308.3 526.04h-29.756c-7.656-36.398-16.143-72.705-24.714-109.04h52.395c0.72 36.347 1.433 72.693 2.075 109.04z"/>
	<path d="m1343.5 526.04h-29.756c0.642-36.347 1.355-72.693 2.075-109.04h52.395c-8.571 36.335-17.058 72.642-24.714 109.04z"/>
	<path d="m1378.7 526.04h-29.756c8.946-36.416 18.855-72.709 28.865-109.04h52.395c-17.846 36.303-35.485 72.497-51.504 109.04z"/>
	<path d="m1413.9 526.04h-29.756c17.323-36.57 36.373-72.743 55.655-109.04h52.395c-27.101 36.266-53.824 72.32-78.294 109.04z"/>
	<path d="m1449.1 526.04h-29.756c25.786-36.748 53.911-72.78 82.444-109.04h52.395c-36.342 36.233-72.094 72.154-105.08 109.04z"/>
	<path d="m1484.4 526.04h-29.756c34.314-36.91 71.461-72.812 109.23-109.04h52.395c-45.575 36.208-90.32 72.018-131.87 109.04z"/>
	<path d="m1519.6 526.04h-29.756c42.882-37.041 89.019-72.836 136.02-109.04h52.395c-54.804 36.189-108.52 71.912-158.66 109.04z"/>
	<path d="m1554.8 526.04h-29.756c51.469-37.142 106.58-72.854 162.81-109.04h52.395c-64.034 36.175-126.72 71.831-185.45 109.04z"/>
	<path d="m1590 526.04h-29.756c60.063-37.22 124.14-72.867 189.6-109.04h52.395c-73.263 36.164-144.92 71.769-212.24 109.04z"/>
	<path d="m1625.2 526.04h-29.756c68.659-37.28 141.7-72.877 216.39-109.04h52.395c-82.491 36.156-163.11 71.721-239.03 109.04z"/>
	<path d="m1660.4 526.04h-29.756c77.253-37.325 159.26-72.885 243.18-109.04h52.395c-91.722 36.15-181.31 71.684-265.82 109.04z"/>
	<path d="m1217.5 658.71h-8.71c-53.65-38.954-120.21-74.148-195.02-109.04h25.32c68.534 34.941 129.53 70.245 178.41 109.04z"/>
	<path d="m1227.8 658.71h-8.71c-48.007-38.763-107.98-74.088-175.37-109.04h25.32c61.113 35.015 115.51 70.464 158.76 109.04z"/>
	<path d="m1238.1 658.71h-8.71c-42.379-38.538-95.749-74.012-155.71-109.04h25.32c53.691 35.109 101.46 70.721 139.1 109.04z"/>
	<path d="m1248.4 658.71h-8.71c-36.778-38.275-83.517-73.914-136.06-109.04h25.32c46.263 35.23 87.373 71.017 119.45 109.04z"/>
	<path d="m1258.7 658.71h-8.71c-31.217-37.974-71.291-73.788-116.4-109.04h25.32c38.822 35.385 73.231 71.349 99.794 109.04z"/>
	<path d="m1269 658.71h-8.71c-25.716-37.636-59.083-73.627-96.749-109.04h25.32c31.347 35.579 59.01 71.706 80.139 109.04z"/>
	<path d="m1279.3 658.71h-8.71c-20.296-37.278-46.91-73.427-77.095-109.04h25.32c23.812 35.81 44.689 72.062 60.485 109.04z"/>
	<path d="m1289.6 658.71h-8.71c-14.979-36.925-34.803-73.192-57.441-109.04h25.32c16.184 36.054 30.259 72.378 40.831 109.04z"/>
	<path d="m1299.9 658.71h-8.71c-9.772-36.62-22.794-72.95-37.786-109.04h25.32c8.44 36.257 15.727 72.603 21.176 109.04z"/>
	<path d="m1310.2 658.71h-8.71c-4.663-36.413-10.9-72.76-18.132-109.04h25.32c0.608 36.346 1.132 72.692 1.522 109.04z"/>
	<path d="m1320.5 658.71h-8.71c0.391-36.347 0.914-72.694 1.522-109.04h25.32c-7.232 36.28-13.47 72.626-18.132 109.04z"/>
	<path d="m1330.8 658.71h-8.71c5.449-36.437 12.736-72.783 21.177-109.04h25.32c-14.993 36.09-28.015 72.42-37.787 109.04z"/>
	<path d="m1341.1 658.71h-8.71c10.572-36.662 24.647-72.986 40.831-109.04h25.32c-22.638 35.848-42.462 72.115-57.441 109.04z"/>
	<path d="m1351.5 658.71h-8.71c15.795-36.978 36.673-73.23 60.486-109.04h25.32c-30.186 35.613-56.8 71.762-77.096 109.04z"/>
	<path d="m1361.8 658.71h-8.71c21.13-37.334 48.793-73.46 80.14-109.04h25.32c-37.668 35.413-71.035 71.403-96.75 109.04z"/>
	<path d="m1372.1 658.71h-8.71c26.563-37.691 60.972-73.654 99.794-109.04h25.32c-45.113 35.252-85.187 71.066-116.4 109.04z"/>
	<path d="m1382.4 658.71h-8.71c32.075-38.023 73.184-73.809 119.45-109.04h25.32c-52.542 35.126-99.281 70.764-136.06 109.04z"/>
	<path d="m1392.7 658.71h-8.71c37.643-38.319 85.412-73.931 139.1-109.04h25.32c-59.964 35.028-113.33 70.501-155.71 109.04z"/>
	<path d="m1403 658.71h-8.71c43.25-38.575 97.644-74.025 158.76-109.04h25.32c-67.386 34.951-127.36 70.277-175.37 109.04z"/>
	<path d="m1413.3 658.71h-8.71c48.88-38.795 109.88-74.099 178.41-109.04h25.32c-74.808 34.891-141.37 70.086-195.02 109.04z"/>
	<path d="m1310.4 791.37h-0.06c-4.503-37.69-32.271-75.571-71.452-109.04h6.145c36.088 33.696 61.271 71.563 65.367 109.04z"/>
	<path d="m1310.5 791.37h-0.06c-4.022-37.439-28.733-75.299-64.251-109.04h6.145c32.397 33.995 54.543 71.793 58.166 109.04z"/>
	<path d="m1310.5 791.37h-0.06c-3.55-37.213-25.229-74.995-57.05-109.04h6.145c28.663 34.327 47.808 71.999 50.965 109.04z"/>
	<path d="m1310.6 791.37h-0.06c-3.085-37.011-21.77-74.659-49.849-109.04h6.145c24.87 34.685 41.066 72.179 43.764 109.04z"/>
	<path d="m1310.7 791.37h-0.06c-2.627-36.835-18.372-74.297-42.648-109.04h6.145c21.004 35.061 34.319 72.333 36.563 109.04z"/>
	<path d="m1310.7 791.37h-0.06c-2.175-36.685-15.051-73.92-35.447-109.04h6.145c17.048 35.437 27.566 72.46 29.362 109.04z"/>
	<path d="m1310.8 791.37h-0.06c-1.727-36.562-11.821-73.546-28.246-109.04h6.145c12.993 35.785 20.809 72.56 22.161 109.04z"/>
	<path d="m1310.9 791.37h-0.06c-1.283-36.467-8.689-73.205-21.045-109.04h6.145c8.842 36.075 14.049 72.632 14.96 109.04z"/>
	<path d="m1310.9 791.37h-0.06c-0.843-36.399-5.653-72.928-13.844-109.04h6.145c4.61 36.27 7.287 72.677 7.759 109.04z"/>
	<path d="m1311 791.37h-0.06c-0.404-36.359-2.693-72.749-6.643-109.04h6.145c0.333 36.346 0.524 72.693 0.558 109.04z"/>
	<path d="m1311.1 791.37h-0.06c0.034-36.347 0.226-72.694 0.558-109.04h6.145c-3.95 36.29-6.239 72.681-6.643 109.04z"/>
	<path d="m1311.2 791.37h-0.06c0.472-36.363 3.148-72.769 7.759-109.04h6.145c-8.191 36.112-13.001 72.641-13.844 109.04z"/>
	<path d="m1311.2 791.37h-0.06c0.911-36.407 6.118-72.965 14.96-109.04h6.145c-12.356 35.835-19.762 72.573-21.045 109.04z"/>
	<path d="m1311.3 791.37h-0.06c1.352-36.48 9.168-73.254 22.161-109.04h6.145c-16.426 35.493-26.519 72.477-28.246 109.04z"/>
	<path d="m1311.4 791.37h-0.06c1.796-36.58 12.315-73.603 29.362-109.04h6.145c-20.396 35.12-33.272 72.354-35.447 109.04z"/>
	<path d="m1311.4 791.37h-0.06c2.244-36.707 15.56-73.978 36.563-109.04h6.145c-24.276 34.743-40.021 72.205-42.648 109.04z"/>
	<path d="m1311.5 791.37h-0.06c2.698-36.861 18.894-74.354 43.763-109.04h6.145c-28.078 34.381-46.763 72.028-49.848 109.04z"/>
	<path d="m1311.6 791.37h-0.06c3.157-37.041 22.302-74.713 50.964-109.04h6.145c-31.821 34.045-53.499 71.827-57.049 109.04z"/>
	<path d="m1311.7 791.37h-0.06c3.623-37.246 25.769-75.044 58.165-109.04h6.145c-35.517 33.74-60.228 71.6-64.25 109.04z"/>
	<path d="m1311.7 791.37h-0.06c4.096-37.477 29.28-75.344 65.366-109.04h6.145c-39.18 33.469-66.948 71.35-71.451 109.04z"/>
	<path d="m1245 924.04h-6.145c39.18-33.469 66.948-71.35 71.452-109.04h0.06c-4.097 37.477-29.28 75.344-65.367 109.04z"/>
	<path d="m1252.3 924.04h-6.145c35.517-33.74 60.228-71.601 64.251-109.04h0.06c-3.624 37.246-25.77 75.044-58.166 109.04z"/>
	<path d="m1259.6 924.04h-6.145c31.821-34.045 53.5-71.827 57.05-109.04h0.06c-3.157 37.041-22.302 74.713-50.965 109.04z"/>
	<path d="m1266.8 924.04h-6.145c28.079-34.381 46.764-72.029 49.849-109.04h0.06c-2.698 36.861-18.894 74.354-43.764 109.04z"/>
	<path d="m1274.1 924.04h-6.145c24.276-34.743 40.021-72.205 42.648-109.04h0.06c-2.245 36.707-15.56 73.978-36.563 109.04z"/>
	<path d="m1281.4 924.04h-6.145c20.396-35.12 33.272-72.355 35.447-109.04h0.06c-1.797 36.58-12.315 73.603-29.362 109.04z"/>
	<path d="m1288.6 924.04h-6.145c16.425-35.493 26.519-72.478 28.246-109.04h0.06c-1.352 36.48-9.168 73.254-22.161 109.04z"/>
	<path d="m1295.9 924.04h-6.145c12.356-35.835 19.762-72.573 21.045-109.04h0.06c-0.911 36.407-6.118 72.965-14.96 109.04z"/>
	<path d="m1303.2 924.04h-6.145c8.191-36.112 13.001-72.641 13.844-109.04h0.06c-0.472 36.363-3.149 72.769-7.759 109.04z"/>
	<path d="m1310.5 924.04h-6.145c3.95-36.291 6.239-72.681 6.643-109.04h0.06c-0.035 36.347-0.226 72.694-0.558 109.04z"/>
	<path d="m1317.7 924.04h-6.145c-0.332-36.346-0.524-72.693-0.558-109.04h0.06c0.404 36.359 2.693 72.749 6.643 109.04z"/>
	<path d="m1325 924.04h-6.145c-4.611-36.271-7.287-72.677-7.759-109.04h0.06c0.843 36.399 5.653 72.928 13.844 109.04z"/>
	<path d="m1332.3 924.04h-6.145c-8.842-36.075-14.049-72.633-14.96-109.04h0.06c1.283 36.467 8.689 73.205 21.045 109.04z"/>
	<path d="m1339.5 924.04h-6.145c-12.993-35.786-20.809-72.56-22.161-109.04h0.06c1.727 36.562 11.82 73.546 28.246 109.04z"/>
	<path d="m1346.8 924.04h-6.145c-17.047-35.437-27.566-72.46-29.362-109.04h0.06c2.175 36.685 15.051 73.92 35.447 109.04z"/>
	<path d="m1354.1 924.04h-6.145c-21.003-35.062-34.318-72.333-36.563-109.04h0.06c2.627 36.835 18.372 74.297 42.648 109.04z"/>
	<path d="m1361.4 924.04h-6.145c-24.87-34.685-41.066-72.179-43.763-109.04h0.06c3.084 37.011 21.769 74.659 49.848 109.04z"/>
	<path d="m1368.6 924.04h-6.145c-28.662-34.327-47.808-71.999-50.964-109.04h0.06c3.55 37.213 25.228 74.995 57.049 109.04z"/>
	<path d="m1375.9 924.04h-6.145c-32.396-33.995-54.543-71.794-58.165-109.04h0.06c4.022 37.439 28.733 75.299 64.25 109.04z"/>
	<path d="m1383.2 924.04h-6.145c-36.087-33.696-61.27-71.563-65.366-109.04h0.06c4.503 37.69 32.271 75.571 71.451 109.04z"/>
	<path d="m1039 1056.7h-25.32c74.808-34.891 141.37-70.086 195.02-109.04h8.71c-48.879 38.795-109.88 74.099-178.41 109.04z"/>
	<path d="m1069 1056.7h-25.32c67.385-34.952 127.36-70.277 175.37-109.04h8.71c-43.249 38.576-97.644 74.025-158.76 109.04z"/>
	<path d="m1099 1056.7h-25.32c59.964-35.028 113.33-70.502 155.71-109.04h8.71c-37.643 38.319-85.411 73.931-139.1 109.04z"/>
	<path d="m1128.9 1056.7h-25.32c52.541-35.126 99.281-70.764 136.06-109.04h8.71c-32.074 38.023-73.184 73.81-119.45 109.04z"/>
	<path d="m1158.9 1056.7h-25.32c45.113-35.252 85.187-71.066 116.4-109.04h8.71c-26.563 37.691-60.972 73.655-99.794 109.04z"/>
	<path d="m1188.9 1056.7h-25.32c37.667-35.413 71.034-71.403 96.749-109.04h8.71c-21.128 37.334-48.791 73.46-80.139 109.04z"/>
	<path d="m1218.8 1056.7h-25.32c30.185-35.613 56.799-71.762 77.095-109.04h8.71c-15.795 36.978-36.672 73.23-60.485 109.04z"/>
	<path d="m1248.8 1056.7h-25.32c22.638-35.848 42.462-72.115 57.441-109.04h8.71c-10.572 36.662-24.647 72.986-40.831 109.04z"/>
	<path d="m1278.7 1056.7h-25.32c14.992-36.09 28.014-72.42 37.786-109.04h8.71c-5.448 36.437-12.735 72.783-21.176 109.04z"/>
	<path d="m1308.7 1056.7h-25.32c7.232-36.28 13.469-72.627 18.132-109.04h8.71c-0.39 36.347-0.914 72.694-1.522 109.04z"/>
	<path d="m1338.7 1056.7h-25.32c-0.608-36.346-1.132-72.693-1.522-109.04h8.71c4.662 36.413 10.9 72.76 18.132 109.04z"/>
	<path d="m1368.6 1056.7h-25.32c-8.441-36.257-15.728-72.603-21.177-109.04h8.71c9.773 36.62 22.795 72.95 37.787 109.04z"/>
	<path d="m1398.6 1056.7h-25.32c-16.184-36.054-30.26-72.378-40.831-109.04h8.71c14.979 36.925 34.803 73.192 57.441 109.04z"/>
	<path d="m1428.6 1056.7h-25.32c-23.813-35.81-44.69-72.062-60.486-109.04h8.71c20.297 37.278 46.911 73.427 77.096 109.04z"/>
	<path d="m1458.5 1056.7h-25.32c-31.347-35.58-59.01-71.706-80.14-109.04h8.71c25.716 37.637 59.083 73.627 96.75 109.04z"/>
	<path d="m1488.5 1056.7h-25.32c-38.822-35.385-73.231-71.349-99.794-109.04h8.71c31.217 37.974 71.291 73.788 116.4 109.04z"/>
	<path d="m1518.4 1056.7h-25.32c-46.264-35.23-87.374-71.017-119.45-109.04h8.71c36.779 38.276 83.518 73.914 136.06 109.04z"/>
	<path d="m1548.4 1056.7h-25.32c-53.692-35.109-101.46-70.721-139.1-109.04h8.71c42.38 38.538 95.75 74.012 155.71 109.04z"/>
	<path d="m1578.4 1056.7h-25.32c-61.113-35.015-115.51-70.464-158.76-109.04h8.71c48.008 38.763 107.98 74.088 175.37 109.04z"/>
	<path d="m1608.3 1056.7h-25.32c-68.535-34.941-129.53-70.245-178.41-109.04h8.71c53.651 38.954 120.22 74.149 195.02 109.04z"/>
	<path d="m748.21 1189.4h-52.395c91.721-36.15 181.31-71.684 265.82-109.04h29.756c-77.253 37.326-159.26 72.885-243.18 109.04z"/>
	<path d="m810.21 1189.4h-52.395c82.492-36.156 163.11-71.721 239.03-109.04h29.756c-68.658 37.28-141.7 72.878-216.39 109.04z"/>
	<path d="m872.22 1189.4h-52.395c73.262-36.164 144.92-71.768 212.24-109.04h29.756c-60.064 37.22-124.14 72.868-189.6 109.04z"/>
	<path d="m934.22 1189.4h-52.395c64.034-36.174 126.72-71.83 185.45-109.04h29.756c-51.469 37.143-106.58 72.854-162.81 109.04z"/>
	<path d="m996.22 1189.4h-52.395c54.805-36.188 108.53-71.911 158.66-109.04h29.756c-42.882 37.041-89.019 72.836-136.02 109.04z"/>
	<path d="m1058.2 1189.4h-52.395c45.575-36.207 90.32-72.017 131.87-109.04h29.756c-34.315 36.91-71.461 72.812-109.23 109.04z"/>
	<path d="m1120.2 1189.4h-52.395c36.342-36.233 72.094-72.153 105.08-109.04h29.756c-25.786 36.748-53.911 72.78-82.445 109.04z"/>
	<path d="m1182.2 1189.4h-52.395c27.101-36.265 53.825-72.319 78.294-109.04h29.756c-17.323 36.57-36.374 72.744-55.655 109.04z"/>
	<path d="m1244.2 1189.4h-52.395c17.846-36.302 35.485-72.497 51.504-109.04h29.756c-8.946 36.417-18.855 72.71-28.865 109.04z"/>
	<path d="m1306.2 1189.4h-52.395c8.571-36.335 17.058-72.641 24.714-109.04h29.756c-0.642 36.347-1.355 72.694-2.075 109.04z"/>
	<path d="m1368.2 1189.4h-52.395c-0.72-36.346-1.433-72.693-2.075-109.04h29.756c7.656 36.399 16.143 72.706 24.714 109.04z"/>
	<path d="m1430.2 1189.4h-52.395c-10.01-36.331-19.919-72.624-28.865-109.04h29.756c16.019 36.544 33.658 72.738 51.504 109.04z"/>
	<path d="m1492.2 1189.4h-52.395c-19.282-36.297-38.332-72.47-55.655-109.04h29.756c24.47 36.721 51.193 72.775 78.294 109.04z"/>
	<path d="m1554.2 1189.4h-52.395c-28.534-36.26-56.659-72.292-82.444-109.04h29.756c32.989 36.887 68.741 72.807 105.08 109.04z"/>
	<path d="m1616.2 1189.4h-52.395c-37.773-36.228-74.92-72.13-109.23-109.04h29.756c41.553 37.023 86.298 72.833 131.87 109.04z"/>
	<path d="m1678.2 1189.4h-52.395c-47.005-36.204-93.142-71.999-136.02-109.04h29.756c50.138 37.129 103.86 72.852 158.66 109.04z"/>
	<path d="m1740.2 1189.4h-52.395c-56.235-36.186-111.34-71.897-162.81-109.04h29.756c58.732 37.21 121.42 72.866 185.45 109.04z"/>
	<path d="m1802.2 1189.4h-52.395c-65.463-36.172-129.54-71.82-189.6-109.04h29.756c67.327 37.272 138.98 72.876 212.24 109.04z"/>
	<path d="m1864.2 1189.4h-52.395c-74.692-36.162-147.73-71.76-216.39-109.04h29.756c75.921 37.319 156.54 72.884 239.03 109.04z"/>
	<path d="m1926.2 1189.4h-52.395c-83.922-36.155-165.93-71.714-243.18-109.04h29.756c84.515 37.356 174.1 72.89 265.82 109.04z"/>
	<path d="m451.2 1322h-80.046c83.918-37.397 173.13-72.926 264.7-109.04h57.502c-83.778 36.121-165.45 71.676-242.15 109.04z"/>
	<path d="m545.92 1322h-80.046c75.382-37.358 155.67-72.918 238.02-109.04h57.502c-74.567 36.13-147.31 71.724-215.48 109.04z"/>
	<path d="m640.64 1322h-80.046c66.844-37.308 138.2-72.909 211.34-109.04h57.502c-65.357 36.142-129.17 71.786-188.8 109.04z"/>
	<path d="m735.36 1322h-80.046c58.305-37.243 120.74-72.897 184.67-109.04h57.502c-56.148 36.157-111.03 71.868-162.12 109.04z"/>
	<path d="m830.08 1322h-80.046c49.768-37.158 103.27-72.88 157.99-109.04h57.502c-46.936 36.179-92.885 71.974-135.45 109.04z"/>
	<path d="m924.8 1322h-80.046c41.242-37.047 85.805-72.858 131.32-109.04h57.502c-37.722 36.208-74.718 72.111-108.77 109.04z"/>
	<path d="m1019.5 1322h-80.046c32.737-36.905 68.344-72.828 104.64-109.04h57.502c-28.5 36.245-56.511 72.279-82.095 109.04z"/>
	<path d="m1114.2 1322h-80.046c24.278-36.733 50.892-72.789 77.963-109.04h57.502c-19.263 36.288-38.235 72.464-55.419 109.04z"/>
	<path d="m1209 1322h-80.046c15.891-36.549 33.457-72.745 51.286-109.04h57.502c-10.001 36.328-19.868 72.622-28.742 109.04z"/>
	<path d="m1303.7 1322h-80.046c7.594-36.4 16.045-72.707 24.61-109.04h57.502c-0.719 36.347-1.429 72.693-2.066 109.04z"/>
	<path d="m1398.4 1322h-80.046c-0.637-36.347-1.347-72.693-2.067-109.04h57.502c8.566 36.333 17.017 72.641 24.611 109.04z"/>
	<path d="m1493.1 1322h-80.046c-8.874-36.418-18.741-72.712-28.743-109.04h57.502c17.83 36.295 35.396 72.491 51.287 109.04z"/>
	<path d="m1587.8 1322h-80.046c-17.184-36.577-36.156-72.752-55.419-109.04h57.502c27.071 36.251 53.685 72.307 77.963 109.04z"/>
	<path d="m1682.6 1322h-80.046c-25.584-36.761-53.595-72.796-82.095-109.04h57.502c36.295 36.213 71.902 72.135 104.64 109.04z"/>
	<path d="m1777.3 1322h-80.046c-34.053-36.929-71.049-72.833-108.77-109.04h57.502c45.511 36.183 90.075 71.994 131.32 109.04z"/>
	<path d="m1872 1322h-80.046c-42.562-37.066-88.511-72.861-135.45-109.04h57.502c54.722 36.16 108.22 71.883 157.99 109.04z"/>
	<path d="m1966.7 1322h-80.046c-51.09-37.172-105.98-72.883-162.12-109.04h57.502c63.931 36.144 126.36 71.798 184.67 109.04z"/>
	<path d="m2061.5 1322h-80.046c-59.627-37.254-123.44-72.899-188.8-109.04h57.502c73.142 36.131 144.5 71.732 211.34 109.04z"/>
	<path d="m2156.2 1322h-80.046c-68.167-37.317-140.91-72.911-215.48-109.04h57.502c82.353 36.122 162.64 71.682 238.02 109.04z"/>
	<path d="m2250.9 1322h-80.046c-76.705-37.365-158.37-72.92-242.15-109.04h57.502c91.564 36.115 180.78 71.643 264.7 109.04z"/>
	<path d="m228.38 1454.7h-100.79c52.404-39.006 117.99-74.19 191.95-109.04h84.442c-67.766 34.903-127.87 70.202-175.6 109.04z"/>
	<path d="m347.65 1454.7h-100.79c46.881-38.805 105.98-74.127 172.6-109.04h84.442c-60.433 34.98-114.03 70.431-156.26 109.04z"/>
	<path d="m466.91 1454.7h-100.79c41.375-38.57 93.963-74.047 153.26-109.04h84.442c-53.101 35.078-100.17 70.698-136.91 109.04z"/>
	<path d="m586.18 1454.7h-100.79c35.897-38.297 81.952-73.945 133.92-109.04h84.442c-45.761 35.204-86.268 71.004-117.57 109.04z"/>
	<path d="m705.45 1454.7h-100.79c30.461-37.986 69.948-73.814 114.57-109.04h84.442c-38.406 35.364-72.308 71.344-98.223 109.04z"/>
	<path d="m824.72 1454.7h-100.79c25.088-37.641 57.962-73.648 95.226-109.04h84.442c-31.018 35.565-58.267 71.707-78.879 109.04z"/>
	<path d="m943.98 1454.7h-100.79c19.798-37.277 46.014-73.441 75.881-109.04h84.442c-23.566 35.802-44.127 72.066-59.534 109.04z"/>
	<path d="m1063.3 1454.7h-100.79c14.61-36.922 34.133-73.2 56.536-109.04h84.442c-16.02 36.051-29.877 72.381-40.189 109.04z"/>
	<path d="m1182.5 1454.7h-100.79c9.532-36.617 22.352-72.953 37.191-109.04h84.442c-8.356 36.257-15.528 72.605-20.844 109.04z"/>
	<path d="m1301.8 1454.7h-100.79c4.548-36.412 10.688-72.76 17.846-109.04h84.442c-0.603 36.347-1.118 72.693-1.499 109.04z"/>
	<path d="m1421.1 1454.7h-100.79c-0.381-36.347-0.896-72.694-1.499-109.04h84.442c7.159 36.28 13.298 72.628 17.846 109.04z"/>
	<path d="m1540.3 1454.7h-100.79c-5.316-36.436-12.488-72.784-20.843-109.04h84.442c14.838 36.087 27.658 72.423 37.19 109.04z"/>
	<path d="m1659.6 1454.7h-100.79c-10.312-36.659-24.169-72.99-40.188-109.04h84.442c22.403 35.84 41.925 72.119 56.535 109.04z"/>
	<path d="m1778.9 1454.7h-100.79c-15.407-36.975-35.967-73.239-59.533-109.04h84.442c29.866 35.599 56.081 71.763 75.88 109.04z"/>
	<path d="m1898.1 1454.7h-100.79c-20.612-37.334-47.861-73.476-78.878-109.04h84.442c37.263 35.393 70.137 71.399 95.225 109.04z"/>
	<path d="m2017.4 1454.7h-100.79c-25.916-37.696-59.817-73.676-98.223-109.04h84.442c44.622 35.226 84.108 71.055 114.57 109.04z"/>
	<path d="m2136.7 1454.7h-100.79c-31.3-38.037-71.807-73.837-117.57-109.04h84.442c51.963 35.095 98.019 70.743 133.92 109.04z"/>
	<path d="m2255.9 1454.7h-100.79c-36.743-38.342-83.813-73.963-136.91-109.04h84.442c59.295 34.993 111.88 70.47 153.26 109.04z"/>
	<path d="m2375.2 1454.7h-100.79c-42.226-38.609-95.825-74.061-156.26-109.04h84.442c66.628 34.913 125.72 70.235 172.6 109.04z"/>
	<path d="m2494.5 1454.7h-100.79c-47.736-38.838-107.84-74.138-175.6-109.04h84.442c73.962 34.85 139.54 70.035 191.95 109.04z"/>
	<path d="m140.04 1587.4h-109.01c2.978-37.449 29.306-75.596 67.265-109.04h103.28c-34.972 33.68-58.825 71.767-61.537 109.04z"/>
	<path d="m269.04 1587.4h-109.01c2.663-37.242 26.064-75.314 60.486-109.04h103.28c-31.407 33.99-52.358 71.957-54.758 109.04z"/>
	<path d="m398.04 1587.4h-109.01c2.353-37.055 22.858-74.999 53.707-109.04h103.28c-27.794 34.33-45.885 72.126-47.979 109.04z"/>
	<path d="m527.04 1587.4h-109.01c2.046-36.889 19.699-74.654 46.928-109.04h103.28c-24.121 34.696-39.409 72.274-41.2 109.04z"/>
	<path d="m656.04 1587.4h-109.01c1.744-36.745 16.604-74.286 40.149-109.04h103.28c-20.373 35.075-32.931 72.4-34.421 109.04z"/>
	<path d="m785.04 1587.4h-109.01c1.445-36.622 13.586-73.905 33.37-109.04h103.28c-16.536 35.451-26.448 72.504-27.642 109.04z"/>
	<path d="m914.03 1587.4h-109.01c1.148-36.522 10.659-73.533 26.591-109.04h103.28c-12.602 35.796-19.964 72.585-20.863 109.04z"/>
	<path d="m1043 1587.4h-109.01c0.854-36.444 7.829-73.194 19.812-109.04h103.28c-8.575 36.081-13.478 72.644-14.084 109.04z"/>
	<path d="m1172 1587.4h-109.01c0.561-36.389 5.09-72.922 13.033-109.04h103.28c-4.471 36.272-6.99 72.68-7.304 109.04z"/>
	<path d="m1301 1587.4h-109.01c0.269-36.356 2.424-72.748 6.254-109.04h103.28c-0.323 36.346-0.503 72.693-0.526 109.04z"/>
	<path d="m1430 1587.4h-109.01c-0.023-36.347-0.203-72.694-0.525-109.04h103.28c3.829 36.292 5.984 72.683 6.253 109.04z"/>
	<path d="m1559 1587.4h-109.01c-0.314-36.36-2.834-72.767-7.304-109.04h103.28c7.941 36.117 12.471 72.651 13.032 109.04z"/>
	<path d="m1688 1587.4h-109.01c-0.606-36.396-5.509-72.959-14.083-109.04h103.28c11.983 35.845 18.958 72.596 19.812 109.04z"/>
	<path d="m1817 1587.4h-109.01c-0.899-36.455-8.261-73.243-20.862-109.04h103.28c15.932 35.507 25.443 72.518 26.591 109.04z"/>
	<path d="m1946 1587.4h-109.01c-1.194-36.536-11.106-73.589-27.641-109.04h103.28c19.783 35.134 31.925 72.417 33.369 109.04z"/>
	<path d="m2075 1587.4h-109.01c-1.491-36.64-14.048-73.964-34.42-109.04h103.28c23.545 34.754 38.405 72.295 40.149 109.04z"/>
	<path d="m2204 1587.4h-109.01c-1.791-36.766-17.079-74.344-41.199-109.04h103.28c27.229 34.385 44.881 72.151 46.928 109.04z"/>
	<path d="m2333 1587.4h-109.01c-2.094-36.913-20.185-74.709-47.978-109.04h103.28c30.849 34.041 51.354 71.985 53.706 109.04z"/>
	<path d="m2462 1587.4h-109.01c-2.4-37.082-23.352-75.05-54.757-109.04h103.28c34.421 33.726 57.822 71.798 60.485 109.04z"/>
	<path d="m2591 1587.4h-109.01c-2.711-37.272-26.564-75.36-61.536-109.04h103.28c37.958 33.443 64.286 71.591 67.264 109.04z"/>

</svg>
