<?xml version="1.0" encoding="UTF-8"?>
<!DOCTYPE svg  PUBLIC '-//W3C//DTD SVG 1.1//EN'  'http://www.w3.org/Graphics/SVG/1.1/DTD/svg11.dtd'>
<svg enable-background="new 0 0 2646 1635.55" version="1.1" viewBox="0 0 2646 1635.6" xml:space="preserve" xmlns="http://www.w3.org/2000/svg">

	<path d="m290.33 129.02h-96.137l-165.44-111.24h110.23c50.448 37.08 100.9 74.16 151.34 111.24z"/>
	<path d="m404.09 129.02h-96.137c-49.587-37.08-99.175-74.16-148.76-111.24h110.23c44.89 37.08 89.781 74.16 134.67 111.24z"/>
	<path d="m517.85 129.02h-96.137l-132.09-111.24h110.23c39.334 37.08 78.667 74.16 118 111.24z"/>
	<path d="m631.62 129.02h-96.137c-38.472-37.08-76.945-74.16-115.42-111.24h110.23c33.775 37.08 67.551 74.16 101.33 111.24z"/>
	<path d="m745.38 129.02h-96.137c-32.915-37.08-65.83-74.16-98.744-111.24h110.23c28.217 37.08 56.435 74.16 84.654 111.24z"/>
	<path d="m859.14 129.02h-96.137c-27.357-37.08-54.714-74.16-82.072-111.24h110.23c22.66 37.08 45.321 74.16 67.982 111.24z"/>
	<path d="m972.9 129.02h-96.137c-21.8-37.08-43.599-74.16-65.399-111.24h110.23l51.309 111.24z"/>
	<path d="m1086.7 129.02h-96.137l-48.726-111.24h110.23c11.545 37.08 23.091 74.16 34.636 111.24z"/>
	<path d="m1200.4 129.02h-96.137c-10.685-37.08-21.369-74.16-32.054-111.24h110.23c5.988 37.08 11.976 74.16 17.964 111.24z"/>
	<path d="m1314.2 129.02h-96.137l-15.381-111.24h110.23c0.43 37.08 0.861 74.16 1.291 111.24z"/>
	<path d="m1428 129.02h-96.137c0.43-37.08 0.861-74.16 1.292-111.24h110.23c-5.128 37.08-10.255 74.16-15.382 111.24z"/>
	<path d="m1541.7 129.02h-96.137c5.988-37.08 11.976-74.16 17.964-111.24h110.23c-10.685 37.08-21.37 74.16-32.054 111.24z"/>
	<path d="m1655.5 129.02h-96.137c11.546-37.08 23.091-74.16 34.637-111.24h110.23c-16.243 37.08-32.485 74.16-48.727 111.24z"/>
	<path d="m1769.2 129.02h-96.137l51.309-111.24h110.23c-21.8 37.08-43.599 74.16-65.399 111.24z"/>
	<path d="m1883 129.02h-96.137c22.661-37.08 45.321-74.16 67.982-111.24h110.23c-27.357 37.08-54.715 74.16-82.072 111.24z"/>
	<path d="m1996.8 129.02h-96.137c28.218-37.08 56.437-74.16 84.655-111.24h110.23c-32.915 37.08-65.83 74.16-98.745 111.24z"/>
	<path d="m2110.5 129.02h-96.137c33.776-37.08 67.552-74.16 101.33-111.24h110.23c-38.472 37.08-76.944 74.16-115.42 111.24z"/>
	<path d="m2224.3 129.02h-96.137c39.333-37.08 78.667-74.16 118-111.24h110.23c-44.031 37.08-88.061 74.16-132.09 111.24z"/>
	<path d="m2338 129.02h-96.137l134.67-111.24h110.23c-49.588 37.08-99.176 74.16-148.76 111.24z"/>
	<path d="m2451.8 129.02h-96.137c50.448-37.08 100.9-74.16 151.34-111.24h110.23l-165.44 111.24z"/>
	<path d="m474.46 264.36h-78.995l-165.44-111.24h93.084c50.449 37.08 100.9 74.16 151.35 111.24z"/>
	<path d="m567.94 264.36h-78.995c-49.587-37.08-99.175-74.16-148.76-111.24h93.084l134.67 111.24z"/>
	<path d="m661.42 264.36h-78.995l-132.09-111.24h93.084c39.334 37.08 78.668 74.16 118 111.24z"/>
	<path d="m754.9 264.36h-78.995c-38.472-37.08-76.945-74.16-115.42-111.24h93.084c33.777 37.08 67.552 74.16 101.33 111.24z"/>
	<path d="m848.37 264.36h-78.995c-32.915-37.08-65.83-74.16-98.744-111.24h93.084c28.219 37.08 56.437 74.16 84.655 111.24z"/>
	<path d="m941.85 264.36h-78.995c-27.357-37.08-54.714-74.16-82.072-111.24h93.084c22.662 37.08 45.323 74.16 67.983 111.24z"/>
	<path d="m1035.3 264.36h-78.995c-21.8-37.08-43.599-74.16-65.399-111.24h93.084c17.103 37.08 34.206 74.16 51.31 111.24z"/>
	<path d="m1128.8 264.36h-78.995l-48.726-111.24h93.084c11.545 37.08 23.091 74.16 34.637 111.24z"/>
	<path d="m1222.3 264.36h-78.995c-10.685-37.08-21.369-74.16-32.054-111.24h93.084c5.989 37.08 11.977 74.16 17.965 111.24z"/>
	<path d="m1315.8 264.36h-78.995l-15.381-111.24h93.084c0.431 37.08 0.861 74.16 1.292 111.24z"/>
	<path d="m1409.2 264.36h-78.995c0.431-37.08 0.861-74.16 1.292-111.24h93.084l-15.381 111.24z"/>
	<path d="m1502.7 264.36h-78.995c5.988-37.08 11.976-74.16 17.964-111.24h93.084c-10.684 37.08-21.368 74.16-32.053 111.24z"/>
	<path d="m1596.2 264.36h-78.995c11.546-37.08 23.091-74.16 34.637-111.24h93.084l-48.726 111.24z"/>
	<path d="m1689.7 264.36h-78.995l51.309-111.24h93.084c-21.798 37.08-43.598 74.16-65.398 111.24z"/>
	<path d="m1783.1 264.36h-78.995c22.661-37.08 45.321-74.16 67.982-111.24h93.084c-27.356 37.08-54.713 74.16-82.071 111.24z"/>
	<path d="m1876.6 264.36h-78.995c28.218-37.08 56.437-74.16 84.655-111.24h93.084c-32.914 37.08-65.829 74.16-98.744 111.24z"/>
	<path d="m1970.1 264.36h-78.995c33.776-37.08 67.552-74.16 101.33-111.24h93.084l-115.42 111.24z"/>
	<path d="m2063.6 264.36h-78.995c39.333-37.08 78.667-74.16 118-111.24h93.084c-44.03 37.08-88.06 74.16-132.09 111.24z"/>
	<path d="m2157.1 264.36h-78.995l134.67-111.24h93.084c-49.587 37.08-99.175 74.16-148.76 111.24z"/>
	<path d="m2250.5 264.36h-78.995c50.448-37.08 100.9-74.16 151.34-111.24h93.084c-55.144 37.08-110.29 74.16-165.43 111.24z"/>
	<path d="m658.6 399.7h-61.852l-165.44-111.24h75.942c50.448 37.08 100.9 74.16 151.34 111.24z"/>
	<path d="m731.79 399.7h-61.852c-49.587-37.08-99.175-74.16-148.76-111.24h75.942c44.89 37.08 89.781 74.16 134.67 111.24z"/>
	<path d="m804.99 399.7h-61.852l-132.09-111.24h75.942c39.333 37.08 78.666 74.16 118 111.24z"/>
	<path d="m878.18 399.7h-61.852c-38.472-37.08-76.945-74.16-115.42-111.24h75.942c33.775 37.08 67.551 74.16 101.33 111.24z"/>
	<path d="m951.37 399.7h-61.852c-32.915-37.08-65.83-74.16-98.744-111.24h75.942c28.217 37.08 56.436 74.16 84.654 111.24z"/>
	<path d="m1024.6 399.7h-61.852c-27.357-37.08-54.714-74.16-82.072-111.24h75.942c22.661 37.08 45.321 74.16 67.982 111.24z"/>
	<path d="m1097.8 399.7h-61.852c-21.8-37.08-43.599-74.16-65.399-111.24h75.942l51.309 111.24z"/>
	<path d="m1170.9 399.7h-61.852l-48.726-111.24h75.942c11.545 37.08 23.091 74.16 34.636 111.24z"/>
	<path d="m1244.1 399.7h-61.853c-10.685-37.08-21.369-74.16-32.054-111.24h75.942c5.989 37.08 11.977 74.16 17.965 111.24z"/>
	<path d="m1317.3 399.7h-61.852l-15.381-111.24h75.942c0.43 37.08 0.861 74.16 1.291 111.24z"/>
	<path d="m1390.5 399.7h-61.852c0.431-37.08 0.861-74.16 1.292-111.24h75.942c-5.128 37.08-10.255 74.16-15.382 111.24z"/>
	<path d="m1463.7 399.7h-61.853c5.988-37.08 11.976-74.16 17.964-111.24h75.942c-10.684 37.08-21.368 74.16-32.053 111.24z"/>
	<path d="m1536.9 399.7h-61.852c11.546-37.08 23.091-74.16 34.637-111.24h75.942c-16.242 37.08-32.485 74.16-48.727 111.24z"/>
	<path d="m1610.1 399.7h-61.852l51.309-111.24h75.942c-21.799 37.08-43.599 74.16-65.399 111.24z"/>
	<path d="m1683.3 399.7h-61.853c22.661-37.08 45.321-74.16 67.982-111.24h75.942l-82.071 111.24z"/>
	<path d="m1756.5 399.7h-61.852c28.218-37.08 56.436-74.16 84.655-111.24h75.942c-32.916 37.08-65.831 74.16-98.745 111.24z"/>
	<path d="m1829.7 399.7h-61.852c33.776-37.08 67.552-74.16 101.33-111.24h75.942c-38.473 37.08-76.945 74.16-115.42 111.24z"/>
	<path d="m1902.9 399.7h-61.852c39.333-37.08 78.667-74.16 118-111.24h75.942c-44.031 37.08-88.061 74.16-132.09 111.24z"/>
	<path d="m1976.1 399.7h-61.852l134.67-111.24h75.942c-49.589 37.08-99.176 74.16-148.76 111.24z"/>
	<path d="m2049.3 399.7h-61.852c50.448-37.08 100.9-74.16 151.34-111.24h75.942l-165.44 111.24z"/>
	<path d="m842.74 535.04h-44.71l-165.44-111.24h58.8c50.448 37.08 100.9 74.16 151.34 111.24z"/>
	<path d="m895.65 535.04h-44.71c-49.587-37.08-99.175-74.16-148.76-111.24h58.8c44.89 37.08 89.781 74.16 134.67 111.24z"/>
	<path d="m948.55 535.04h-44.71l-132.09-111.24h58.8c39.333 37.08 78.666 74.16 118 111.24z"/>
	<path d="m1001.5 535.04h-44.71c-38.472-37.08-76.945-74.16-115.42-111.24h58.8c33.775 37.08 67.551 74.16 101.33 111.24z"/>
	<path d="m1054.4 535.04h-44.71c-32.915-37.08-65.83-74.16-98.744-111.24h58.8c28.217 37.08 56.435 74.16 84.654 111.24z"/>
	<path d="m1107.3 535.04h-44.71c-27.357-37.08-54.714-74.16-82.072-111.24h58.8c22.66 37.08 45.321 74.16 67.982 111.24z"/>
	<path d="m1160.2 535.04h-44.71c-21.8-37.08-43.599-74.16-65.399-111.24h58.8c17.102 37.08 34.205 74.16 51.309 111.24z"/>
	<path d="m1213.1 535.04h-44.71l-48.726-111.24h58.8c11.544 37.08 23.09 74.16 34.636 111.24z"/>
	<path d="m1266 535.04h-44.71c-10.685-37.08-21.369-74.16-32.054-111.24h58.8c5.987 37.08 11.975 74.16 17.964 111.24z"/>
	<path d="m1318.9 535.04h-44.71l-15.381-111.24h58.8c0.43 37.08 0.86 74.16 1.291 111.24z"/>
	<path d="m1371.8 535.04h-44.71c0.431-37.08 0.861-74.16 1.292-111.24h58.8c-5.128 37.08-10.255 74.16-15.382 111.24z"/>
	<path d="m1424.7 535.04h-44.71c5.988-37.08 11.976-74.16 17.964-111.24h58.8c-10.685 37.08-21.37 74.16-32.054 111.24z"/>
	<path d="m1477.6 535.04h-44.71c11.546-37.08 23.091-74.16 34.637-111.24h58.8c-16.243 37.08-32.485 74.16-48.727 111.24z"/>
	<path d="m1530.5 535.04h-44.71l51.309-111.24h58.8c-21.8 37.08-43.6 74.16-65.399 111.24z"/>
	<path d="m1583.4 535.04h-44.71c22.661-37.08 45.321-74.16 67.982-111.24h58.8c-27.358 37.08-54.715 74.16-82.072 111.24z"/>
	<path d="m1636.3 535.04h-44.71c28.218-37.08 56.437-74.16 84.655-111.24h58.8c-32.916 37.08-65.831 74.16-98.745 111.24z"/>
	<path d="m1689.3 535.04h-44.71c33.776-37.08 67.552-74.16 101.33-111.24h58.8c-38.473 37.08-76.945 74.16-115.42 111.24z"/>
	<path d="m1742.2 535.04h-44.71c39.333-37.08 78.667-74.16 118-111.24h58.8c-44.031 37.08-88.06 74.16-132.09 111.24z"/>
	<path d="m1795.1 535.04h-44.71l134.67-111.24h58.8c-49.588 37.08-99.176 74.16-148.76 111.24z"/>
	<path d="m1848 535.04h-44.71c50.448-37.08 100.9-74.16 151.34-111.24h58.8l-165.44 111.24z"/>
	<path d="m1026.9 670.38h-27.568l-165.44-111.24h41.657c50.449 37.08 100.9 74.16 151.35 111.24z"/>
	<path d="m1059.5 670.38h-27.568c-49.587-37.08-99.175-74.16-148.76-111.24h41.657c44.892 37.08 89.782 74.16 134.67 111.24z"/>
	<path d="m1092.1 670.38h-27.568l-132.09-111.24h41.657c39.335 37.08 78.668 74.16 118 111.24z"/>
	<path d="m1124.7 670.38h-27.568c-38.472-37.08-76.945-74.16-115.42-111.24h41.657c33.777 37.08 67.552 74.16 101.33 111.24z"/>
	<path d="m1157.4 670.38h-27.568c-32.915-37.08-65.829-74.16-98.744-111.24h41.657c28.219 37.08 56.437 74.16 84.655 111.24z"/>
	<path d="m1190 670.38h-27.568c-27.357-37.08-54.714-74.16-82.072-111.24h41.657c22.662 37.08 45.322 74.16 67.983 111.24z"/>
	<path d="m1222.6 670.38h-27.568c-21.8-37.08-43.599-74.16-65.399-111.24h41.657c17.104 37.08 34.207 74.16 51.31 111.24z"/>
	<path d="m1255.2 670.38h-27.568l-48.726-111.24h41.657c11.546 37.08 23.091 74.16 34.637 111.24z"/>
	<path d="m1287.9 670.38h-27.568c-10.685-37.08-21.369-74.16-32.054-111.24h41.657c5.989 37.08 11.977 74.16 17.965 111.24z"/>
	<path d="m1320.5 670.38h-27.568l-15.381-111.24h41.657c0.431 37.08 0.861 74.16 1.292 111.24z"/>
	<path d="m1353.1 670.38h-27.568c0.43-37.08 0.861-74.16 1.292-111.24h41.657l-15.381 111.24z"/>
	<path d="m1385.7 670.38h-27.568c5.988-37.08 11.976-74.16 17.964-111.24h41.657c-10.684 37.08-21.369 74.16-32.053 111.24z"/>
	<path d="m1418.3 670.38h-27.568c11.546-37.08 23.091-74.16 34.637-111.24h41.657l-48.726 111.24z"/>
	<path d="m1451 670.38h-27.568l51.309-111.24h41.657c-21.799 37.08-43.599 74.16-65.398 111.24z"/>
	<path d="m1483.6 670.38h-27.568c22.661-37.08 45.321-74.16 67.982-111.24h41.657l-82.071 111.24z"/>
	<path d="m1516.2 670.38h-27.568c28.218-37.08 56.437-74.16 84.655-111.24h41.657c-32.915 37.08-65.829 74.16-98.744 111.24z"/>
	<path d="m1548.8 670.38h-27.568c33.776-37.08 67.552-74.16 101.33-111.24h41.657l-115.42 111.24z"/>
	<path d="m1581.4 670.38h-27.568c39.333-37.08 78.667-74.16 118-111.24h41.657c-44.03 37.08-88.059 74.16-132.09 111.24z"/>
	<path d="m1614.1 670.38h-27.568l134.67-111.24h41.657c-49.588 37.08-99.175 74.16-148.76 111.24z"/>
	<path d="m1646.7 670.38h-27.568c50.448-37.08 100.9-74.16 151.34-111.24h41.657c-55.145 37.08-110.29 74.16-165.43 111.24z"/>
	<path d="m1211 805.72h-10.426l-165.44-111.24h24.515c50.449 37.08 100.9 74.16 151.35 111.24z"/>
	<path d="m1223.3 805.72h-10.426c-49.587-37.08-99.175-74.16-148.76-111.24h24.515l134.67 111.24z"/>
	<path d="m1235.7 805.72h-10.426l-132.09-111.24h24.515c39.334 37.08 78.668 74.16 118 111.24z"/>
	<path d="m1248 805.72h-10.426c-38.472-37.08-76.945-74.16-115.42-111.24h24.515c33.776 37.08 67.552 74.16 101.33 111.24z"/>
	<path d="m1260.4 805.72h-10.426c-32.915-37.08-65.829-74.16-98.744-111.24h24.515c28.218 37.08 56.436 74.16 84.655 111.24z"/>
	<path d="m1272.7 805.72h-10.426c-27.357-37.08-54.714-74.16-82.072-111.24h24.515l67.983 111.24z"/>
	<path d="m1285 805.72h-10.426c-21.8-37.08-43.599-74.16-65.399-111.24h24.515c17.103 37.08 34.206 74.16 51.31 111.24z"/>
	<path d="m1297.4 805.72h-10.426l-48.726-111.24h24.515c11.546 37.08 23.092 74.16 34.637 111.24z"/>
	<path d="m1309.7 805.72h-10.426c-10.685-37.08-21.369-74.16-32.054-111.24h24.515c5.989 37.08 11.977 74.16 17.965 111.24z"/>
	<path d="m1322 805.72h-10.426l-15.381-111.24h24.515c0.431 37.08 0.862 74.16 1.292 111.24z"/>
	<path d="m1334.4 805.72h-10.426c0.431-37.08 0.861-74.16 1.292-111.24h24.515l-15.381 111.24z"/>
	<path d="m1346.7 805.72h-10.426c5.988-37.08 11.976-74.16 17.964-111.24h24.515c-10.684 37.08-21.368 74.16-32.053 111.24z"/>
	<path d="m1359.1 805.72h-10.426c11.546-37.08 23.091-74.16 34.637-111.24h24.515l-48.726 111.24z"/>
	<path d="m1371.4 805.72h-10.426l51.309-111.24h24.515c-21.799 37.08-43.598 74.16-65.398 111.24z"/>
	<path d="m1383.7 805.72h-10.426c22.661-37.08 45.321-74.16 67.982-111.24h24.515l-82.071 111.24z"/>
	<path d="m1396.1 805.72h-10.426c28.218-37.08 56.437-74.16 84.655-111.24h24.515c-32.915 37.08-65.829 74.16-98.744 111.24z"/>
	<path d="m1408.4 805.72h-10.426c33.776-37.08 67.552-74.16 101.33-111.24h24.515l-115.42 111.24z"/>
	<path d="m1420.7 805.72h-10.426c39.333-37.08 78.667-74.16 118-111.24h24.515c-44.03 37.08-88.06 74.16-132.09 111.24z"/>
	<path d="m1433.1 805.72h-10.426l134.67-111.24h24.515c-49.588 37.08-99.175 74.16-148.76 111.24z"/>
	<path d="m1445.4 805.72h-10.426c50.448-37.08 100.9-74.16 151.34-111.24h24.515c-55.144 37.08-110.29 74.16-165.43 111.24z"/>
	<path d="m1059.7 941.07h-24.515l165.44-111.24h10.426c-50.449 37.08-100.9 74.16-151.35 111.24z"/>
	<path d="m1088.7 941.07h-24.515c49.587-37.08 99.175-74.16 148.76-111.24h10.426l-134.67 111.24z"/>
	<path d="m1117.7 941.07h-24.515l132.09-111.24h10.426c-39.334 37.08-78.668 74.16-118 111.24z"/>
	<path d="m1146.7 941.07h-24.515c38.472-37.08 76.945-74.16 115.42-111.24h10.426c-33.776 37.08-67.552 74.16-101.33 111.24z"/>
	<path d="m1175.7 941.07h-24.515c32.915-37.08 65.829-74.16 98.744-111.24h10.426c-28.219 37.08-56.437 74.16-84.655 111.24z"/>
	<path d="m1204.7 941.07h-24.515c27.357-37.08 54.714-74.16 82.072-111.24h10.426c-22.662 37.08-45.323 74.16-67.983 111.24z"/>
	<path d="m1233.7 941.07h-24.515c21.8-37.08 43.599-74.16 65.399-111.24h10.426c-17.104 37.08-34.207 74.16-51.31 111.24z"/>
	<path d="m1262.7 941.07h-24.515l48.726-111.24h10.426c-11.546 37.08-23.092 74.16-34.637 111.24z"/>
	<path d="m1291.7 941.07h-24.515c10.685-37.08 21.369-74.16 32.054-111.24h10.426c-5.989 37.08-11.977 74.16-17.965 111.24z"/>
	<path d="m1320.8 941.07h-24.515l15.381-111.24h10.426c-0.431 37.08-0.862 74.16-1.292 111.24z"/>
	<path d="m1349.8 941.07h-24.515c-0.431-37.08-0.861-74.16-1.292-111.24h10.426l15.381 111.24z"/>
	<path d="m1378.8 941.07h-24.515c-5.988-37.08-11.976-74.16-17.964-111.24h10.426c10.684 37.08 21.368 74.16 32.053 111.24z"/>
	<path d="m1407.8 941.07h-24.515c-11.546-37.08-23.091-74.16-34.637-111.24h10.426l48.726 111.24z"/>
	<path d="m1436.8 941.07h-24.515l-51.309-111.24h10.426c21.799 37.08 43.598 74.16 65.398 111.24z"/>
	<path d="m1465.8 941.07h-24.515c-22.661-37.08-45.321-74.16-67.982-111.24h10.426c27.356 37.08 54.713 74.16 82.071 111.24z"/>
	<path d="m1494.8 941.07h-24.515c-28.218-37.08-56.436-74.16-84.655-111.24h10.426c32.915 37.08 65.829 74.16 98.744 111.24z"/>
	<path d="m1523.8 941.07h-24.515c-33.776-37.08-67.552-74.16-101.33-111.24h10.426c38.471 37.08 76.943 74.16 115.42 111.24z"/>
	<path d="m1552.8 941.07h-24.515c-39.333-37.08-78.667-74.16-118-111.24h10.426c44.029 37.08 88.059 74.16 132.09 111.24z"/>
	<path d="m1581.8 941.07h-24.515l-134.67-111.24h10.426c49.587 37.08 99.174 74.16 148.76 111.24z"/>
	<path d="m1610.8 941.07h-24.515c-50.448-37.08-100.9-74.16-151.34-111.24h10.426c55.144 37.08 110.29 74.16 165.43 111.24z"/>
	<path d="m875.53 1076.4h-41.657l165.44-111.24h27.568c-50.449 37.081-100.9 74.161-151.35 111.24z"/>
	<path d="m924.82 1076.4h-41.657c49.587-37.08 99.175-74.16 148.76-111.24h27.568c-44.892 37.081-89.782 74.161-134.67 111.24z"/>
	<path d="m974.12 1076.4h-41.657l132.09-111.24h27.568c-39.334 37.081-78.667 74.161-118 111.24z"/>
	<path d="m1023.4 1076.4h-41.657c38.472-37.08 76.945-74.16 115.42-111.24h27.568c-33.777 37.081-67.552 74.161-101.33 111.24z"/>
	<path d="m1072.7 1076.4h-41.657c32.915-37.08 65.829-74.16 98.744-111.24h27.568c-28.218 37.081-56.436 74.161-84.655 111.24z"/>
	<path d="m1122 1076.4h-41.657c27.357-37.08 54.714-74.16 82.072-111.24h27.568c-22.662 37.081-45.322 74.161-67.983 111.24z"/>
	<path d="m1171.3 1076.4h-41.657c21.8-37.08 43.599-74.16 65.399-111.24h27.568c-17.104 37.081-34.207 74.161-51.31 111.24z"/>
	<path d="m1220.6 1076.4h-41.657l48.726-111.24h27.568c-11.546 37.081-23.091 74.161-34.637 111.24z"/>
	<path d="m1269.9 1076.4h-41.657c10.685-37.08 21.369-74.16 32.054-111.24h27.568c-5.989 37.081-11.977 74.161-17.965 111.24z"/>
	<path d="m1319.2 1076.4h-41.657l15.381-111.24h27.568c-0.431 37.081-0.861 74.161-1.292 111.24z"/>
	<path d="m1368.5 1076.4h-41.657c-0.431-37.08-0.861-74.16-1.292-111.24h27.568c5.127 37.081 10.254 74.161 15.381 111.24z"/>
	<path d="m1417.8 1076.4h-41.657c-5.988-37.08-11.976-74.16-17.964-111.24h27.568c10.683 37.081 21.368 74.161 32.053 111.24z"/>
	<path d="m1467.1 1076.4h-41.657c-11.546-37.08-23.091-74.16-34.637-111.24h27.568c16.242 37.081 32.484 74.161 48.726 111.24z"/>
	<path d="m1516.4 1076.4h-41.657l-51.309-111.24h27.568c21.798 37.081 43.598 74.161 65.398 111.24z"/>
	<path d="m1565.7 1076.4h-41.657c-22.661-37.08-45.321-74.16-67.982-111.24h27.568c27.357 37.081 54.714 74.161 82.071 111.24z"/>
	<path d="m1614.9 1076.4h-41.657c-28.218-37.08-56.437-74.16-84.655-111.24h27.568c32.915 37.081 65.829 74.161 98.744 111.24z"/>
	<path d="m1664.2 1076.4h-41.657c-33.776-37.08-67.552-74.16-101.33-111.24h27.568c38.471 37.081 76.943 74.161 115.42 111.24z"/>
	<path d="m1713.5 1076.4h-41.657c-39.333-37.08-78.667-74.16-118-111.24h27.568c44.03 37.081 88.059 74.161 132.09 111.24z"/>
	<path d="m1762.8 1076.4h-41.657l-134.67-111.24h27.568c49.587 37.081 99.174 74.161 148.76 111.24z"/>
	<path d="m1812.1 1076.4h-41.657c-50.448-37.08-100.9-74.16-151.34-111.24h27.568c55.145 37.081 110.29 74.161 165.43 111.24z"/>
	<path d="m691.39 1211.7h-58.8l165.44-111.24h44.71c-50.448 37.08-100.9 74.16-151.34 111.24z"/>
	<path d="m760.97 1211.7h-58.8c49.587-37.08 99.175-74.16 148.76-111.24h44.71c-44.89 37.08-89.781 74.16-134.67 111.24z"/>
	<path d="m830.55 1211.7h-58.8l132.09-111.24h44.71c-39.333 37.08-78.666 74.16-118 111.24z"/>
	<path d="m900.13 1211.7h-58.8c38.472-37.08 76.945-74.16 115.42-111.24h44.71c-33.775 37.08-67.551 74.16-101.33 111.24z"/>
	<path d="m969.71 1211.7h-58.8c32.915-37.08 65.83-74.16 98.744-111.24h44.71c-28.218 37.08-56.436 74.16-84.654 111.24z"/>
	<path d="m1039.3 1211.7h-58.8c27.357-37.08 54.714-74.16 82.072-111.24h44.71c-22.66 37.08-45.321 74.16-67.982 111.24z"/>
	<path d="m1108.9 1211.7h-58.8c21.8-37.08 43.599-74.16 65.399-111.24h44.71l-51.309 111.24z"/>
	<path d="m1178.5 1211.7h-58.8l48.726-111.24h44.71c-11.545 37.08-23.091 74.16-34.636 111.24z"/>
	<path d="m1248 1211.7h-58.8c10.685-37.08 21.369-74.16 32.054-111.24h44.71c-5.988 37.08-11.976 74.16-17.964 111.24z"/>
	<path d="m1317.6 1211.7h-58.8l15.381-111.24h44.71c-0.43 37.08-0.86 74.16-1.291 111.24z"/>
	<path d="m1387.2 1211.7h-58.8c-0.431-37.08-0.861-74.16-1.292-111.24h44.71c5.128 37.08 10.255 74.16 15.382 111.24z"/>
	<path d="m1456.8 1211.7h-58.8c-5.988-37.08-11.976-74.16-17.964-111.24h44.71c10.685 37.08 21.37 74.16 32.054 111.24z"/>
	<path d="m1526.3 1211.7h-58.8c-11.546-37.08-23.091-74.16-34.637-111.24h44.71c16.243 37.08 32.485 74.16 48.727 111.24z"/>
	<path d="m1595.9 1211.7h-58.8l-51.309-111.24h44.71c21.799 37.08 43.599 74.16 65.399 111.24z"/>
	<path d="m1665.5 1211.7h-58.8c-22.661-37.08-45.321-74.16-67.982-111.24h44.71c27.358 37.08 54.715 74.16 82.072 111.24z"/>
	<path d="m1735.1 1211.7h-58.8c-28.218-37.08-56.437-74.16-84.655-111.24h44.71c32.915 37.08 65.83 74.16 98.745 111.24z"/>
	<path d="m1804.7 1211.7h-58.8c-33.776-37.08-67.552-74.16-101.33-111.24h44.71c38.472 37.08 76.944 74.16 115.42 111.24z"/>
	<path d="m1874.2 1211.7h-58.8c-39.333-37.08-78.667-74.16-118-111.24h44.71c44.031 37.08 88.06 74.16 132.09 111.24z"/>
	<path d="m1943.8 1211.7h-58.8l-134.67-111.24h44.71c49.588 37.08 99.176 74.16 148.76 111.24z"/>
	<path d="m2013.4 1211.7h-58.8c-50.448-37.08-100.9-74.16-151.34-111.24h44.71c55.146 37.08 110.29 74.16 165.44 111.24z"/>
	<path d="m507.26 1347.1h-75.942l165.44-111.24h61.852c-50.448 37.08-100.9 74.16-151.34 111.24z"/>
	<path d="m597.12 1347.1h-75.942c49.587-37.08 99.175-74.16 148.76-111.24h61.852c-44.89 37.08-89.781 74.16-134.67 111.24z"/>
	<path d="m686.99 1347.1h-75.942l132.09-111.24h61.852c-39.334 37.08-78.667 74.16-118 111.24z"/>
	<path d="m776.85 1347.1h-75.942c38.472-37.08 76.945-74.16 115.42-111.24h61.852c-33.775 37.08-67.551 74.16-101.33 111.24z"/>
	<path d="m866.72 1347.1h-75.942c32.915-37.08 65.83-74.16 98.744-111.24h61.852c-28.217 37.08-56.436 74.16-84.654 111.24z"/>
	<path d="m956.58 1347.1h-75.942c27.357-37.08 54.714-74.16 82.072-111.24h61.852c-22.661 37.08-45.321 74.16-67.982 111.24z"/>
	<path d="m1046.4 1347.1h-75.942c21.8-37.08 43.599-74.16 65.399-111.24h61.852l-51.309 111.24z"/>
	<path d="m1136.3 1347.1h-75.942l48.726-111.24h61.852c-11.544 37.08-23.09 74.16-34.636 111.24z"/>
	<path d="m1226.2 1347.1h-75.942c10.685-37.08 21.369-74.16 32.054-111.24h61.853c-5.989 37.08-11.977 74.16-17.965 111.24z"/>
	<path d="m1316 1347.1h-75.942l15.381-111.24h61.852c-0.43 37.08-0.861 74.16-1.291 111.24z"/>
	<path d="m1405.9 1347.1h-75.942c-0.43-37.08-0.861-74.16-1.292-111.24h61.852c5.128 37.08 10.255 74.16 15.382 111.24z"/>
	<path d="m1495.8 1347.1h-75.942c-5.988-37.08-11.976-74.16-17.964-111.24h61.853c10.684 37.08 21.368 74.16 32.053 111.24z"/>
	<path d="m1585.6 1347.1h-75.942c-11.546-37.08-23.091-74.16-34.637-111.24h61.852c16.242 37.08 32.485 74.16 48.727 111.24z"/>
	<path d="m1675.5 1347.1h-75.942l-51.309-111.24h61.852c21.8 37.08 43.6 74.16 65.399 111.24z"/>
	<path d="m1765.4 1347.1h-75.942c-22.661-37.08-45.321-74.16-67.982-111.24h61.853l82.071 111.24z"/>
	<path d="m1855.2 1347.1h-75.942c-28.218-37.08-56.436-74.16-84.655-111.24h61.852c32.915 37.08 65.83 74.16 98.745 111.24z"/>
	<path d="m1945.1 1347.1h-75.942c-33.776-37.08-67.552-74.16-101.33-111.24h61.852c38.472 37.08 76.944 74.16 115.42 111.24z"/>
	<path d="m2035 1347.1h-75.942c-39.333-37.08-78.667-74.16-118-111.24h61.852l132.09 111.24z"/>
	<path d="m2124.8 1347.1h-75.942l-134.67-111.24h61.852c49.588 37.08 99.175 74.16 148.76 111.24z"/>
	<path d="m2214.7 1347.1h-75.942c-50.448-37.08-100.9-74.16-151.34-111.24h61.852l165.44 111.24z"/>
	<path d="m323.12 1482.4h-93.084l165.44-111.24h78.995c-50.45 37.08-100.9 74.16-151.35 111.24z"/>
	<path d="m433.27 1482.4h-93.084c49.587-37.08 99.175-74.16 148.76-111.24h78.995l-134.67 111.24z"/>
	<path d="m543.42 1482.4h-93.084l132.09-111.24h78.995c-39.334 37.08-78.668 74.16-118 111.24z"/>
	<path d="m653.57 1482.4h-93.084c38.472-37.08 76.945-74.16 115.42-111.24h78.995c-33.777 37.08-67.552 74.16-101.33 111.24z"/>
	<path d="m763.72 1482.4h-93.084c32.915-37.08 65.83-74.16 98.744-111.24h78.995c-28.219 37.08-56.437 74.16-84.655 111.24z"/>
	<path d="m873.87 1482.4h-93.084c27.357-37.08 54.714-74.16 82.072-111.24h78.995l-67.983 111.24z"/>
	<path d="m984.02 1482.4h-93.084c21.8-37.08 43.599-74.16 65.399-111.24h78.995c-17.104 37.08-34.207 74.16-51.31 111.24z"/>
	<path d="m1094.2 1482.4h-93.084l48.726-111.24h78.995c-11.546 37.08-23.092 74.16-34.637 111.24z"/>
	<path d="m1204.3 1482.4h-93.084c10.685-37.08 21.369-74.16 32.054-111.24h78.995c-5.989 37.08-11.977 74.16-17.965 111.24z"/>
	<path d="m1314.5 1482.4h-93.084l15.381-111.24h78.995c-0.431 37.08-0.861 74.16-1.292 111.24z"/>
	<path d="m1424.6 1482.4h-93.084c-0.431-37.08-0.861-74.16-1.292-111.24h78.995l15.381 111.24z"/>
	<path d="m1534.8 1482.4h-93.084c-5.988-37.08-11.976-74.16-17.964-111.24h78.995c10.684 37.08 21.368 74.16 32.053 111.24z"/>
	<path d="m1644.9 1482.4h-93.084c-11.546-37.08-23.091-74.16-34.637-111.24h78.995c16.241 37.08 32.483 74.16 48.726 111.24z"/>
	<path d="m1755.1 1482.4h-93.084l-51.309-111.24h78.995c21.799 37.08 43.599 74.16 65.398 111.24z"/>
	<path d="m1865.2 1482.4h-93.084c-22.661-37.08-45.321-74.16-67.982-111.24h78.995l82.071 111.24z"/>
	<path d="m1975.4 1482.4h-93.084c-28.218-37.08-56.437-74.16-84.655-111.24h78.995c32.914 37.08 65.829 74.16 98.744 111.24z"/>
	<path d="m2085.5 1482.4h-93.084c-33.776-37.08-67.552-74.16-101.33-111.24h78.995l115.42 111.24z"/>
	<path d="m2195.7 1482.4h-93.084c-39.333-37.08-78.667-74.16-118-111.24h78.995c44.029 37.08 88.059 74.16 132.09 111.24z"/>
	<path d="m2305.8 1482.4h-93.084l-134.67-111.24h78.995c49.587 37.08 99.175 74.16 148.76 111.24z"/>
	<path d="m2416 1482.4h-93.084c-50.448-37.08-100.9-74.16-151.34-111.24h78.995c55.144 37.08 110.29 74.16 165.43 111.24z"/>
	<path d="m138.98 1617.8h-110.23l165.44-111.24h96.137c-50.448 37.08-100.9 74.16-151.34 111.24z"/>
	<path d="m269.42 1617.8h-110.23c49.587-37.08 99.175-74.16 148.76-111.24h96.137c-44.891 37.08-89.782 74.16-134.67 111.24z"/>
	<path d="m399.85 1617.8h-110.23l132.09-111.24h96.137c-39.333 37.08-78.666 74.16-118 111.24z"/>
	<path d="m530.29 1617.8h-110.23c38.472-37.08 76.945-74.16 115.42-111.24h96.137c-33.775 37.08-67.551 74.16-101.33 111.24z"/>
	<path d="m660.72 1617.8h-110.23c32.915-37.08 65.83-74.16 98.744-111.24h96.137c-28.218 37.08-56.436 74.16-84.654 111.24z"/>
	<path d="m791.16 1617.8h-110.23c27.357-37.08 54.714-74.16 82.072-111.24h96.137c-22.661 37.08-45.322 74.16-67.982 111.24z"/>
	<path d="m921.59 1617.8h-110.23c21.8-37.08 43.599-74.16 65.399-111.24h96.137c-17.102 37.08-34.205 74.16-51.309 111.24z"/>
	<path d="m1052 1617.8h-110.23l48.726-111.24h96.137c-11.544 37.08-23.09 74.16-34.636 111.24z"/>
	<path d="m1182.5 1617.8h-110.23c10.685-37.08 21.369-74.16 32.054-111.24h96.137c-5.988 37.08-11.976 74.16-17.964 111.24z"/>
	<path d="m1312.9 1617.8h-110.23l15.381-111.24h96.137c-0.43 37.08-0.861 74.16-1.291 111.24z"/>
	<path d="m1443.3 1617.8h-110.23c-0.431-37.08-0.861-74.16-1.292-111.24h96.137c5.128 37.08 10.255 74.16 15.382 111.24z"/>
	<path d="m1573.8 1617.8h-110.23c-5.988-37.08-11.976-74.16-17.964-111.24h96.137c10.684 37.08 21.369 74.16 32.054 111.24z"/>
	<path d="m1704.2 1617.8h-110.23c-11.546-37.08-23.091-74.16-34.637-111.24h96.137c16.243 37.08 32.485 74.16 48.727 111.24z"/>
	<path d="m1834.6 1617.8h-110.23l-51.309-111.24h96.137c21.8 37.08 43.599 74.16 65.399 111.24z"/>
	<path d="m1965.1 1617.8h-110.23c-22.661-37.08-45.321-74.16-67.982-111.24h96.137c27.357 37.08 54.715 74.16 82.072 111.24z"/>
	<path d="m2095.5 1617.8h-110.23c-28.218-37.08-56.437-74.16-84.655-111.24h96.137c32.915 37.08 65.83 74.16 98.745 111.24z"/>
	<path d="m2225.9 1617.8h-110.23c-33.776-37.08-67.552-74.16-101.33-111.24h96.137c38.473 37.08 76.945 74.16 115.42 111.24z"/>
	<path d="m2356.4 1617.8h-110.23c-39.333-37.08-78.667-74.16-118-111.24h96.137l132.09 111.24z"/>
	<path d="m2486.8 1617.8h-110.23l-134.67-111.24h96.137c49.588 37.08 99.176 74.16 148.76 111.24z"/>
	<path d="m2617.2 1617.8h-110.23c-50.448-37.08-100.9-74.16-151.34-111.24h96.137l165.44 111.24z"/>

</svg>
